<svg width="30" height="30" viewBox="0 0 30 30" fill="none" xmlns="http://www.w3.org/2000/svg">
<path d="M18.6749 6.4875C19.1475 5.94285 19.5078 5.31021 19.7352 4.62592C19.9626 3.94163 20.0526 3.21916 20 2.5C18.5492 2.61711 17.2025 3.29945 16.25 4.4C15.7938 4.92747 15.4482 5.5411 15.2335 6.20456C15.0188 6.86801 14.9393 7.5678 15 8.2625C15.7076 8.2684 16.4072 8.11137 17.0444 7.80357C17.6817 7.49578 18.2396 7.04547 18.6749 6.4875ZM21.8249 15.7875C21.8333 14.8297 22.0856 13.8898 22.558 13.0565C23.0304 12.2232 23.7074 11.5241 24.525 11.025C24.009 10.2815 23.3269 9.66854 22.5328 9.23459C21.7386 8.80064 20.8543 8.55769 19.95 8.525C18 8.325 16.2 9.6625 15.1625 9.6625C14.125 9.6625 12.6625 8.55 11.0375 8.575C9.97511 8.60999 8.93998 8.91973 8.03301 9.47398C7.12604 10.0282 6.37821 10.8081 5.86245 11.7375C3.66245 15.5625 5.29995 21.25 7.49995 24.3375C8.49995 25.85 9.74995 27.5625 11.4 27.5C13.05 27.4375 13.5875 26.475 15.4999 26.475C17.4124 26.475 18 27.5 19.625 27.4625C21.25 27.425 22.4 25.9125 23.45 24.4C24.1938 23.3019 24.7748 22.102 25.1749 20.8375C24.1843 20.415 23.3391 19.7116 22.7437 18.8141C22.1484 17.9167 21.829 16.8645 21.8249 15.7875Z" fill="black"/>
</svg>
