<svg width="24" height="24" viewBox="0 0 24 24" fill="none" xmlns="http://www.w3.org/2000/svg">
<g clip-path="url(#clip0_3_16077)">
<path d="M23.4414 12.2242C23.4414 11.2409 23.3616 10.5234 23.1889 9.7793H11.9609V14.2173H18.5515C18.4187 15.3202 17.7012 16.9811 16.1066 18.0972L16.0843 18.2458L19.6343 20.996L19.8803 21.0205C22.1391 18.9343 23.4414 15.8649 23.4414 12.2242Z" fill="#4285F4"/>
<path d="M11.9605 23.9179C15.1893 23.9179 17.9 22.8548 19.8799 21.0212L16.1062 18.0978C15.0964 18.8021 13.741 19.2937 11.9605 19.2937C8.79812 19.2937 6.11406 17.2076 5.15727 14.3242L5.01703 14.3361L1.32562 17.193L1.27734 17.3272C3.24387 21.2337 7.28328 23.9179 11.9605 23.9179Z" fill="#34A853"/>
<path d="M5.15746 14.3248C4.90501 13.5807 4.7589 12.7834 4.7589 11.9596C4.7589 11.1357 4.90501 10.3385 5.14418 9.59439L5.1375 9.43592L1.39982 6.5332L1.27753 6.59137C0.467022 8.21247 0.00195312 10.0329 0.00195312 11.9596C0.00195312 13.8863 0.467022 15.7066 1.27753 17.3277L5.15746 14.3248Z" fill="#FBBC05"/>
<path d="M11.9606 4.62402C14.2061 4.62402 15.7209 5.594 16.5846 6.40459L19.9597 3.10927C17.8869 1.18259 15.1894 0 11.9606 0C7.28331 0 3.24388 2.68405 1.27734 6.59054L5.14401 9.59356C6.11409 6.71018 8.79816 4.62402 11.9606 4.62402Z" fill="#EB4335"/>
</g>
<defs>
<clipPath id="clip0_3_16077">
<rect width="23.4528" height="24" fill="white"/>
</clipPath>
</defs>
</svg>
