<svg width="25" height="25" viewBox="0 0 25 25" fill="none" xmlns="http://www.w3.org/2000/svg">
<path d="M25 5.52948C24.0596 5.93964 23.065 6.21223 22.0469 6.33886C23.1198 5.70234 23.922 4.69442 24.3016 3.50604C23.2969 4.10188 22.1977 4.52147 21.0516 4.74667C20.3488 3.99632 19.4367 3.47467 18.4336 3.24947C17.4305 3.02428 16.3829 3.10595 15.4268 3.48389C14.4708 3.86183 13.6505 4.51856 13.0725 5.36876C12.4946 6.21895 12.1857 7.22331 12.1859 8.25136C12.1859 8.65761 12.2203 9.04823 12.3047 9.4201C10.2658 9.32014 8.27087 8.79096 6.45047 7.86716C4.63007 6.94337 3.02515 5.64576 1.74062 4.05917C1.08253 5.18707 0.879077 6.5234 1.17169 7.79605C1.46431 9.0687 2.23099 10.182 3.31562 10.9092C2.50431 10.8874 1.71012 10.6709 1 10.2779V10.3342C1.00136 11.5177 1.41041 12.6645 2.15831 13.5818C2.9062 14.499 3.94726 15.1305 5.10625 15.3701C4.66779 15.4857 4.21592 15.5424 3.7625 15.5389C3.43686 15.5446 3.11154 15.5153 2.79219 15.4514C3.12335 16.4686 3.7617 17.3581 4.61937 17.9975C5.47703 18.6369 6.51182 18.9947 7.58125 19.0217C5.76709 20.4405 3.52965 21.2101 1.22656 21.2076C0.80625 21.2076 0.403125 21.1889 0 21.1373C2.34357 22.6475 5.07449 23.4464 7.8625 23.4373C17.2937 23.4373 22.45 15.6248 22.45 8.85292C22.45 8.62635 22.4422 8.40761 22.4312 8.19042C23.4421 7.46696 24.3126 6.56523 25 5.52948Z" fill="#03A9F4"/>
</svg>
