<svg width="26" height="26" viewBox="0 0 26 26" fill="none" xmlns="http://www.w3.org/2000/svg">
<path d="M14.6051 0.812242C14.5431 0.815129 14.4825 0.832288 14.4282 0.862381C14.3739 0.892473 14.3272 0.9347 14.2919 0.985759L4.94859 14.3903C4.9059 14.4513 4.88075 14.5228 4.87587 14.5971C4.871 14.6713 4.88659 14.7455 4.92095 14.8115C4.95531 14.8776 5.00711 14.9329 5.07074 14.9716C5.13436 15.0102 5.20736 15.0306 5.28178 15.0306H11.7461L10.9707 24.7501C10.94 25.1601 11.4697 25.3489 11.7077 25.0142L21.0525 11.6096C21.0952 11.5486 21.1204 11.4771 21.1252 11.4029C21.1301 11.3286 21.1145 11.2544 21.0802 11.1884C21.0458 11.1224 20.994 11.067 20.9304 11.0284C20.8668 10.9898 20.7938 10.9693 20.7193 10.9693H14.255L15.0304 1.24985C15.0349 1.19231 15.027 1.13445 15.0074 1.08018C14.9877 1.02591 14.9568 0.976446 14.9165 0.935058C14.8763 0.89367 14.8277 0.8613 14.774 0.840123C14.7203 0.818946 14.6628 0.809459 14.6051 0.812242Z" fill="#FFBC42"/>
</svg>
