<svg width="26" height="26" viewBox="0 0 26 26" fill="none" xmlns="http://www.w3.org/2000/svg">
<path d="M12.7402 2.08008C12.4802 5.20008 12.7688 8.95942 10.6602 10.9201C10.1402 9.62008 8.84694 7.77642 7.54018 7.28008C7.80018 11.9601 4.6781 13.4015 4.68018 18.2001C4.6898 20.8848 6.1185 23.1307 10.928 23.9201C9.88018 20.8001 9.4569 17.4261 12.7402 16.1201C15.4764 17.4261 16.428 20.0201 15.0802 23.9201C19.6642 23.1898 21.3202 19.3254 21.3202 15.8601C21.3202 13.2835 20.2303 10.0548 18.7202 8.58008C18.4758 10.3788 17.9324 11.1801 15.8602 12.2201C17.1555 7.02008 16.0781 4.11302 12.7402 2.08008Z" fill="#FB6949"/>
</svg>
