<svg width="26" height="26" viewBox="0 0 26 26" fill="none" xmlns="http://www.w3.org/2000/svg">
<path d="M16.5339 15.1395C15.7279 15.1395 14.8562 15.9008 15.4159 17.1738C15.4494 17.2509 15.4948 17.3223 15.5506 17.3851C15.6728 17.5187 15.8208 17.6262 15.9856 17.701C16.1505 17.7759 16.3288 17.8166 16.5097 17.8207C16.6907 17.8248 16.8707 17.7922 17.0387 17.7249C17.2068 17.6576 17.3595 17.557 17.4876 17.4291C17.7375 17.1752 17.8776 16.8333 17.8776 16.4771C17.8776 16.1209 17.7375 15.7789 17.4876 15.5251C17.2316 15.278 16.8898 15.1398 16.5339 15.1395ZM10.4128 10.3537C10.6024 10.1666 10.7319 9.92721 10.7846 9.66609C10.8373 9.40498 10.8108 9.13407 10.7085 8.8881C10.6063 8.64213 10.4329 8.4323 10.2106 8.2855C9.98833 8.1387 9.72728 8.06163 9.46091 8.06415C9.2861 8.06324 9.11284 8.09685 8.95106 8.16306C8.78927 8.22928 8.64216 8.32678 8.51815 8.44999C8.2681 8.70381 8.12793 9.04581 8.12793 9.40211C8.12793 9.75841 8.2681 10.1004 8.51815 10.3542C8.76961 10.6051 9.11035 10.746 9.46557 10.7459C9.82078 10.7458 10.1614 10.6047 10.4128 10.3537Z" fill="#F91818"/>
<path d="M11.49 1.39756C9.55906 1.65105 7.72581 2.39701 6.16649 3.56374C4.60717 4.73047 3.37422 6.27872 2.58618 8.05965C1.79813 9.84058 1.48148 11.7943 1.66669 13.733C1.85189 15.6716 2.53272 17.53 3.6437 19.1296C3.93089 19.5646 4.05885 20.0855 4.00588 20.604L3.65904 24.0836C3.64984 24.176 3.66376 24.2693 3.69955 24.355C3.73535 24.4407 3.7919 24.5161 3.8641 24.5745C3.93631 24.6329 4.02191 24.6725 4.1132 24.6896C4.20448 24.7067 4.29859 24.7008 4.38704 24.6725L8.08736 23.483C8.5287 23.3403 9.00266 23.333 9.4482 23.4619C10.9596 23.9791 12.5664 24.1566 14.1542 23.9819C15.6563 23.8306 17.1132 23.3817 18.4401 22.6615C19.7669 21.9412 20.937 20.9639 21.8821 19.7867C22.8273 18.6094 23.5286 17.2558 23.9451 15.8047C24.3617 14.3536 24.4851 12.8341 24.3082 11.3348C24.1314 9.83545 23.6577 8.38636 22.915 7.07202C22.1722 5.75767 21.1751 4.60437 19.982 3.67939C18.7888 2.75441 17.4234 2.07626 15.9655 1.68449C14.5075 1.29273 12.9861 1.19518 11.49 1.39756ZM7.40798 7.33726C7.9646 6.81273 8.70054 6.5206 9.46536 6.5206C10.2302 6.5206 10.9661 6.81273 11.5227 7.33726C12.0682 7.88588 12.3743 8.62805 12.3743 9.40166C12.3743 10.1753 12.0682 10.9174 11.5227 11.4661C10.9741 12.0061 10.234 12.3071 9.4642 12.3033C8.69437 12.2996 7.95728 11.9915 7.41385 11.4462C6.87042 10.9009 6.5648 10.1628 6.5637 9.39294C6.5626 8.6231 6.86611 7.88409 7.40798 7.33726ZM8.43914 18.5976C8.29174 18.7447 8.09201 18.8273 7.88378 18.8273C7.67555 18.8273 7.47582 18.7447 7.32842 18.5976C7.25534 18.5246 7.19737 18.438 7.15781 18.3426C7.11825 18.2472 7.09789 18.145 7.09789 18.0417C7.09789 17.9385 7.11825 17.8362 7.15781 17.7408C7.19737 17.6454 7.25534 17.5588 7.32842 17.4858L17.5581 7.25562C17.7049 7.10883 17.9038 7.02608 18.1114 7.02545C18.3189 7.02481 18.5183 7.10635 18.666 7.25224L18.6714 7.25744C18.7452 7.33028 18.8038 7.41699 18.8439 7.51257C18.8839 7.60815 18.9047 7.71071 18.905 7.81436C18.9053 7.918 18.8851 8.02068 18.8455 8.11649C18.806 8.21229 18.7479 8.29932 18.6746 8.37258L8.43914 18.5976ZM18.5981 18.5381C18.1903 18.9447 17.6712 19.2214 17.1062 19.3331C16.5413 19.4449 15.9559 19.3867 15.424 19.166C14.8921 18.9452 14.4375 18.5717 14.1177 18.0928C13.7979 17.6138 13.6273 17.0509 13.6273 16.475C13.6273 15.8991 13.7979 15.3361 14.1177 14.8571C14.4375 14.3782 14.8921 14.0047 15.424 13.784C15.9559 13.5632 16.5413 13.505 17.1062 13.6168C17.6712 13.7285 18.1903 14.0052 18.5981 14.4119C18.8697 14.6824 19.0852 15.0039 19.2323 15.358C19.3793 15.712 19.455 16.0916 19.455 16.475C19.455 16.8583 19.3793 17.2379 19.2323 17.592C19.0852 17.946 18.8697 18.2675 18.5981 18.5381Z" fill="#F91818"/>
</svg>
