<svg width="30" height="30" fill="none" xmlns="http://www.w3.org/2000/svg"><path d="M18.675 6.487A5.475 5.475 0 0020 2.5a5.55 5.55 0 00-3.75 1.9A5.211 5.211 0 0015 8.262a4.612 4.612 0 003.675-1.775zm3.15 9.3a5.638 5.638 0 012.7-4.762 5.825 5.825 0 00-4.575-2.5c-1.95-.2-3.75 1.137-4.787 1.137-1.038 0-2.5-1.112-4.126-1.087a6.15 6.15 0 00-5.175 3.163c-2.2 3.825-.562 9.512 1.638 12.6 1 1.512 2.25 3.224 3.9 3.162 1.65-.063 2.188-1.025 4.1-1.025 1.912 0 2.5 1.025 4.125.987 1.625-.037 2.775-1.55 3.825-3.062a13.747 13.747 0 001.725-3.563 5.513 5.513 0 01-3.35-5.05z" fill="#000"/></svg>