<svg width="24" height="24" fill="none" xmlns="http://www.w3.org/2000/svg"><g clip-path="url(#clip0_3_16077)"><path d="M23.441 12.224c0-.983-.08-1.7-.252-2.445H11.96v4.438h6.59c-.132 1.103-.85 2.764-2.444 3.88l-.023.149 3.55 2.75.246.024c2.26-2.086 3.561-5.155 3.561-8.796z" fill="#4285F4"/><path d="M11.96 23.918c3.23 0 5.94-1.063 7.92-2.897l-3.774-2.923c-1.01.704-2.365 1.196-4.146 1.196-3.162 0-5.846-2.086-6.803-4.97l-.14.012-3.691 2.857-.049.134c1.967 3.907 6.006 6.59 10.683 6.59z" fill="#34A853"/><path d="M5.157 14.325a7.362 7.362 0 01-.398-2.365c0-.824.146-1.622.385-2.366l-.006-.158L1.4 6.533l-.122.058A11.97 11.97 0 00.002 11.96c0 1.926.465 3.747 1.276 5.368l3.88-3.003z" fill="#FBBC05"/><path d="M11.96 4.624c2.246 0 3.76.97 4.625 1.78L19.96 3.11C17.887 1.183 15.19 0 11.96 0 7.284 0 3.245 2.684 1.278 6.59l3.867 3.004c.97-2.884 3.654-4.97 6.817-4.97z" fill="#EB4335"/></g><defs><clipPath id="clip0_3_16077"><path fill="#fff" d="M0 0h23.453v24H0z"/></clipPath></defs></svg>