<svg width="22" height="22" fill="none" xmlns="http://www.w3.org/2000/svg"><g clip-path="url(#clip0_3_16084)"><path d="M15.125 0h-8.25A6.875 6.875 0 000 6.875v8.25A6.875 6.875 0 006.875 22h8.25A6.875 6.875 0 0022 15.125v-8.25A6.875 6.875 0 0015.125 0zm4.813 15.125a4.818 4.818 0 01-4.813 4.813h-8.25a4.818 4.818 0 01-4.813-4.813v-8.25a4.818 4.818 0 014.813-4.813h8.25a4.818 4.818 0 014.813 4.813v8.25z" fill="url(#paint0_linear_3_16084)"/><path d="M11 5.5a5.5 5.5 0 100 11 5.5 5.5 0 000-11zm0 8.938A3.442 3.442 0 017.562 11 3.441 3.441 0 0111 7.562 3.441 3.441 0 0114.438 11 3.442 3.442 0 0111 14.438z" fill="url(#paint1_linear_3_16084)"/><path d="M16.913 5.821a.733.733 0 100-1.465.733.733 0 000 1.465z" fill="url(#paint2_linear_3_16084)"/></g><defs><linearGradient id="paint0_linear_3_16084" x1="2.013" y1="19.987" x2="19.987" y2="2.013" gradientUnits="userSpaceOnUse"><stop stop-color="#FFC107"/><stop offset=".507" stop-color="#F44336"/><stop offset=".99" stop-color="#9C27B0"/></linearGradient><linearGradient id="paint1_linear_3_16084" x1="7.112" y1="14.889" x2="14.889" y2="7.112" gradientUnits="userSpaceOnUse"><stop stop-color="#FFC107"/><stop offset=".507" stop-color="#F44336"/><stop offset=".99" stop-color="#9C27B0"/></linearGradient><linearGradient id="paint2_linear_3_16084" x1="16.394" y1="5.607" x2="17.431" y2="4.57" gradientUnits="userSpaceOnUse"><stop stop-color="#FFC107"/><stop offset=".507" stop-color="#F44336"/><stop offset=".99" stop-color="#9C27B0"/></linearGradient><clipPath id="clip0_3_16084"><path fill="#fff" d="M0 0h22v22H0z"/></clipPath></defs></svg>