<svg width="25" height="25" fill="none" xmlns="http://www.w3.org/2000/svg"><path d="M25 5.53a10.7 10.7 0 01-2.953.809 5.097 5.097 0 002.255-2.833 10.243 10.243 0 01-3.25 1.24 5.125 5.125 0 00-8.866 3.505c0 .407.034.797.119 1.17A14.506 14.506 0 011.74 4.058a5.133 5.133 0 001.575 6.85A5.063 5.063 0 011 10.278v.056a5.149 5.149 0 004.106 5.036c-.438.116-.89.172-1.343.169a4.54 4.54 0 01-.97-.088 5.173 5.173 0 004.788 3.57 10.297 10.297 0 01-6.354 2.187c-.42 0-.824-.02-1.227-.07a14.428 14.428 0 007.862 2.3c9.432 0 14.588-7.813 14.588-14.585 0-.227-.008-.445-.019-.663A10.225 10.225 0 0025 5.53z" fill="#03A9F4"/></svg>