<svg width="20" height="20" viewBox="0 0 20 20" fill="none" xmlns="http://www.w3.org/2000/svg">
<g id="apps">
<path id="combo shape" fill-rule="evenodd" clip-rule="evenodd" d="M16.0001 8.00046C18.2092 8.00046 20.0001 6.2096 20.0001 4.00046C20.0001 1.79132 18.2092 0.000457764 16.0001 0.000457764C13.791 0.000457764 12.0001 1.79132 12.0001 4.00046C12.0001 6.2096 13.791 8.00046 16.0001 8.00046ZM2 0.000576258C0.895431 0.000576258 0 0.896007 0 2.00058V6.00058C0 7.10514 0.895431 8.00058 2 8.00058H6C7.10457 8.00058 8 7.10514 8 6.00058V2.00058C8 0.896007 7.10457 0.000576258 6 0.000576258H2ZM8.00022 16.0001C8.00022 18.2092 6.20936 20.0001 4.00022 20.0001C1.79108 20.0001 0.000222802 18.2092 0.000222802 16.0001C0.000222802 13.7909 1.79108 12.0001 4.00022 12.0001C6.20936 12.0001 8.00022 13.7909 8.00022 16.0001ZM14.0001 12.0001C12.8955 12.0001 12.0001 12.8955 12.0001 14.0001V18.0001C12.0001 19.1046 12.8955 20.0001 14.0001 20.0001H18.0001C19.1047 20.0001 20.0001 19.1046 20.0001 18.0001V14.0001C20.0001 12.8955 19.1047 12.0001 18.0001 12.0001H14.0001Z" fill="#48455C"/>
</g>
</svg>
