<svg width="24" height="24" viewBox="0 0 24 24" fill="none" xmlns="http://www.w3.org/2000/svg">
<g id="chat (6) 1">
<path id="Vector" d="M12 2C14.649 2 17.199 3.05 19.069 4.93C20.949 6.811 22 9.35 22 12.01C22 15.51 20.159 18.76 17.159 20.57C14.159 22.38 10.429 22.48 7.33 20.83H7.299C7 20.71 6.759 20.5 6.479 20.36C6.17 20.23 5.819 20.21 5.5 20.311C4.759 20.57 4.009 20.78 3.239 20.96C2.839 20.97 2.719 20.73 2.719 20.34C2.899 19.55 3.139 18.769 3.42 18.01C3.529 17.68 3.5 17.33 3.33 17.019L3.13 16.63C2.389 15.22 2 13.65 2 12.061V12C2 9.35 3.049 6.8 4.929 4.93C6.809 3.05 9.349 2 12 2ZM16.609 10.73C15.909 10.73 15.33 11.3 15.33 12.01C15.33 12.71 15.909 13.29 16.609 13.29C17.319 13.29 17.889 12.71 17.889 12.01C17.889 11.3 17.319 10.73 16.609 10.73ZM12 10.73C11.29 10.73 10.719 11.3 10.719 12.01C10.719 12.71 11.29 13.29 12 13.29C12.71 13.29 13.279 12.71 13.279 12.01C13.279 11.3 12.71 10.73 12 10.73ZM7.389 10.73C6.679 10.73 6.109 11.3 6.109 12.01C6.109 12.71 6.679 13.29 7.389 13.29C8.089 13.29 8.67 12.71 8.67 12.01C8.67 11.3 8.089 10.73 7.389 10.73Z" fill="#48455C"/>
</g>
</svg>
