<svg width="24" height="24" fill="none" xmlns="http://www.w3.org/2000/svg"><path d="M12 2a9.973 9.973 0 017.069 2.93 10 10 0 01-1.91 15.64c-3 1.81-6.73 1.91-9.829.26h-.031c-.299-.12-.54-.33-.82-.47-.309-.13-.66-.15-.979-.049a21.99 21.99 0 01-2.261.649c-.4.01-.52-.23-.52-.62.18-.79.42-1.571.701-2.33.109-.33.08-.68-.09-.991l-.2-.389A9.83 9.83 0 012 12.061V12c0-2.65 1.049-5.2 2.929-7.07A9.991 9.991 0 0112 2zm4.609 8.73c-.7 0-1.279.57-1.279 1.28 0 .7.579 1.28 1.279 1.28.71 0 1.28-.58 1.28-1.28 0-.71-.57-1.28-1.28-1.28zm-4.609 0c-.71 0-1.281.57-1.281 1.28 0 .7.571 1.28 1.281 1.28s1.279-.58 1.279-1.28c0-.71-.569-1.28-1.279-1.28zm-4.611 0c-.71 0-1.28.57-1.28 1.28 0 .7.57 1.28 1.28 1.28.7 0 1.281-.58 1.281-1.28 0-.71-.581-1.28-1.281-1.28z" fill="#48455C"/></svg>