<svg width="12" height="12" fill="none" xmlns="http://www.w3.org/2000/svg"><g clip-path="url(#clip0_3_175)"><path d="M6 0l.013 4.5A1.501 1.501 0 017.5 6H12c0-3.308-2.692-6-6-6zM3 6.375a2.62 2.62 0 012.25-2.587V.768A5.621 5.621 0 000 6.376a5.6 5.6 0 001.395 3.7L3.53 7.94c-.342-.45-.528-1-.53-1.565zM5.625 9a2.601 2.601 0 01-1.565-.53l-2.135 2.135A5.596 5.596 0 005.625 12a5.621 5.621 0 005.606-5.25H8.213A2.622 2.622 0 015.625 9z" fill="#000"/></g><defs><clipPath id="clip0_3_175"><path fill="#fff" d="M0 0h12v12H0z"/></clipPath></defs></svg>