<svg width="12" height="12" fill="none" xmlns="http://www.w3.org/2000/svg"><g clip-path="url(#clip0_18_1992)"><path d="M3.206.399A2.81 2.81 0 00.399 3.206v5.588a2.81 2.81 0 002.807 2.807h5.589A2.811 2.811 0 0011.6 8.794V3.205A2.811 2.811 0 008.795.4h-5.59zm0 .938h5.589c1.043 0 1.869.825 1.869 1.869v5.588a1.855 1.855 0 01-1.87 1.87H3.207a1.854 1.854 0 01-1.869-1.87V3.205c0-1.043.825-1.868 1.869-1.868zm2.905 1.43a.469.469 0 00-.462.474v2.26h-2.26a.469.469 0 100 .937h2.26v2.259a.469.469 0 10.937 0v-2.26h2.26a.469.469 0 100-.937h-2.26V3.241a.469.469 0 00-.475-.475z" fill="#3075FC"/></g><defs><clipPath id="clip0_18_1992"><path fill="#fff" d="M0 0h12v12H0z"/></clipPath></defs></svg>