<svg width="16" height="16" fill="none" xmlns="http://www.w3.org/2000/svg"><path d="M2.113 3.344a.296.296 0 01.453.021c.347.435 2.21 2.722 4.723 4.99 2.062 1.862 3.536 1.406 3.939 1.222a.753.753 0 01.454-.053c.506.095 2.193.564 3 1.056.226.138.346.406.312.699a.763.763 0 01-.509.655c-.815.268-2.732.816-4.803.816-.385 0-.775-.019-1.165-.062a2.699 2.699 0 01-1.74-.929L4.091 8.663c-.235.078-.715.287-.966.734-.295.526-.315 1.855-.331 2.923l-.002.123a.306.306 0 01-.304.3h-.752a.305.305 0 01-.304-.317c.069-1.614.099-4.542-.224-5.323L1.2 7.08c-.7-1.895.638-3.444.913-3.736zm-.174 8.9h.356c.018-1.166.044-2.467.394-3.092.26-.464.685-.729 1.005-.871a1.563 1.563 0 00-.274-.156l-1.614-.698c.238 1.312.168 3.896.133 4.816zm-.305-5.436l1.984.858c.284.123.542.312.746.548l2.79 3.217c.374.43.877.7 1.418.76 2.386.264 4.821-.424 5.757-.732.108-.036.159-.15.169-.238.008-.072-.007-.172-.077-.214-.717-.438-2.309-.893-2.831-.991a.3.3 0 00-.054-.005.239.239 0 00-.1.02c-.473.216-2.194.761-4.482-1.304a46.545 46.545 0 01-4.63-4.865c-.375.46-1.129 1.602-.69 2.946z" fill="#3075FC"/></svg>