<svg width="17" height="16" fill="none" xmlns="http://www.w3.org/2000/svg"><path d="M13.777 14.838l-.068-.518a12.58 12.58 0 00-2.232-5.648l-.855-1.197 1.696-4.318a.328.328 0 00.007-.218l-.64-1.92A.32.32 0 0011.38.8h-.96a.32.32 0 00-.32.32v1.622a2.25 2.25 0 00-1.6 1.064 2.241 2.241 0 00-1.6-1.064V1.12A.32.32 0 006.58.8h-.96a.321.321 0 00-.304.22l-.64 1.92a.309.309 0 00.007.217l1.696 4.318-.855 1.197a12.566 12.566 0 00-2.232 5.648l-.068.518a.32.32 0 00.317.362h9.92a.32.32 0 00.316-.362zM11.15 1.44l.427 1.28h-.836V1.44h.41zM8.18 4.96c0 .176.144.32.32.32a.32.32 0 00.32-.32c0-.882.719-1.6 1.6-1.6h1.132l-1.51 3.84H6.959L5.45 3.36h1.13c.882 0 1.6.718 1.6 1.6zM5.85 1.44h.41v1.28h-.836l.427-1.28zM3.906 14.56l.021-.157a11.908 11.908 0 012.117-5.358l.862-1.205h.237l-.554 2.491a.32.32 0 00.312.389.32.32 0 00.312-.251l.584-2.629h.384v4.48c0 .176.144.32.32.32a.32.32 0 00.32-.32V7.84h.384l.584 2.629a.32.32 0 00.383.243.32.32 0 00.243-.382L9.86 7.84h.237l.86 1.203a11.974 11.974 0 012.118 5.358l.022.159h-9.19z" fill="#3075FC"/></svg>