<svg width="17" height="16" fill="none" xmlns="http://www.w3.org/2000/svg"><g clip-path="url(#clip0_3_3929)" fill="#3075FC"><path d="M4.834 11.333H3.167A.333.333 0 012.834 11c0-1.9.813-6.543 1.162-8.451A1.667 1.667 0 015.401 1.2l1.386-.198a.333.333 0 01.094.66l-1.387.198a.998.998 0 00-.841.808c-.328 1.784-1.064 5.982-1.145 7.998h1.026l.635-6.035a.328.328 0 01.367-.297.333.333 0 01.296.366l-.667 6.334a.332.332 0 01-.331.298z"/><path d="M8.5 16c-1.527 0-3.983-.65-4.087-.678a.333.333 0 01-.246-.35l.334-4a.337.337 0 01.36-.304.334.334 0 01.304.36l-.31 3.719c.68.168 2.489.586 3.644.586 1.156 0 2.965-.418 3.645-.586l-.31-3.719a.333.333 0 01.664-.055l.333 4a.333.333 0 01-.246.349c-.104.027-2.56.678-4.086.678z"/><path d="M13.833 11.333h-1.667a.333.333 0 01-.331-.298L11.168 4.7a.333.333 0 01.296-.366.329.329 0 01.367.297l.635 6.035h1.026c-.081-2.016-.817-6.214-1.144-7.998a.996.996 0 00-.842-.807l-1.387-.198a.333.333 0 01.093-.66l1.387.198a1.664 1.664 0 011.404 1.347c.35 1.908 1.163 6.55 1.163 8.451a.333.333 0 01-.333.333zm-4 .667a.333.333 0 01-.08-.657l1.333-.333a.333.333 0 11.161.647l-1.333.333a.332.332 0 01-.081.01z"/><path d="M7.834 6a.332.332 0 01-.308-.461c.103-.248.206-.499.307-.75L5.914 2.55a.333.333 0 01-.017-.41C7.427 0 7.662 0 7.834 0h1.333c.172 0 .408 0 1.938 2.14a.334.334 0 01-.023.416l-3 3.333A.333.333 0 017.834 6zm1.91-4.567c-.13.519-.395 1.327-.892 2.604l1.554-1.727a32.599 32.599 0 00-.661-.877zM7.784.845c-.053.296.183 1.556.485 2.838.525-1.368.929-2.562.93-2.876a.243.243 0 01-.017-.048 1.561 1.561 0 00-.096-.092h-1.17a1.64 1.64 0 00-.095.091.312.312 0 01-.038.087zM6.59 2.316l.92 1.073a19.186 19.186 0 01-.346-1.838c-.186.24-.385.505-.574.765z"/><path d="M7.834 15.667a.333.333 0 01-.334-.334V5.667a.333.333 0 01.667 0v9.666a.333.333 0 01-.333.334zM6.5 12a.337.337 0 01-.149-.035l-.667-.334a.333.333 0 11.298-.596l.667.333A.334.334 0 016.5 12zm2.667-4.667a.333.333 0 100-.666.333.333 0 000 .666zm0 2a.333.333 0 100-.666.333.333 0 000 .666z"/></g><defs><clipPath id="clip0_3_3929"><path fill="#fff" transform="translate(.5)" d="M0 0h16v16H0z"/></clipPath></defs></svg>