<svg width="12" height="12" fill="none" xmlns="http://www.w3.org/2000/svg"><path fill-rule="evenodd" clip-rule="evenodd" d="M8.28.451a1.541 1.541 0 012.179 0l1.09 1.09a1.541 1.541 0 010 2.18l-.967.966a11.05 11.05 0 01-.238-.122c-.557-.293-1.218-.705-1.711-1.198-.494-.493-.905-1.154-1.198-1.711a10.805 10.805 0 01-.122-.239l.966-.966zm-.354 3.623c.583.584 1.326 1.043 1.913 1.355l-3.8 3.8a1.541 1.541 0 01-.871.436l-2.288.327a.77.77 0 01-.872-.872l.327-2.288c.047-.33.2-.636.436-.872l3.8-3.8c.312.588.77 1.33 1.355 1.914zM.5 11a.5.5 0 000 1h11a.5.5 0 100-1H.5z" fill="#48455C"/></svg>