<svg width="18" height="18" fill="none" xmlns="http://www.w3.org/2000/svg"><path fill-rule="evenodd" clip-rule="evenodd" d="M11.437 6a.562.562 0 101.125 0V2.25a.563.563 0 00-1.125 0V6zm-6 9.75a.562.562 0 101.125 0V12a.562.562 0 10-1.125 0v3.75zm0-11.929v-1.57a.563.563 0 011.125 0v1.57a2.25 2.25 0 011.688 2.18v1.5a2.25 2.25 0 11-4.5 0V6a2.25 2.25 0 011.688-2.18zm4.313 6.68V12a2.25 2.25 0 001.687 2.178v1.571a.563.563 0 001.125 0v-1.57A2.251 2.251 0 0014.25 12v-1.5a2.25 2.25 0 10-4.5 0z" fill="#28303F"/></svg>