<svg width="21" height="19" fill="none" xmlns="http://www.w3.org/2000/svg"><path d="M12.339 12.779a.635.635 0 00-.513.247.643.643 0 00-.513-.247.634.634 0 00-.486.22.653.653 0 00-.155.515c.05.455.435.65.692.865.163.159.31.333.442.52.132-.187.28-.361.443-.52.263-.241.641-.41.692-.865a.66.66 0 00-.142-.502.642.642 0 00-.46-.233z" fill="#E97636"/><path d="M11.262 11.778a.9.9 0 01.141-.04l-.141.04zM9.92 13.13v.052l.039-.123-.04.071zm1.898-1.417zm.514.071h-.064l.134.046-.07-.046zm.998-3.595c-.063-.215-.172-.28-.487-.306A.87.87 0 0012.44 8h.09c.27.043.538.107.8.189zm.085.331l-.135-.045a5.839 5.839 0 00-.641-.15l-.045.332a4.74 4.74 0 01.936.26.7.7 0 01-.115-.319s.006-.052 0-.078zm-2.501 10.176l-.045.234a4.97 4.97 0 002.007-.059c.058 0 .641-.208.693-.234a4.53 4.53 0 00.64-.383c.058-.04.34-.306.398-.338-.41.237-.84.442-1.282.61a4.858 4.858 0 01-2.411.17zm1.404-10.078l.083-.585-.09.039c-.128.052-.243.175-.371.195a1.282 1.282 0 00-.706.35 5.06 5.06 0 011.084 0zm1.225.299c.07.077.129.165.173.26l.065-.17-.238-.09z" fill="#74A350"/><path d="M13.03 12.161l.192-.273a2.314 2.314 0 00-.802-.422 2.27 2.27 0 00-1.334 0c-.335.11-.64.3-.89.552l.224.24a1.939 1.939 0 012.61-.098zm.405-.071l-.192.28a1.976 1.976 0 01.404 2.091c-.14.35-.378.653-.684.869a1.907 1.907 0 01-1.041.349v.312a2.268 2.268 0 001.76-.995 2.328 2.328 0 00.112-2.438l.25-.143c.08.15.146.307.199.468.144.448.164.927.058 1.385l.596.175-.039.137a3.205 3.205 0 01-.526 1.053l.257.215a3.631 3.631 0 00.641-2.991v-.137l.59-.155c0-.06-.032-.111-.045-.163l-.05-.137c-.251.065-.533.072-.815.124l-.129.052c.033.084.065.169.09.253.13.391.18.805.148 1.216h-.282a3.081 3.081 0 00-.135-1.111 2.971 2.971 0 00-.718-1.177v-.033l-.346.514-.103-.013zm-3.604 1.606a1.157 1.157 0 010-.208.377.377 0 010-.085c.011-.074.026-.148.045-.22v-.124c.068-.198.165-.385.289-.553l-.231-.254a2.397 2.397 0 00-.404.787 2.34 2.34 0 00.191 1.757c.144.265.339.5.572.689.233.19.501.33.789.415.161.044.326.072.493.085v-.313a1.947 1.947 0 01-1.246-.649 1.999 1.999 0 01-.498-1.327z" fill="#74A350"/><path d="M15.711 16.856l-.09.117-.474-.403a4.377 4.377 0 01-1.648 1.228l-.116-.266a4.24 4.24 0 00.879-.507l-.225-.247a3.751 3.751 0 01-3.017.672 3.781 3.781 0 01-1.734-.874l-.211.254c.347.305.741.55 1.167.728l-.103.266a4.416 4.416 0 01-1.366-.877l-.096-.098.404-.474a3.914 3.914 0 01-.878-1.515 4.176 4.176 0 01-.135-.56l-.641.078v-.143a4.55 4.55 0 01-.032-.65h.288c-.01.158-.01.317 0 .475l.327-.046a3.856 3.856 0 011.577-3.459l-.179-.28c-.5.367-.911.843-1.205 1.392l-.25-.143c.176-.32.392-.618.64-.884l-.179-.267c-.115 0-.173.163-.23.247-.058.085-.231 0-.315 0l.18.143a4.828 4.828 0 00-.776 1.567c0 .085-.045.17-.064.254l.32.078c0-.085.039-.163.058-.24.02-.079.051-.17.084-.254l.269.097c0 .078-.052.156-.077.24a3.223 3.223 0 00-.083.358v.144l-.597-.137a4.83 4.83 0 00.116 2.126l.596-.15.045.124c.143.442.36.855.641 1.222l-.23.176a4.701 4.701 0 01-.642-1.177l-.32.085a4.803 4.803 0 002.086 2.547c.971.573 2.11.778 3.216.58l-.083-.325a4.346 4.346 0 01-1.712 0h-.09l.064-.28h.083a4.079 4.079 0 001.732 0h.134l.148.605.295-.084a4.863 4.863 0 001.782-1.067l.192.215c-.262.248-.55.466-.859.65.304-.14.6-.299.885-.475.167-.132.32-.283.455-.448.121-.155.216-.328.282-.514l-.057-.045c-.073.077-.15.151-.231.22z" fill="#74A350"/><path d="M9.657 9.392l-.135.071a5.993 5.993 0 00-.43.273.655.655 0 01-.089.208 2.48 2.48 0 01-.308.384l.07.104a4.33 4.33 0 012.364-1.175 4.3 4.3 0 012.6.42c0-.149 0-.273.032-.266a.88.88 0 00-.045-.234l-.045.097a4.502 4.502 0 00-.564-.201 4.638 4.638 0 00-2.777.039l-.109.039-.07-.208a.923.923 0 00-.186 0c-.295 0-.443 0-.545.09l.237.359z" fill="#74A350"/><path d="M16.384 14.86v-.04a.191.191 0 010-.058v-.104a4.858 4.858 0 00-.109-2.373.521.521 0 00-.192-.052h-.167v.078c.078.235.134.476.167.722l-.282.039-.039-.228-.32.085a3.894 3.894 0 01-.808 3.25l-.09.111-.474-.403c-.373.413-.846.72-1.373.89l-.166.053-.077-.28.154-.045a2.877 2.877 0 001.089-.647c.311-.295.555-.656.713-1.057 0-.045 0-.085.044-.13l-.314-.091a2.605 2.605 0 01-.63.996 2.462 2.462 0 01-2.5.61 2.65 2.65 0 01-.736-.345l-.391.482-.11-.085a3.244 3.244 0 01-.948-1.229l.263-.117c.175.395.433.745.756 1.027l.206-.26a2.603 2.603 0 01-.764-1.17 2.536 2.536 0 010-1.515c.19-.66.63-1.218 1.223-1.55a2.534 2.534 0 011.945-.225c.323.094.624.253.885.468l.186-.28a2.893 2.893 0 00-.77-.435l-.186-.065a2.828 2.828 0 00-1.692 0c-.459.15-.873.414-1.206.767l-.186-.214a3.163 3.163 0 011.327-.84c.281-.097.576-.15.872-.155v-.338a3.398 3.398 0 00-.961.175l-.225.085-.109-.273.25-.091c.382-.125.78-.189 1.18-.189h.141v.65c.236.02.47.06.7.124.108.032.21.071.307.11a.199.199 0 00.09-.058.645.645 0 01.198-.176 3.913 3.913 0 00-.506-.195l-.257-.065.064-.286.276.072c.255.076.503.178.737.305a.746.746 0 00.116-.084v-.215a4.056 4.056 0 00-3.2-.293 4.363 4.363 0 00-.872.41l.327.52-.115.078a3.466 3.466 0 00-.981 1.067l.5.35-.064.118a2.926 2.926 0 00-.327 1.918l-.282.052a3.296 3.296 0 01.077-1.457 3.14 3.14 0 01.224-.565l-.275-.195a4.144 4.144 0 00-.263.65 3.592 3.592 0 00.525 3.095c.316.44.729.801 1.205 1.053.476.253 1.003.39 1.54.403v-.331a3.07 3.07 0 01-.795-.124 5.354 5.354 0 01-.45-.169l.123-.267c.131.06.266.112.404.156.279.08.568.12.859.118h.147v.65c.3-.02.598-.077.885-.17a3.43 3.43 0 001.103-.598l.102-.084.41.462a4.147 4.147 0 001.443-3.037h.289a4.489 4.489 0 01-.866 2.523l.257.215a5.1 5.1 0 00.596-1.073l.257.11c0-.09.044-.175.077-.266l.134-.332-.282-.058-.013-.065zM7.31 15.99l-.109.06c.153.357.329.705.526 1.04a4.987 4.987 0 002.866 1.703l.039-.156-.244-.065a5.004 5.004 0 01-1.803-.967A5.085 5.085 0 017.31 15.99zm.399-5.272l.077-.059a.127.127 0 01.051 0h-.045l-.083.059zm13.144-2.919v-.104a.656.656 0 00-.382-.56.634.634 0 00-.663.091 1.95 1.95 0 01-.686.345.635.635 0 00-.565.416c-.11.25-.274.473-.48.65-.244.176-.34.3-.18.546.045.072.07.13.051.183a.259.259 0 01-.096.084.267.267 0 00-.096.143.126.126 0 000 .065c.01.167.01.334 0 .5a1.8 1.8 0 00-.045.488 2.08 2.08 0 01-.064.65 1.05 1.05 0 01-.064.15c-.032.052 0 .137 0 .267l.16-.117.276-.208.243-.176.27-.195.243-.169c.15-.106.311-.193.481-.26a1.59 1.59 0 00.737-.65c.246-.351.47-.718.667-1.1.16-.337.552-.65.193-1.04zm-3.77 5.039a.086.086 0 010-.04c.077-.24.039-.377-.09-.422a.53.53 0 00-.3 0h-.033a5.2 5.2 0 01.064 2.334h.052l.173-.442c.085-.17.148-.352.186-.54a.308.308 0 010-.104c.09-.234.34-.54-.052-.787zM11.9 2.441c.105.134.186.286.238.449.104.345.128.71.07 1.066 0 .058.039.143 0 .214 0 .189.135.43-.166.534 0 0 0 .123-.045.169.115 0 .27 0 .276.071a.771.771 0 010 .481c-.135.208-.039.364 0 .54 0 .059.07.104.083.163l.058.292a1.044 1.044 0 00.5.813l.275.123c0-.052 0-.11.052-.162a.94.94 0 00.045-.182.251.251 0 000-.11v-.066h.102c0-.084 0-.175.045-.26.019-.094.032-.19.039-.286a.924.924 0 000-.397c.09-.117.224-.214.211-.28a.753.753 0 00-.224-.298 3.884 3.884 0 00-.282-.28l.154-.097V3.455l-.206-.039v-.065l.225-.071v-.228a2.36 2.36 0 01-.2-.422c0-.053.11-.124.155-.196a.653.653 0 00.096-.208 3.112 3.112 0 00-.372-1.749.762.762 0 00-.424-.425.741.741 0 00-.595.022c-.096.04-.16.163-.218.26a1 1 0 00-.039.208 3.43 3.43 0 00-.218.885c.05.307.145.605.282.884.025.045.053.089.084.13zM7.932 5.497v.09c-.066.495.01.999.218 1.45.032.084.07.165.116.241.06.1.138.186.23.254.097.065.193.117.295.175l.103.072c.038 0 .148 0 .192-.058.045-.059.167-.17.25-.26.084-.092.148-.157.218-.241l-.09-.124a1.94 1.94 0 00-.115-.162l.302-.065c.006-.065.006-.13 0-.195a1.123 1.123 0 000-.293 1.1 1.1 0 00-.148-.377.728.728 0 01-.102-.254c-.032-.24-.206-.325-.398-.39a.75.75 0 01-.256-.084.303.303 0 010-.228c0-.058.096-.104.14-.156l-.224-.175v-.143c-.045-.58 0-1.19-.641-1.476a1.66 1.66 0 00.058-.514 2.816 2.816 0 00-.25-.572 1.158 1.158 0 01-.11-.826l-.16-.15c-.25-.181-.371-.168-.64.04a.411.411 0 01-.27 0c-.372-.046-.712.143-.718.448a1.68 1.68 0 00.096.65c.165.368.349.726.551 1.073 0 .04.09.046.135.072a.297.297 0 01.103.097c.083.228.154.468.25.69.16.39.346.767.5 1.15.058.215.167.332.365.24zM3.2 6.758c.058.228.392.384.597.579.204.154.388.336.545.54.293.464.652.882 1.064 1.241.084.079.167.144.25.215l.225.189c.072.053.141.111.205.175l.045.04.211.194.2.195.172-.234.11-.156c-.25-.182-.25-.24-.084-.591v-.04a.806.806 0 00.07-.22.224.224 0 000-.163l-.121-.176a2.162 2.162 0 00-.167-.234 1.234 1.234 0 00-.808-.54c-.09-.151-.2-.289-.327-.41a7.193 7.193 0 00-.731-.65c-.135-.097-.186-.175-.135-.324a1.44 1.44 0 000-.189c-.359-.039-.775.104-.884-.41.153-.143.243 0 .34.072.088.08.182.155.282.221V5.51l-.321-.436c0-.585.038-.487-.475-.728a.261.261 0 01-.096-.045c-.205-.202-.436-.15-.692-.091.026.118.058.235.096.35.026.069.058.134.096.196-.069.023-.14.04-.211.052-.456.039-.436.065-.289.468.307.476.585.972.834 1.482zm3.72 5.605h-.13a.288.288 0 01-.075.19.28.28 0 01-.181.09h-.109c-.058 0-.109.084-.167.136l-.218.201-.147-.188a1.543 1.543 0 00-.173-.182.126.126 0 00-.09 0 .265.265 0 00-.128 0c-.077.039-.122.123-.186.189h-.083c0-.111.039-.222.058-.365a.934.934 0 00-.199-.169l-.307-.15-.263-.13-.462-.214c-.32-.143-.641-.273-.981-.41-.109-.052-.224-.181-.32-.162-.25.039-.443.065-.642-.195s-.372-.319-.532-.507a.584.584 0 00-.5-.24.496.496 0 01-.154-.06l.103-.09-.456-.312a.108.108 0 00-.077 0 1.697 1.697 0 00-.416.344.367.367 0 00.051.52c.353.325.699.65 1.052.989.107.082.229.144.359.182.147.052.378.045.442.15.224.39.641.454.981.597.34.143.558.124.827.215.27.091.36.162.539.24a.961.961 0 00.211.085h.058a.499.499 0 01.372.338c0 .072.154.11.237.163v-.046l-.083-.188.385.052.224.032c.058.325-.115.767.314.988H6.1l.096.176c.148.267.295.533.449.793h.051c.068-.017.134-.038.199-.065 0 0 .039-.039.045-.084.006-.046 0-.046.038-.046a.093.093 0 010-.039 5.16 5.16 0 01-.057-2.828z" fill="#74A350"/><path d="M9.908 13.182a2.223 2.223 0 00-.045.221c.013-.071.026-.15.045-.22z" fill="#74A350"/></svg>