<svg width="16" height="16" fill="none" xmlns="http://www.w3.org/2000/svg"><path fill-rule="evenodd" clip-rule="evenodd" d="M10.887.875c.473 0 .945.067 1.396.217 2.767.9 3.764 3.938 2.932 6.593a9.545 9.545 0 01-2.258 3.608 28.842 28.842 0 01-4.747 3.72l-.187.112-.195-.12a28.574 28.574 0 01-4.778-3.72 9.7 9.7 0 01-2.257-3.6C-.055 5.03.943 1.992 3.74 1.077c.218-.075.443-.127.668-.157h.09c.21-.03.42-.045.63-.045h.082c.473.015.93.097 1.373.247h.045c.03.015.052.03.067.045.165.053.323.113.473.195l.285.128c.069.037.146.094.213.142.042.03.08.058.109.075l.038.023c.063.037.13.076.187.12a4.697 4.697 0 012.887-.975zm1.995 5.4a.616.616 0 00.593-.57v-.09a2.475 2.475 0 00-1.582-2.37.6.6 0 00-.758.375c-.105.315.06.66.375.772.48.18.803.653.803 1.178v.022a.645.645 0 00.142.465.625.625 0 00.428.218z" fill="#D9D9D9"/></svg>