<svg width="16" height="16" fill="none" xmlns="http://www.w3.org/2000/svg"><path d="M12.74 5.666l-.65-.53v-1.75a.467.467 0 10-.93 0v.977L9.477 2.999a2.333 2.333 0 00-2.954 0L3.26 5.666a2.307 2.307 0 00-.853 1.793v3.767a2.333 2.333 0 002.333 2.333h6.523a2.333 2.333 0 002.334-2.333v-3.78a2.306 2.306 0 00-.857-1.78zm-6.137 6.943V9.383a1.4 1.4 0 012.797 0v3.226H6.603zm6.064-1.396a1.4 1.4 0 01-1.397 1.396h-.937V9.383a2.333 2.333 0 10-4.666 0v3.226h-.934a1.4 1.4 0 01-1.4-1.396V7.446a1.397 1.397 0 01.514-1.083L7.11 3.696a1.403 1.403 0 011.767 0l3.263 2.667a1.397 1.397 0 01.527 1.083v3.767z" fill="#FFF"/></svg>