<svg width="43" height="24" fill="none" xmlns="http://www.w3.org/2000/svg"><g clip-path="url(#clip0_935_937)"><path d="M0 23.748h20.437V0H0v23.75zM41.574.004H21.751v23.748h20.434V.004h-.611z" fill="#0055A5"/><path d="M22.975 22.33h17.982V1.426H22.975v20.902zM1.871 13.015v4.951h.703V16.53c.137.138.288.221.45.221.232 0 .423-.141.573-.425.168-.316.252-.783.252-1.393 0-.426-.067-.81-.199-1.136l-.022-.054-.023-.044-.016-.044-.023-.036-.023-.044-.03-.044-.023-.036-.023-.035-.03-.036-.024-.035-.03-.036-.03-.027-.031-.035-.03-.027-.031-.026-.031-.027-.038-.018-.03-.026-.031-.018-.038-.018-.038-.017-.039-.018-.038-.018-.038-.009-.038-.008-.038-.01-.046-.017H2.78l-.045-.009h-.039l-.046-.009h-.779zm.665.701h.068c.177 0 .315.119.412.346.098.227.146.579.146 1.065 0 .263-.028.47-.092.612-.061.142-.14.213-.229.213-.085 0-.156-.067-.214-.195-.058-.124-.091-.303-.091-.541v-1.5zm15.862-.942l-.058.067-1.58 1.917v-1.746h-.686v4.962h.687v-2.038c.018-.024.9-1.11 1.002-1.235l.1 3.273h.703l-.168-5.2zm-3.351.068l-.003.007-.006.003-.006.01-.01.011-.012.015-.012.014-.015.018-.016.018-.018.02-.018.026-.022.025-.021.024-.021.029-.025.028-.027.032-.055.068-.058.07-.061.075-.064.078-.067.082-.07.081-.07.085-.071.09-.144.173-.07.085-.07.082-.067.082-.064.081-.064.075-.058.071-.055.067-.028.032-.024.032-.024.028-.022.029-.021.025-.019.025-.018.021-.018.021-.015.018-.013.015-.012.014-.01.014-.008.007-.006.01v-1.745h-.69v4.962h.69v-2.038c.018-.024.9-1.11 1.001-1.235l.1 3.273h.7l-.168-5.201-.055.068zm-3.995 3.9l-.042-.06-.037-.06-.037-.068-.03-.067-.03-.071-.028-.071-.028-.074-.021-.075-.019-.082-.018-.078-.015-.085-.012-.085-.01-.089-.006-.089-.003-.092-.003-.092c0-.522.11-.937.323-1.243.236-.333.578-.5 1.024-.5h.033v-.866h-.033c-.697 0-1.231.248-1.595.749-.33.45-.497 1.079-.497 1.867 0 .76.183 1.387.54 1.86.379.497.901.752 1.56.752h.034v-.87h-.033c-.433 0-.775-.17-1.017-.51zM5.528 12.89c-.369 0-.664.244-.878.72-.207.468-.313 1.091-.313 1.854 0 .788.1 1.425.298 1.89.202.476.503.719.893.719.4 0 .717-.258.94-.755.207-.465.313-1.093.313-1.863 0-.76-.107-1.381-.321-1.846l-.023-.044-.023-.044-.015-.045-.031-.035-.015-.036-.031-.035-.023-.036-.023-.035-.023-.036-.03-.035L6.2 13.2l-.03-.027-.024-.026-.03-.027-.023-.027-.03-.026-.031-.018L6 13.032l-.03-.017-.031-.018-.03-.018-.031-.018-.03-.009-.039-.018-.03-.008-.038-.01-.031-.008h-.03l-.039-.009-.038-.008h-.076zm0 .8c.196 0 .34.16.428.487.086.295.122.725.122 1.278 0 .536-.043.981-.137 1.322l-.016.036-.007.026-.008.027-.007.027-.008.026-.015.027-.008.027-.015.018-.007.026-.016.018-.007.027-.008.018-.015.018-.016.017-.007.018-.015.009-.008.017-.015.018-.015.009-.016.017-.015.009-.016.009-.007.009-.016.008h-.015l-.015.01-.015.008h-.016l-.015.009h-.054c-.168 0-.295-.167-.39-.497-.097-.345-.145-.786-.145-1.305 0-.528.048-.965.146-1.295.089-.316.218-.479.39-.479zm2.877 3.052l-.019-.028-.021-.032-.04-.06-.034-.068-.033-.067-.03-.071-.028-.071-.025-.074-.024-.075-.018-.082-.019-.078-.012-.085-.012-.085-.01-.089-.005-.089-.006-.092v-.092c0-.522.106-.937.323-1.243.232-.333.575-.5 1.02-.5h.037v-.866h-.037c-.693 0-1.23.248-1.59.749-.334.45-.498 1.079-.498 1.867 0 .76.18 1.387.54 1.86.376.497.901.752 1.56.752h.034v-.87h-.033c-.437 0-.78-.17-1.02-.51zM1.878 5.736v4.987h.791v-4.16h.978v4.16h.788V5.736H1.878zm4.979-.131c-.419 0-.755.245-.992.728-.236.472-.352 1.097-.352 1.863 0 .792.11 1.44.336 1.908.229.48.568.719 1.008.719.449 0 .803-.25 1.053-.754.236-.469.36-1.102.36-1.873 0-.766-.129-1.395-.367-1.863L7.88 6.29l-.023-.044-.023-.045-.03-.035-.024-.045-.03-.035-.023-.036-.03-.035-.031-.035-.023-.027-.03-.036-.031-.026-.03-.027-.031-.027-.038-.026-.03-.018-.031-.027-.031-.018-.038-.018-.03-.017-.039-.018-.038-.018-.03-.009-.038-.018-.039-.009-.038-.008-.038-.01-.038-.008h-.084l-.038-.009h-.046zm.008.843c.214 0 .365.16.465.48.092.29.138.715.138 1.269 0 .528-.054.97-.16 1.304-.104.327-.248.48-.443.48h-.069l-.016-.01-.015-.008H6.75l-.016-.01-.015-.008-.015-.009-.016-.009-.015-.008-.015-.018-.016-.01-.015-.017-.015-.008-.008-.018-.015-.018-.016-.018-.007-.018-.016-.018-.015-.026-.008-.018-.015-.018-.008-.027-.015-.027-.007-.017-.008-.036-.015-.027-.008-.026-.007-.027-.016-.027c-.107-.344-.16-.78-.16-1.295 0-.529.053-.96.16-1.287.102-.315.244-.47.437-.47zm5.705-.712v.827h.657v4.16h.79v-4.16h.667v-.827H12.57zm-1.731 1.735h-.43c-.178 0-.312-.046-.395-.138-.061-.064-.089-.153-.089-.266V5.735h-.79V7.16c0 .326.112.607.332.827.217.216.486.326.794.326h.577v2.41h.792V5.735h-.792v1.736zm4.874-1.732l-.145 4.987h.787l.076-2.44h.985l.229 2.44h.794l-.367-3.647v-.133l-.007-.045v-.044l-.008-.035v-.045l-.007-.035-.008-.045-.008-.035-.007-.035-.008-.036-.007-.035-.016-.036-.007-.035-.008-.036-.015-.035-.015-.027-.016-.036-.008-.026-.015-.036-.015-.027-.023-.026-.016-.036-.015-.018-.023-.035-.015-.018-.023-.027-.023-.026-.023-.018-.016-.027-.03-.027c-.199-.18-.468-.266-.81-.266h-1.166zm.756.825h.283c.204 0 .342.076.427.222.07.12.118.35.146.674h-.879v-.142l.008-.026v-.355l.008-.036v-.257l.007-.018v-.062z" fill="#fff"/><path d="M27.941 7.677l.027.075.034.07.034.075.04.078.02.035.025.04.022.039.024.039.027.039.028.039.027.039.03.039.034.043.034.039.034.042.036.043.04.042.04.043.042.043.046.046.046.042.049.046.049.046.052.05.058.046.055.05.06.046.062.05c.15.12.32.372.192.724-.128.355-.366.851-.223 1.047.144.195.65.294 1.066.103 0 0 .089.305.242.5 0 0-.074.167-.312.082 0 0 .089.252-.034.521 0 0-.277-.056-.4-.354 0 0-.11.234-.332.315 0 0-.184-.11-.144-.536 0 0-.134.38-.55.444 0 0-.238-.351.074-.823 0 0-.226.23-.63.12 0 0-.067-.24.303-.575 0 0-.415-.02-.574-.426 0 0 .174-.251.605-.195 0 0-.4-.103-.49-.657 0 0 .288-.213.746.128 0 0-.08-.177-.272-.355-.192-.17-.425-.663-.342-1.387zm1.668 5.591l-.013-.018-.009-.018-.012-.018-.009-.018-.01-.017-.009-.018-.009-.014-.009-.018-.009-.017-.009-.018-.006-.018-.01-.017-.006-.015-.009-.017-.006-.018-.006-.018c.073.674.098 1.129.41 1.565 0 0 .192-.29.067-1a.6.6 0 01-.168-.093s.073.288.027.579c0 0-.113-.097-.195-.774zm-.544-.071l-.003-.004-.003-.007-.003-.007-.006-.003-.003-.008-.006-.007-.003-.007-.006-.007-.003-.007-.006-.01-.01-.015-.009-.018-.012-.017-.009-.018-.01-.018-.011-.017-.01-.018-.009-.014-.009-.018-.003-.01-.003-.008-.006-.007-.003-.007c-.027.39-.116 1.42.183 1.743 0 0 .202-.174.276-1.675-.043.085-.12.174-.157.223 0 0 .05.476-.097.813 0 0-.148-.132-.059-.852zm-.705.788l.021-.032.022-.04.021-.042.022-.046.018-.046.018-.05.016-.053.018-.053.015-.057.016-.057.012-.057.012-.06.024-.117.01-.057.012-.057.01-.057.005-.053.01-.053.006-.053.006-.05.006-.046.006-.043.003-.039.003-.039.003-.032.003-.014v-.014l.003-.014v-.022l.003-.007v-.028a1.175 1.175 0 00.147-.131c0 .039 0 .078.003.117-.037.625-.08 1.27-.247 1.594-.166.316-.468.479-.468.479-.285-.59.058-1.377.345-1.927a.782.782 0 00.11-.054c-.104.422-.294.922-.214 1.31zm-.706-1.807v.049l.003.01v.022l.003.004v.017l.003.007v.011l.003.004v.01l.003.004v.01l.003.004c.003.007.006.025.013.043-.239.266-.416.528-.767 1.096-.354.571-.913.593-.913.593.055-.462.162-.827.46-1.218.297-.394.682-.752.963-.99.073.04.168.064.287.046.006 0 .018-.003.028-.003a.531.531 0 00-.074.167c-.213.142-.83.507-1.08 1.093 0 0 .39-.142 1.065-.98zm-.443-.572l.024-.053a.29.29 0 01.025-.042c-.232.103-1.05.461-1.317.62-.262.16-.647.523-.855 1.26 0 0 .553.058 1.011-.382.455-.437.987-1.051 1.213-1.246a.328.328 0 01-.052-.067s-.617.635-1.27.908c0 0 .14-.29.397-.507.314-.26.55-.345.824-.49zm-.467-.436l.003-.007.003-.01.003-.011.003-.007.003-.01.003-.012.003-.003v-.004l.003-.004.003-.007c-.272.067-.947.16-1.249.266a1.96 1.96 0 00-1.17 1.083s.477.17 1.372-.32c.898-.49 1.178-.592 1.35-.645a.565.565 0 01-.285-.1c-.357.185-.833.405-1.31.42 0 0 .235-.192.48-.313a5.66 5.66 0 01.785-.316zm.021-.518l.016.01.015.007.015.007.018.011.015.003.015.008.016.007.015.003.015.007.019.004.015.004.018.003.01.004h.009l.009.004h.018l.012.004h.01l.009.003a.82.82 0 00-.174.185c-.318.106-.856.22-1.744.294-.89.079-1.362-.113-1.362-.113.308-.22.803-.444 1.136-.518.336-.075 1.212-.064 1.594-.128.006.007.055.05.131.103-.326.036-1.013.071-1.371.277 0-.001.657.102 1.521-.19zm-.067-.593l.009-.007.01-.004.008-.007.01-.003.009-.007.009-.004.009-.007.012-.007.01-.004.009-.007.012-.004.012-.007.009-.007.012-.003.012-.008.013-.003c-.45-.156-1.066-.412-1.994-.483-.682-.053-1.176-.007-1.43.071 0 0 .62.508 1.332.689.708.177 1.285.063 1.704.067.03-.05.061-.1.11-.156-.492.003-1.313-.142-1.607-.256 0 0 .715-.177 1.72.157zm0-.614v.007l.003.004v.007l.003.007v.01l.003.011.003.01.006.015.003.01.006.019.006.014.006.014.007.018.009.018.009.018.009.018.012.017.01.022.012.018.015.017.015.022.015.018.016.02.018.019.018.017.021.018.022.022.024.014.022.018.027.017.028.014c-.633-.319-1.879-.504-2.544-.83-.904-.433-1.07-.98-1.07-.98.782-.025 1.415.199 1.9.373.574.202 1.442.578 1.744.738a.568.568 0 00-.342.125 9.22 9.22 0 00-1.01-.398c-.303-.1-.53-.117-.719-.138 0 0 .27.205.709.369.437.161.627.19.984.268zm-.049-.802l.003.003.003.007.003.007.003.004.003.007.003.007.003.007.006.008.003.007.003.007.006.01.003.007.01.018.012.014.009.018.009.014.003.011.006.007.003.007.006.007.003.007.006.007.004.008.003.007.003.003.003.007.003.004.003.007c-.999-.195-2.098-1.072-2.437-1.618-.339-.543-.241-1.356-.241-1.356.33.078 1.044.795 1.227 1.011.186.213.748.849 1.136 1.204l.12.404a40.84 40.84 0 00-.972-.87c-.19-.166-.473-.397-.751-.51 0 0 .256.39.467.582.242.224.486.415.687.543.181.113.273.18.636.383z" fill="#0055A5"/><path d="M29.465 11.894l.006-.007.006-.007.003-.004.006-.007.006-.007.006-.004.004-.007.006-.004.003-.007.006-.007.003-.003.006-.008.003-.003.006-.007.003-.004.007-.007c.046.07.198.295.275.518.058.188.12.447.15.593a2.9 2.9 0 00.177.564s-.245.04-.425-.21c-.177-.237-.236-.478-.266-.727a3.238 3.238 0 01.009-.645zm-.385.036l.007.007.002.007.007.003.003.008.002.007.007.003.002.004.003.007.006.003.003.003.003.004.003.007.007.004.003.003h.002l.004.004.003.003.003.004.003.004h.003v.003h.003l.003.004h.003v.003h.003v.003h.003v.004l.037.018.034-.01c.03-.015.058-.03.082-.04.037.11.05.167.061.267.01.127.034.33-.009.497-.052.202-.156.323-.214.404 0 0-.159-.206-.204-.372a1.097 1.097 0 01-.006-.59c.034-.113.086-.216.128-.276zm-.546.017l.015-.003h.015l.012-.004.015-.004.027-.007.028-.007.028-.01.027-.007.024-.011.025-.01.021-.015.022-.01.024-.015.018-.01.022-.014.018-.015.018-.014.019-.014a.535.535 0 01.03.28.728.728 0 01-.21.373c-.165.153-.383.294-.627.248 0 0-.054-.21.428-.73zm-.184-.351l.004.018v.017l.003.015.003.017.003.015.003.014.003.018.003.014.006.014.004.01.003.015.006.014.003.011.006.01.003.011.003.011.006.01.003.011.003.008.006.007.003.01.004.007.003.004.003.007.003.007.003.004.003.003.003.004.003.004v.003h.003v.004c-.058.078-.263.486-.69.419 0 0-.117-.28.168-.5.192-.155.286-.183.418-.236zm.037-.352l-.021.008-.021.007-.025.003-.024.004-.025.004-.024.003h-.028l-.027.004h-.028l-.03-.004h-.027l-.016-.003h-.015l-.018-.004h-.015l-.015-.004-.016-.003-.015-.004-.018-.004-.015-.003-.019-.008-.049-.01-.015-.057c-.217.21-.48.245-.568.433 0 0 .11.234.394.192a.92.92 0 00.65-.415.647.647 0 01.03-.139zm-.492-.291l.006-.014.01-.014.006-.014.006-.018.009-.014.006-.018.009-.018.006-.018.01-.018.008-.02.006-.011.006-.008.004-.01.006-.011.006-.01.006-.008.006-.01.006-.011.01-.01.006-.011.009-.01.006-.008a1.22 1.22 0 00-.577.007c-.263.057-.532.128-.666.59 0 0 .168.17.476.095.257-.06.483-.191.614-.408zm-.113-.503l-.012-.015-.012-.01-.012-.015-.013-.014-.009-.014-.012-.018-.012-.014-.01-.014-.012-.018-.009-.018-.012-.018-.01-.018-.008-.021-.01-.018-.009-.021-.009-.022-.021-.056c-.226-.107-.464-.164-.696-.064-.232.103-.294.22-.352.32 0 0 .257.251.553.262.296.008.568-.092.687-.195zm.07-.544l.006-.003.01-.004.006-.004h.009l.006-.003.009-.004.006-.003.01-.004h.009l.009-.004.009-.003h.006l.009-.004.01-.004h.008l.01-.004a.992.992 0 01-.248-.496c-.104.028-.354.028-.461-.018a.512.512 0 00-.492.078s.055.337.434.454c.358.111.489.083.635.026zm-.137-.663l.049-.04c.006-.003.091-.063.238-.074-.122-.11-.415-.394-.62-.526-.223-.145-.596-.344-.788-.372 0 0 .18.543.385.763.217.227.366.312.736.249zm.382-.253l-.016-.025-.015-.028-.018-.028-.015-.029-.013-.032-.015-.032-.015-.032-.012-.035-.012-.036-.015-.035-.013-.036-.009-.039-.012-.039-.012-.039-.01-.043-.008-.039c-.046-.184-.144-.631-.202-.752-.058-.117-.269-.522-.678-.65 0 0-.107.529.098.955.176.363.54.746.992.994zm2.275 2.478l.012.01.01.011.009.01.009.008.009.01.009.008.01.01.008.008.01.007.012.01.006.004.006.004.006.004.006.007.006.004.006.003.01.004.006.007.006.003.009.004.009.007.006.004s.131.291-.027.639c-.16.351-.29.71-.354.908 0 0-.086-.014-.18-.564-.065-.369-.144-.465-.23-.589a.502.502 0 00.175.067l.06.018.031-.07a.846.846 0 00.07-.345c0-.036 0-.068-.003-.096a.29.29 0 00.257-.124c.003-.007.006-.007.006-.01l.015.019z" fill="#0055A5"/><path d="M26.89 7.265v.168l.01.131c-.245-.358-.535-.791-.81-1.192a2.314 2.314 0 00-.528-.572c.152.507.421.912.61 1.111.19.202.465.543.734.753l.024.099c.021.096.052.192.095.284.067.128.146.252.244.376a3.222 3.222 0 00-.257-.138l-.085-.043c-.736-.45-1.47-1.395-1.762-2.048-.296-.656-.174-1.416-.098-1.824.336.33.822.98 1.03 1.331.26.433.589 1.05.793 1.551v.013zm10.344 2.794l-.009-.007-.006-.004-.009-.007-.01-.003-.008-.007-.013-.004-.009-.007-.009-.007-.01-.004-.011-.007-.01-.004-.012-.007-.012-.007-.012-.003-.012-.008-.012-.003c.452-.156 1.069-.412 2-.483.681-.053 1.17-.007 1.426.071 0 0-.623.508-1.331.689-.709.177-1.286.063-1.708.067a.865.865 0 00-.106-.156c.491.003 1.31-.142 1.606-.256 0 0-.715-.177-1.723.157zm.004-.614v.007l-.004.004v.007l-.003.007-.003.01v.011l-.006.01-.003.015-.003.01-.006.019-.006.014-.006.014-.01.018-.006.018-.009.018-.009.018-.012.017-.012.022-.013.018-.012.017-.015.022-.015.018-.019.02-.018.019-.018.017-.019.018-.024.022-.021.014-.025.018-.024.017-.028.014c.633-.319 1.876-.504 2.547-.83.901-.433 1.066-.98 1.066-.98-.781-.025-1.417.199-1.902.373-.571.202-1.438.578-1.744.738.116.004.242.04.345.125.425-.188.623-.27 1.008-.398.305-.1.528-.117.718-.138 0 0-.266.205-.706.369-.44.161-.63.19-.983.268zm.048-.802v.003l-.003.007-.003.007-.003.004-.006.007-.003.007-.003.007-.003.008-.006.007-.004.007-.009.018-.009.018-.012.014-.01.017-.008.015-.003.01-.006.007-.003.008-.006.007-.004.007-.006.007-.003.007-.003.007-.003.004-.003.007-.006.004-.003.007c.999-.196 2.098-1.072 2.437-1.619.342-.543.245-1.356.245-1.356-.33.078-1.045.795-1.231 1.012-.183.213-.745.848-1.133 1.203l-.12.405c.33-.309.725-.653.969-.87.192-.166.47-.397.754-.51 0 0-.26.39-.467.581a5.035 5.035 0 01-.69.543c-.178.113-.272.18-.633.383zm-.241-1.378v.168l-.01.13c.242-.358.532-.79.807-1.192.192-.273.351-.436.528-.571-.15.507-.418.912-.608 1.11-.19.203-.464.544-.733.753l-.024.1a1.627 1.627 0 01-.098.284 2.397 2.397 0 01-.241.376 2.77 2.77 0 01.256-.138l.083-.043c.736-.45 1.469-1.395 1.762-2.048.302-.657.177-1.416.098-1.824-.336.33-.819.98-1.026 1.33-.26.434-.59 1.052-.794 1.552v.013zm-9.211 5.175l-.03.036-.031.035-.034.04-.033.042-.037.043-.037.046-.036.05-.037.05-.04.053-.04.053-.036.056-.04.057-.036.06-.04.064-.036.064-.037.064-.033.068-.034.067-.034.068-.03.07-.03.072-.025.074-.024.071-.025.078-.018.075-.019.074-.012.078-.012.079-.006.078-.003.081-.003.078.006.082s.593-.217.84-.724c.244-.504.394-.827.498-.94a.593.593 0 01-.196 0l-.055-.011c-.152.32-.452.844-.72 1.026 0 0-.068-.426.724-1.285a.934.934 0 01.048-.118.554.554 0 01-.247.043m8.15-4.76l-.03.075-.034.07-.033.075-.04.078-.021.035-.022.04-.024.039-.024.039-.025.039-.027.039-.031.039-.03.039-.031.043-.034.039-.033.042-.037.043-.04.042-.04.043-.042.043-.046.046-.046.042-.048.046-.05.046-.051.05-.055.046-.058.05-.061.046-.061.05a.617.617 0 00-.193.724c.129.355.367.851.223 1.047-.143.195-.653.294-1.069.103 0 0-.088.305-.238.5 0 0 .073.167.312.082 0 0-.09.252.033.521 0 0 .278-.056.397-.354 0 0 .11.234.333.315 0 0 .186-.11.143-.536 0 0 .135.38.553.444 0 0 .238-.351-.073-.823 0 0 .223.23.629.12 0 0 .064-.24-.303-.575 0 0 .416-.02.575-.426 0 0-.177-.251-.608-.195 0 0 .4-.103.489-.657 0 0-.287-.213-.743.128 0 0 .08-.177.272-.355.19-.17.422-.663.342-1.387zm-1.667 5.591l.013-.018.009-.018.009-.018.012-.018.01-.017.008-.018.01-.014.009-.018.009-.017.006-.018.01-.018.005-.017.01-.015.005-.017.007-.018.006-.018c-.07.674-.095 1.129-.41 1.565 0 0-.19-.29-.067-1a.528.528 0 00.168-.093s-.07.288-.027.579c0 0 .113-.097.198-.774zm.541-.071l.006-.004.003-.007.003-.007.003-.003.006-.008.003-.007.006-.007.003-.007.007-.007.002-.01.013-.015.009-.018.01-.017.011-.018.01-.018.009-.017.009-.018.009-.014.009-.018.006-.01.003-.008.003-.007.003-.007c.028.39.117 1.42-.18 1.743 0 0-.205-.174-.275-1.675.043.085.12.174.153.223 0 0-.05.476.097.813 0 0 .15-.132.059-.852zm.709.788l-.025-.032-.021-.04-.022-.042-.018-.046-.021-.046-.015-.05-.019-.053-.015-.053-.015-.057-.016-.057-.012-.057-.016-.06-.02-.117-.013-.057-.01-.057-.008-.057-.006-.053-.01-.053-.006-.053-.006-.05-.006-.046-.006-.043-.003-.039-.003-.039-.003-.032-.003-.014v-.014l-.003-.014v-.022l-.003-.007v-.028a.85.85 0 01-.104-.089c-.016-.014-.03-.025-.043-.042 0 .039 0 .078-.006.117.04.625.082 1.27.25 1.594.166.316.468.479.468.479.285-.59-.058-1.377-.348-1.927a.763.763 0 01-.107-.054c.1.422.29.922.214 1.31zm.705-1.807v.049l-.004.01v.022l-.002.004v.014l-.004.003v.014l-.003.004v.01l-.003.004v.014l-.003.004c-.003.007-.006.025-.012.043.238.266.415.528.767 1.096.35.571.913.593.913.593-.055-.462-.165-.827-.464-1.218a6.622 6.622 0 00-.96-.99.453.453 0 01-.286.046c-.013 0-.019-.003-.028-.003a.529.529 0 01.073.167c.211.142.831.507 1.081 1.093 0 0-.39-.142-1.065-.98zm.442-.572l-.024-.053a.29.29 0 00-.024-.042c.229.103 1.047.461 1.313.62.266.16.647.523.855 1.26 0 0-.553.058-1.008-.382-.455-.437-.986-1.051-1.215-1.246a.267.267 0 00.055-.067s.616.635 1.27.908c0 0-.14-.29-.4-.507-.312-.26-.547-.345-.822-.49zm.467-.436l-.003-.007-.003-.01-.003-.011-.006-.008-.003-.01-.003-.01-.003-.008-.003-.01c.269.067.947.16 1.249.266.3.106.846.365 1.17 1.083 0 0-.477.17-1.375-.32-.894-.49-1.175-.593-1.346-.646a.563.563 0 00.283-.1c.358.185.834.405 1.31.42 0 0-.234-.192-.482-.313a5.408 5.408 0 00-.782-.316zm-.021-.518l-.015.01-.015.007-.019.007-.015.011-.015.003-.015.008-.016.007-.015.003-.015.007-.018.004-.016.004-.018.003-.018.004-.01.004h-.02l-.009.004h-.01l-.011.003a.828.828 0 01.177.185c.315.106.852.22 1.74.294.89.079 1.363-.113 1.363-.113a3.67 3.67 0 00-1.136-.518c-.333-.075-1.21-.064-1.595-.128a.78.78 0 01-.128.103c.324.036 1.014.071 1.368.277 0-.001-.654.102-1.518-.19z" fill="#0055A5"/><path d="M34.468 11.894l-.01-.014-.005-.004-.007-.007-.006-.007-.003-.004-.006-.007-.003-.004-.006-.007-.003-.007-.006-.003-.003-.008-.006-.003-.004-.007-.006-.004-.003-.007a2.34 2.34 0 00-.278.518c-.055.188-.12.447-.147.593a3.389 3.389 0 01-.177.564s.242.04.422-.21c.177-.237.242-.478.266-.727a3.022 3.022 0 00-.009-.645zm.384.036l-.002.007-.007.007-.003.003-.003.008-.006.007-.003.003-.003.004-.006.007-.003.003-.003.003-.003.004-.007.007-.002.004-.004.003h-.002l-.004.004-.003.003-.003.004-.003.004h-.003l-.003.003h-.003l-.003.004-.003.003h-.003v.003h-.006v.004l-.03.018-.038-.01c-.027-.015-.054-.03-.082-.04-.034.11-.049.167-.058.267-.013.127-.034.33.009.497.052.202.153.323.21.404 0 0 .163-.206.206-.372a1.08 1.08 0 00.006-.59.844.844 0 00-.129-.276zm.55.017l-.015-.003h-.015l-.016-.004-.015-.004-.028-.007-.027-.007-.027-.01-.025-.007-.024-.011-.025-.01-.024-.015-.021-.01-.022-.015-.021-.01-.018-.014-.022-.015-.018-.014-.015-.014c-.022.064-.055.156-.03.28.024.128.1.274.21.373.162.153.381.294.623.248 0 0 .057-.21-.425-.73zm.183-.351l-.003.018-.003.017-.003.015v.017l-.003.015-.003.014-.006.018-.003.014-.003.014-.003.01-.007.015-.003.014-.003.011-.006.01-.003.011-.006.011-.003.01-.003.011-.006.008-.003.007-.003.01-.003.007-.007.004-.003.007-.003.007-.003.004v.003l-.003.004-.003.004v.003h-.003v.004c.055.078.263.486.691.419 0 0 .113-.28-.171-.5-.193-.155-.284-.183-.416-.236zm-.039-.352l.02.008.025.007.025.003.024.004.025.004.024.003h.027l.028.004h.027l.03-.004h.028l.03-.003.016-.004h.019l.015-.004.015-.003.015-.004.019-.004.015-.003.015-.008.049-.01.018-.057c.217.21.48.245.568.433 0 0-.11.234-.394.192a.92.92 0 01-.65-.415 1.189 1.189 0 00-.033-.139zm.494-.291l-.003-.007-.003-.007-.009-.014-.006-.014-.006-.018-.01-.014-.005-.018-.01-.018-.009-.018-.006-.018-.009-.02-.006-.011-.006-.008-.003-.01-.006-.011-.006-.01-.006-.008-.007-.01-.006-.011-.009-.01-.006-.011-.01-.01-.005-.008a1.22 1.22 0 01.577.007c.262.057.531.128.666.59 0 0-.172.17-.477.095-.256-.06-.485-.191-.614-.408zm.11-.503l.012-.015.013-.01.012-.015.012-.014.012-.014.012-.018.01-.014.012-.014.009-.018.012-.018.01-.018.008-.018.01-.021.009-.018.009-.021.01-.022.02-.056c.23-.107.465-.164.697-.064.232.103.293.22.35.32 0 0-.256.251-.549.262-.296.008-.57-.092-.69-.195zm-.067-.544l-.015-.007-.01-.004h-.005l-.01-.003-.006-.004-.009-.003-.01-.004h-.008l-.006-.004-.01-.003h-.009l-.009-.004-.009-.004h-.009l-.01-.004a.945.945 0 00.248-.496c.11.028.355.028.464-.018a.511.511 0 01.492.078s-.055.337-.437.454c-.354.111-.489.083-.632.026zm.135-.663l-.05-.04c-.005-.003-.091-.063-.235-.074.123-.11.413-.394.617-.526.226-.145.599-.344.788-.372 0 0-.177.543-.385.763-.213.227-.363.312-.736.249zm-.383-.253l.019-.025.015-.028.015-.028.016-.029.015-.032.015-.032.015-.032.013-.035.012-.036.015-.035.012-.036.012-.039.01-.039.012-.039.009-.043.012-.039c.04-.184.14-.631.199-.752.058-.117.268-.522.678-.65 0 0 .107.529-.098.955-.18.363-.544.746-.996.994zm-2.272 2.478l-.012.01-.01.011-.008.01-.01.008-.009.01-.009.008-.009.01-.009.008-.012.007-.012.01-.004.004-.006.004-.006.004-.006.007-.009.004-.006.003-.006.004-.006.007-.01.003-.005.004-.01.007-.009.004s-.128.291.028.639c.158.351.293.71.357.908 0 0 .085-.014.18-.564.064-.369.147-.465.23-.589a.554.554 0 01-.175.067l-.061.018-.03-.07a.808.808 0 01-.068-.441.286.286 0 01-.256-.124c-.003-.007-.003-.007-.01-.01l-.012.019z" fill="#0055A5"/><path d="M36.101 12.44l.03.036.032.035.033.04.033.042.037.043.034.046.04.05.036.05.04.053.037.053.04.056.039.057.037.06.036.064.04.064.033.064.037.068.034.067.033.068.03.07.028.072.028.074.024.071.021.078.022.075.015.074.015.078.012.079.006.078.003.081v.078l-.003.082s-.595-.217-.84-.724c-.244-.504-.393-.827-.497-.94.064.01.131.01.196 0l.054-.011c.153.32.45.844.718 1.026 0 0 .07-.426-.72-1.285a.684.684 0 00-.052-.118.567.567 0 00.25.043m-4.59-6.854v-.007l.003-.007.003-.004.003-.007.006-.003.006-.007.006-.004.01-.007.009-.004.009-.007.012-.004.012-.003.012-.008.015-.003.016-.004.015-.003.015-.004.016-.003.018-.004.018-.004.018-.003.022-.004.018-.004h.021l.022-.003.021-.004h.046l.021-.004h.07c.257 0 .465.053.465.118 0 .06-.208.113-.465.113-.255.002-.463-.051-.463-.112zm-1.579.621v-.003l.003-.004v-.004l.003-.003.003-.004.006-.003h.003l.006-.004.006-.004.006-.003h.007l.009-.004.009-.004.006-.003h.012l.01-.004h.009l.012-.004.012-.003h.01l.011-.004h.028l.012-.004h.028l.015-.003h.076c.162 0 .3.028.3.064 0 .035-.138.06-.3.06-.167.001-.302-.023-.302-.059zm2.136-.372v.025l-.003.003v.008l-.003.003v.007l-.003.004v.004l-.003.003-.003.007-.003.004-.003.004-.004.004-.003.003-.003.004-.003.004-.003.003-.003.004-.003.003h-.003l-.006.004-.003.004H32l-.006.003h-.01l-.003.004h-.014c-.05 0-.092-.046-.092-.11 0-.054.043-.103.092-.103.052-.002.092.047.092.1zm-.591-.362l-.015-.043-.012-.039-.015-.035-.012-.04-.013-.035-.012-.039-.015-.035-.01-.032-.012-.036-.012-.032-.009-.032-.012-.032-.01-.032-.008-.028-.01-.028-.009-.029-.009-.028-.006-.025-.006-.025-.01-.025-.005-.021-.006-.022-.003-.02-.006-.022-.004-.018-.003-.018-.003-.018-.003-.014-.003-.014v-.035c.003-.064.068-.11.129-.132.064-.021.116-.028.159.007.08.075.155.65.18.891a.648.648 0 00-.215.086zm.285-.093l.006-.004h.022l.015-.003h.046l.03-.004a7.84 7.84 0 00-.134-.763c-.04-.153-.092-.259-.178-.288 0 0 .068.21.104.426.037.218.061.43.09.636zm-.493.767l.02-.004.014-.007.015-.007.016-.007.015-.007.018-.011.016-.007.015-.011.015-.01.013-.011.015-.011.015-.01.012-.011.016-.011.012-.01.012-.015.012-.01.01-.011.012-.01.01-.008.008-.01.01-.011.009-.007.01-.01.005-.008.006-.003.003-.008.006-.007.003-.003h.003v-.004a.43.43 0 00-.345.26z" fill="#0055A5"/><path d="M31.518 6.126l-.025.014-.021.011-.021.014-.025.011-.021.011-.022.01-.024.008-.022.01-.021.007-.021.004-.022.007-.021.007-.018.004-.022.003-.018.004-.018.004h-.019l-.015.003h-.015l-.015.004h-.098a.825.825 0 01.247-.334.736.736 0 01.486-.142.742.742 0 01-.23.34zm-.053.145c-.178.096-.727.106-1.024.124h-.19l-.023-.008h-.031l-.023-.01h-.023l-.023-.008-.023-.009h-.023l-.023-.009h-.023l-.023-.008h-.015l-.023-.01-.015-.008h-.015l-.015-.009-.015-.009h-.023l-.008-.008h-.008l-.015-.01h-.008c.034.753.474.8.474.8-.006-.06 0-.16 0-.16.137.149.42.257.42.257-.003-.092-.03-.169-.03-.169.119.082.19.08.19.08a.927.927 0 00-.068-.23c.082.124.183.133.183.133a.661.661 0 00-.015-.213c.042.06.122.22.366.284.25.06.359-.107.359-.107-.238.018-.466-.248-.466-.248.128-.057.176-.16.176-.16a.266.266 0 00-.153-.08.37.37 0 00.176-.205zm-.84.284v.027s-.382.001-.397.221c-.062-.046-.092-.13-.107-.23 0 0 .272.017.504-.018zm-.839-.215l.003.031.003.029.003.032.003.028.003.032.007.028.006.029.006.028.006.029.006.028.006.025.01.025.006.025.009.025.009.021.01.021s-.175-.149-.218-.28c-.043-.132-.056-.217.122-.157zm-.513.144a.248.248 0 00-.19.124c-.09.153-.057.444.13.568 0 0 .279-.282.617-.009 0 0 .075-.051.252-.098v-.008h-.007v-.01l-.008-.008-.007-.009h-.008v-.009l-.007-.008-.008-.01L30.029 7l-.007-.009-.008-.009h-.008L30 6.964h-.008l-.008-.018h-.007l-.008-.01-.015-.008-.007-.009-.008-.009-.015-.008-.008-.01-.007-.008-.016-.009h-.008l-.015-.009-.008-.008c-.104-.053-.317-.128-.381-.355a.531.531 0 00-.207-.019zm.16.302c.04 0 .077.042.077.088v.018h-.007v.018h-.008v.018h-.008v.008h-.007v.009h-.015v.009h-.016l-.008.008h-.007c-.04 0-.069-.042-.069-.088 0-.046.029-.088.069-.088zm.689.334l.003.004.003.003v.004h.003l.003.007.003.004.006.007.003.01.007.008.006.007.006.01.006.011.01.007.005.01.01.011.005.015.01.01.018.021.015.022.019.025.009.01.009.01.009.012.01.01.008.007.01.011.009.007.009.01s-.459-.006-.572.455c0 0-.156-.284-.043-.465.123-.196.239-.224.401-.263z" fill="#0055A5"/><path d="M30.623 7.23l.003.004h.006l.003.003h.009l.006.004.006.004h.006l.01.003.006.004h.009l.006.004.01.003.014.004.016.007.018.003.006.004.01.003.006.004h.009l.006.004.006.004h.006l.006.003h.006l.006.004s0-.1-.003-.145c.046.01.098.028.147.035 0 0 .147.376.263.529 0 0 .006.089-.058.213 0 0-.086-.22-.232-.405a1.83 1.83 0 00-.312-.296zm-.389-.078h.004l.006.004h.009l.006.003.01.004.008.003.012.004.01.003.012.008.012.003.012.004.016.007.012.003.015.008.012.007.016.007.03.014.03.014.031.014.028.015.015.01.015.007.012.007.016.011.012.007.012.007.012.01.01.008c.143.12.241.255.226.493 0 0-.114-.188-.242-.273a1.47 1.47 0 01-.379-.412zm.004-1.725h.009l.004.004h.015l.006.003h.008l.006.004h.007l.003.004h.006l.006.003.006.004.003.003.006.004.003.004.006.004.003.003.006.004.004.004.002.003.004.007.003.004.003.007.003.004v.007l.003.003v.011l.003.004v.011c0 .082-.11.277-.141.362-.03-.085-.138-.28-.138-.362 0-.082.083-.106.126-.106h.024v-.003zm-.094.635l-.003-.014-.003-.01v-.015l-.003-.014-.003-.014-.003-.014-.003-.018v-.014l-.003-.018-.003-.018-.007-.035-.009-.036-.006-.039-.006-.035-.006-.018-.003-.018-.003-.014-.006-.018-.003-.014-.006-.014-.004-.015-.006-.014-.006-.014-.003-.01-.006-.011-.006-.011-.006-.007-.003-.007a.246.246 0 00-.187-.064c-.043.004-.089.053-.07.12.018.068.208.398.232.437.043-.007.034-.007.144-.014zm.164 0l.003-.014.003-.01v-.015l.003-.014.003-.014.003-.014.003-.018.003-.014.003-.018.003-.018.006-.035.007-.036.006-.039.009-.035.003-.018.003-.018.006-.014.003-.018.006-.014.003-.014.006-.015.004-.014.006-.014.003-.01.006-.011.006-.011.006-.007.003-.007a.243.243 0 01.187-.064c.043.004.086.053.07.12a4.349 4.349 0 01-.233.437c-.042-.007-.036-.007-.143-.014zm.123-1.032h-.147v-.19h-.12v.189h-.146v.12h.147v.22h.12v-.22h.146v-.12zM28.65 6.247v-.053l.004-.014v-.025l.003-.008V6.14c.009-.092.012-.173.003-.237-.108.046-.181.078-.325.351 0 0 .233-.167.316-.007z" fill="#0055A5"/><path d="M28.852 6.683v-.007l.003-.01V6.64l.003-.011v-.01l.003-.015.003-.01V6.58l.003-.01.003-.015v-.014l.003-.014.003-.018.004-.014.006-.028.006-.032.009-.033.006-.031.01-.032.008-.033.01-.031.003-.015.006-.014c.061-.184.021-.454-.05-.614a.995.995 0 01-.094-.472s-.138.054-.218.11c-.012.192.083.38.129.487a.845.845 0 01.03.394.885.885 0 00.11.532zm.014-1.451V5.22h-.003v-.057l.003-.004v-.018l.003-.003V5.13l.003-.003s.217-.245.398-.288c.116-.028.186.032.223.064 0 0-.068-.007-.163.085-.097.09-.216.203-.311.231-.088.027-.11.02-.153.013zm.642-.305l.015.017.016.018.015.018.012.018.015.018.013.018.003.007.006.01.006.007.006.01.003.012.006.007.003.01.007.008.002.007.004.01.003.008.003.01.003.007.003.01.003.008v.01l.003.008v.025c-.003.089-.092.315-.14.4-.047.086-.114.2-.108.334a.348.348 0 00.095.199s-.266-.074-.296-.263c-.03-.17.03-.29.073-.386.04-.09.165-.295.192-.38a.355.355 0 00.034-.185zM31.06 7.07l.008.04.013.042.012.039.012.039.012.039.016.039.015.04.015.035.015.035.016.039.015.036.015.032.018.035.016.032.015.032.018.028c.08.146.129.387.123.469 0 0 .119-.309.058-.525-.046-.17-.177-.42-.413-.526zm.295.071h.025l.006.004h.034l.009.004h.018l.012.003h.01l.012.004h.009l.012.004.012.003.01.004.012.004h.009l.012.007.01.003.011.004.01.003.009.008.009.003.009.007.01.004c.11.085.213.266.253.486 0 0-.186-.035-.275-.142a1.25 1.25 0 01-.248-.413zm-.94.384h-.018l-.006.003h-.009l-.007.004h-.012l-.006.003-.012.004-.012.004h-.013l-.012.003-.012.004-.012.004-.006.003h-.006l-.007.004h-.006l-.003.004h-.012l-.003.003a.8.8 0 00.233.125.576.576 0 01.15.326c.04.23.155.48.189.554l.015-.003c-.024-.16.061-.487.086-.533 0 0-.126-.092-.18-.184-.044-.07-.114-.183-.319-.328zm.807.493l.006.01.003.012.006.014.006.014.006.01.003.015.006.018.01.014.006.014.006.018.012.032.012.032.004.018.006.018.006.021.003.018.006.018.003.017.003.022.003.018.003.02.003.022v.06l-.003.022v.018l-.003.02-.003.022-.006.021c-.055.224-.178.32-.257.508 0 0-.062-.34-.05-.603.016-.268.098-.367.2-.463zm.35.007v.004l.003.003v.004l.003.004v.003l.003.004.003.003v.007l.003.007.007.011.006.014.006.018.009.018.006.018.01.02.008.019.01.021.006.025.009.021.01.021.011.025.019.05.015.046.01.025.008.021.01.022.006.025.006.02.006.019.006.021.006.018.003.018.006.014a.45.45 0 01-.061.358c-.061.096-.165.203-.263.402 0 0-.11-.17-.125-.26a1.439 1.439 0 01.033-.393c.025-.09.12-.381.202-.676zm.093 1.303l-.003.003h-.003v.004l-.003.004-.003.003-.003.007-.01.007-.006.01-.009.012-.01.014-.008.01-.01.015-.009.014-.012.018-.012.014-.01.018-.011.014-.025.036-.021.031-.012.018-.01.018-.012.018-.01.014-.008.018-.01.014-.008.014-.01.014-.009.015-.006.014-.006.01-.003.01-.003.008-.003.004v.003l-.003.004c-.028.089-.077.248-.013.362.07.114.218.295.35.373 0 0-.141-.26-.13-.472.01-.139.102-.26.12-.341a.733.733 0 00-.046-.352zm-.416-.164l.003.004.003.007.003.004.003.007.006.007.003.007.003.007.003.007.003.011.006.007.003.011.003.007.003.011.003.007.01.021.006.022.006.021.006.021.006.022.006.02v.015l.003.01.003.011v.025l.003.011c.006.12-.009.22-.067.401-.07.223-.183.476-.235.59 0 0-.102-.167-.157-.313 0 0 .157-.249.22-.422.08-.207.111-.399.142-.559zm-.071-.099v.003l-.003.004v.021l-.003.015-.003.014-.003.021-.003.022-.006.025-.003.024-.006.029-.006.032-.01.032-.005.032-.01.035-.009.04-.012.035-.01.039-.011.042-.016.04-.012.042-.015.042-.015.043-.019.042-.018.043-.021.043-.019.042-.024.046-.022.043-.024.039-.025.042-.027.043c-.198.291-.36.394-.467.394-.162 0-.324-.16-.379-.337-.055-.178-.036-.458.067-.554 0 0 .098.348.303.362.235.015.534-.29.836-.88z" fill="#0055A5"/><path d="M30.938 8.824l.003.01v.011l.003.01v.011l.006.022.003.025v.024l.003.025.003.025v.082l-.003.028-.003.029v.028l-.006.029-.003.028-.006.028a.604.604 0 01-.199.348c-.101.071-.333.09-.425-.17 0 0 .428.039.624-.593zm.699 2.342l.006.015.006.018.009.017.006.018.01.018.008.018.013.018.009.018.021.035.021.036.025.035.021.035.022.036.012.014.01.018.008.018.01.018.009.014.009.017.006.015.006.018.006.014.006.014.003.014.004.014v.014l.003.011c-.007.362-.144.582-.175.703 0 0-.247-.23-.29-.493-.024-.136 0-.54.196-.74zm-.278.256l.003-.01.003-.011.003-.011.006-.01.003-.015.006-.01.003-.015.006-.014.006-.014.007-.018.006-.014.006-.014.012-.032.016-.032.015-.035.015-.033.01-.014.005-.014.01-.014.009-.014.009-.014.009-.015.009-.014.009-.01.01-.011.008-.011.01-.01.009-.011s.137-.462-.297-.746c0 0-.18.273-.226.536-.049.26.19.416.3.65zm-.544-1.172l-.015.022-.015.018-.013.021-.015.021-.015.018-.015.021-.019.022-.015.018-.015.017-.015.022-.01.007-.009.007-.006.01-.01.008-.005.007-.01.007-.006.007-.009.004-.006.007-.009.007-.006.003-.01.004s-.027.206-.009.344c.022.203.135.412.184.568 0 0 .19-.291.21-.461.022-.17.02-.309.025-.39 0-.001-.104-.2-.162-.338zm-.503.994l-.007-.01-.006-.01-.006-.015-.006-.01-.01-.019-.005-.014-.01-.018-.009-.018-.009-.02-.009-.019-.01-.02-.008-.026-.01-.021-.009-.025-.012-.022-.01-.024-.017-.05-.019-.053-.015-.053-.006-.025-.01-.025-.006-.028-.006-.025-.003-.025-.006-.029-.003-.024-.003-.025v-.025l-.003-.025s.217.135.398.035c0 0 .021.334-.012.444a.427.427 0 01-.153.224zm.048.072l.006-.004.003-.004.003-.007.006-.003.003-.004.007-.004.003-.007.006-.004.006-.007.003-.003.012-.015.01-.01.012-.015.012-.01.01-.015.011-.01.007-.007.002-.004.006-.007.007-.007.003-.004.003-.007.006-.003.003-.008.003-.003.003-.007s.144.305.169.394c0 0-.07.018-.15-.046a1.048 1.048 0 01-.175-.17zm.663-.182l-.003.004v.004l-.003.007v.004l-.003.007-.003.003-.003.007-.004.007-.006.015-.006.014-.01.017-.008.015-.01.018-.008.02-.013.019-.01.021-.011.018-.012.021-.025.04-.024.042-.013.018-.012.021-.009.018-.012.018-.012.018-.01.017-.009.015-.012.014-.006.014-.01.01-.002.004-.003.007-.003.004-.003.004-.004.003-.003.004-.003.004-.003.003s.019.135.104.327c.086.195.205.33.27.397 0 0 .14-.287.183-.412a.6.6 0 00.021-.344c-.049-.126-.214-.307-.287-.467zm.345.973l.003.014.006.01.006.015.006.01.01.015.005.014.01.01.006.015.009.014.01.018.018.029.015.031.018.029.019.032.018.031.015.032.006.018.01.014.006.018.006.014.006.014.006.018.003.014.003.018.006.014v.014a.652.652 0 01-.024.306c-.03.081-.122.244-.184.369 0 0-.21-.23-.256-.394a.678.678 0 01.03-.412c.049-.11.16-.227.208-.344zm-.595-.032l.006.014.006.014.006.01.006.015.006.014.006.011.015.025.016.028.015.025.018.025.016.025.015.024.015.026.015.024.007.01.006.015.006.01.006.015.006.01.006.01.003.015.007.01.002.012.004.014a.596.596 0 01-.013.397c-.055.146-.116.231-.137.32 0 0-.172-.256-.203-.362a.854.854 0 01-.003-.394c.037-.114.099-.26.142-.362zm.839.98v.003h-.003v.003l-.003.004-.003.004-.003.003-.003.004-.003.007-.003.003-.006.008-.003.007-.006.007-.01.014-.009.018-.012.018-.012.017-.012.021-.013.022-.015.021-.012.025-.015.025-.013.024-.015.025-.012.025-.012.029-.013.024-.012.025-.012.029-.009.024-.01.025-.008.028-.007.025-.009.025-.003.021-.003.025-.003.01v.032c.01.274.165.452.187.622 0 0 .156-.202.213-.337.065-.156.117-.284.098-.458-.018-.174-.058-.284-.21-.457zm-.54-.043l.003.007.006.01.006.012.006.01.006.01.007.015.006.014.006.014.01.014.005.015.007.017.008.014.007.018.006.018.012.035.006.022.006.018.006.018.007.017.003.021.006.018.003.018.003.017.003.022.003.018v.067l-.003.018-.003.014c-.037.16-.184.383-.233.482 0 0-.117-.276-.141-.404-.024-.128-.003-.334.233-.589zm2.938-6.808v-.003l-.003-.004v-.004l-.003-.003L34 6.186l-.003-.003h-.006l-.007-.004-.006-.004-.006-.003h-.006l-.01-.004-.005-.004-.01-.003h-.008l-.013-.004h-.009l-.012-.004-.01-.003h-.011l-.013-.004h-.024l-.015-.004h-.027l-.012-.003h-.076c-.166 0-.3.028-.3.064 0 .035.134.06.3.06.164.001.299-.023.299-.059zm-2.04-1.068l.003-.014.003-.018.003-.018.003-.018.006-.017.006-.018L32 5.01l.006-.02.007-.022.006-.022.015-.042.015-.046.016-.046.015-.043.015-.046.006-.022.01-.02.006-.022.003-.021.006-.018.006-.022.003-.018.003-.017.003-.018.003-.018V4.5c0-.114-.08-.206-.178-.206-.098 0-.177.092-.177.206 0 .145.156.479.174.635h.007v.001zm.494.334l.015-.043.016-.039.012-.035.015-.04.013-.035.012-.039.012-.035.012-.032.013-.036.009-.032.012-.032.01-.032.011-.032.01-.028.009-.028.009-.029.006-.028.01-.025.005-.025.007-.025.006-.021.006-.022.006-.02.003-.022.006-.018.003-.018.003-.018v-.014l.003-.014v-.035c0-.064-.067-.11-.125-.132-.067-.021-.12-.028-.162.007-.08.075-.153.65-.184.891.08.018.129.032.217.086zm-.281-.093l-.009-.004h-.021l-.016-.003h-.046l-.015-.004h-.012c.025-.23.092-.61.132-.763.043-.153.092-.259.178-.288 0 0-.065.21-.102.426-.036.218-.064.43-.089.636zm.144.508h.003v.004h.003v.003h.003l.003.007.006.007.006.004.006.007.01.01.006.008.009.01.009.01.012.008.01.01.012.011.012.01.012.015.012.01.016.011.012.01.015.012.013.01.015.01.015.012.015.01.016.008.015.01.015.007.019.008.015.007.015.007.015.003s-.07-.213-.345-.26z" fill="#0055A5"/><path d="M32.186 5.785h.018l.013-.003h.036l.013.003h.03l.015.004h.015l.016.004.015.003h.018l.016.004.018.004.015.007.019.003.018.004.015.007.019.007.018.004.015.007.019.007.018.007.015.01.015.008.019.01.015.011.015.007.013.014.015.011c.15.12.199.223.25.334 0 0-.269.024-.504-.135a.724.724 0 01-.232-.342zm.286.486s.03.13.168.204c0 0-.075.006-.145.08 0 0 .046.103.168.16 0 0-.225.266-.466.248 0 0 .112.167.36.106.247-.063.32-.223.366-.284 0 0-.03.153-.016.213 0 0 .106-.008.191-.133 0 0-.064.124-.076.23 0 0 .068.003.19-.079 0 0-.027.076-.03.169 0 0 .287-.108.427-.258v.115l-.007.009v.036s.44-.047.473-.8c0 0-.288.125-.588.107-.292-.017-.84-.027-1.015-.123zm.832.284c.233.035.512.018.512.018v.017h-.007v.018l-.008.018v.018l-.008.009v.018l-.007.008v.018h-.008v.009l-.007.009v.008l-.008.01-.008.008v.009h-.007l-.008.009v.008h-.008l-.008.01v.008h-.007l-.008.009-.007.009c-.015-.22-.397-.222-.397-.222v-.026zm.846-.215l-.003.031-.003.029-.003.032-.003.028-.006.032-.004.028-.006.029-.006.028-.006.029-.006.028-.01.025-.005.025-.01.025-.005.025-.01.021-.009.021s.175-.149.218-.28c.042-.132.052-.217-.123-.157zm.369.144l-.016.009h-.015l-.015.009h-.016c-.063.227-.282.301-.389.355a.887.887 0 00-.221.212c.177.047.26.098.26.098a.453.453 0 01.618.009c.183-.124.221-.415.13-.568l-.016-.018-.007-.017-.008-.01-.015-.008-.008-.009-.015-.009-.008-.008-.015-.01-.015-.008-.007-.009h-.016l-.015-.009h-.015l-.008-.008h-.167v-.001zm-.023.302h.022v.008h.015v.01h.008l.008.008v.009h.007v.009h.008v.035l.007.009c0 .046-.036.088-.076.088s-.069-.042-.069-.088c0-.046.03-.088.07-.088zm-.682.334h-.003v.004h-.003v.003l-.003.004-.003.007-.006.004-.003.007-.006.01-.006.008-.004.007-.009.01-.006.011-.006.007-.01.01-.005.011-.01.015-.005.01-.019.021-.018.022-.015.025-.01.01-.009.01-.009.012-.009.01-.009.007-.01.011-.008.007-.01.01s.456-.006.572.455c0 0 .156-.284.043-.465-.123-.196-.239-.224-.4-.263z" fill="#0055A5"/><path d="M33.314 7.23h-.003v.004h-.01v.003h-.012l-.003.004-.006.004h-.01l-.005.003-.006.004h-.01l-.006.004-.009.003-.015.004-.019.007-.015.003-.009.004-.006.003-.01.004h-.005l-.01.004-.005.004h-.007l-.006.003h-.006l-.003.004s-.003-.1.003-.145c-.046.01-.1.028-.15.035 0 0-.143.376-.26.529 0 0-.005.089.059.213 0 0 .082-.22.232-.405.082-.1.138-.154.312-.296zm.388-.078h-.006l-.007.004h-.006l-.009.003-.01.004-.008.003-.01.004-.012.003-.012.008-.012.003-.012.004-.012.007-.016.003-.012.008-.016.007-.015.007-.03.014-.03.014-.028.014-.03.015-.016.01-.012.007-.016.007-.012.011-.012.007-.012.007-.013.01-.009.008c-.143.12-.242.255-.229.493 0 0 .116-.188.244-.273.101-.064.285-.249.38-.412zm-.004-1.725h-.008l-.003.004h-.016l-.006.003h-.01l-.006.004h-.006l-.003.004h-.006l-.006.003-.006.004-.003.003-.007.004-.003.004-.006.004-.003.003-.006.004-.003.004-.003.003-.003.007-.003.004-.003.007-.003.004v.007l-.003.003v.011l-.003.004v.011c0 .082.11.277.14.362.031-.085.138-.28.138-.362 0-.082-.083-.106-.128-.106h-.022v-.003zm.094.635l.003-.014v-.01l.003-.015.003-.014v-.014l.003-.014.004-.018.003-.014.003-.018.003-.018.006-.035.006-.036.006-.039.01-.035.002-.018.006-.018.004-.014.003-.018.006-.014.003-.014.006-.015.006-.014.003-.014.007-.01.006-.011.003-.011.006-.007.006-.007a.24.24 0 01.187-.064c.043.004.086.053.07.12a4.348 4.348 0 01-.233.437c-.042-.007-.036-.007-.144-.014zm-.166 0v-.014l-.003-.01-.003-.015-.003-.014v-.014l-.004-.014-.002-.018-.004-.014-.003-.018-.003-.018-.006-.035-.006-.036-.01-.039-.005-.035-.006-.018-.003-.018-.003-.014-.007-.018-.003-.014-.006-.014-.003-.015-.006-.014-.006-.014-.003-.01-.006-.011-.006-.011-.003-.007-.007-.007a.236.236 0 00-.186-.064c-.04.004-.086.053-.068.12.015.068.205.398.233.437.043-.007.034-.007.14-.014zm-.121-1.032h.144v-.19h.123v.189h.147v.12h-.147v.22h-.123v-.22h-.144v-.12zm-1.768-1.119h.15v-.188h.116v.188h.15v.121h-.15v.22h-.116v-.22h-.15v-.12zm3.549 2.336v-.025l-.003-.014v-.043l-.003-.003V6.14a.912.912 0 01-.006-.237c.107.046.18.078.324.351 0 0-.233-.167-.312-.007z" fill="#0055A5"/><path d="M35.085 6.683l-.003-.007v-.025l-.003-.01V6.63l-.003-.01v-.015l-.003-.01V6.58l-.004-.01-.002-.015-.004-.014-.003-.014-.003-.018-.003-.014-.006-.028-.006-.032-.006-.033-.01-.031-.006-.032-.009-.033-.009-.031L35 6.26l-.006-.014a.996.996 0 01.046-.614c.07-.16.11-.309.095-.472 0 0 .14.054.217.11.013.192-.082.38-.125.487a.77.77 0 00-.03.394.887.887 0 01-.111.532zm-.015-1.451v-.073l-.003-.003v-.018l-.003-.004v-.007s-.22-.245-.401-.288a.218.218 0 00-.217.064s.061-.007.159.085c.098.09.217.203.309.231.091.027.11.02.156.013zm-.645-.305l-.016.017-.015.018-.012.018-.015.018-.012.018-.013.018-.006.007-.006.01-.006.007-.003.01-.006.012-.006.007-.003.01-.003.008-.007.007-.003.01-.003.008-.003.01-.003.007v.01l-.003.008-.003.01v.033c0 .089.092.315.138.4.046.086.119.2.11.334a.368.368 0 01-.095.199s.266-.074.296-.263c.03-.17-.033-.29-.076-.386-.04-.09-.162-.295-.193-.38a.398.398 0 01-.033-.185zM32.877 7.07l-.013.04-.012.042-.009.039-.015.039-.012.039-.013.039-.015.04-.015.035-.015.035-.016.039-.015.036-.018.032-.015.035-.016.032-.018.032-.015.028c-.083.146-.135.387-.123.469 0 0-.122-.309-.06-.525.048-.17.176-.42.415-.526zm-.299.071h-.022l-.006.004h-.034l-.009.004h-.021l-.01.003h-.011l-.01.004h-.012l-.009.004-.012.003-.012.004-.01.004h-.012l-.012.007-.01.003-.008.004-.012.003-.01.008-.009.003-.009.007-.01.004c-.106.085-.213.266-.25.486 0 0 .184-.035.275-.142a1.24 1.24 0 00.245-.413zm.943.384h.021l.004.003h.009l.006.004h.012l.006.003h.006l.006.004.012.004h.013l.012.003.012.004.013.004.006.003h.006l.006.004h.006l.003.004h.01l.006.003s-.156.053-.235.125a.558.558 0 00-.147.326c-.04.23-.156.48-.193.554l-.012-.003c.022-.16-.064-.487-.085-.533 0 0 .122-.092.18-.184a.984.984 0 01.318-.328zm-.806.493l-.006.01-.003.012-.006.014-.007.014-.006.01-.006.015-.006.018-.006.014-.006.014-.006.018-.012.032-.013.032-.006.018-.006.018-.006.021-.003.018-.006.018-.003.017-.003.022-.003.018-.003.02-.004.022v.1l.004.02.006.022.003.021c.058.224.183.32.263.508 0 0 .061-.34.046-.603-.012-.268-.095-.367-.196-.463zm-.745.622v-.012l.002-.014.006-.014.003-.018.01-.014.006-.018.009-.018.009-.018.01-.021.008-.018.012-.021.013-.021.012-.022.009-.02.024-.043.025-.043.012-.021.012-.025.01-.022.012-.02.009-.022.009-.022.009-.02.006-.018.006-.022.006-.018.003-.02.003-.018v-.033c-.015-.17-.207-.29-.256-.316h-.003c-.05.025-.245.146-.257.316-.012.17.248.487.254.614h.006v.001zm.394-.615l-.003.004v.007l-.004.004-.003.003v.004l-.003.003-.003.007-.003.007-.003.011-.006.014-.01.018-.005.018-.01.018-.005.02-.01.019-.009.021-.01.025-.008.021-.01.021-.008.025-.019.05-.018.046-.01.025-.005.021-.01.022-.005.025-.01.02-.006.019-.006.021-.003.018-.006.018-.003.014a.451.451 0 00.058.358c.064.096.168.203.263.402 0 0 .113-.17.125-.26a1.32 1.32 0 00-.033-.393c-.022-.09-.117-.381-.2-.676zm-.394 1.58l.015-.018.016-.018.015-.018.012-.018.015-.018.013-.017.015-.018.012-.022.01-.017.011-.018.004-.01.006-.008.006-.01.003-.008.003-.01.006-.007.003-.007.003-.011.003-.007.003-.007.003-.007.003-.008c.022-.074.028-.18-.027-.262-.065-.096-.147-.206-.154-.295h-.006c-.003.09-.085.2-.153.295-.055.081-.049.188-.024.262a.893.893 0 00.18.28h.004v.002zm.302-.277l.003.003.003.004.003.004.003.003.003.007.006.007.006.01.01.012.009.014.009.01.009.015.012.014.01.018.012.014.012.018.009.014.024.036.022.031.012.018.012.018.01.018.009.014.012.018.01.014.008.014.007.014.009.015.006.014.006.01.006.01.003.008v.004l.003.003v.004c.03.089.077.248.012.362a1.193 1.193 0 01-.349.373s.144-.26.129-.472c-.01-.139-.098-.26-.117-.341a.663.663 0 01.047-.352zm.412-.164l-.003.004-.003.007-.003.004-.003.007-.003.007-.006.007-.004.007-.002.007-.003.011-.004.007-.006.011-.003.007-.003.011-.003.007-.01.021-.005.022-.006.021-.006.021-.006.022-.007.02-.003.015v.01l-.003.011v.011l-.003.014v.011c-.006.12.013.22.07.401.07.223.18.476.236.59 0 0 .098-.167.153-.313 0 0-.156-.249-.223-.422-.077-.207-.108-.399-.138-.559zm.073-.099v.007l.003.011v.01l.003.015.003.014.003.021.003.022.003.025.007.024.006.029.006.032.006.032.009.032.009.035.01.04.008.035.013.039.012.042.012.04.015.042.015.042.016.043.018.042.018.043.019.043.02.042.022.046.025.043.024.039.025.042.027.043c.199.291.36.394.467.394.162 0 .324-.16.379-.337.052-.178.037-.458-.067-.554 0 0-.098.348-.306.362-.231.015-.534-.29-.833-.88z" fill="#0055A5"/><path d="M32.999 8.824l-.004.01-.002.011v.01l-.004.011-.003.011v.01l-.003.026-.003.025-.003.025v.135l.003.028.003.029.003.028.007.028.006.029c.024.113.082.262.198.348.098.07.333.088.422-.17 0-.002-.428.038-.62-.594zm-1.033 1.725l.013-.007.009-.008.012-.003.01-.007.011-.007.01-.007.006-.004.006-.007.006-.004.003-.004.006-.007.006-.003.007-.008.006-.003.006-.007.006-.007.003-.008.006-.007.006-.007.006-.01.006-.007.006-.011.006-.007.007-.01.006-.011.009-.015c.052-.095.104-.273.076-.4-.037-.157-.113-.22-.156-.32-.033.039-.055.067-.1.1h-.004c-.043-.032-.067-.06-.104-.1-.045.1-.116.163-.152.32a.654.654 0 00.076.4c.067.129.12.15.18.186zm0 .976l.003-.015.006-.014.007-.018.006-.018.009-.018.01-.017.008-.018.012-.018.013-.021.012-.021.012-.018.012-.022.025-.042.027-.043.025-.042.012-.022.012-.021.012-.021.01-.018.009-.022.009-.02.009-.018.006-.022.006-.018.006-.017.003-.018v-.046c-.04-.245-.174-.196-.278-.295h-.003c-.104.1-.242.05-.278.295-.027.157.248.455.279.608zm.33-.359l-.003.015-.009.018-.006.017-.009.018-.009.018-.01.018-.008.018-.01.018-.02.035-.025.036-.021.035-.025.035-.021.036-.01.014-.012.018-.009.018-.01.018-.008.014-.006.017-.01.015-.005.018-.006.014-.004.014-.003.014-.003.014-.003.014v.011c.006.362.14.582.171.703 0 0 .251-.23.294-.493.023-.136-.004-.54-.2-.74zm.282.256l-.004-.01-.003-.011-.003-.011-.006-.01-.003-.015-.006-.01-.003-.015-.006-.014-.006-.014-.006-.018-.007-.014-.006-.014-.012-.032-.015-.032-.015-.035-.016-.033-.009-.014-.01-.014-.008-.014-.01-.014-.008-.014-.01-.015-.009-.014-.009-.01-.01-.011-.008-.011-.01-.01-.011-.011s-.135-.462.3-.746c0 0 .18.273.228.536.049.26-.19.416-.3.65zm.542-1.172l.013.022.015.018.016.021.015.021.015.018.015.021.016.022.015.018.018.017.015.022.007.007.009.007.009.01.006.008.01.007.005.007.01.007.006.004.009.007.006.007.009.003.006.004s.028.206.012.344c-.021.203-.137.412-.183.568 0 0-.193-.291-.211-.461-.024-.17-.021-.309-.027-.39 0-.001.107-.2.165-.338zm.502.994l.006-.01.006-.01.006-.015.01-.01.006-.019.009-.014.009-.018.006-.018.01-.02.009-.019.009-.02.012-.026.009-.021.01-.025.008-.022.01-.024.018-.05.018-.053.016-.053.009-.025.006-.025.006-.028.006-.025.006-.025.003-.029.003-.024.003-.025v-.05s-.214.135-.392.035c0 0-.024.334.01.444a.447.447 0 00.153.224zm-.048.072l-.003-.004-.003-.004-.006-.007-.003-.003-.007-.004-.003-.004-.006-.007-.003-.004-.006-.007-.006-.003-.003-.008-.006-.007-.013-.01-.012-.015-.009-.01-.012-.015-.01-.01-.005-.007-.007-.004-.003-.007-.006-.007-.006-.004-.003-.007-.003-.003-.006-.008-.003-.003-.003-.007s-.141.305-.166.394c0 0 .07.018.147-.046a.963.963 0 00.175-.17zm-.661-.182l.003.004v.004l.003.007v.004l.004.007.002.003v.007l.004.007.006.015.009.014.006.017.01.015.008.018.012.02.01.019.012.021.012.018.01.021.024.04.024.042.012.018.013.021.012.018.009.018.012.018.01.017.012.015.009.014.009.014.006.01.003.004.006.007.003.004.003.004.003.003v.004l.003.004.003.003s-.018.135-.1.327c-.09.195-.205.33-.27.397 0 0-.14-.287-.183-.412-.049-.145-.046-.29-.021-.344.046-.126.21-.307.287-.467zm-.943 2.204l.002-.01.004-.01.003-.011.003-.011.006-.007.003-.01.006-.011.006-.011.006-.01.006-.012.01-.014.006-.01.015-.022.015-.025.015-.025.019-.024.015-.029.015-.028.01-.014.005-.014.01-.015.006-.014.006-.014.006-.018.006-.014.006-.018a.493.493 0 00-.006-.312c-.04-.096-.19-.337-.208-.404-.018.067-.165.309-.208.404a.475.475 0 00-.003.313c.055.177.187.298.208.4h.006zm.595-1.231l-.003.014-.006.01-.006.015-.006.01-.007.015-.009.014-.006.01-.01.015-.008.014-.01.018-.015.029-.018.031-.018.029-.019.032-.015.031-.015.032-.01.018-.006.014-.006.018-.009.014-.003.014-.006.018-.006.014-.003.018-.003.014-.003.014c-.019.121 0 .22.024.306.03.081.123.244.184.369 0 0 .21-.23.256-.394a.677.677 0 00-.027-.412c-.052-.11-.162-.227-.211-.344zm.599-.032l-.006.014-.006.014-.006.01-.006.015-.006.014-.007.011-.015.025-.015.028-.019.025-.015.025-.018.025-.015.024-.016.026-.015.024-.006.01-.006.015-.006.01-.007.015-.006.01-.006.01-.003.015-.003.01-.006.012-.003.014a.596.596 0 00.015.397c.052.146.117.231.138.32 0 0 .172-.256.2-.362a.78.78 0 00.002-.394 3.946 3.946 0 00-.138-.362zm-1.198 3.233l.003-.014.003-.014.004-.014.006-.018.006-.018.006-.017.006-.022.01-.024.008-.022.01-.025.009-.024.009-.029.012-.028.009-.029.012-.028.01-.032.012-.028.012-.032.01-.036.008-.031.013-.036.009-.035.009-.036.01-.035.008-.036.006-.035.007-.04.006-.035.006-.04.003-.038.003-.036v-.038c.009-.206-.153-.533-.242-.653h-.006c-.089.12-.245.447-.242.653.013.407.236.798.245.925zm.358-2.253v.003h.003v.003l.003.004.003.004.003.003.003.004.003.007.003.003.006.008.003.007.003.007.012.014.01.018.012.018.012.017.012.021.012.022.016.021.012.025.012.025.015.024.013.025.015.025.012.029.012.024.013.025.009.029.012.024.009.025.01.028.005.025.006.025.006.021.003.025v.042c-.006.274-.162.452-.186.622 0 0-.153-.202-.21-.337-.068-.156-.12-.284-.099-.458.016-.174.056-.284.212-.457zm.541-.043l-.007.007-.003.01-.006.012-.006.01-.006.01-.006.015-.006.014-.01.014-.006.014-.006.015-.006.017-.009.014-.006.018-.006.018-.016.035-.006.022-.006.018-.006.018-.003.017-.006.021-.003.018-.006.018-.003.017-.003.022v.018l-.003.017v.032l.003.018v.018l.006.014c.034.16.18.383.23.482 0 0 .116-.276.143-.404.025-.128.003-.334-.232-.589z" fill="#0055A5"/><path d="M32.168 15.969l.003-.029.003-.028.003-.029.003-.028.006-.029.003-.024.006-.025.007-.025.009-.025.006-.025.006-.021.009-.025.01-.021.005-.021.019-.043.015-.04.018-.038.015-.036.016-.035.006-.018.006-.018.006-.018.006-.017.006-.014.003-.018.003-.014.003-.014a.784.784 0 00-.103-.572 5.993 5.993 0 01-.29.88c-.004.008-.007.01-.01.018 0-.007-.003-.01-.006-.018a5.607 5.607 0 01-.293-.88.798.798 0 00-.104.572c.028.163.183.358.202.678.018.323-.294.443-.294.443.107.043.226.064.416-.145a.441.441 0 00.08-.124.625.625 0 00.079.124c.192.21.311.188.415.145 0 0-.309-.12-.293-.443zm-.98-2.134l.003.011.006.014.003.01.003.015.006.014.006.015.003.014.006.014.01.028.011.029.013.032.009.028.012.032.006.014.003.015.006.01.006.014.003.015.004.01.006.015.003.01.003.01.003.008.003.01.003.008v.01l.003.004c.025.128-.01.284-.208.447 0 0-.128-.107-.18-.245-.049-.127-.018-.22.03-.284.05-.071.169-.224.215-.327zm.421.476v.025l-.003.014v.025l-.003.018v.014l-.003.018-.003.018-.003.02-.003.022-.004.021-.002.022-.004.021-.003.021-.009.046-.009.046-.012.05-.006.021-.003.022-.01.024-.006.022-.006.02-.006.022-.009.021-.006.018-.01.018-.005.018c-.125.252-.309.443-.47.443-.147 0-.178-.102-.254-.145 0 0 .037-.22.205-.277.204-.074.518-.358.647-.628z" fill="#0055A5"/><path d="M31.075 14.773l-.006-.008-.006-.003-.012-.01-.006-.008-.007-.004-.009-.007-.006-.003-.006-.007-.006-.007-.003-.004-.003-.003-.003-.004-.003-.004-.006-.003-.004-.004-.003-.003-.003-.004-.003-.007-.006-.003-.003-.004-.003-.007s-.156.067-.29.17c-.129.104-.257.277-.325.366 0 0 .193.057.318-.007 0 0 .046-.216.184-.312.034-.022.128-.057.22-.11zm-.165-.185l-.003-.003-.003-.008-.003-.003-.003-.007-.003-.007-.003-.008-.003-.007-.003-.007-.003-.007-.006-.007-.003-.01-.004-.008-.003-.007-.003-.01-.003-.011-.003-.007-.006-.01-.003-.011v-.011l-.003-.01-.003-.011-.003-.01-.003-.015v-.01l-.003-.011v-.028l-.003-.011v-.029l.003-.014v-.014s-.275.202-.358.277a2.672 2.672 0 00-.293.351s.207-.053.37-.113c.174-.068.293-.16.357-.203zm-.465.344l-.012.007-.015.004-.019.007-.015.007-.018.003-.018.008-.022.003-.018.007-.021.007-.022.004-.043.01-.042.015-.046.01-.043.01-.045.011-.043.011-.018.004-.022.007-.018.003-.021.007-.019.004-.015.003-.018.007-.015.004-.016.004-.012.007c-.14.05-.241.128-.373.298 0 0 .202.064.312.107 0 0 .174-.139.363-.22.125-.057.183-.21.314-.359zm-.308 1.14l.006-.008.006-.007.006-.01.006-.007.003-.004.003-.007.003-.004.003-.003v-.007l.003-.004.004-.007.003-.004v-.007l.003-.003v-.014l.003-.004v-.042l-.003-.008v-.007l-.003-.01v-.007l-.003-.011c-.022-.068-.144-.146-.217-.185-.12-.067-.449-.17-.556-.21 0 0-.055.075-.082.154-.016.031.003.06.049.067.094.021.314-.028.369.014.058.043.037.103.037.16 0 0 .1-.071.165-.053.088.02.143.07.192.238zm-.294-.532h.007l.003.003h.003l.006.003h.006l.006.004.006.003h.006l.006.004.01.003.006.004.009.004.009.003.01.004.008.007.01.003.009.004.012.007.009.004.012.007.01.007.011.004.013.007.009.007.012.007.012.007.013.007.009.007.012.01.012.008.012.007s.055-.025.083-.085c.027-.057.14-.252.245-.277 0 0-.09-.007-.141-.029 0 0-.104.032-.183.071a1.351 1.351 0 00-.282.174zm.853-.246h-.003l-.006.003-.003.004h-.007l-.002.004h-.006l-.004.003h-.006l-.003.004h-.009l-.003.003h-.009l-.003.004h-.016l-.006.003h-.018l-.006.004h-.022s-.29.234-.324.465c-.03.202.061.298.104.323.046.028.248.12.38-.192 0 0-.224.086-.288-.038-.058-.128.04-.313.1-.363.084-.07.227-.12.316-.099a.83.83 0 00-.156-.128z" fill="#0055A5"/><path d="M28.793 17.974l.012-.064.015-.064.016-.067.006-.032.009-.032.009-.032.01-.035.009-.032.009-.032.012-.032.009-.032.012-.032.012-.032c.131-.323.456-1.185 1.127-1.334.061-.018-.073-.199-.134-.188-.061.007-.18.099-.232.138 0 0 0-.184-.003-.216 0-.032-.025-.046-.052-.046-.025.003-.19 0-.238.07-.156.207-.413.76-.56 1.172-.146.412-.247.54-.403.476-.152-.064-.244-.27-.516-.206a.54.54 0 00-.278.202c.025.05.052.114.177.114s.37.06.501.167c.135.109.276.148.471.17zm2.681-2.669l.003.025.003.024.006.025.007.025.006.025.009.025.006.021.01.025.008.025.01.025.008.025.013.021.009.025.012.025.01.024.011.025s-.201 1.097-.943 1.178c0 0 .015-.227.232-.397.22-.174.55-.444.525-.852 0 0-.06.014-.165.167-.103.153-.335.596-.69.6 0 0 .052-.21.21-.327.157-.12.358-.273.45-.457.091-.181.186-.267.25-.302zm-.351 3.997l.453.734.342-.706-.122-.256c-.089.188-.187.387-.239.5-.04-.07-.152-.255-.302-.5l-.132.227z" fill="#0055A5"/><path d="M31.01 18.68l-.082-.135-.086-.138-.085-.139-.086-.138-.085-.138-.083-.135-.04-.064-.04-.064-.039-.064-.037-.06-.036-.06-.034-.057-.033-.057-.034-.053-.03-.05-.031-.046-.027-.046-.025-.04-.024-.038-.022-.036-.018-.032-.015-.028-.016-.022-.012-.02-.009-.015-.006-.01.17-.143-.537-.238.01.679.183-.153 1.08 1.767.13-.227zm-3.701-4.007l.012-.014.015-.014.012-.01.016-.011.015-.007.015-.008.015-.003.016-.004.015-.003h.018l.016.003h.018l.018.007.019.004.018.007.018.007.019.01.021.011.018.01.022.012.018.014.022.014.021.018.018.014.022.018.021.017.021.021.022.018.021.021.018.022.022.02.021.022c.226.242.37.49.238.66-.122.153-.36.022-.583-.22-.229-.24-.37-.49-.238-.656z" fill="#0055A5"/><path d="M27.675 17.655l-.003-.004-.003-.003-.003-.004h-.003v-.003h-.003v-.004h-.003v-.004h-.003a.75.75 0 01-.19-.518c0-.397.278-.72.617-.72.343 0 .62.323.62.72 0 .054-.009.139-.009.139.028-.06.132-.334.15-.384-.092-.386-.397-.67-.76-.67-.312 0-.578.209-.71.514.05-.362.205-.688.315-.81a.745.745 0 01.357-.19c-.149.024-.338-.079-.559-.31-.204-.22-.308-.411-.317-.57.012.226.009.35-.046.539-.076.248-.28.71-.207 1.232.04.287.216.713.519 1.06a.588.588 0 01.095.256s.44 0 .546.01c0 0 .104-.01.098-.088 0-.075-.058-.093-.107-.093-.055 0-.275.004-.39-.095zm2.437.173l-.051.022-.055.021-.052.018-.052.018-.055.017-.052.018-.052.014-.052.014-.055.015-.051.01-.052.01-.052.011-.1.022-.105.017a2.25 2.25 0 01-.507.036.203.203 0 01-.012.103s.03.042.03.096c.169.004.343-.004.517-.04.293-.052.601-.12.91-.255l-.102-.167zm.464-.024l.07-.047.07-.05.07-.052.071-.057.067-.06.07-.064.067-.067.07-.072.068-.074.064-.081.067-.082.064-.089.067-.096.064-.096.061-.103.034-.053.03-.057.058-.113c-.088.046-.204.014-.204.014-.006.01-.022.039-.03.05-.306.529-.648.866-1 1.086l.102.163zm-2.479.184h-.03l-.01-.003h-.101l-.02.003h-.025l-.022.004h-.024l-.021.004h-.022l-.012.003h-.01l-.009.004h-.009c-.11.017-.232.046-.247.113-.01.067.027.138.082.238.037.06.116.028.16.007.045-.021.302-.178.342-.23.04-.05.055-.125-.022-.143zm.26.199l-.003-.003-.003-.004h-.003l-.003-.003h-.003l-.004-.004-.003-.004h-.006l-.003-.003h-.006l-.003-.004h-.006l-.003-.003h-.012l-.003-.004h-.013l-.006-.004h-.042l-.007.004h-.006l-.006.004h-.006l-.006.003h-.006c-.07.032-.321.206-.34.284-.015.082.019.125.059.142.04.018.085.036.122.04.061.003.122-.04.156-.086.03-.046.147-.21.165-.248.015-.033.027-.09 0-.107zm.03.177l-.003.004-.003.007-.006.004-.003.007-.006.007-.006.007-.003.007-.006.008-.006.007-.006.01-.006.007-.006.007-.01.018-.012.018-.006.007-.006.01-.006.008-.006.007-.003.007-.006.007-.007.007-.003.007-.006.007-.003.008-.003.003-.003.007-.003.004v.004h-.003v.003l-.003.003c-.013.022.006.06.036.054a.691.691 0 00.306-.103c.098-.078.165-.227.098-.284-.07-.058-.175-.03-.29.116zm.055-.436h-.006l-.006-.004h-.01l-.006-.003h-.007l-.006-.004h-.012l-.009-.004h-.006l-.006-.003h-.025l-.006-.003h-.041l-.006.003h-.007l-.006.003h-.006v.004h-.006l-.003.004-.003.003h-.003v.004h-.003v.003c-.037.064-.012.128.092.185.1.056.29.103.327.042.036-.06-.013-.163-.23-.23zm4.303-4.093l-.003.011-.006.014-.003.01-.003.015-.006.014-.003.015-.006.014-.007.014-.009.028-.012.029-.01.032-.011.028-.013.032-.006.014-.003.015-.006.01-.006.014-.003.015-.006.01-.003.015-.003.01-.003.01-.003.008-.004.01-.003.008-.003.01v.004c-.021.128.01.284.208.447 0 0 .132-.107.18-.245.05-.127.019-.22-.027-.284-.052-.071-.168-.224-.217-.327zm-.421.476l.002.007v.043l.004.014v.018l.003.014.003.018v.018l.003.02.003.022.003.021.003.022.006.021.003.021.01.046.009.046.009.05.006.021.006.022.006.024.006.022.01.02.005.022.007.021.009.018.009.018.006.018c.125.252.305.443.47.443.147 0 .18-.102.25-.145 0 0-.036-.22-.204-.277-.205-.074-.52-.358-.647-.628z" fill="#0055A5"/><path d="M32.858 14.773l.009-.008.006-.003.012-.01.006-.008.007-.004.006-.007.006-.003.006-.007.006-.007.003-.004.003-.003.003-.004.006-.004.003-.003.003-.004.003-.003.003-.004.004-.007.006-.003.003-.004.002-.007s.16.067.291.17c.128.104.257.277.327.366 0 0-.196.057-.32-.007 0 0-.047-.216-.184-.312-.03-.022-.128-.057-.22-.11zm.165-.185l.003-.003.003-.008.003-.003.003-.007.003-.007.003-.008.003-.007.006-.007.003-.007.004-.007.002-.01.004-.008.006-.007.003-.01.003-.011.003-.007.003-.01.003-.011.003-.011.003-.01.003-.011.003-.01v-.015l.003-.01v-.011l.003-.014v-.025l.003-.014v-.015l-.003-.014v-.014s.275.202.358.277c.08.078.254.284.29.351 0 0-.208-.053-.367-.113-.174-.068-.296-.16-.36-.203zm.464.344l.015.007.015.004.016.007.018.007.018.003.019.008.018.003.021.007.019.007.021.004.043.01.046.015.043.01.045.01.043.011.043.011.021.004.022.007.018.003.018.007.019.004.018.003.016.007.015.004.015.004.015.007c.138.05.238.128.373.298 0 0-.205.064-.312.107 0 0-.174-.139-.366-.22-.126-.057-.184-.21-.315-.359zm.308 1.14l-.006-.008-.006-.007-.006-.01-.006-.007-.003-.004-.003-.007-.003-.004-.003-.003v-.007l-.003-.004-.003-.007L33.75 16v-.007l-.003-.003v-.014l-.003-.004v-.042l.003-.008v-.007l.003-.01.003-.007v-.011c.024-.068.143-.146.216-.185.123-.067.452-.17.56-.21 0 0 .051.075.082.154.01.031-.006.06-.052.067-.091.021-.314-.028-.366.014-.058.043-.04.103-.04.16 0 0-.1-.071-.165-.053-.089.02-.14.07-.193.238zm.297-.532h-.005l-.004.003h-.006l-.003.003h-.006l-.006.004-.006.003h-.006l-.01.004-.006.003-.009.004-.006.004-.009.003-.01.004-.008.007-.012.003-.01.004-.009.007-.012.004-.009.007-.012.007-.01.004-.012.007-.012.007-.012.007-.01.007-.011.007-.013.007-.012.01-.012.008-.012.007s-.055-.025-.083-.085c-.027-.057-.14-.252-.242-.277 0 0 .086-.007.138-.029a1.394 1.394 0 01.467.245zm-.852-.246h.003l.003.003h.003l.003.004h.003l.003.004h.006l.003.003h.006l.003.004h.01l.002.003h.01l.006.004h.012l.006.003h.018l.007.004h.021s.294.234.327.465c.027.202-.061.298-.107.323-.043.028-.245.12-.379-.192 0 0 .223.086.287-.038.061-.128-.036-.313-.1-.363-.08-.07-.227-.12-.313-.099.001 0 .071-.078.157-.128z" fill="#0055A5"/><path d="M35.143 17.974l-.016-.064-.012-.064-.015-.067-.01-.032-.009-.032-.006-.032-.009-.035-.009-.032-.012-.032-.01-.032-.011-.032-.013-.032-.012-.032c-.128-.323-.452-1.185-1.124-1.334-.064-.018.07-.199.132-.188.06.007.18.099.235.138v-.216c.003-.032.027-.046.052-.046.027.003.19 0 .241.07.153.207.413.76.556 1.172.15.412.25.54.403.476.153-.064.245-.27.516-.206a.518.518 0 01.278.202c-.021.05-.049.114-.177.114a.959.959 0 00-.5.167c-.136.109-.276.148-.468.17zm-2.682-2.669l-.006.025-.003.024-.006.025-.006.025-.006.025-.006.025-.01.021-.009.025-.006.025-.012.025-.01.025-.008.021-.013.025-.009.025-.024.05s.204 1.096.946 1.178c0 0-.015-.227-.235-.398-.22-.174-.547-.444-.522-.852 0 0 .055.015.162.167.104.153.336.597.693.6 0 0-.052-.21-.21-.326-.16-.121-.358-.274-.45-.458-.091-.181-.189-.267-.25-.302zm-.491 1.065l.002.014.006.018.006.017.01.018.009.021.012.021.01.025.014.025.013.025.012.025.015.024.015.029.015.028.019.029.033.053.034.057.033.053.019.028.018.025.015.025.019.025.015.025.015.021.015.021.016.022.015.018.015.014.012.018.012.01c.12.131.419.48.58.653 0 0-.454-.13-.71-.4 0 0-.181.12-.312.12h-.01c-.13 0-.314-.12-.314-.12-.253.27-.708.4-.708.4.159-.173.458-.522.58-.653.122-.127.403-.589.446-.734h.003z" fill="#0055A5"/><path d="M31.97 17.587h.018l.009-.003h.028l.018-.004.018-.004.016-.007.018-.004.015-.007.018-.003.016-.007.012-.007.015-.004.006-.003.006-.004.007-.004.006-.003.006-.004h.006l.006-.003.006-.004c-.055.128-.156.338-.25.42h-.003c-.098-.082-.2-.292-.254-.42a.56.56 0 00.25.075h.006z" fill="#0055A5"/><path d="M32.357 20.036l1.778-2.896.18.152.012-.678-.538.238.168.142c-.085.146-1.414 2.307-1.582 2.58l-.803-1.696-.1.174-.715 1.26-.18-.139v.668l.543-.249-.183-.145c.1-.17.485-.852.617-1.08l.803 1.67z" fill="#0055A5"/><path d="M32.684 18.897l-.045-.078-.025-.04-.02-.038-.022-.036-.022-.039-.021-.035-.018-.036-.022-.035-.018-.032-.01-.014-.008-.018-.006-.015-.01-.014-.009-.014-.006-.014-.009-.014-.006-.011-.006-.014-.01-.011-.006-.01-.006-.011c-.042.096-.134.287-.235.497l-.129-.263.349-.724.098.174.357.625-.135.22zm.366.188l.126.227.18-.139.003.668-.544-.249.18-.145-.082-.146.138-.216zm3.577-4.412l-.013-.014-.015-.014-.012-.01-.015-.011-.016-.007-.015-.008-.015-.003-.015-.004-.016-.003h-.018l-.015.003h-.018l-.019.007-.018.004-.018.007-.019.007-.021.01-.018.011-.019.01-.021.012-.018.014-.022.014-.021.018-.021.014-.019.018-.021.017-.021.021-.022.018-.021.021-.021.022-.022.02-.021.022c-.23.242-.37.49-.235.66.122.153.354.022.583-.22.225-.24.369-.49.238-.656z" fill="#0055A5"/><path d="M36.257 17.655l.003-.004h.003v-.003h.003v-.004h.003v-.003h.003l.003-.004h.003v-.004h.003a.748.748 0 00.187-.518c0-.397-.275-.72-.62-.72-.34 0-.617.323-.617.72 0 .054.009.139.009.139-.025-.06-.129-.334-.15-.384.092-.386.397-.67.757-.67.315 0 .584.209.712.514-.049-.362-.204-.688-.314-.81a.746.746 0 00-.354-.19c.146.024.338-.079.555-.31.205-.22.312-.411.318-.57-.012.226-.006.35.049.539.076.248.278.71.207 1.232-.04.287-.22.713-.519 1.06a.52.52 0 00-.094.256s-.443 0-.544.01c0 0-.107-.01-.104-.088 0-.075.061-.093.11-.093.055 0 .272.004.388-.095zm-2.901.149l-.07-.047-.07-.05-.07-.052-.068-.057-.07-.06-.07-.064-.067-.067-.068-.072-.067-.074-.067-.081-.067-.082-.064-.089-.064-.096-.064-.096-.064-.103-.03-.053-.034-.057-.058-.113c.092.046.204.014.204.014.01.01.022.039.028.05.311.529.653.866 1.001 1.082l-.101.167zm.464.024l.052.022.055.021.051.018.055.018.053.017.051.018.055.014.052.014.052.015.052.01.052.01.052.011.103.022.101.017c.174.032.345.043.507.036 0 .032 0 .071.012.103 0 0-.027.042-.027.096a2.377 2.377 0 01-.52-.04 4.08 4.08 0 01-.912-.255l.104-.167zm2.016.16h.034l.008-.003h.098l.025.003h.021l.025.004h.021l.025.004h.021l.01.003h.011l.01.004h.008c.108.017.23.046.245.113.012.067-.027.138-.083.238-.033.06-.113.028-.159.007-.045-.021-.3-.178-.342-.23-.04-.05-.055-.125.022-.143zm-.256.199l.002-.003v-.004h.003l.006-.003h.003l.003-.004.004-.004h.002l.007-.003h.003l.006-.004h.003l.006-.003h.009l.006-.004h.01l.006-.004h.043l.006.004h.006l.006.004h.006l.006.003h.006c.07.032.321.206.34.284.015.082-.019.125-.056.142a.49.49 0 01-.125.04c-.061.003-.122-.04-.153-.086a2.633 2.633 0 01-.165-.248c-.018-.033-.027-.09 0-.107zm-.034.177l.003.004.006.007.003.004.003.007.006.007.006.007.003.007.006.008.007.007.006.01.006.007.006.007.012.018.012.018.013.018.003.007.006.007.006.007.006.007.003.007.006.007.003.007.006.008.003.003.004.007.003.004.002.004v.003l.004.003c.009.022-.01.06-.04.054-.034-.004-.205-.025-.303-.103-.1-.078-.165-.227-.098-.284.068-.058.174-.03.288.116zm-.056-.436h.01l.003-.004h.009l.006-.003h.007l.006-.004h.012l.01-.004h.005l.01-.003h.02l.006-.003h.044l.006.003h.006l.006.003h.006l.003.004h.006v.004h.003l.003.003.003.004.004.003c.033.064.009.128-.092.185-.101.056-.294.103-.33.042-.037-.06.015-.163.229-.23z" fill="#0055A5"/></g><defs><clipPath id="clip0_935_937"><path fill="#fff" d="M0 0h42.185v23.752H0z"/></clipPath></defs></svg>