<svg width="88" height="21" fill="none" xmlns="http://www.w3.org/2000/svg"><g clip-path="url(#clip0_0_1397)"><path d="M32.807 15.985c.11.008.19.048.237.12a.383.383 0 01.083.24.372.372 0 01-.071.227c-.048.064-.123.096-.226.096h-.19a1.237 1.237 0 00-.177-.012v.43c.008.152.012.304.012.456 0 .111-.035.195-.107.25a.328.328 0 01-.225.085c-.158 0-.26-.068-.308-.204a1.686 1.686 0 01-.059-.467c0-.104.004-.207.012-.311a3.31 3.31 0 00.012-.275l-.948-.048a18.276 18.276 0 00-.948-.024c-.355 0-.71.012-1.066.036a9.759 9.759 0 00-1.055.131c-.024 0-.04.004-.047.012a.14.14 0 01-.036.024c0 .096.004.2.012.312.008.111.012.223.012.335 0 .183-.024.339-.071.467-.04.135-.134.203-.285.203a.375.375 0 01-.237-.084c-.07-.047-.106-.127-.106-.239 0-.192-.008-.38-.024-.563a13.384 13.384 0 01-.012-.574.32.32 0 01.036-.144.344.344 0 01.13-.132c.324-.215.604-.503.841-.862.245-.367.447-.77.605-1.209a7.81 7.81 0 00.355-1.377 8.75 8.75 0 00.119-1.4c0-.264-.012-.515-.036-.755a4.22 4.22 0 00-.13-.706v-.048c0-.112.04-.196.118-.252a.39.39 0 01.249-.095c.016 0 .028.003.036.011h.023c.435 0 .861-.015 1.28-.047a17.29 17.29 0 011.291-.048c.143 0 .273.02.392.06.126.04.193.14.2.299.017.303.025.61.025.922.007.303.011.606.011.91 0 .71-.007 1.417-.023 2.119-.016.702-.028 1.409-.036 2.119a.93.93 0 01.154.012h.178zm-4.337-.036c.253-.024.506-.04.759-.048.26-.008.517-.012.77-.012a33.804 33.804 0 011.8.048l.048-2.023a86.88 86.88 0 00.024-2.036c0-.542-.012-1.09-.036-1.64-.355 0-.715.008-1.078.024-.363.008-.73.02-1.102.036.032.184.055.375.071.575.016.2.024.403.024.61 0 .383-.028.774-.083 1.174a7.58 7.58 0 01-.237 1.185 6.78 6.78 0 01-.403 1.125c-.158.36-.343.687-.557.982zm7.856.575a1.634 1.634 0 01-.924.275c-.23 0-.435-.044-.616-.131a2.014 2.014 0 01-.462-.348 1.86 1.86 0 01-.308-.443 3.138 3.138 0 01-.178-.455 2.651 2.651 0 01-.107-.658c0-.224-.02-.443-.06-.659a7.794 7.794 0 01-.094-1.197c0-.28.024-.567.071-.862.048-.303.127-.595.237-.874.111-.287.257-.555.439-.802a2.66 2.66 0 01.687-.647.397.397 0 01.225-.072.2.2 0 01.083.012.304.304 0 01.142-.155c.064-.04.13-.06.202-.06.087 0 .161.024.225.072.276.191.54.403.794.634.252.232.438.5.556.803.127.335.218.666.273.993.055.328.083.659.083.994 0 .295-.02.59-.06.886a11.74 11.74 0 01-.13.874 3.9 3.9 0 01-.308.994c-.15.327-.407.602-.77.826zm.237-5.364a1.58 1.58 0 00-.403-.575 4.662 4.662 0 00-.604-.49.382.382 0 01-.119.131c-.229.16-.418.347-.568.563-.15.215-.269.447-.356.694a3.94 3.94 0 00-.19.743 6.048 6.048 0 00.048 1.831c.032.192.055.38.071.563.024.184.056.363.095.539.047.175.11.343.19.503.079.16.193.307.343.443l.19.024h.201c.253 0 .458-.068.616-.204.158-.136.285-.3.38-.49a2.29 2.29 0 00.2-.611 7.688 7.688 0 00.179-1.281c.023-.232.035-.463.035-.695 0-.287-.023-.57-.071-.85a3.331 3.331 0 00-.237-.838zm3.305 2.466c.024.6.043 1.198.06 1.796.015.599.05 1.198.106 1.796 0 .208-.107.331-.32.371a.472.472 0 01-.249-.071c-.071-.048-.115-.128-.13-.24a42.669 42.669 0 01-.107-1.748c-.016-.583-.035-1.161-.06-1.736a65.171 65.171 0 00-.094-1.748 21.7 21.7 0 00-.166-1.748c0-.104.04-.188.119-.251l-.095.035a.245.245 0 01-.095.012.425.425 0 01-.249-.083.322.322 0 01-.107-.252c0-.104.048-.191.143-.263.094-.072.21-.128.343-.168.135-.04.277-.068.427-.084a2.354 2.354 0 011.303.144c.3.112.565.271.794.479.237.2.427.447.569.742.142.288.213.603.213.946 0 .296-.079.559-.237.79-.158.224-.36.42-.604.587a4.115 4.115 0 01-.782.431c-.277.112-.537.2-.782.263zm-.071-3.747c-.166 0-.332.024-.498.072a.355.355 0 01.202.12.366.366 0 01.118.215c.055.455.103.898.142 1.329.04.423.067.862.083 1.317a3.99 3.99 0 00.557-.204c.205-.087.395-.191.569-.31.174-.12.316-.252.426-.396a.8.8 0 00.166-.479 1.32 1.32 0 00-.154-.61 1.862 1.862 0 00-.403-.527 1.982 1.982 0 00-.569-.383 1.549 1.549 0 00-.64-.144zm5.809 6.645a1.634 1.634 0 01-.924.275 1.41 1.41 0 01-.616-.131 2.015 2.015 0 01-.462-.348 1.853 1.853 0 01-.308-.443 2.67 2.67 0 01-.285-1.114c0-.223-.02-.442-.059-.658a8.012 8.012 0 01-.071-.586 7.83 7.83 0 01-.024-.611c0-.28.024-.567.072-.862a4.03 4.03 0 01.237-.874c.11-.287.256-.555.438-.802a2.68 2.68 0 01.687-.647.396.396 0 01.225-.072.2.2 0 01.083.012.304.304 0 01.142-.155.37.37 0 01.202-.06.36.36 0 01.225.072c.276.191.541.403.794.634.253.232.438.5.557.803.126.335.217.666.272.993.056.328.083.659.083.994 0 .295-.02.59-.059.886a11.74 11.74 0 01-.13.874 3.916 3.916 0 01-.309.994c-.15.327-.406.602-.77.826zm.237-5.364a1.58 1.58 0 00-.403-.575 4.64 4.64 0 00-.604-.49.38.38 0 01-.118.131 2.26 2.26 0 00-.57.563 2.88 2.88 0 00-.355.694 3.91 3.91 0 00-.189.743 6.067 6.067 0 00.047 1.831c.032.192.055.38.071.563.024.184.056.363.095.539.048.175.11.343.19.503.079.16.193.307.343.443l.19.024h.201c.253 0 .458-.068.617-.204.158-.136.284-.3.379-.49.094-.192.161-.396.201-.611a7.637 7.637 0 00.178-1.281c.023-.232.035-.463.035-.695 0-.287-.024-.57-.07-.85a3.348 3.348 0 00-.238-.838zm5.722-1.473a2.35 2.35 0 00-.237-.012h-.237c-.316 0-.628.008-.936.024a34.58 34.58 0 01-.96.036c.072.575.119 1.15.143 1.724.023.567.04 1.138.047 1.712l.048 1.725c.015.574.05 1.149.106 1.724v.035c.008 0 .012.008.012.024a.28.28 0 01-.13.252.47.47 0 01-.285.096.424.424 0 01-.249-.084c-.078-.048-.126-.128-.142-.24a21.693 21.693 0 01-.118-1.748l-.024-1.736a64.948 64.948 0 00-.047-1.748 18.19 18.19 0 00-.154-1.736 3.683 3.683 0 00-.309-.012 1.786 1.786 0 01-.308-.048.56.56 0 01-.225-.12.31.31 0 01-.083-.227c0-.104.04-.191.119-.263a.393.393 0 01.273-.108c.157 0 .32.012.485.036.166.024.328.036.486.036.403 0 .798-.008 1.185-.024.395-.024.794-.036 1.197-.036h.26a.74.74 0 01.237.036c.072.024.13.06.178.108.047.048.071.12.071.215 0 .112-.04.2-.118.264a.439.439 0 01-.285.095zm2.816-.215c0-.064.028-.12.083-.168a.362.362 0 01.225-.072.36.36 0 01.225.072c.063.048.095.104.095.168.071.678.118 1.349.142 2.011.024.655.051 1.321.083 2 .11-.008.225-.012.344-.012.118-.008.244-.012.379-.012a.36.36 0 01.225.072c.063.04.095.091.095.155a.2.2 0 01-.119.192.788.788 0 01-.272.084 4.279 4.279 0 01-.332.012h-.296c.031.479.07.954.118 1.424.047.463.127.934.237 1.413v.024c.008 0 .012.004.012.012a.184.184 0 01-.083.156.515.515 0 01-.201.084c-.198 0-.313-.072-.344-.216a7.037 7.037 0 01-.249-1.305 69.4 69.4 0 01-.083-1.34l-.011-.24c-.214.016-.42.027-.617.035h-1.066l-.036.096c-.07.2-.146.475-.225.826a24.4 24.4 0 01-.26 1.03c-.087.335-.19.627-.309.874-.118.247-.252.371-.402.371-.103 0-.178-.024-.225-.072-.056-.047-.083-.1-.083-.155 0-.016.008-.048.023-.096a4.12 4.12 0 00.285-.706c.07-.24.13-.483.177-.73l.166-.731c.063-.248.142-.491.237-.73a1.033 1.033 0 00-.248-.036 3.845 3.845 0 01-.166-.024.28.28 0 01-.095-.06c-.024-.024-.036-.068-.036-.132s.024-.124.071-.18a.288.288 0 01.214-.083c.174 0 .327.012.462.036.26-.655.521-1.297.782-1.928a21.98 21.98 0 01.912-1.904.291.291 0 01.166-.155v-.06zm.071 1.077c-.245.487-.47.982-.675 1.485-.198.495-.4.994-.605 1.497h.865l.593-.024a77.626 77.626 0 00-.083-1.473l-.095-1.485zm11.512-.993c.063-.112.154-.168.273-.168.087 0 .166.032.237.096a.296.296 0 01.118.24.337.337 0 01-.047.167 5.108 5.108 0 01-.521.682c-.214.232-.43.471-.652.719a7.549 7.549 0 00-.58.766 1.97 1.97 0 00-.32.802.25.25 0 01.082.12c.016.04.024.08.024.12a.37.37 0 01-.083.251c.071.303.182.59.332.862.158.271.328.535.51.79.181.256.367.507.556.755.198.247.371.502.522.766a.338.338 0 01.047.167.3.3 0 01-.118.24.327.327 0 01-.237.108c-.119 0-.21-.056-.273-.168a7.087 7.087 0 00-.557-.802c-.221-.28-.438-.563-.651-.85a9.035 9.035 0 01-.557-.91 2.497 2.497 0 01-.273-.958 2.453 2.453 0 00-.237-.036 18.684 18.684 0 00-.225-.024l.024 1.162c.008.383.012.766.012 1.149 0 .231-.004.459-.012.682-.008.216-.012.44-.012.67 0 .113-.036.192-.107.24a.329.329 0 01-.225.084.414.414 0 01-.237-.072c-.063-.048-.095-.128-.095-.24v-.658c.008-.223.012-.447.012-.67 0-.79-.012-1.58-.035-2.37h-.498a3.28 3.28 0 01-.296 1.005c-.15.303-.328.599-.534.886-.197.287-.402.57-.616.85-.213.28-.406.567-.58.862-.063.112-.154.168-.273.168a.39.39 0 01-.248-.096.308.308 0 01-.107-.24.36.36 0 01.047-.18 4.53 4.53 0 01.534-.742c.22-.263.434-.534.64-.814a5.87 5.87 0 00.544-.85 1.92 1.92 0 00.225-.874 2.15 2.15 0 00-.201-.922 5.356 5.356 0 00-.486-.85c-.19-.271-.39-.534-.604-.79a6.637 6.637 0 01-.533-.79.337.337 0 01-.047-.168c0-.095.04-.175.118-.24a.39.39 0 01.249-.095.278.278 0 01.26.168c.135.231.297.467.486.706.19.24.38.487.569.742.19.248.36.503.51.767.15.263.256.534.32.814h.509a33.193 33.193 0 00-.06-1.545 33.463 33.463 0 01-.035-1.544c0-.112.032-.192.095-.24a.374.374 0 01.474 0c.07.048.106.128.106.24l.083 3.113.273.024c.095.008.186.02.272.036.072-.312.19-.599.356-.862.166-.264.351-.515.557-.755.205-.247.414-.49.628-.73.213-.24.402-.495.568-.766zm1.305 7.399a.374.374 0 01-.237-.084.231.231 0 01-.107-.203v-.264c.024-.255.04-.51.047-.766.008-.256.012-.515.012-.778 0-.91-.031-1.812-.095-2.706a42.219 42.219 0 01-.082-2.574.328.328 0 01.118-.18.37.37 0 01.201-.06c.087 0 .162.028.225.084a.231.231 0 01.107.204.166.166 0 01-.012.071c.016.639.056 1.317.119 2.036.063.71.095 1.405.095 2.083 0 .335-.012.65-.036.946.174-.375.352-.766.533-1.173.19-.408.383-.815.58-1.222.198-.407.4-.806.605-1.197.206-.4.415-.778.628-1.137l.296-.659a.33.33 0 01.13-.144.419.419 0 01.19-.047c.087 0 .162.027.225.083.071.048.107.12.107.216v.203c0 .16-.004.324-.012.491v.97c.008.24.012.519.012.838l.024.994c.008.343.012.67.012.982.007.303.011.566.011.79.008.223.012.371.012.443v.36c0 .127-.004.27-.012.43v.192c.008.087.012.187.012.299 0 .128-.016.26-.047.395-.032.136-.127.204-.285.204a.332.332 0 01-.224-.072.448.448 0 01-.107-.18.883.883 0 01-.036-.251v-.85a5.05 5.05 0 00.012-.336v-.215c0-.407-.004-.782-.012-1.125l-.023-1.018c0-.335-.004-.675-.012-1.018a50.18 50.18 0 01-.012-1.125c-.221.447-.45.918-.688 1.412a267.476 267.476 0 00-1.362 2.994c-.213.495-.41.965-.593 1.412v.012c-.055.16-.161.24-.32.24zm6.925-4.514c.26.112.517.252.77.42.253.159.474.342.663.55.198.207.356.43.475.67.118.24.177.491.177.755 0 .319-.083.614-.249.886a2.5 2.5 0 01-.651.706c-.26.192-.557.343-.889.455a2.972 2.972 0 01-2.038-.024 2.376 2.376 0 01-.888-.622.373.373 0 01-.095-.228.34.34 0 01.107-.251.326.326 0 01.237-.108c.078 0 .153.036.224.108.174.191.411.343.711.454.308.104.628.156.96.156.237 0 .462-.032.675-.096.222-.071.415-.171.58-.299.167-.136.297-.3.392-.49.095-.192.142-.416.142-.671 0-.296-.079-.563-.237-.802a2.097 2.097 0 00-.616-.623 2.91 2.91 0 00-.817-.407 2.9 2.9 0 00-.865-.168.301.301 0 01-.237-.131.419.419 0 01-.083-.24c0-.168.079-.263.237-.287.118-.024.28-.064.486-.12.205-.056.403-.128.592-.215.197-.096.367-.208.51-.336.15-.135.225-.287.225-.455a.7.7 0 00-.13-.419.93.93 0 00-.297-.287 1.144 1.144 0 00-.391-.168 1.3 1.3 0 00-.367-.06 2.12 2.12 0 00-.545.072 2.595 2.595 0 00-.51.192.337.337 0 01-.154.036.336.336 0 01-.26-.12.4.4 0 01-.095-.251c0-.096.059-.18.177-.252a1.5 1.5 0 01.427-.191c.166-.048.336-.084.51-.108.181-.032.335-.048.462-.048.189 0 .39.032.604.096.213.056.41.151.592.287.182.128.332.291.45.491.119.2.178.443.178.73 0 .328-.115.607-.344.838a2.938 2.938 0 01-.805.575zm6.629-3.089c.056.511.091 1.022.107 1.533.016.502.024 1.01.024 1.52 0 .575-.008 1.146-.024 1.712-.008.559-.012 1.126-.012 1.7v.527c.008.176.012.351.012.527 0 .088-.036.16-.107.216a.344.344 0 01-.237.083.39.39 0 01-.248-.084.275.275 0 01-.095-.215c0-.215-.004-.427-.012-.634v-2l.024-1.365h-2.097a32.446 32.446 0 01-.155 2 553.75 553.75 0 00-.213 1.999.26.26 0 01-.107.216.328.328 0 01-.225.083.408.408 0 01-.26-.084c-.063-.047-.095-.12-.095-.215.063-.678.13-1.345.201-2 .08-.654.135-1.32.166-1.999h-.521a.39.39 0 01-.249-.084.312.312 0 01-.094-.227c0-.088.031-.16.094-.216a.391.391 0 01.249-.084h.533v-.25c0-.384-.016-.763-.047-1.138a11.316 11.316 0 00-.13-1.138v-.06c0-.087.035-.155.106-.203a.375.375 0 01.237-.084c.08 0 .15.024.213.072a.27.27 0 01.119.191c.07.392.118.783.142 1.174.032.39.047.786.047 1.185v.252h2.086c0-.463-.008-.922-.024-1.377a19.762 19.762 0 00-.071-1.377.312.312 0 01-.012-.096c0-.088.036-.156.107-.204a.391.391 0 01.249-.083c.07 0 .134.02.189.06.063.04.107.095.13.167zm1.719 7.603a.375.375 0 01-.237-.084.23.23 0 01-.106-.203v-.264c.023-.255.039-.51.047-.766s.012-.515.012-.778c0-.91-.032-1.812-.095-2.706a41.987 41.987 0 01-.083-2.574.326.326 0 01.119-.18.37.37 0 01.2-.06c.088 0 .163.028.226.084a.23.23 0 01.107.204.167.167 0 01-.012.071c.016.639.055 1.317.118 2.036.064.71.095 1.405.095 2.083 0 .335-.012.65-.036.946.174-.375.352-.766.534-1.173.19-.408.383-.815.58-1.222.198-.407.4-.806.605-1.197.205-.4.414-.778.628-1.137l.296-.659a.328.328 0 01.13-.144.417.417 0 01.19-.047c.087 0 .162.027.225.083.071.048.107.12.107.216v.203c0 .16-.004.324-.012.491v.97c.008.24.011.519.011.838l.024.994c.008.343.012.67.012.982.008.303.012.566.012.79.008.223.012.371.012.443v.36c0 .127-.004.27-.012.43v.192a3.5 3.5 0 01.012.299c0 .128-.016.26-.047.395-.032.136-.127.204-.285.204a.332.332 0 01-.225-.072.453.453 0 01-.107-.18.883.883 0 01-.035-.251v-.85a5.05 5.05 0 00.012-.336v-.215c0-.407-.004-.782-.012-1.125l-.024-1.018c0-.335-.004-.675-.012-1.018a51.455 51.455 0 01-.012-1.125c-.221.447-.45.918-.687 1.412a267.457 267.457 0 00-1.362 2.994c-.214.495-.411.965-.593 1.412v.012c-.055.16-.162.24-.32.24z" fill="#74A350"/><path d="M27.173 3.738h1.89v.308h-1.536v.723h.78c.299 0 .525.063.68.188.156.126.233.306.233.543 0 .248-.084.439-.254.571-.167.133-.407.2-.72.2h-1.073V3.737zm1.06 2.246c.204 0 .36-.04.468-.119.108-.08.161-.196.161-.35 0-.307-.21-.46-.63-.46h-.705v.93h.705zm3.577-2.246V6.27h-.35V4.053h-1.11l-.024.742c-.012.35-.041.632-.086.85-.043.216-.113.38-.208.491a.489.489 0 01-.387.163.92.92 0 01-.225-.029l.025-.322c.038.01.076.015.114.015a.295.295 0 00.247-.123.929.929 0 00.14-.376c.031-.167.051-.386.06-.659l.04-1.067h1.765zm2.446 1.899h-1.331l-.276.633h-.369l1.135-2.532h.354l1.138 2.532h-.375l-.276-.633zm-.125-.29l-.54-1.24-.541 1.24h1.08zm2.883-1.294h-1.288l.003 2.217h-.354V3.738h1.643l-.004.315zM38.293 6.3a1.4 1.4 0 01-.683-.167 1.263 1.263 0 01-.48-.467 1.297 1.297 0 01-.172-.662c0-.243.057-.464.172-.662.117-.197.277-.352.48-.462.202-.114.43-.17.683-.17.25 0 .477.056.68.17.203.11.362.265.476.462.115.196.172.416.172.662a1.244 1.244 0 01-.648 1.128c-.203.112-.43.167-.68.167zm0-.323a.967.967 0 00.494-.126.909.909 0 00.347-.348.981.981 0 00.13-.499.961.961 0 00-.13-.495.902.902 0 00-.347-.351.967.967 0 00-.494-.127c-.184 0-.35.043-.501.127a.928.928 0 00-.35.35.987.987 0 00-.126.496c0 .184.042.35.125.5a.936.936 0 00.351.347c.15.084.317.126.501.126zm3.63-1.924h-.86V6.27h-.35V4.053h-.856v-.315h2.066v.315zm2.03.904a.68.68 0 01.383.22.597.597 0 01.133.402.6.6 0 01-.24.51c-.158.12-.388.181-.69.181h-1.146V3.738h1.077c.275 0 .488.057.64.17a.554.554 0 01.233.481.586.586 0 01-.104.351.602.602 0 01-.286.217zm-1.206-.105h.698c.174 0 .306-.035.397-.105.093-.07.14-.172.14-.307s-.047-.237-.14-.307c-.093-.073-.225-.109-.397-.109h-.698v.828zm.784 1.132c.384 0 .576-.144.576-.434 0-.144-.049-.25-.147-.318-.095-.07-.238-.105-.43-.105h-.783v.857h.784zm2.699.316c-.252 0-.48-.056-.683-.167a1.262 1.262 0 01-.48-.467 1.295 1.295 0 01-.172-.662c0-.243.058-.464.172-.662.117-.197.277-.352.48-.462.203-.114.43-.17.684-.17.25 0 .477.056.68.17.203.11.361.265.476.462.114.196.172.416.172.662a1.244 1.244 0 01-.648 1.128c-.203.112-.43.167-.68.167zm0-.323a.965.965 0 00.495-.126.912.912 0 00.347-.348.985.985 0 00.129-.499.965.965 0 00-.477-.846.965.965 0 00-.493-.127c-.184 0-.35.043-.502.127a.932.932 0 00-.35.35.987.987 0 00-.125.496c0 .184.041.35.125.5a.94.94 0 00.35.347c.151.084.318.126.502.126zm2.92-2.239c.325 0 .58.079.766.236.186.156.279.372.279.647s-.093.49-.279.647c-.186.157-.441.235-.766.235h-.62v.767h-.357V3.738h.977zm-.01 1.45c.226 0 .399-.047.518-.144.12-.099.18-.24.18-.423s-.06-.323-.18-.42c-.12-.098-.292-.148-.519-.148h-.608V5.19h.608zm1.588-1.45h.355v1.953l1.482-1.953h.329V6.27h-.35V4.32l-1.486 1.95h-.33V3.738zm4.704.315h-.859V6.27h-.35V4.053h-.856v-.315h2.065v.315zm2.29 1.902v.315h-1.819V3.738h1.768v.315h-1.41v.778h1.257v.307H56.26v.817h1.46zm2.645-2.217V6.27h-.351V4.053h-1.11l-.025.742c-.012.35-.04.632-.086.85-.043.216-.112.38-.207.491a.488.488 0 01-.387.163.92.92 0 01-.225-.029L58 5.948c.038.01.076.015.114.015a.294.294 0 00.247-.123.927.927 0 00.14-.376c.03-.167.05-.386.06-.659l.04-1.067h1.765zm1.914.882c.299 0 .526.068.684.203.16.135.24.334.24.597 0 .277-.086.488-.258.633-.17.145-.413.217-.73.217h-1.034V3.738h.354v.883h.744zm-.078 1.364c.207 0 .366-.047.476-.14.112-.097.168-.236.168-.417 0-.347-.215-.52-.644-.52h-.666v1.077h.666zm3.722-2.246V6.27h-.358V5.142H64.13V6.27h-.359V3.738h.359v1.09h1.438v-1.09h.358zm1.915.882c.3 0 .527.068.685.203.16.135.24.334.24.597 0 .277-.087.488-.258.633-.17.145-.413.217-.73.217h-1.035V3.738h.354v.883h.745zm-.078 1.364c.208 0 .366-.047.476-.14.112-.097.168-.236.168-.417 0-.347-.214-.52-.644-.52h-.666v1.077h.666zm1.4-2.246h.354V6.27h-.354V3.738zm1.171 0h.354v1.953l1.482-1.953h.33V6.27h-.351V4.32l-1.486 1.95h-.329V3.738zm1.077-.177c-.195 0-.347-.042-.454-.126a.46.46 0 01-.161-.37h.254a.284.284 0 00.097.221.413.413 0 00.264.076.405.405 0 00.258-.076.275.275 0 00.104-.22h.25a.453.453 0 01-.164.365c-.105.087-.254.13-.448.13zM77.075 5c0 .336-.116.599-.347.79-.231.19-.558.292-.98.307v.267h-.334v-.267c-.422-.017-.75-.121-.984-.311-.231-.19-.347-.453-.347-.785 0-.335.116-.598.347-.789.234-.19.562-.294.984-.31v-.258h.333v.257c.42.017.746.122.978.315.233.19.35.452.35.785zm-1.328.814c.32-.019.564-.097.73-.235.17-.14.255-.334.255-.582a.691.691 0 00-.258-.571c-.17-.14-.412-.22-.727-.24v1.628zm-1.317-.813c0 .246.085.439.254.578.172.138.416.216.73.235V4.187c-.32.02-.564.098-.733.235-.167.137-.25.33-.25.579zM78.79 6.3c-.254 0-.482-.056-.685-.167a1.262 1.262 0 01-.48-.467 1.294 1.294 0 01-.17-.662 1.236 1.236 0 01.651-1.125c.202-.113.43-.17.683-.17.25 0 .477.057.68.17.203.111.362.266.476.463.115.196.172.416.172.662 0 .246-.057.468-.172.666-.114.195-.273.35-.476.463-.203.11-.43.166-.68.166zm0-.323a.967.967 0 00.493-.126.911.911 0 00.347-.348.985.985 0 00.129-.499.965.965 0 00-.129-.495.904.904 0 00-.347-.351.967.967 0 00-.494-.127c-.184 0-.35.043-.501.127a.932.932 0 00-.351.35.987.987 0 00-.125.496c0 .184.042.35.125.5a.94.94 0 00.35.347c.151.084.318.126.502.126zm4.096-2.239V6.27h-.358V5.142H81.09V6.27h-.359V3.738h.359v1.09h1.438v-1.09h.358zm3.174 2.217v.869h-.334V6.27h-2.061l-.004.554h-.333l.004-.869h.122c.157-.01.268-.135.333-.376.064-.243.103-.586.118-1.027l.025-.814h1.76v2.217h.37zm-1.84-1.37a5.987 5.987 0 01-.086.886c-.043.234-.114.395-.212.484h1.414V4.053h-1.099l-.017.532z" fill="#151615"/><path d="M13.489 13.986a.692.692 0 00-.561.27.703.703 0 00-.56-.27.691.691 0 00-.532.24.715.715 0 00-.17.564c.056.498.477.712.757.947.178.174.34.364.484.569a4.12 4.12 0 01.484-.57c.287-.263.7-.448.757-.946a.723.723 0 00-.156-.548.703.703 0 00-.503-.256z" fill="#E97636"/><path d="M12.312 12.89a.986.986 0 01.154-.043l-.154.043zm-1.466 1.48v.058l.042-.136-.042.079zm2.074-1.551zm.561.078h-.07l.147.05-.077-.05zm1.094-3.935c-.07-.235-.19-.306-.533-.334a.95.95 0 00-.441.128h.098c.296.047.59.116.876.206zm.092.363l-.147-.05a6.38 6.38 0 00-.701-.163l-.05.362c.214.037.424.087.631.15.134.037.265.083.393.135a.769.769 0 01-.126-.349s.007-.057 0-.085zm-2.735 11.137l-.05.256a5.429 5.429 0 002.195-.064c.063 0 .7-.228.757-.256a4.86 4.86 0 00.7-.42c.064-.043.372-.335.436-.37a9.78 9.78 0 01-1.402.668 5.307 5.307 0 01-2.636.186zm1.536-11.03l.091-.64-.098.042c-.14.057-.267.192-.407.214-.29.043-.56.177-.77.384a5.45 5.45 0 011.184 0zm1.339.327c.076.085.14.18.19.285l.07-.185-.26-.1z" fill="#74A350"/><path d="M14.246 13.31l.21-.299a2.533 2.533 0 00-.876-.462 2.48 2.48 0 00-1.458 0c-.367.12-.701.328-.974.604l.245.264a2.118 2.118 0 012.853-.107zm.442-.078l-.21.306a2.165 2.165 0 01.442 2.29 2.13 2.13 0 01-.749.95c-.335.237-.73.37-1.138.382v.341a2.46 2.46 0 001.088-.316c.333-.189.62-.453.837-.772a2.55 2.55 0 00.318-2.213 3.299 3.299 0 00-.196-.456l.274-.156c.086.164.159.335.217.512.158.49.18 1.014.063 1.516l.652.192-.042.15a3.506 3.506 0 01-.575 1.153l.28.234c.348-.46.591-.991.713-1.557a3.979 3.979 0 00-.012-1.717v-.149l.645-.17c0-.065-.035-.122-.049-.179l-.056-.15c-.273.072-.582.08-.89.136l-.14.057c.035.093.07.185.098.277.141.428.196.881.161 1.331h-.309a3.375 3.375 0 00-.147-1.217 3.253 3.253 0 00-.785-1.288v-.035l-.378.562-.113-.014zm-3.94 1.758a1.274 1.274 0 010-.228.42.42 0 010-.093c.012-.081.028-.162.049-.242v-.135c.074-.217.18-.42.315-.605l-.252-.277a2.626 2.626 0 00-.442.86 2.563 2.563 0 00.21 1.923 2.474 2.474 0 001.487 1.209c.176.048.357.079.54.092v-.341a2.128 2.128 0 01-1.363-.71 2.19 2.19 0 01-.544-1.454z" fill="#74A350"/><path d="M17.176 18.448l-.098.128-.519-.441a4.785 4.785 0 01-1.802 1.345l-.126-.292c.341-.146.663-.332.96-.555l-.245-.27a4.097 4.097 0 01-3.298.735 4.133 4.133 0 01-1.896-.956l-.231.277c.38.334.81.604 1.275.797l-.112.292a4.827 4.827 0 01-1.493-.96l-.105-.107.442-.52a4.284 4.284 0 01-.96-1.658 4.566 4.566 0 01-.148-.612l-.701.085v-.156a4.985 4.985 0 01-.035-.712h.315a4.51 4.51 0 000 .52l.358-.05a4.22 4.22 0 011.724-3.786l-.196-.306a4.548 4.548 0 00-1.318 1.523l-.273-.156c.193-.351.428-.676.7-.968l-.195-.292c-.127 0-.19.178-.253.27-.063.093-.252 0-.343 0l.196.157a5.284 5.284 0 00-.848 1.715c0 .093-.05.185-.07.278l.35.085c0-.093.042-.178.063-.263.021-.086.056-.185.091-.278l.295.107c0 .085-.056.17-.084.263-.038.129-.068.26-.091.392v.156l-.652-.15a5.291 5.291 0 00.126 2.328l.652-.164.049.135c.156.483.393.936.7 1.338l-.252.192a5.147 5.147 0 01-.7-1.288l-.351.092a5.255 5.255 0 002.281 2.789 5.129 5.129 0 003.516.634l-.09-.355a4.744 4.744 0 01-1.873 0h-.098l.07-.306h.092a4.46 4.46 0 001.892 0h.147l.162.661.322-.092a5.316 5.316 0 001.949-1.167l.21.235c-.286.27-.601.51-.94.711.333-.154.656-.327.968-.52.183-.145.35-.31.498-.49.132-.17.236-.36.308-.563l-.063-.05c-.08.086-.164.167-.252.243z" fill="#74A350"/><path d="M10.558 10.278l-.147.079a6.551 6.551 0 00-.47.299.718.718 0 01-.098.227c-.098.152-.21.292-.336.42l.077.114a4.732 4.732 0 012.584-1.286 4.696 4.696 0 012.842.46c0-.163 0-.298.035-.291a.965.965 0 00-.05-.256l-.048.106a5.032 5.032 0 00-.617-.22 5.066 5.066 0 00-3.036.042l-.119.043-.077-.228a1.008 1.008 0 00-.203 0c-.323 0-.484 0-.596.1l.26.391z" fill="#74A350"/><path d="M17.912 16.263v-.043a.208.208 0 010-.064v-.113a5.321 5.321 0 00-.12-2.598.57.57 0 00-.21-.057H17.4v.086c.085.256.147.52.182.79l-.308.042-.042-.249-.35.093a4.267 4.267 0 01-.04 1.882 4.228 4.228 0 01-.844 1.676l-.098.12-.519-.44a3.451 3.451 0 01-1.5.974l-.182.057-.084-.306.168-.05c.444-.143.85-.385 1.19-.708.341-.322.607-.717.78-1.156 0-.05 0-.093.049-.142l-.343-.1c-.144.412-.38.785-.689 1.09a2.688 2.688 0 01-2.733.668 2.897 2.897 0 01-.806-.377l-.427.526-.12-.092a3.55 3.55 0 01-1.037-1.345l.288-.128c.191.431.473.815.827 1.124l.224-.285a2.85 2.85 0 01-.834-1.28 2.78 2.78 0 010-1.659 2.839 2.839 0 011.336-1.697 2.767 2.767 0 012.127-.245 2.7 2.7 0 01.967.512l.204-.306a3.166 3.166 0 00-.842-.477l-.203-.07a3.09 3.09 0 00-1.85 0 3.162 3.162 0 00-1.319.839l-.203-.235c.4-.424.9-.74 1.451-.918a3.09 3.09 0 01.954-.17v-.37a3.714 3.714 0 00-1.052.192l-.245.092-.12-.299.274-.1a4.146 4.146 0 011.29-.206h.154v.712c.258.02.514.066.764.135.12.036.231.078.337.12a.216.216 0 00.098-.063.706.706 0 01.217-.192 4.264 4.264 0 00-.554-.214l-.28-.07.07-.314.301.078c.28.084.55.196.806.335a.816.816 0 00.127-.093v-.235a4.867 4.867 0 00-.863-.355 4.429 4.429 0 00-2.635.035 4.676 4.676 0 00-.954.448l.358.57-.126.085c-.435.308-.8.706-1.073 1.167l.547.384-.07.129a3.205 3.205 0 00-.357 2.1l-.31.056a3.611 3.611 0 01.085-1.594c.062-.214.144-.422.245-.62l-.301-.213a4.532 4.532 0 00-.287.712 3.935 3.935 0 00.574 3.387c.346.482.797.877 1.317 1.153.52.276 1.096.427 1.684.44v-.362a3.348 3.348 0 01-.87-.135 5.842 5.842 0 01-.49-.185l.133-.292c.144.065.291.122.442.17.305.088.621.131.939.129h.161v.711a4.01 4.01 0 00.968-.185 3.757 3.757 0 001.205-.654l.112-.093.449.505a4.54 4.54 0 001.577-3.323h.316a4.918 4.918 0 01-.947 2.761l.28.235a5.57 5.57 0 00.653-1.174l.28.121c0-.1.05-.192.084-.292l.147-.363-.308-.064-.014-.07zm-9.919 1.238l-.119.064c.167.392.36.772.575 1.139a5.452 5.452 0 003.133 1.864l.042-.17-.266-.072a5.47 5.47 0 01-1.97-1.058A5.564 5.564 0 017.992 17.5zm.435-5.771l.084-.064a.136.136 0 01.056 0h-.05l-.09.064zm14.37-3.195v-.114a.72.72 0 00-.417-.611.692.692 0 00-.726.099 2.132 2.132 0 01-.75.377.694.694 0 00-.375.135.71.71 0 00-.242.32c-.12.275-.3.518-.526.712-.266.192-.371.327-.196.598.05.078.077.142.056.2a.283.283 0 01-.105.092.292.292 0 00-.105.156.136.136 0 000 .071c.01.183.01.366 0 .548a1.97 1.97 0 00-.05.534c.015.24-.009.48-.07.712-.018.056-.042.11-.07.163-.035.057 0 .15 0 .292l.176-.128.301-.228.267-.192.294-.214.266-.184a2.48 2.48 0 01.526-.285 1.74 1.74 0 00.806-.712c.27-.384.513-.786.73-1.202.175-.37.602-.712.21-1.139zm-4.121 5.515a.093.093 0 010-.043c.084-.263.042-.412-.099-.462a.58.58 0 00-.33 0h-.034c.216.835.24 1.709.07 2.554h.056l.19-.483c.093-.187.161-.386.203-.591a.34.34 0 010-.114c.098-.256.371-.59-.056-.861zM13.012 2.671c.114.147.202.314.26.492.112.377.139.777.076 1.167 0 .064.042.156 0 .234 0 .207.148.47-.182.584 0 0 0 .135-.049.185.126 0 .294 0 .301.078a.843.843 0 010 .527c-.147.227-.042.398 0 .59 0 .064.078.114.092.178l.063.32a1.141 1.141 0 00.546.89l.302.135c0-.057 0-.12.056-.178.023-.064.04-.131.05-.199a.277.277 0 000-.12v-.072h.111c0-.093 0-.192.05-.285.02-.103.034-.208.041-.313a1.012 1.012 0 000-.434c.099-.128.246-.235.232-.306a.824.824 0 00-.246-.327c-.097-.107-.2-.21-.308-.306l.168-.107V3.782l-.224-.043v-.071l.245-.079V3.34a2.577 2.577 0 01-.217-.462c0-.057.119-.135.168-.214a.715.715 0 00.105-.227 3.408 3.408 0 00-.406-1.915.834.834 0 00-.463-.465.81.81 0 00-.652.024c-.105.043-.175.178-.238.285a1.1 1.1 0 00-.042.228c-.122.31-.203.635-.239.967.055.337.159.663.309.968.027.05.057.097.09.143zM8.673 6.016v.1c-.072.54.01 1.092.238 1.587.035.09.077.179.126.263a.963.963 0 00.253.277c.105.072.21.128.322.192l.112.079c.042 0 .162 0 .21-.064.05-.064.183-.185.274-.285.091-.1.161-.17.238-.263l-.098-.135a2.134 2.134 0 00-.126-.178l.33-.071a1.137 1.137 0 000-.214 1.226 1.226 0 000-.32 1.205 1.205 0 00-.162-.413.8.8 0 01-.112-.277c-.035-.264-.224-.356-.435-.427a.819.819 0 01-.28-.093.332.332 0 010-.249c0-.064.105-.114.154-.17l-.245-.193v-.156c-.05-.634 0-1.303-.701-1.616.05-.183.071-.372.063-.562a3.083 3.083 0 00-.273-.626 1.269 1.269 0 01-.12-.904l-.175-.164c-.273-.199-.406-.185-.7.043a.45.45 0 01-.295 0c-.407-.05-.778.157-.785.491a1.84 1.84 0 00.105.712c.18.402.381.794.603 1.174 0 .043.098.05.147.078a.325.325 0 01.112.107c.091.249.168.512.273.754.176.427.379.84.547 1.26.063.235.183.363.4.263zM3.5 7.397c.063.249.428.42.652.633.223.169.424.368.596.59.32.509.712.967 1.163 1.36.091.085.183.156.274.234l.245.207c.08.058.155.122.224.192l.05.043.23.213.218.214.19-.257.119-.17c-.274-.2-.274-.264-.092-.648v-.043a.883.883 0 00.078-.241.246.246 0 000-.178l-.134-.193a2.367 2.367 0 00-.182-.256 1.35 1.35 0 00-.883-.59 2.038 2.038 0 00-.358-.449 7.866 7.866 0 00-.799-.711c-.147-.107-.203-.192-.147-.356a1.575 1.575 0 000-.206c-.393-.043-.848.113-.967-.449.168-.156.266 0 .371.079.097.088.2.169.309.241V6.03l-.35-.476c0-.64.041-.534-.52-.797a.285.285 0 01-.105-.05c-.224-.22-.477-.164-.757-.1a3.7 3.7 0 00.105.384c.028.075.063.146.105.214a1.382 1.382 0 01-.23.057c-.499.042-.478.07-.316.512.335.522.64 1.064.91 1.623zm4.065 6.133h-.14a.316.316 0 01-.083.208.307.307 0 01-.197.098h-.12c-.063 0-.119.093-.182.15l-.238.22L6.444 14a1.695 1.695 0 00-.19-.2.138.138 0 00-.098 0 .292.292 0 00-.14 0c-.084.044-.133.136-.203.207h-.091c0-.12.042-.242.063-.398a1.019 1.019 0 00-.218-.185l-.336-.164-.288-.142-.504-.235a30.53 30.53 0 00-1.073-.448c-.119-.057-.245-.2-.35-.178-.274.043-.484.07-.701-.214-.218-.284-.407-.348-.582-.555a.639.639 0 00-.547-.263.542.542 0 01-.168-.064l.112-.1-.498-.341a.117.117 0 00-.084 0c-.17.1-.324.227-.455.377a.401.401 0 00.056.57c.385.355.764.71 1.15 1.08.117.09.25.158.392.2.161.057.413.05.484.164.245.427.7.498 1.072.654.372.157.61.136.904.235.295.1.393.178.59.264.073.039.15.07.23.092h.064a.544.544 0 01.406.37c0 .078.168.121.26.178v-.05l-.092-.206.421.057.245.035c.063.356-.126.84.344 1.082h.049l.105.192c.161.292.323.584.49.868h.057c.074-.018.147-.042.217-.071 0 0 .042-.043.05-.093.006-.05 0-.05.041-.05a.101.101 0 010-.042 5.653 5.653 0 01-.063-3.096z" fill="#74A350"/><path d="M10.831 14.427c-.02.08-.037.16-.049.242.014-.078.028-.164.05-.242z" fill="#74A350"/></g><defs><clipPath id="clip0_0_1397"><path fill="#fff" d="M0 0h88v20.8H0z"/></clipPath></defs></svg>