<svg width="19" height="18" fill="none" xmlns="http://www.w3.org/2000/svg"><path fill-rule="evenodd" clip-rule="evenodd" d="M9.178 16.5a7.5 7.5 0 100-15 7.5 7.5 0 000 15zM7.3 12.423a.563.563 0 01-.744-.843l.206-.159c.122-.085.296-.194.52-.302a4.344 4.344 0 011.897-.431c.805 0 1.451.214 1.898.43a3.888 3.888 0 01.663.41l.063.052a.562.562 0 01-.745.843l-.104-.078a2.744 2.744 0 00-.368-.214 3.218 3.218 0 00-1.407-.319c-.601 0-1.08.16-1.407.32a2.682 2.682 0 00-.368.213l-.104.078zM12.93 7.5a.75.75 0 11-1.5 0 .75.75 0 011.5 0zm-6.75.75a.75.75 0 100-1.5.75.75 0 000 1.5z" fill="#F91818"/></svg>