<svg width="18" height="18" fill="none" xmlns="http://www.w3.org/2000/svg"><path fill-rule="evenodd" clip-rule="evenodd" d="M9 16.5a7.5 7.5 0 100-15 7.5 7.5 0 000 15zm-1.879-5.673a.563.563 0 00-.744.843l.206.159c.122.085.297.194.52.302A4.342 4.342 0 009 12.562a4.35 4.35 0 001.898-.43 3.874 3.874 0 00.663-.41l.063-.052a.562.562 0 00-.744-.843l-.105.078c-.08.056-.204.135-.368.214A3.218 3.218 0 019 11.438c-.6 0-1.08-.16-1.406-.32a2.745 2.745 0 01-.368-.213l-.105-.078zm5.63-3.327a.75.75 0 11-1.5 0 .75.75 0 011.5 0zM6 8.25a.75.75 0 100-1.5.75.75 0 000 1.5z" fill="#3075FC"/></svg>