<svg width="11" height="10" fill="none" xmlns="http://www.w3.org/2000/svg"><path d="M5.88.328L7.056 2.68c.084.17.25.29.44.318l2.63.383a.589.589 0 01.387.226.582.582 0 01-.059.761L8.547 6.215a.557.557 0 00-.169.507l.47 2.598a.587.587 0 01-.47.67.623.623 0 01-.375-.06L5.656 8.705a.615.615 0 00-.554 0L2.754 9.93a.602.602 0 01-.807-.235.595.595 0 01-.061-.37l.47-2.597a.557.557 0 00-.17-.507L.28 4.374a.572.572 0 010-.821c.09-.092.21-.15.338-.166l2.63-.383a.586.586 0 00.44-.319L4.82.328a.583.583 0 01.535-.323h.07c.198.024.37.146.456.323z" fill="#D9D9D9"/><path d="M5.37 8.637c-.103 0-.2.034-.291.08l-2.34 1.22a.611.611 0 01-.791-.243.577.577 0 01-.061-.365l.469-2.593a.58.58 0 00-.169-.512L.277 4.38a.574.574 0 010-.822.6.6 0 01.333-.166l2.638-.387a.571.571 0 00.441-.319L4.835.301c.088-.194.381-.328.54-.296C5.37.162 5.37 8.53 5.37 8.637z" fill="#D9D9D9"/></svg>