<svg width="40" height="40" fill="none" xmlns="http://www.w3.org/2000/svg"><path d="M16.722 5.453a3.596 3.596 0 016.557 0l2.318 4.883c.533 1.122 1.562 1.9 2.753 2.08l5.183.782c2.999.454 4.196 4.285 2.026 6.485l-3.75 3.8a3.896 3.896 0 00-1.052 3.365l.886 5.367c.512 3.105-2.623 5.473-5.305 4.007l-4.636-2.534a3.533 3.533 0 00-3.403 0l-4.635 2.534c-2.683 1.466-5.818-.902-5.305-4.007l.885-5.367a3.896 3.896 0 00-1.052-3.365l-3.75-3.8c-2.17-2.2-.972-6.031 2.026-6.485l5.183-.783c1.191-.18 2.22-.957 2.753-2.08l2.318-4.882z" fill="#fff"/></svg>