<svg width="14" height="14" fill="none" xmlns="http://www.w3.org/2000/svg"><path d="M5.852 1.908a1.259 1.259 0 012.295 0l.812 1.709c.186.392.546.665.963.728l1.814.274c1.05.158 1.469 1.5.71 2.269l-1.313 1.33a1.36 1.36 0 00-.368 1.178l.31 1.878c.179 1.087-.918 1.916-1.857 1.403l-1.623-.887a1.237 1.237 0 00-1.19 0l-1.623.887c-.939.513-2.036-.316-1.857-1.403l.31-1.878a1.364 1.364 0 00-.368-1.178l-1.313-1.33c-.76-.77-.34-2.11.71-2.27l1.814-.273c.416-.063.777-.336.963-.728l.811-1.71z" fill="#D9D9D9"/></svg>