<svg width="12" height="10" fill="none" xmlns="http://www.w3.org/2000/svg"><path d="M6.355.328L7.53 2.68c.085.17.25.29.441.318l2.63.383a.589.589 0 01.387.226.582.582 0 01-.059.761L9.022 6.215a.557.557 0 00-.169.507l.47 2.598a.587.587 0 01-.47.67.627.627 0 01-.376-.06L6.13 8.705a.615.615 0 00-.554 0L3.23 9.93a.602.602 0 01-.808-.235.595.595 0 01-.06-.37l.469-2.597a.557.557 0 00-.17-.507L.756 4.374a.572.572 0 010-.821c.09-.092.21-.15.338-.166l2.629-.383a.586.586 0 00.441-.319L5.295.328A.583.583 0 015.83.005h.07c.198.024.37.146.455.323z" fill="#000"/><path d="M5.845 8.637c-.103 0-.2.034-.291.08l-2.34 1.22a.611.611 0 01-.792-.243.577.577 0 01-.06-.365l.469-2.593a.58.58 0 00-.17-.512L.752 4.38a.574.574 0 010-.822.6.6 0 01.333-.166l2.639-.387a.571.571 0 00.44-.319L5.31.301c.087-.194.381-.328.54-.296-.005.157-.005 8.526-.005 8.632z" fill="#000"/></svg>