<svg width="72" height="21" fill="none" xmlns="http://www.w3.org/2000/svg"><g clip-path="url(#clip0_34_3874)" fill="#fff"><path d="M.137.215c-.139.21-.168.302-.106.33.018.003.16.302.314.662.157.356.34.782.409.939.219.487.292.667.321.759.015.05.19.452.387.896.197.441.362.809.362.817 0 .007.142.325.314.709.171.383.357.82.416.97.055.152.303.723.548 1.271.562 1.257.828 1.87.912 2.089.07.184.636 1.475.899 2.058l.16.356v4.3l.004 4.303.146.161.146.165h2.694l.146-.165.147-.16.003-4.254v-4.25l.124-.291c.07-.158.249-.583.402-.94.15-.36.453-1.06.675-1.559.22-.502.493-1.13.6-1.399.109-.268.313-.75.456-1.065.639-1.44.993-2.246.993-2.265 0-.027.19-.479.357-.858.702-1.575 1.432-3.28 1.432-3.346a.813.813 0 00-.11-.199.875.875 0 01-.11-.207c0-.03-.46-.042-1.5-.042-1.274 0-1.508.008-1.552.057a.616.616 0 01-.102.085c-.047.03-.19.326-.551 1.16a86.45 86.45 0 01-.413.92c-.226.503-.445 1.016-.445 1.05 0 .012-.073.18-.16.376-.089.196-.275.613-.417.931-.139.315-.41.928-.599 1.36-.19.434-.434.997-.54 1.254l-.194.464-.16-.368c-.6-1.372-.91-2.093-.997-2.326a19.95 19.95 0 00-.347-.824c-.135-.307-.369-.84-.519-1.188-.15-.349-.32-.744-.383-.882-.058-.138-.168-.394-.237-.574-.07-.18-.227-.552-.347-.832-.183-.414-.241-.514-.329-.552-.054-.023-.102-.057-.102-.077C3.284.015 2.62 0 1.78 0L.272.004l-.135.21zM16.02.172l-.14.161v10.17l.004 10.171.146.161.146.165h10.756l.168-.16.172-.162v-2.767l-.16-.142-.165-.141h-7.781v-5.441h7.178l.172-.185.172-.184V9.136l-.176-.18-.175-.18h-7.171V3.372h3.9l3.896-.004.157-.153.153-.153V.322L27.1.16 26.932 0l-5.389.004-5.389.004-.135.164zm14.384 0l-.138.161v10.17l.003 10.171.146.161.146.165h10.797l.15-.157.15-.157v-2.782l-.154-.138-.154-.138h-7.799v-5.441h7.179l.153-.166.153-.164v-2.76l-.157-.16-.157-.161h-7.17V3.372h7.787l.157-.138.161-.134V.31l-.153-.153-.157-.153h-5.404L30.54.008l-.136.164zM45.097.165l-.154.16v2.779l.15.146.153.141 3.37.02 3.37.019-.146.268a14.2 14.2 0 00-.39.766c-.307.64-.815 1.648-1.194 2.376-.336.644-.54 1.054-.552 1.112a4.815 4.815 0 01-.215.433l-.208.39h-3.199l-.15.177-.149.18v2.724l.153.165.154.165h1.523l-.172.334c-.095.187-.234.448-.307.586a23.08 23.08 0 00-.446.881c-.171.349-.529 1.054-.796 1.571-.266.518-.638 1.25-.821 1.629a19.6 19.6 0 01-.413.824c-.076.13-.08.169-.08 1.399l.004 1.264.146.165.146.161h11.1l.164-.16.16-.158v-2.786l-.15-.146-.153-.141-3.753-.02-3.757-.019.347-.67a64.3 64.3 0 00.653-1.303 117.47 117.47 0 011.37-2.74c.142-.276.27-.537.28-.587l.022-.084h3.265l.153-.165.153-.164V9.14l-.15-.18-.146-.184-.8-.008-.795-.012.292-.574c.16-.319.416-.817.57-1.112.153-.295.401-.797.555-1.111.153-.318.474-.954.712-1.418l.682-1.341.245-.498V.326L55.747.16 55.6 0h-5.174l-5.173.004-.157.16zm13.618.038a1.049 1.049 0 00-.116.245c0 .023.04.134.087.246.048.115.154.371.234.57.08.2.24.572.354.824.113.253.288.648.39.882.103.23.253.575.34.766.084.188.194.449.249.575.273.667.555 1.315 1.303 2.99.084.187.212.49.281.67.073.18.303.713.511 1.188.58 1.303.983 2.23 1.015 2.333.015.054.084.215.15.365l.124.268V16.4l.004 4.273.146.161.146.165h2.698l.128-.146.124-.141.004-4.262v-4.257l.179-.399c.354-.79.854-1.931.898-2.061.05-.15.332-.805.474-1.12.154-.325.99-2.26 1.041-2.406.03-.073.194-.46.372-.855.176-.398.322-.728.322-.735 0-.008.15-.345.332-.755.183-.406.372-.847.42-.977.047-.13.208-.514.361-.855.15-.341.274-.625.274-.632 0-.008.099-.234.22-.498l.222-.48-.095-.107a.91.91 0 01-.139-.21L71.724 0H70.22c-.829 0-1.508.015-1.508.03 0 .02-.04.054-.091.077-.095.046-.387.636-.62 1.253-.056.146-.183.449-.285.671a244.1 244.1 0 00-.373.843c-.106.242-.281.64-.394.881a26.007 26.007 0 00-.479 1.093c-.01.046-.05.141-.416.977-.16.368-.398.904-.526 1.188-.131.283-.244.544-.255.575-.018.053-.27-.46-.34-.694-.014-.05-.175-.43-.358-.84a124.879 124.879 0 01-1.193-2.778 20.038 20.038 0 00-.329-.785c-.124-.284-.354-.813-.511-1.169L62.144.41c-.077-.169-.146-.276-.205-.303-.05-.023-.09-.057-.09-.076 0-.016-.68-.031-1.509-.031h-1.508l-.117.203z"/></g><defs><clipPath id="clip0_34_3874"><path fill="#fff" d="M0 0h72v21H0z"/></clipPath></defs></svg>