<svg width="12" height="12" viewBox="0 0 12 12" fill="none" xmlns="http://www.w3.org/2000/svg">
<path d="M6 0L6.0135 4.50075C6.40873 4.5047 6.78646 4.66432 7.06475 4.945C7.34303 5.22567 7.49943 5.60475 7.5 6H12C12 2.69175 9.30825 0 6 0ZM3 6.375C3 5.05575 3.981 3.972 5.25 3.78825V0.76875C2.319 0.963 0 3.39525 0 6.375C0 7.79325 0.52875 9.08475 1.395 10.0747L3.53025 7.94025C3.18804 7.49002 3.00189 6.94052 3 6.375ZM5.625 9C5.05948 8.99811 4.50998 8.81196 4.05975 8.46975L1.92525 10.605C2.94768 11.5047 4.26309 12.0007 5.625 12C8.60475 12 11.037 9.681 11.2313 6.75H8.2125C8.028 8.019 6.94425 9 5.625 9Z" fill="#3075FC"/>
</svg>
