<svg width="12" height="12" viewBox="0 0 12 12" fill="none" xmlns="http://www.w3.org/2000/svg">
<g id="add (3) 8" clip-path="url(#clip0_18_1992)">
<path id="Vector" d="M3.2059 0.398979C1.65924 0.398979 0.399414 1.65898 0.399414 3.20565V8.79436C0.399414 10.341 1.65907 11.601 3.2059 11.601H8.79461C10.3413 11.601 11.6013 10.341 11.6013 8.79436V3.20547C11.6013 1.65881 10.3413 0.398804 8.79461 0.398804L3.2059 0.398979ZM3.2059 1.33672H8.79461C9.83812 1.33672 10.6637 2.16214 10.6637 3.20565V8.79436C10.6637 9.83786 9.83812 10.6631 8.79461 10.6631H3.2059C2.1624 10.6631 1.33698 9.83786 1.33698 8.79436V3.20547C1.33698 2.16196 2.1624 1.33672 3.2059 1.33672ZM6.11055 2.7661C5.98627 2.76787 5.86779 2.81892 5.78115 2.90802C5.69451 2.99712 5.64679 3.11699 5.6485 3.24126V5.50048H3.38963C3.327 5.49876 3.26467 5.5096 3.20631 5.53238C3.14795 5.55515 3.09475 5.5894 3.04985 5.63308C3.00495 5.67676 2.96925 5.729 2.94488 5.78672C2.92051 5.84443 2.90796 5.90644 2.90796 5.96909C2.90796 6.03173 2.92051 6.09374 2.94488 6.15146C2.96925 6.20917 3.00495 6.26141 3.04985 6.30509C3.09475 6.34878 3.14795 6.38302 3.20631 6.40579C3.26467 6.42857 3.327 6.43941 3.38963 6.43769H5.6485V8.69656C5.64728 8.7589 5.65852 8.82086 5.68153 8.8788C5.70455 8.93675 5.7389 8.98952 5.78256 9.03404C5.82621 9.07856 5.87831 9.11392 5.9358 9.13806C5.99329 9.1622 6.05501 9.17464 6.11737 9.17464C6.17972 9.17464 6.24144 9.1622 6.29893 9.13806C6.35642 9.11392 6.40852 9.07856 6.45218 9.03404C6.49584 8.98952 6.53018 8.93675 6.5532 8.8788C6.57622 8.82086 6.58745 8.7589 6.58624 8.69656V6.43769H8.84511C8.90773 6.43941 8.97006 6.42857 9.02842 6.40579C9.08678 6.38302 9.13998 6.34878 9.18488 6.30509C9.22979 6.26141 9.26548 6.20917 9.28985 6.15146C9.31422 6.09374 9.32677 6.03173 9.32677 5.96909C9.32677 5.90644 9.31422 5.84443 9.28985 5.78672C9.26548 5.729 9.22979 5.67676 9.18488 5.63308C9.13998 5.5894 9.08678 5.55515 9.02842 5.53238C8.97006 5.5096 8.90773 5.49876 8.84511 5.50048H6.58624V3.24126C6.5871 3.17858 6.57538 3.11636 6.55177 3.05829C6.52816 3.00021 6.49314 2.94747 6.44879 2.90316C6.40444 2.85886 6.35165 2.82391 6.29356 2.80036C6.23546 2.77682 6.17323 2.76517 6.11055 2.7661Z" fill="#3075FC"/>
</g>
<defs>
<clipPath id="clip0_18_1992">
<rect width="12" height="12" fill="white"/>
</clipPath>
</defs>
</svg>
