<svg width="12" height="12" viewBox="0 0 12 12" fill="none" xmlns="http://www.w3.org/2000/svg">
<path fill-rule="evenodd" clip-rule="evenodd" d="M2.75424 0.918274H8.26305C9.27719 0.918274 10.0993 1.7404 10.0993 2.75454V8.26335C10.0993 9.2775 9.27719 10.0996 8.26305 10.0996H2.75424C1.74009 10.0996 0.917969 9.2775 0.917969 8.26335V2.75454C0.917969 1.7404 1.74009 0.918274 2.75424 0.918274ZM5.50864 3.32838C5.69879 3.32838 5.85294 3.48253 5.85294 3.67268V5.16465H7.34491C7.53506 5.16465 7.68921 5.3188 7.68921 5.50895C7.68921 5.6991 7.53506 5.85325 7.34491 5.85325H5.85294V7.34522C5.85294 7.53537 5.69879 7.68952 5.50864 7.68952C5.31849 7.68952 5.16434 7.53537 5.16434 7.34522V5.85325H3.67237C3.48222 5.85325 3.32807 5.6991 3.32807 5.50895C3.32807 5.3188 3.48222 5.16465 3.67237 5.16465H5.16434V3.67268C5.16434 3.48253 5.31849 3.32838 5.50864 3.32838Z" fill="#3075FC"/>
</svg>
