<svg width="12" height="12" viewBox="0 0 12 12" fill="none" xmlns="http://www.w3.org/2000/svg">
<path d="M5.62018 0.0799997C5.49743 0.127594 5.38529 0.19896 5.29018 0.290001L0.290185 5.29C0.196947 5.38324 0.122986 5.49393 0.0725257 5.61575C0.0220654 5.73757 -0.00390652 5.86814 -0.00390651 6C-0.0039065 6.2663 0.101882 6.5217 0.290185 6.71C0.383424 6.80324 0.494114 6.8772 0.615936 6.92766C0.737758 6.97812 0.868326 7.00409 1.00019 7.00409C1.26649 7.00409 1.52188 6.8983 1.71019 6.71L5.00019 3.41L5.00019 11C5.00019 11.2652 5.10554 11.5196 5.29308 11.7071C5.48062 11.8946 5.73497 12 6.00019 12C6.2654 12 6.51976 11.8946 6.70729 11.7071C6.89483 11.5196 7.00019 11.2652 7.00019 11L7.00019 3.41L10.2902 6.71C10.3831 6.80373 10.4937 6.87812 10.6156 6.92889C10.7375 6.97966 10.8682 7.0058 11.0002 7.0058C11.1322 7.0058 11.2629 6.97966 11.3848 6.92889C11.5066 6.87812 11.6172 6.80373 11.7102 6.71C11.8039 6.61704 11.8783 6.50644 11.9291 6.38458C11.9798 6.26272 12.006 6.13201 12.006 6C12.006 5.86799 11.9798 5.73728 11.9291 5.61542C11.8783 5.49356 11.8039 5.38296 11.7102 5.29L6.71019 0.290001C6.61508 0.19896 6.50294 0.127594 6.38019 0.0799996C6.13672 -0.0200179 5.86365 -0.0200179 5.62018 0.0799997Z" fill="#3075FC"/>
</svg>
