<svg width="16" height="17" viewBox="0 0 16 17" fill="none" xmlns="http://www.w3.org/2000/svg">
<path d="M11.9467 8.24665C11.9149 8.16481 11.8674 8.09005 11.8067 8.02665L8.47333 4.69331C8.41117 4.63116 8.33738 4.58185 8.25617 4.54821C8.17495 4.51457 8.08791 4.49725 8 4.49725C7.82247 4.49725 7.6522 4.56778 7.52667 4.69331C7.46451 4.75547 7.4152 4.82927 7.38156 4.91048C7.34792 4.9917 7.33061 5.07874 7.33061 5.16665C7.33061 5.34418 7.40113 5.51445 7.52667 5.63998L9.72667 7.83331H4.66667C4.48986 7.83331 4.32029 7.90355 4.19526 8.02858C4.07024 8.1536 4 8.32317 4 8.49998C4 8.67679 4.07024 8.84636 4.19526 8.97139C4.32029 9.09641 4.48986 9.16665 4.66667 9.16665H9.72667L7.52667 11.36C7.46418 11.422 7.41459 11.4957 7.38074 11.5769C7.34689 11.6582 7.32947 11.7453 7.32947 11.8333C7.32947 11.9213 7.34689 12.0085 7.38074 12.0897C7.41459 12.1709 7.46418 12.2447 7.52667 12.3066C7.58864 12.3691 7.66238 12.4187 7.74362 12.4526C7.82486 12.4864 7.91199 12.5038 8 12.5038C8.08801 12.5038 8.17515 12.4864 8.25638 12.4526C8.33762 12.4187 8.41136 12.3691 8.47333 12.3066L11.8067 8.97331C11.8674 8.90991 11.9149 8.83515 11.9467 8.75331C12.0133 8.59101 12.0133 8.40896 11.9467 8.24665Z" fill="black"/>
</svg>
