<svg width="14" height="14" viewBox="0 0 14 14" fill="none" xmlns="http://www.w3.org/2000/svg">
<path d="M7.41415 10.3313L10.3308 7.4146C10.3839 7.35912 10.4255 7.29371 10.4533 7.2221C10.5117 7.08008 10.5117 6.92079 10.4533 6.77877C10.4255 6.70716 10.3839 6.64174 10.3308 6.58627L7.41415 3.6696C7.35976 3.61521 7.29519 3.57207 7.22412 3.54263C7.15306 3.5132 7.0769 3.49805 6.99998 3.49805C6.84464 3.49805 6.69566 3.55976 6.58581 3.6696C6.47597 3.77944 6.41426 3.92842 6.41426 4.08377C6.41426 4.23911 6.47597 4.38809 6.58581 4.49793L8.51081 6.4171L4.08331 6.4171C3.9286 6.4171 3.78023 6.47856 3.67083 6.58795C3.56144 6.69735 3.49998 6.84572 3.49998 7.00043C3.49998 7.15514 3.56144 7.30352 3.67083 7.41291C3.78023 7.52231 3.9286 7.58377 4.08331 7.58377L8.51081 7.58377L6.58581 9.50293C6.53114 9.55716 6.48774 9.62168 6.45813 9.69276C6.42851 9.76385 6.41326 9.84009 6.41326 9.9171C6.41326 9.99411 6.42851 10.0704 6.45813 10.1414C6.48774 10.2125 6.53114 10.277 6.58581 10.3313C6.64004 10.3859 6.70456 10.4293 6.77564 10.459C6.84673 10.4886 6.92297 10.5038 6.99998 10.5038C7.07699 10.5038 7.15323 10.4886 7.22432 10.459C7.2954 10.4293 7.35992 10.3859 7.41415 10.3313Z" fill="white"/>
</svg>
