<svg width="10" height="10" viewBox="0 0 10 10" fill="none" xmlns="http://www.w3.org/2000/svg">
<g id="notification (2) 4">
<path id="Layer 5" d="M8.1243 6.71875C8.08079 6.94284 7.95929 7.14426 7.78138 7.28728C7.60346 7.4303 7.38063 7.50566 7.15243 7.5H2.84618C2.61798 7.50566 2.39515 7.4303 2.21723 7.28728C2.03931 7.14426 1.91782 6.94284 1.8743 6.71875C1.84199 6.52657 1.87038 6.32909 1.95551 6.15379C2.04064 5.97848 2.17829 5.83407 2.3493 5.74062C2.3955 5.71509 2.43388 5.67745 2.4603 5.63176C2.48673 5.58606 2.50021 5.53403 2.4993 5.48125V4.375C2.49844 3.87628 2.64677 3.38869 2.92521 2.97493C3.20364 2.56117 3.59947 2.24015 4.0618 2.05312C4.06305 1.80448 4.16301 1.56652 4.3397 1.39158C4.5164 1.21665 4.75535 1.11907 5.00399 1.12031C5.25263 1.12156 5.49059 1.22152 5.66553 1.39821C5.84047 1.57491 5.93805 1.81386 5.9368 2.0625C6.40313 2.26718 6.79946 2.60368 7.07706 3.03063C7.35467 3.45759 7.50143 3.95636 7.4993 4.46562V5.48125C7.49714 5.5328 7.50873 5.58399 7.5329 5.62957C7.55706 5.67516 7.59292 5.71349 7.6368 5.74062C7.81013 5.83222 7.95037 5.97585 8.03782 6.1513C8.12527 6.32676 8.15551 6.52521 8.1243 6.71875ZM4.9993 8.75C5.21745 8.74868 5.43144 8.6903 5.62003 8.58066C5.80862 8.47101 5.96523 8.31392 6.0743 8.125H3.9243C4.03337 8.31392 4.18998 8.47101 4.37857 8.58066C4.56716 8.6903 4.78116 8.74868 4.9993 8.75Z" fill="#48455C"/>
</g>
</svg>
