<svg width="18" height="20" viewBox="0 0 18 20" fill="none" xmlns="http://www.w3.org/2000/svg">
<path d="M0.00676782 6.77234C-0.0494508 5.65588 0.245895 4.55307 0.843553 3.62841L0.999237 3.40105L1.0121 3.38859L1.12019 3.26176L1.23342 3.13227L1.24628 3.11892C1.46245 2.89731 1.70177 2.7024 1.95997 2.53598L2.03288 2.48981L2.10579 2.44698L2.27735 2.34819C2.34683 2.31526 2.42232 2.2761 2.4918 2.24317C2.54241 2.22359 2.59302 2.19778 2.64363 2.1782C2.73885 2.13815 2.84007 2.09899 2.94129 2.06606C2.9756 2.04915 3.01163 2.0358 3.04851 2.0269L3.08947 2.01044L3.13429 1.99397C3.59578 1.85602 4.07015 1.76079 4.54965 1.71718L4.5 1.723V0.728363C4.5 0.329557 4.82169 0.00709842 5.21955 0.00709842C5.61741 0.00709842 5.94 0.329557 5.94 0.728363V3.8721C5.94 4.27091 5.61741 4.59427 5.21955 4.59427C4.82169 4.59427 4.5 4.27091 4.5 3.8721L4.50005 3.14529C4.0277 3.19259 3.56389 3.31011 3.124 3.49628C1.98883 4.00696 1.44745 4.97948 1.39615 6.52069L1.39211 6.76878V7.15593H16.6085V6.75899C16.6377 6.04522 16.4945 5.335 16.1908 4.69332C15.8991 4.14419 15.4325 3.71789 14.8689 3.48649C14.51 3.33198 14.1341 3.22419 13.75 3.16538L13.5 3.135L13.5 3.86848C13.5 4.26556 13.1778 4.58719 12.78 4.58719C12.3822 4.58719 12.06 4.26556 12.06 3.86848L12.06 3.081L5.947 3.08154V1.65132L12.06 1.651L12.06 0.724132C12.0564 0.327046 12.3768 0.00272886 12.7746 1.67448e-05C13.1724 -0.00266145 13.4973 0.316265 13.5 0.713351L13.5006 1.71747C13.85 1.75194 14.1965 1.81289 14.5375 1.89997L14.8767 1.99575C14.9041 2.00109 14.9247 2.00821 14.9624 2.02156C15.0002 2.03491 15.0319 2.04826 15.0697 2.06072C15.17 2.09365 15.2635 2.13281 15.3605 2.17286C15.4162 2.19244 15.4677 2.21825 15.5114 2.23783C15.5869 2.27076 15.6641 2.30992 15.7259 2.34285C15.7893 2.37578 15.8503 2.41227 15.9034 2.44164C15.9566 2.47101 15.9978 2.50394 16.0424 2.53064C16.2367 2.65612 16.4213 2.79763 16.5938 2.95328L16.7621 3.11358L16.7698 3.12693L16.8874 3.25175L16.998 3.38325L17.004 3.39571C17.6509 4.29036 17.9989 5.37686 18 6.49003L17.993 6.76878V7.15593H18V14.9102C18 18.2916 16.1116 20 12.3691 20H5.62232C1.88841 20 1.34096e-09 18.2916 1.34096e-09 14.9102V7.15593H0.00676782V6.77234ZM13.1159 14.2463C12.6524 14.2463 12.2833 14.6269 12.2833 15.0961C12.2918 15.5652 12.6609 15.9458 13.1159 15.9458C13.5708 15.9458 13.9399 15.5652 13.9399 15.0961C13.9399 14.6269 13.5708 14.2463 13.1159 14.2463ZM9.00429 14.2374C8.54077 14.2463 8.17167 14.6269 8.17167 15.0961C8.17167 15.5652 8.54936 15.9458 9.00429 15.9458C9.45923 15.9458 9.82833 15.5652 9.82833 15.0872C9.81974 14.6269 9.45923 14.2463 9.00429 14.2374ZM4.88412 14.2374C4.4206 14.2374 4.0515 14.6269 4.06009 15.0961C4.06009 15.5652 4.42918 15.9458 4.88412 15.9458C5.33906 15.9458 5.70815 15.5564 5.70815 15.0872C5.70815 14.6181 5.33906 14.2374 4.88412 14.2374ZM13.1159 10.617C12.6524 10.617 12.2918 10.9976 12.2918 11.4668C12.2918 11.9359 12.6609 12.3166 13.1159 12.3166C13.5708 12.3166 13.9399 11.9359 13.9399 11.4668C13.9399 10.9976 13.5708 10.617 13.1159 10.617ZM9.00429 10.6082C8.54077 10.617 8.17167 10.9976 8.17167 11.4668C8.17167 11.9359 8.54936 12.3166 9.00429 12.3166C9.45923 12.3166 9.82833 11.9359 9.82833 11.4579C9.82833 10.9976 9.45923 10.617 9.00429 10.6082ZM4.8927 10.6082C4.42918 10.6082 4.06009 10.9976 4.06009 11.4668C4.06009 11.9359 4.42918 12.3166 4.88412 12.3166C5.34764 12.3166 5.71674 11.9271 5.70815 11.4579C5.70815 10.9888 5.33906 10.6082 4.8927 10.6082Z" fill="#48455C"/>
</svg>
