<svg width="16" height="16" viewBox="0 0 16 16" fill="none" xmlns="http://www.w3.org/2000/svg">
<path d="M2.11317 3.34423C2.17323 3.28087 2.25672 3.24608 2.34216 3.25035C2.42859 3.25389 2.50988 3.29552 2.56579 3.36511C2.91343 3.80044 4.7754 6.08721 7.28919 8.35591C9.35086 10.2166 10.8252 9.76091 11.228 9.57657C11.3674 9.51273 11.5246 9.49478 11.6825 9.52432C12.1876 9.6193 13.8748 10.0875 14.6817 10.5797C14.9085 10.7179 15.0281 10.9857 14.9944 11.2786C14.9585 11.591 14.7634 11.842 14.4851 11.9337C13.67 12.2024 11.7528 12.75 9.6819 12.75C9.29691 12.75 8.90654 12.7311 8.51691 12.688C7.85044 12.6141 7.23255 12.2843 6.77725 11.7591L4.09097 8.66253C3.85613 8.74128 3.37599 8.94973 3.12509 9.39675C2.82993 9.92315 2.80992 11.2525 2.7938 12.3205L2.79209 12.4431C2.78941 12.6086 2.65294 12.7434 2.48767 12.7434H1.73575C1.65275 12.7434 1.57218 12.7091 1.51506 12.6494C1.45817 12.5898 1.4279 12.5082 1.43156 12.4261C1.50059 10.812 1.53063 7.8842 1.20846 7.1034L1.19989 7.08019C0.500945 5.18529 1.8378 3.636 2.11317 3.34423ZM1.93935 12.2434H2.29505C2.31262 11.0778 2.33899 9.77654 2.68907 9.15211C2.94971 8.68754 3.37408 8.42333 3.69432 8.28077C3.60761 8.22007 3.51601 8.16681 3.41975 8.12518L1.80644 7.42699C2.04437 8.73869 1.97419 11.3235 1.93935 12.2434ZM1.63444 6.80771L3.61847 7.66617C3.9019 7.78886 4.1597 7.97845 4.36404 8.2143L7.15492 11.4314C7.52771 11.8613 8.03085 12.1311 8.57209 12.1909C10.9582 12.4555 13.3931 11.767 14.3289 11.4588C14.4375 11.423 14.4878 11.3085 14.4978 11.2213C14.5061 11.1488 14.4912 11.0491 14.4214 11.0065C13.7042 10.5691 12.112 10.1138 11.59 10.0157C11.5715 10.0123 11.5534 10.0106 11.5356 10.0106C11.4999 10.0106 11.466 10.0175 11.4357 10.0314C10.9631 10.2475 9.24247 10.7921 6.95425 8.72703C4.66359 6.65976 2.90683 4.57612 2.32434 3.86184C1.94863 4.32196 1.195 5.46449 1.63444 6.80771Z" fill="#3075FC"/>
</svg>
