<svg width="17" height="16" viewBox="0 0 17 16" fill="none" xmlns="http://www.w3.org/2000/svg">
<path d="M13.7773 14.8384L13.7085 14.32C13.5373 13.04 13.1725 11.7968 12.6221 10.6272C12.3005 9.94399 11.9149 9.28639 11.4765 8.67199L10.6221 7.47519L12.3181 3.15679C12.3453 3.08639 12.3469 3.00959 12.3245 2.93919L11.6845 1.01919C11.6413 0.887988 11.5181 0.799988 11.3805 0.799988H10.4205C10.2445 0.799988 10.1005 0.943988 10.1005 1.11999V2.74239C9.42209 2.83999 8.83969 3.24319 8.50049 3.80639C8.16129 3.24159 7.57889 2.83999 6.90049 2.74239V1.11999C6.90049 0.943988 6.75649 0.799988 6.58049 0.799988H5.62049C5.48289 0.799988 5.36129 0.887988 5.31649 1.01919L4.67649 2.93919C4.65249 3.00959 4.65409 3.08799 4.68289 3.15679L6.37889 7.47519L5.52449 8.67199C5.08609 9.28639 4.70049 9.94399 4.37889 10.6272C3.82849 11.7968 3.46369 13.0384 3.29249 14.32L3.22369 14.8384C3.21089 14.9296 3.23969 15.0224 3.30049 15.0912C3.36129 15.16 3.44769 15.2 3.54049 15.2H13.4605C13.5533 15.2 13.6397 15.16 13.7005 15.0912C13.7613 15.0224 13.7901 14.9296 13.7773 14.8384ZM11.1501 1.43999L11.5773 2.71999H10.7405V1.43999H11.1501ZM8.18049 4.95999C8.18049 5.13599 8.32449 5.27999 8.50049 5.27999C8.67649 5.27999 8.82049 5.13599 8.82049 4.95999C8.82049 4.07839 9.53889 3.35999 10.4205 3.35999H11.5517L10.0429 7.19999H9.45729H9.45569H7.54529H7.54369H6.95809L5.44929 3.35999H6.58049C7.46209 3.35999 8.18049 4.07839 8.18049 4.95999ZM5.85089 1.43999H6.26049V2.71999H5.42369L5.85089 1.43999ZM3.90529 14.56L3.92609 14.4032C4.08769 13.1872 4.43489 12.008 4.95649 10.8992C5.26209 10.2512 5.62689 9.62719 6.04289 9.04479L6.90529 7.83999H7.14209L6.58849 10.3312C6.55009 10.504 6.65889 10.6752 6.83169 10.7136C6.85409 10.7168 6.87809 10.72 6.90049 10.72C7.04769 10.72 7.17889 10.6192 7.21249 10.4688L7.79649 7.83999H8.18049V12.32C8.18049 12.496 8.32449 12.64 8.50049 12.64C8.67649 12.64 8.82049 12.496 8.82049 12.32V7.83999H9.20449L9.78849 10.4688C9.82209 10.6192 9.95329 10.72 10.1005 10.72C10.1229 10.72 10.1469 10.7168 10.1709 10.712C10.3437 10.6736 10.4525 10.5024 10.4141 10.3296L9.85889 7.83999H10.0957L10.9565 9.04319C11.3725 9.62559 11.7389 10.2496 12.0429 10.8976C12.5645 12.008 12.9117 13.1856 13.0749 14.4016L13.0957 14.56H3.90529Z" fill="#3075FC"/>
</svg>
