<svg width="17" height="16" viewBox="0 0 17 16" fill="none" xmlns="http://www.w3.org/2000/svg">
<g clip-path="url(#clip0_3_3929)">
<path d="M4.83398 11.3333H3.16732C3.07891 11.3333 2.99413 11.2982 2.93162 11.2357C2.8691 11.1732 2.83398 11.0884 2.83398 11C2.83398 9.09932 3.64732 4.45665 3.99598 2.54865C4.05943 2.20522 4.22916 1.89039 4.48121 1.64864C4.73325 1.40688 5.05487 1.25041 5.40065 1.20132L6.78732 1.00332C6.87406 0.992582 6.96155 1.01634 7.03094 1.06949C7.10034 1.12263 7.14608 1.20091 7.15832 1.28745C7.17056 1.374 7.14831 1.46189 7.09638 1.53219C7.04444 1.60249 6.96697 1.64958 6.88065 1.66332L5.49398 1.86132C5.28682 1.89071 5.09413 1.98446 4.94315 2.12934C4.79217 2.27421 4.69055 2.46287 4.65265 2.66865C4.32465 4.45332 3.58932 8.65065 3.50798 10.6667H4.53398L5.16932 4.63199C5.17319 4.58815 5.18585 4.54554 5.20654 4.5067C5.22723 4.46785 5.25552 4.43357 5.28973 4.40589C5.32395 4.37821 5.36338 4.35769 5.40568 4.34557C5.44799 4.33345 5.4923 4.32996 5.53598 4.33532C5.57946 4.33989 5.62161 4.35299 5.66002 4.37386C5.69843 4.39474 5.73235 4.42298 5.75984 4.45697C5.78733 4.49096 5.80785 4.53004 5.82023 4.57196C5.83261 4.61389 5.8366 4.65785 5.83198 4.70132L5.16532 11.0347C5.1569 11.1166 5.11834 11.1926 5.05713 11.2477C4.99591 11.3029 4.9164 11.3334 4.83398 11.3333Z" fill="#3075FC"/>
<path d="M8.49918 16C6.97318 16 4.51718 15.3493 4.41318 15.322C4.33769 15.3019 4.27167 15.2559 4.22669 15.1921C4.18171 15.1282 4.16065 15.0505 4.16718 14.9727L4.50052 10.9727C4.50883 10.8849 4.55115 10.8039 4.61843 10.747C4.68571 10.69 4.7726 10.6617 4.86052 10.668C4.94855 10.6755 5.03002 10.7176 5.08703 10.7851C5.14403 10.8526 5.1719 10.94 5.16452 11.028L4.85452 14.7467C5.53452 14.9147 7.34385 15.3333 8.49918 15.3333C9.65518 15.3333 11.4638 14.9147 12.1438 14.7467L11.8339 11.028C11.8295 10.9416 11.8589 10.8569 11.9159 10.7918C11.9729 10.7267 12.0529 10.6863 12.1391 10.6792C12.2253 10.672 12.3109 10.6986 12.3778 10.7533C12.4448 10.8081 12.4878 10.8868 12.4978 10.9727L12.8312 14.9727C12.8377 15.0505 12.8167 15.1282 12.7717 15.1921C12.7267 15.2559 12.6607 15.3019 12.5852 15.322C12.4812 15.3493 10.0252 16 8.49918 16Z" fill="#3075FC"/>
<path d="M13.833 11.3333H12.1663C12.0839 11.3334 12.0044 11.3029 11.9432 11.2478C11.8819 11.1926 11.8434 11.1166 11.835 11.0347L11.1683 4.70132C11.1637 4.65785 11.1677 4.6139 11.1801 4.57197C11.1924 4.53004 11.213 4.49097 11.2404 4.45697C11.2679 4.42298 11.3019 4.39474 11.3403 4.37387C11.3787 4.353 11.4208 4.3399 11.4643 4.33532C11.508 4.33006 11.5522 4.33361 11.5945 4.34577C11.6368 4.35793 11.6762 4.37845 11.7104 4.40612C11.7446 4.43378 11.7729 4.46803 11.7936 4.50683C11.8143 4.54563 11.827 4.58819 11.831 4.63199L12.4663 10.6667H13.4923C13.411 8.65066 12.675 4.45332 12.3476 2.66866C12.3098 2.46282 12.208 2.27413 12.0569 2.12934C11.9058 1.98455 11.7129 1.89101 11.5056 1.86199L10.119 1.66399C10.0326 1.65026 9.95518 1.60316 9.90324 1.53286C9.85131 1.46256 9.82906 1.37467 9.8413 1.28813C9.85354 1.20158 9.89928 1.12331 9.96867 1.07016C10.0381 1.01702 10.1256 0.993253 10.2123 1.00399L11.599 1.20199C11.9448 1.25082 12.2665 1.40723 12.5184 1.64904C12.7704 1.89085 12.9399 2.20582 13.003 2.54932C13.353 4.45666 14.1663 9.09932 14.1663 11C14.1663 11.0884 14.1312 11.1732 14.0687 11.2357C14.0062 11.2982 13.9214 11.3333 13.833 11.3333ZM9.83297 12C9.75166 11.9999 9.67319 11.9701 9.61233 11.9162C9.55147 11.8623 9.5124 11.788 9.50249 11.7073C9.49257 11.6266 9.5125 11.5451 9.5585 11.478C9.60451 11.411 9.67343 11.3631 9.7523 11.3433L11.0856 11.01C11.1285 10.9982 11.1732 10.9952 11.2173 11.001C11.2613 11.0068 11.3038 11.0213 11.3421 11.0437C11.3804 11.0662 11.4139 11.096 11.4406 11.1316C11.4672 11.1671 11.4865 11.2077 11.4972 11.2508C11.508 11.2939 11.51 11.3387 11.5032 11.3826C11.4964 11.4265 11.4808 11.4686 11.4575 11.5064C11.4342 11.5442 11.4036 11.577 11.3674 11.6028C11.3313 11.6286 11.2903 11.6469 11.247 11.6567L9.91363 11.99C9.88725 11.9966 9.86016 12 9.83297 12Z" fill="#3075FC"/>
<path d="M7.83396 6C7.77896 6.00037 7.72474 5.98707 7.67615 5.9613C7.62757 5.93553 7.58615 5.89809 7.55561 5.85235C7.52507 5.80661 7.50638 5.754 7.5012 5.69925C7.49603 5.6445 7.50453 5.58932 7.52596 5.53867C7.62863 5.29133 7.73196 5.04 7.83329 4.78867L5.91396 2.55C5.86548 2.49339 5.83742 2.42213 5.83428 2.34766C5.83114 2.2732 5.85309 2.19983 5.89663 2.13933C7.42663 0 7.66196 0 7.83396 0H9.16729C9.33929 0 9.57463 0 11.1046 2.13933C11.1488 2.201 11.1707 2.27589 11.1666 2.35165C11.1624 2.42741 11.1326 2.4995 11.082 2.556L8.08196 5.88933C8.0507 5.92415 8.01247 5.952 7.96974 5.97107C7.92701 5.99013 7.88075 5.99999 7.83396 6ZM9.74463 1.43267C9.61463 1.952 9.34929 2.76 8.85196 4.03667L10.406 2.31C10.1905 2.01386 9.96998 1.72137 9.74463 1.43267ZM7.78263 0.844667C7.72996 1.14067 7.96596 2.40067 8.26796 3.68333C8.79263 2.31467 9.19662 1.12133 9.19863 0.806667C9.19118 0.79132 9.18537 0.775231 9.18129 0.758667C9.15061 0.72665 9.11858 0.695955 9.08529 0.666667H7.91596C7.8829 0.69574 7.85109 0.726213 7.82063 0.758C7.81244 0.788653 7.79963 0.817878 7.78263 0.844667ZM6.59129 2.316L7.51129 3.38933C7.32196 2.562 7.21729 1.97267 7.16463 1.55133C6.97863 1.79133 6.77996 2.056 6.59129 2.316Z" fill="#3075FC"/>
<path d="M7.83381 15.6667C7.7454 15.6667 7.66062 15.6316 7.5981 15.569C7.53559 15.5065 7.50047 15.4217 7.50047 15.3333V5.66668C7.50047 5.57827 7.53559 5.49349 7.5981 5.43097C7.66062 5.36846 7.7454 5.33334 7.83381 5.33334C7.92221 5.33334 8.007 5.36846 8.06951 5.43097C8.13202 5.49349 8.16714 5.57827 8.16714 5.66668V15.3333C8.16714 15.4217 8.13202 15.5065 8.06951 15.569C8.007 15.6316 7.92221 15.6667 7.83381 15.6667ZM6.50047 12C6.44864 11.9999 6.39753 11.9878 6.35114 11.9647L5.68447 11.6313C5.60535 11.5918 5.54517 11.5225 5.51716 11.4386C5.48915 11.3547 5.49562 11.2631 5.53514 11.184C5.57466 11.1049 5.64399 11.0447 5.72788 11.0167C5.81177 10.9887 5.90335 10.9952 5.98247 11.0347L6.64914 11.368C6.71656 11.4014 6.77069 11.4567 6.80273 11.5247C6.83477 11.5928 6.84283 11.6698 6.8256 11.743C6.80837 11.8163 6.76686 11.8815 6.70783 11.9282C6.6488 11.9748 6.57572 12.0002 6.50047 12Z" fill="#3075FC"/>
<path d="M9.16732 7.33332C9.35141 7.33332 9.50065 7.18408 9.50065 6.99999C9.50065 6.81589 9.35141 6.66666 9.16732 6.66666C8.98322 6.66666 8.83398 6.81589 8.83398 6.99999C8.83398 7.18408 8.98322 7.33332 9.16732 7.33332Z" fill="#3075FC"/>
<path d="M9.16732 9.33332C9.35141 9.33332 9.50065 9.18408 9.50065 8.99999C9.50065 8.81589 9.35141 8.66666 9.16732 8.66666C8.98322 8.66666 8.83398 8.81589 8.83398 8.99999C8.83398 9.18408 8.98322 9.33332 9.16732 9.33332Z" fill="#3075FC"/>
</g>
<defs>
<clipPath id="clip0_3_3929">
<rect width="16" height="16" fill="white" transform="translate(0.5)"/>
</clipPath>
</defs>
</svg>
