<svg width="14" height="14" viewBox="0 0 14 14" fill="none" xmlns="http://www.w3.org/2000/svg">
<g id="change 1">
<path id="Vector" d="M11.666 6.69954L6.87829 11.4873C6.63909 11.7265 6.25128 11.7265 6.01208 11.4873C5.77288 11.2481 5.77288 10.8603 6.01208 10.6211L10.7998 5.83333H8.74935C8.42718 5.83333 8.16602 5.57217 8.16602 5.25C8.16602 4.92783 8.42718 4.66667 8.74935 4.66667H12.2493C12.5715 4.66667 12.8327 4.92783 12.8327 5.25V8.75C12.8327 9.07217 12.5715 9.33333 12.2493 9.33333C11.9272 9.33333 11.666 9.07217 11.666 8.75V6.69954ZM2.33268 7.30046L7.12041 2.51273C7.35961 2.27353 7.74742 2.27353 7.98662 2.51273C8.22581 2.75193 8.22581 3.13974 7.98662 3.37894L3.19889 8.16667H5.24935C5.57152 8.16667 5.83268 8.42783 5.83268 8.75C5.83268 9.07217 5.57152 9.33333 5.24935 9.33333H1.74935C1.42718 9.33333 1.16602 9.07217 1.16602 8.75V5.25C1.16602 4.92783 1.42718 4.66667 1.74935 4.66667C2.07152 4.66667 2.33268 4.92783 2.33268 5.25V7.30046Z" fill="#48455C"/>
</g>
</svg>
