<svg width="14" height="14" viewBox="0 0 14 14" fill="none" xmlns="http://www.w3.org/2000/svg">
<g id="cancel (11) 1">
<path id="Vector" d="M7.82198 7.00001L10.3303 4.49751C10.4402 4.38766 10.5019 4.23868 10.5019 4.08334C10.5019 3.928 10.4402 3.77902 10.3303 3.66917C10.2205 3.55933 10.0715 3.49762 9.91614 3.49762C9.7608 3.49762 9.61182 3.55933 9.50198 3.66917L6.99948 6.17751L4.49698 3.66917C4.38713 3.55933 4.23815 3.49762 4.08281 3.49762C3.92747 3.49762 3.77849 3.55933 3.66864 3.66917C3.5588 3.77902 3.49709 3.928 3.49709 4.08334C3.49709 4.23868 3.5588 4.38766 3.66864 4.49751L6.17698 7.00001L3.66864 9.50251C3.61397 9.55674 3.57057 9.62125 3.54096 9.69234C3.51134 9.76342 3.49609 9.83967 3.49609 9.91667C3.49609 9.99368 3.51134 10.0699 3.54096 10.141C3.57057 10.2121 3.61397 10.2766 3.66864 10.3308C3.72287 10.3855 3.78739 10.4289 3.85847 10.4585C3.92956 10.4881 4.0058 10.5034 4.08281 10.5034C4.15982 10.5034 4.23606 10.4881 4.30715 10.4585C4.37823 10.4289 4.44275 10.3855 4.49698 10.3308L6.99948 7.82251L9.50198 10.3308C9.55621 10.3855 9.62072 10.4289 9.69181 10.4585C9.76289 10.4881 9.83914 10.5034 9.91614 10.5034C9.99315 10.5034 10.0694 10.4881 10.1405 10.4585C10.2116 10.4289 10.2761 10.3855 10.3303 10.3308C10.385 10.2766 10.4284 10.2121 10.458 10.141C10.4876 10.0699 10.5029 9.99368 10.5029 9.91667C10.5029 9.83967 10.4876 9.76342 10.458 9.69234C10.4284 9.62125 10.385 9.55674 10.3303 9.50251L7.82198 7.00001Z" fill="white"/>
</g>
</svg>
