<svg width="8" height="8" viewBox="0 0 8 8" fill="none" xmlns="http://www.w3.org/2000/svg">
<path d="M4.82198 4.00001L7.33031 1.49751C7.44015 1.38766 7.50186 1.23868 7.50186 1.08334C7.50186 0.927997 7.44015 0.779017 7.33031 0.669173C7.22047 0.559329 7.07149 0.49762 6.91614 0.49762C6.7608 0.49762 6.61182 0.559329 6.50198 0.669173L3.99948 3.17751L1.49698 0.669173C1.38713 0.559329 1.23815 0.49762 1.08281 0.49762C0.927467 0.49762 0.778487 0.559329 0.668643 0.669173C0.558799 0.779017 0.497089 0.927997 0.497089 1.08334C0.497089 1.23868 0.558799 1.38766 0.668643 1.49751L3.17698 4.00001L0.668643 6.50251C0.613968 6.55674 0.570571 6.62125 0.540956 6.69234C0.511341 6.76342 0.496094 6.83967 0.496094 6.91667C0.496094 6.99368 0.511341 7.06992 0.540956 7.14101C0.570571 7.21209 0.613968 7.27661 0.668643 7.33084C0.722871 7.38551 0.787388 7.42891 0.858473 7.45853C0.929558 7.48814 1.0058 7.50339 1.08281 7.50339C1.15982 7.50339 1.23606 7.48814 1.30715 7.45853C1.37823 7.42891 1.44275 7.38551 1.49698 7.33084L3.99948 4.82251L6.50198 7.33084C6.55621 7.38551 6.62072 7.42891 6.69181 7.45853C6.76289 7.48814 6.83914 7.50339 6.91614 7.50339C6.99315 7.50339 7.0694 7.48814 7.14048 7.45853C7.21156 7.42891 7.27608 7.38551 7.33031 7.33084C7.38498 7.27661 7.42838 7.21209 7.458 7.14101C7.48761 7.06992 7.50286 6.99368 7.50286 6.91667C7.50286 6.83967 7.48761 6.76342 7.458 6.69234C7.42838 6.62125 7.38498 6.55674 7.33031 6.50251L4.82198 4.00001Z" fill="black"/>
</svg>
