<svg width="13" height="9" viewBox="0 0 13 9" fill="none" xmlns="http://www.w3.org/2000/svg">
<path d="M9.91877 8.99H2.09581C1.7926 8.99083 1.49943 8.88132 1.27102 8.68189C1.04261 8.48246 0.894558 8.20675 0.854494 7.90618L0.00694483 1.65082C-0.0141005 1.49724 0.0129586 1.34091 0.0843997 1.20333C0.155841 1.06576 0.268154 0.9537 0.40589 0.882571C0.543626 0.811442 0.700018 0.784737 0.853552 0.80613C1.00709 0.827523 1.15022 0.895962 1.26327 1.00203L2.6621 2.29586C2.73604 2.36733 2.82388 2.42283 2.92017 2.45891C3.01647 2.495 3.11915 2.51089 3.22185 2.50562C3.32455 2.50034 3.42506 2.47401 3.51715 2.42825C3.60924 2.38248 3.69093 2.31827 3.75716 2.23961L5.42976 0.266992C5.50016 0.183364 5.588 0.116136 5.68711 0.0700161C5.78622 0.0238964 5.89422 0 6.00354 0C6.11286 0 6.22086 0.0238964 6.31997 0.0700161C6.41908 0.116136 6.50692 0.183364 6.57732 0.266992L8.25742 2.23961C8.32303 2.31706 8.40368 2.38038 8.49448 2.42575C8.58528 2.47112 8.68435 2.49759 8.78568 2.50355C8.887 2.50951 8.98849 2.49484 9.08398 2.46043C9.17948 2.42602 9.26699 2.37258 9.34123 2.30336L10.7401 1.00954C10.852 0.899824 10.9955 0.827937 11.1504 0.803973C11.3053 0.78001 11.4638 0.805175 11.6037 0.875932C11.7435 0.946688 11.8577 1.05948 11.9302 1.19847C12.0026 1.33745 12.0297 1.49565 12.0076 1.65082L11.1601 7.90243C11.1209 8.20368 10.9732 8.48029 10.7447 8.68048C10.5162 8.88067 10.2226 8.99071 9.91877 8.99Z" fill="black"/>
</svg>
