<svg width="14" height="14" viewBox="0 0 14 14" fill="none" xmlns="http://www.w3.org/2000/svg">
<path d="M10.3308 6.58583C10.2765 6.53116 10.212 6.48776 10.1409 6.45815C10.0699 6.42853 9.99362 6.41328 9.91661 6.41328C9.8396 6.41328 9.76336 6.42853 9.69228 6.45815C9.62119 6.48776 9.55667 6.53116 9.50245 6.58583L7.58328 8.51083V4.08333C7.58328 3.92862 7.52182 3.78025 7.41242 3.67085C7.30303 3.56146 7.15465 3.5 6.99995 3.5C6.84524 3.5 6.69686 3.56146 6.58747 3.67085C6.47807 3.78025 6.41661 3.92862 6.41661 4.08333V8.51083L4.49745 6.58583C4.3876 6.47599 4.23862 6.41428 4.08328 6.41428C3.92794 6.41428 3.77896 6.47599 3.66911 6.58583C3.55927 6.69568 3.49756 6.84466 3.49756 7C3.49756 7.15534 3.55927 7.30432 3.66911 7.41417L6.58578 10.3308C6.64126 10.3839 6.70667 10.4256 6.77828 10.4533C6.8481 10.4842 6.9236 10.5001 6.99995 10.5001C7.07629 10.5001 7.15179 10.4842 7.22161 10.4533C7.29322 10.4256 7.35863 10.3839 7.41411 10.3308L10.3308 7.41417C10.3855 7.35994 10.4289 7.29542 10.4585 7.22434C10.4881 7.15325 10.5033 7.07701 10.5033 7C10.5033 6.92299 10.4881 6.84675 10.4585 6.77566C10.4289 6.70458 10.3855 6.64006 10.3308 6.58583Z" fill="#FB6949"/>
</svg>
