<svg width="12" height="12" viewBox="0 0 12 12" fill="none" xmlns="http://www.w3.org/2000/svg">
<g id="edit">
<path id="Compo shape" fill-rule="evenodd" clip-rule="evenodd" d="M8.27917 0.451145C8.88102 -0.150707 9.85681 -0.150707 10.4587 0.451145L11.5484 1.5409C12.1503 2.14275 12.1503 3.11854 11.5484 3.72039L10.5822 4.68661C10.5064 4.64905 10.4266 4.60843 10.3438 4.56487C9.78687 4.27166 9.12595 3.86013 8.6327 3.36688C8.13945 2.87364 7.72793 2.21272 7.43472 1.65577C7.39115 1.57302 7.35053 1.49321 7.31296 1.41735L8.27917 0.451145ZM7.9256 4.07399C8.50927 4.65767 9.25157 5.11705 9.83945 5.42936L6.03983 9.22898C5.80404 9.46477 5.49814 9.61772 5.16803 9.66488L2.87956 9.9918C2.37101 10.0645 1.93511 9.62855 2.00776 9.12L2.33468 6.83153C2.38184 6.50142 2.53479 6.19552 2.77058 5.95973L6.57021 2.16011C6.88252 2.74798 7.34191 3.4903 7.9256 4.07399ZM0.5 10.9997C0.223858 10.9997 0 11.2236 0 11.4997C0 11.7759 0.223858 11.9997 0.5 11.9997H11.5C11.7761 11.9997 12 11.7759 12 11.4997C12 11.2236 11.7761 10.9997 11.5 10.9997H0.5Z" fill="#48455C"/>
</g>
</svg>
