<svg width="18" height="18" viewBox="0 0 18 18" fill="none" xmlns="http://www.w3.org/2000/svg">
<path fill-rule="evenodd" clip-rule="evenodd" d="M11.4374 6.00011C11.4374 6.31077 11.6892 6.56261 11.9999 6.56261C12.3105 6.56261 12.5624 6.31077 12.5624 6.00011L12.5624 2.25011C12.5624 1.93945 12.3105 1.68761 11.9999 1.68761C11.6892 1.68761 11.4374 1.93945 11.4374 2.25011V6.00011ZM5.43742 15.7502C5.43742 16.0609 5.68926 16.3127 5.99992 16.3127C6.31058 16.3127 6.56242 16.0609 6.56242 15.7502V12.0002C6.56242 11.6895 6.31058 11.4377 5.99992 11.4377C5.68926 11.4377 5.43742 11.6895 5.43742 12.0002L5.43742 15.7502ZM5.4375 3.82106L5.4375 2.25017C5.4375 1.93951 5.68934 1.68767 6 1.68767C6.31066 1.68767 6.5625 1.93951 6.5625 2.25017L6.5625 3.82106C7.53294 4.07083 8.25 4.95177 8.25 6.00017V7.50017C8.25 8.74282 7.24264 9.75018 6 9.75018C4.75736 9.75018 3.75 8.74282 3.75 7.50017V6.00017C3.75 4.95177 4.46706 4.07083 5.4375 3.82106ZM9.74982 10.5001V12.0001C9.74982 13.0485 10.4669 13.9295 11.4373 14.1793V15.7501C11.4373 16.0608 11.6892 16.3126 11.9998 16.3126C12.3105 16.3126 12.5623 16.0608 12.5623 15.7501V14.1793C13.5328 13.9295 14.2498 13.0485 14.2498 12.0001V10.5001C14.2498 9.2575 13.2425 8.25014 11.9998 8.25014C10.7572 8.25014 9.74982 9.2575 9.74982 10.5001Z" fill="#28303F"/>
</svg>
