<svg width="21" height="19" viewBox="0 0 21 19" fill="none" xmlns="http://www.w3.org/2000/svg">
<g id="Group 9">
<path id="Vector" d="M12.3386 12.779C12.2401 12.7775 12.1426 12.799 12.0536 12.8418C11.9646 12.8847 11.8867 12.9477 11.8256 13.0261C11.7646 12.9477 11.6865 12.8847 11.5976 12.8418C11.5086 12.799 11.4111 12.7775 11.3127 12.779C11.2209 12.7782 11.1302 12.7974 11.0464 12.8352C10.9626 12.8731 10.8878 12.9287 10.827 12.9983C10.7662 13.0679 10.721 13.15 10.6941 13.2389C10.6673 13.3278 10.6595 13.4215 10.6715 13.5137C10.7228 13.9689 11.1075 14.1639 11.3639 14.3785C11.5268 14.5377 11.6749 14.7119 11.8064 14.8986C11.9378 14.7119 12.0859 14.5377 12.2488 14.3785C12.5117 14.1379 12.89 13.9689 12.9413 13.5137C12.9529 13.4247 12.9462 13.3343 12.9217 13.248C12.8971 13.1617 12.8552 13.0816 12.7986 13.0125C12.742 12.9435 12.6719 12.8871 12.5926 12.8469C12.5135 12.8068 12.427 12.7836 12.3386 12.779Z" fill="#E97636"/>
<path id="Vector_2" d="M11.2617 11.7777C11.3077 11.7609 11.355 11.7478 11.4031 11.7387L11.2617 11.7777Z" fill="#74A350"/>
<path id="Vector_3" d="M9.91992 13.1303C9.91992 13.1303 9.91992 13.163 9.91992 13.1825L9.95857 13.0585L9.91992 13.1303Z" fill="#74A350"/>
<path id="Vector_4" d="M11.8184 11.7126C11.9239 11.7135 12.029 11.7244 12.1326 11.7452C12.029 11.7247 11.9238 11.7138 11.8184 11.7126Z" fill="#74A350"/>
<path id="Vector_5" d="M12.3317 11.7842H12.2676L12.4022 11.8297L12.3317 11.7842Z" fill="#74A350"/>
<path id="Vector_6" d="M13.3307 8.18861C13.2666 7.97405 13.1576 7.90902 12.8434 7.883C12.7014 7.88831 12.5628 7.9285 12.4395 8.00002H12.5292C12.8005 8.0435 13.0683 8.10653 13.3307 8.18861Z" fill="#74A350"/>
<path id="Vector_7" d="M13.4145 8.52022L13.2798 8.47472C13.069 8.41284 12.8549 8.36293 12.6386 8.3252L12.5938 8.65675C12.7887 8.6899 12.9815 8.73551 13.1708 8.7933C13.2927 8.82765 13.4125 8.86888 13.5299 8.91687C13.466 8.82195 13.4264 8.71248 13.4145 8.59828C13.4145 8.59828 13.4209 8.54624 13.4145 8.52022Z" fill="#74A350"/>
<path id="Vector_8" d="M10.914 18.6957L10.8691 18.9298C11.5352 19.047 12.2177 19.0271 12.876 18.8712C12.9337 18.8712 13.5172 18.6632 13.5685 18.6372C13.7923 18.5273 14.0067 18.399 14.2097 18.2536C14.2673 18.2146 14.5495 17.948 14.6072 17.9155C14.1964 18.1533 13.7676 18.3576 13.3249 18.5266C12.5476 18.7852 11.719 18.8433 10.914 18.6957Z" fill="#74A350"/>
<path id="Vector_9" d="M12.318 8.61778L12.4013 8.03259L12.3115 8.07161C12.1833 8.12365 12.0679 8.24715 11.9397 8.26669C11.6741 8.30598 11.4275 8.42879 11.2344 8.61778C11.5945 8.57899 11.9578 8.57899 12.318 8.61778Z" fill="#74A350"/>
<path id="Vector_10" d="M13.543 8.91681C13.6131 8.99448 13.6715 9.08207 13.7164 9.17693L13.7807 9.00787L13.543 8.91681Z" fill="#74A350"/>
<path id="Vector_11" d="M13.0293 12.1613L13.2217 11.8883C12.9843 11.6957 12.712 11.552 12.4202 11.4657C11.9854 11.3322 11.5214 11.3322 11.0865 11.4657C10.7508 11.5764 10.4455 11.7657 10.1953 12.0183L10.4197 12.2589C10.7664 11.9194 11.2245 11.7217 11.7061 11.7037C12.1877 11.6857 12.6589 11.8487 13.0293 12.1613Z" fill="#74A350"/>
<path id="Vector_12" d="M13.435 12.0898L13.2427 12.3694C13.5029 12.6407 13.6796 12.9829 13.7513 13.3543C13.823 13.7257 13.7867 14.1102 13.6467 14.4609C13.5067 14.8117 13.269 15.1137 12.9628 15.3299C12.6565 15.5461 12.2948 15.6674 11.9219 15.6789V15.991C12.2709 15.9733 12.6112 15.8744 12.9164 15.7018C13.2217 15.5293 13.4837 15.2878 13.6821 14.9961C13.8805 14.7044 14.01 14.3702 14.0606 14.0196C14.1111 13.6689 14.0814 13.3112 13.9737 12.9741C13.9243 12.831 13.8643 12.6918 13.7941 12.558L14.0442 12.4149C14.1234 12.5649 14.1899 12.7216 14.243 12.883C14.3873 13.3305 14.4073 13.8097 14.3006 14.268L14.8969 14.4435L14.8584 14.5801C14.8264 14.6841 14.7944 14.7816 14.7559 14.8791C14.6493 15.1489 14.5069 15.4027 14.3327 15.6333L14.5892 15.848C14.9073 15.4284 15.1297 14.9425 15.2406 14.4254C15.3514 13.9083 15.348 13.3727 15.2303 12.857V12.7205L15.8203 12.5645C15.8203 12.5059 15.7882 12.4539 15.7754 12.4019L15.7241 12.2654C15.474 12.3304 15.1919 12.3369 14.9098 12.3889L14.7815 12.4409C14.8136 12.5254 14.8457 12.61 14.8713 12.6945C15.0009 13.0855 15.051 13.4991 15.0188 13.9104H14.7366C14.76 13.5345 14.7144 13.1575 14.602 12.7985C14.4576 12.3543 14.2114 11.951 13.8839 11.6217V11.5892L13.5376 12.1028L13.435 12.0898Z" fill="#74A350"/>
<path id="Vector_13" d="M9.8312 13.6958C9.82495 13.6266 9.82495 13.557 9.8312 13.4877C9.82803 13.4596 9.82803 13.4313 9.8312 13.4032C9.84242 13.3288 9.85745 13.255 9.87605 13.1821C9.87605 13.1821 9.87605 13.1496 9.87605 13.1302V13.0586C9.94372 12.8605 10.041 12.6741 10.1646 12.5059L9.93382 12.2524C9.75183 12.4867 9.6148 12.7536 9.52982 13.0391C9.44641 13.3303 9.42039 13.6352 9.45323 13.9366C9.48601 14.238 9.57711 14.5299 9.72121 14.7955C9.86531 15.0611 10.0596 15.2955 10.293 15.485C10.5264 15.6745 10.7944 15.8155 11.0815 15.8999C11.2431 15.9439 11.4084 15.9722 11.5752 15.9845V15.6724C11.0952 15.6194 10.6514 15.3882 10.3294 15.0232C10.0074 14.6583 9.82997 14.1855 9.8312 13.6958Z" fill="#74A350"/>
<path id="Vector_14" d="M15.711 16.8557L15.6212 16.9727L15.1468 16.5696C14.701 17.1056 14.1362 17.5267 13.4989 17.7984L13.3835 17.5318C13.6951 17.3988 13.99 17.2285 14.2619 17.0247L14.0375 16.7776C13.7082 17.0234 13.3425 17.2143 12.9539 17.3433C12.3292 17.5472 11.6632 17.5838 11.0205 17.4493C10.3778 17.3149 9.78038 17.014 9.28633 16.576L9.07475 16.8296C9.42215 17.135 9.81631 17.3809 10.2417 17.5578L10.1391 17.8244C9.63455 17.6194 9.17159 17.3219 8.77337 16.9467L8.67717 16.8491L9.08112 16.3745C8.67849 15.9438 8.37809 15.4257 8.20269 14.8596C8.14503 14.6766 8.10002 14.4897 8.06804 14.3004L7.42686 14.3784V14.2354C7.40069 14.0197 7.38995 13.8024 7.39483 13.5852H7.68334C7.67369 13.7433 7.67369 13.9018 7.68334 14.0598L8.01035 14.0143C7.97283 13.5439 8.01849 13.0705 8.14497 12.6164C8.3839 11.7846 8.89206 11.0585 9.58765 10.5553L9.40816 10.2757C8.90863 10.6421 8.49672 11.1176 8.20269 11.6671L7.95263 11.5241C8.12921 11.2034 8.3446 10.9064 8.59382 10.6398L8.41433 10.3732C8.29886 10.3732 8.24117 10.5358 8.18345 10.6204C8.12576 10.7048 7.95263 10.6204 7.86928 10.6204L8.0488 10.7634C7.69753 11.2329 7.43449 11.7641 7.273 12.3303C7.273 12.4148 7.2281 12.4994 7.20886 12.5839L7.52948 12.6619C7.52948 12.5774 7.56796 12.4994 7.58717 12.4214C7.60641 12.3433 7.63846 12.2523 7.67055 12.1678L7.93985 12.2653C7.93985 12.3433 7.88849 12.4214 7.86289 12.5059C7.82836 12.6234 7.80051 12.7427 7.77954 12.8635V13.0065L7.18325 12.87C7.06305 13.5785 7.10256 14.3053 7.29866 14.9961L7.89494 14.8466L7.93985 14.9701C8.08291 15.4118 8.29979 15.8253 8.581 16.1924L8.35018 16.368C8.0817 16.009 7.8658 15.6127 7.70903 15.1912L7.38841 15.2757C7.76529 16.3483 8.50463 17.2509 9.4753 17.8235C10.446 18.3959 11.5852 18.6013 12.691 18.4031L12.6077 18.078C12.0425 18.1915 11.4609 18.1915 10.8957 18.078H10.8059L10.8701 17.7984H10.9534C11.524 17.9221 12.114 17.9221 12.6846 17.7984H12.8192L12.9667 18.4031L13.2616 18.3185C13.9242 18.0965 14.532 17.7329 15.0441 17.2523L15.2365 17.4668C14.9744 17.7147 14.6863 17.9327 14.3773 18.117C14.6812 17.9766 14.9767 17.8181 15.2622 17.6424C15.4292 17.5097 15.5818 17.3593 15.7174 17.1938C15.8382 17.0391 15.9335 16.8656 15.9995 16.6801L15.9418 16.6346C15.8689 16.7124 15.7918 16.7862 15.711 16.8557Z" fill="#74A350"/>
<path id="Vector_15" d="M9.65709 9.39151L9.52247 9.463C9.375 9.54752 9.23393 9.63855 9.09286 9.73609C9.07522 9.81026 9.04482 9.88069 9.00312 9.94416C8.91354 10.0823 8.81044 10.2107 8.69531 10.3278L8.76588 10.4318C9.41525 9.80216 10.2408 9.39168 11.1293 9.25668C12.0179 9.12164 12.9258 9.26862 13.7286 9.67756C13.7286 9.52798 13.7287 9.40448 13.7607 9.41096C13.7564 9.33125 13.7413 9.25249 13.7158 9.17689L13.671 9.27443C13.4874 9.19475 13.299 9.12742 13.1066 9.07287C12.1985 8.80207 11.2308 8.81563 10.3304 9.11186L10.2213 9.15087L10.1508 8.94282C10.089 8.93656 10.0267 8.93656 9.96487 8.94282C9.66996 8.94282 9.52247 8.94282 9.41985 9.03385L9.65709 9.39151Z" fill="#74A350"/>
<path id="Vector_16" d="M16.3843 14.8596V14.8206C16.3813 14.8012 16.3813 14.7814 16.3843 14.7621V14.6581C16.545 13.8702 16.5075 13.0541 16.2754 12.2848C16.2151 12.2552 16.1498 12.2376 16.0829 12.2328H15.9163V12.3109C15.9943 12.5455 16.0501 12.7872 16.0829 13.0325L15.8008 13.0716L15.7624 12.844L15.4418 12.9285C15.5581 13.4971 15.5459 14.085 15.4059 14.648C15.266 15.2111 15.002 15.7347 14.6339 16.1795L14.5441 16.29L14.0697 15.8869C13.6969 16.3003 13.2238 16.6074 12.6975 16.7777L12.5308 16.8297L12.4539 16.5501L12.6077 16.5046C13.0134 16.3731 13.3854 16.1521 13.6969 15.8576C14.0084 15.5631 14.2518 15.2023 14.4095 14.8011C14.4095 14.7556 14.4095 14.7165 14.4544 14.671L14.1402 14.58C14.0086 14.9566 13.7932 15.2973 13.5108 15.5758C13.2283 15.8544 12.8865 16.0631 12.5115 16.186C12.0233 16.3421 11.4995 16.3421 11.0112 16.186C10.7495 16.11 10.5008 15.9937 10.2738 15.8414L9.88272 16.3225L9.77373 16.238C9.36365 15.9126 9.03798 15.4909 8.82474 15.0091L9.08765 14.8921C9.26276 15.2865 9.52101 15.6372 9.84424 15.9194L10.0495 15.6593C9.69417 15.3475 9.43023 14.9426 9.28644 14.489C9.1321 13.9961 9.1321 13.4669 9.28644 12.974C9.47566 12.3136 9.91514 11.7561 10.5088 11.4234C11.1024 11.0908 11.8017 11.0101 12.4539 11.199C12.777 11.2927 13.0781 11.452 13.3387 11.6671L13.5246 11.3876C13.2915 11.2035 13.032 11.0566 12.7552 10.9519L12.5693 10.8869C12.0179 10.7141 11.4279 10.7141 10.8766 10.8869C10.4181 11.0371 10.0038 11.3008 9.67111 11.6541L9.48514 11.4396C9.85153 11.0519 10.3079 10.7636 10.8124 10.6008C11.0933 10.5034 11.3876 10.4507 11.6844 10.4448V10.1067C11.3572 10.1185 11.0334 10.1777 10.7227 10.2823L10.4983 10.3668L10.3893 10.0937L10.6393 10.0027C11.0205 9.87794 11.4185 9.81427 11.8191 9.8141H11.9602V10.4643C12.1964 10.4833 12.4304 10.5247 12.6591 10.5879C12.768 10.6204 12.8706 10.6594 12.9668 10.6984C13.0014 10.6875 13.0325 10.6673 13.0566 10.6398C13.1102 10.568 13.1778 10.5082 13.2553 10.4643C13.0911 10.3876 12.9219 10.3224 12.7488 10.2692L12.4923 10.2043L12.5564 9.91813L12.8322 9.98965C13.0874 10.0661 13.3346 10.1685 13.5695 10.2952C13.6106 10.2708 13.6492 10.2425 13.6849 10.2107C13.6849 10.2107 13.6849 10.1262 13.6849 9.99613C13.4328 9.8627 13.1687 9.75384 12.8963 9.67106C12.1075 9.43727 11.2678 9.44859 10.4854 9.70359C10.1806 9.8067 9.8881 9.94409 9.61342 10.1132L9.94041 10.6334L9.825 10.7114C9.42751 10.9927 9.09317 11.3561 8.84398 11.7777L9.34413 12.1288L9.28001 12.2458C9.17268 12.4417 9.08669 12.6488 9.02353 12.8635C8.90266 13.2859 8.87851 13.7306 8.95303 14.1639L8.67086 14.2159C8.58745 13.7308 8.61373 13.2328 8.74781 12.7595C8.80419 12.5639 8.87938 12.3745 8.97224 12.1938L8.69652 11.9988C8.59073 12.2075 8.50281 12.425 8.43362 12.6489C8.28071 13.1712 8.2486 13.7221 8.33972 14.2589C8.4309 14.7958 8.64287 15.3041 8.95917 15.7443C9.2755 16.1846 9.68769 16.545 10.1637 16.7975C10.6396 17.05 11.1667 17.1878 11.7037 17.2003V16.8687C11.4345 16.8626 11.1672 16.8211 10.9086 16.7452C10.7547 16.6931 10.6073 16.6411 10.4598 16.5761L10.5816 16.3095C10.7132 16.3693 10.8481 16.4214 10.9856 16.4655C11.265 16.5455 11.5543 16.5849 11.8448 16.5826H11.9922V17.2328C12.2928 17.213 12.59 17.1562 12.8771 17.0637C13.2775 16.934 13.6512 16.7313 13.9799 16.4655L14.0825 16.3811L14.4928 16.8426C15.1039 16.319 15.5497 15.6249 15.7752 14.8466C15.8753 14.5089 15.9292 14.1589 15.9355 13.8063H16.224C16.1972 14.7173 15.895 15.5979 15.3585 16.3291L15.6149 16.5436C15.8558 16.2118 16.0561 15.8516 16.2112 15.4707L16.4677 15.5813C16.4677 15.4903 16.5125 15.4058 16.5446 15.3147L16.6793 14.9831L16.3971 14.9246L16.3843 14.8596Z" fill="#74A350"/>
<path id="Vector_17" d="M7.31016 15.9909L7.20117 16.0494C7.35425 16.4073 7.52987 16.7548 7.72695 17.0898C8.46298 17.9721 9.47418 18.5732 10.593 18.7932L10.6315 18.6372L10.3878 18.5722C9.72816 18.378 9.11469 18.0488 8.58535 17.6048C8.05598 17.1608 7.622 16.6116 7.31016 15.9909Z" fill="#74A350"/>
<path id="Vector_18" d="M7.70898 10.7178L7.78591 10.6594C7.80288 10.6559 7.8203 10.6559 7.83727 10.6594H7.79236L7.70898 10.7178Z" fill="#74A350"/>
<path id="Vector_19" d="M20.8526 7.79858C20.8526 7.79858 20.8526 7.72706 20.8526 7.69455C20.8461 7.57485 20.8071 7.45926 20.7398 7.36063C20.6725 7.26208 20.5797 7.18424 20.4715 7.13575C20.3633 7.08732 20.2441 7.07016 20.1269 7.08612C20.0097 7.10216 19.8992 7.15068 19.8075 7.22639C19.6034 7.38586 19.3703 7.50291 19.1215 7.57099C18.9978 7.5777 18.8787 7.62058 18.7786 7.69444C18.6785 7.76825 18.6016 7.86993 18.5572 7.98709C18.4469 8.23762 18.2825 8.45981 18.0763 8.63729C17.8327 8.81283 17.7365 8.93639 17.8968 9.18345C17.9417 9.25497 17.9673 9.3135 17.9481 9.36554C17.9235 9.40145 17.8904 9.43052 17.8519 9.45006C17.805 9.48555 17.7712 9.53586 17.7557 9.59307C17.75 9.61439 17.75 9.63686 17.7557 9.6581C17.7653 9.82487 17.7653 9.992 17.7557 10.1588C17.7186 10.3184 17.7035 10.4825 17.7108 10.6464C17.7238 10.8652 17.7022 11.0847 17.6467 11.2966C17.6292 11.3481 17.6078 11.398 17.5826 11.4461C17.5505 11.4981 17.5826 11.5827 17.5826 11.7127L17.7429 11.5957L18.0186 11.3876L18.2623 11.212L18.5316 11.017L18.7752 10.848C18.9248 10.7423 19.0862 10.655 19.2561 10.5879C19.5633 10.4554 19.8214 10.2278 19.9934 9.93767C20.2394 9.58675 20.4622 9.21965 20.6603 8.83885C20.8206 8.50076 21.2117 8.18868 20.8526 7.79858Z" fill="#74A350"/>
<path id="Vector_20" d="M17.0833 12.8375C17.0803 12.8246 17.0803 12.8113 17.0833 12.7984C17.1602 12.5579 17.1218 12.4213 16.9935 12.3758C16.8951 12.3467 16.7906 12.3467 16.6922 12.3758H16.6602C16.8582 13.1385 16.8801 13.9373 16.7242 14.71H16.7756L16.9487 14.2679C17.0343 14.0972 17.0968 13.9157 17.1346 13.7282C17.1287 13.6938 17.1287 13.6586 17.1346 13.6242C17.2244 13.3901 17.4744 13.0845 17.0833 12.8375Z" fill="#74A350"/>
<path id="Vector_21" d="M11.9007 2.44096C12.0053 2.57507 12.0856 2.72697 12.1379 2.8896C12.2415 3.23487 12.2656 3.59968 12.2084 3.95592C12.2084 4.01441 12.2469 4.09896 12.2084 4.17048C12.2084 4.35902 12.3431 4.5996 12.0417 4.70362C12.0417 4.70362 12.0417 4.82715 11.9968 4.87265C12.1123 4.87265 12.2661 4.87265 12.2725 4.94417C12.3238 5.10035 12.3238 5.26919 12.2725 5.42534C12.1379 5.63338 12.234 5.78945 12.2725 5.96499C12.2725 6.02355 12.3431 6.06902 12.3559 6.12757L12.4136 6.42011C12.4261 6.58646 12.4781 6.74724 12.5652 6.88878C12.6523 7.03033 12.7719 7.14836 12.9138 7.23288L13.1894 7.35638C13.1894 7.3044 13.1894 7.24585 13.2407 7.19386C13.2617 7.13486 13.2767 7.07388 13.2856 7.01178C13.2938 6.97542 13.2938 6.9376 13.2856 6.90124V6.83623H13.3882C13.3882 6.75174 13.3882 6.66069 13.4331 6.5762C13.4518 6.48171 13.4646 6.38618 13.4716 6.29006C13.5003 6.15949 13.5003 6.02405 13.4716 5.89347C13.5613 5.77642 13.696 5.67891 13.6831 5.61388C13.6344 5.49658 13.5572 5.3937 13.4587 5.3148C13.3694 5.21678 13.2753 5.12346 13.1766 5.0352L13.3305 4.93769C13.3305 4.41754 13.3305 3.93641 13.3305 3.45525L13.1253 3.41623C13.1253 3.41623 13.1253 3.37073 13.1253 3.35122L13.3497 3.2797C13.3497 3.16916 13.3497 3.06514 13.3497 3.05214C13.2697 2.91835 13.2031 2.77676 13.1509 2.62951C13.1509 2.57749 13.26 2.50597 13.3049 2.43445C13.3489 2.37143 13.3814 2.30098 13.401 2.22639C13.4507 1.61889 13.3213 1.01012 13.0292 0.477374C12.9909 0.380871 12.9337 0.293328 12.8607 0.220161C12.7879 0.146993 12.701 0.0897561 12.6055 0.0519778C12.5099 0.0141992 12.4078 -0.00331548 12.3053 0.000516765C12.2028 0.00434901 12.1022 0.0294488 12.0097 0.0742606C11.9135 0.113272 11.8494 0.236804 11.7916 0.334334C11.7715 0.40209 11.7586 0.471849 11.7532 0.542399C11.6416 0.825873 11.5683 1.1233 11.5352 1.42666C11.5852 1.73404 11.6803 2.0321 11.8173 2.31092C11.8418 2.35631 11.8697 2.39977 11.9007 2.44096Z" fill="#74A350"/>
<path id="Vector_22" d="M7.9323 5.49686C7.9323 5.53587 7.9323 5.56189 7.9323 5.58789C7.86628 6.08238 7.94192 6.5857 8.15027 7.03783C8.18224 7.12106 8.22083 7.20155 8.26565 7.27841C8.32547 7.37748 8.40389 7.46365 8.49653 7.53196C8.59272 7.59696 8.68889 7.64903 8.79148 7.7075L8.89405 7.77902C8.9325 7.77902 9.04154 7.77902 9.08639 7.72052C9.13129 7.662 9.25312 7.55149 9.3365 7.46044C9.4198 7.36943 9.48394 7.30443 9.55444 7.21985L9.4647 7.09638C9.42902 7.0402 9.39049 6.98595 9.34929 6.9338L9.65061 6.86879C9.65676 6.80393 9.65676 6.73855 9.65061 6.67371C9.66337 6.57662 9.66337 6.47824 9.65061 6.38115C9.62512 6.24719 9.57511 6.11927 9.50318 6.00404C9.45331 5.9269 9.41851 5.84085 9.40056 5.75043C9.36853 5.50988 9.19543 5.42534 9.00306 5.36033C8.91326 5.34795 8.82637 5.31933 8.74658 5.27581C8.71699 5.20292 8.71699 5.12112 8.74658 5.04823C8.74658 4.9897 8.84275 4.9442 8.88765 4.89219L8.66323 4.71665C8.66323 4.68414 8.66323 4.62562 8.66323 4.57361C8.61833 3.99493 8.66323 3.38375 8.02205 3.09765C8.06796 2.93063 8.08742 2.75725 8.07974 2.58401C8.01778 2.3844 7.9339 2.19248 7.82971 2.01184C7.69231 1.76026 7.65341 1.46545 7.72066 1.1861L7.56041 1.03656C7.3103 0.854502 7.18852 0.867507 6.91917 1.07557C6.83195 1.10578 6.73718 1.10578 6.6499 1.07557C6.27801 1.03005 5.93821 1.21861 5.93179 1.5242C5.92074 1.74527 5.95341 1.96635 6.02795 2.17439C6.19258 2.54181 6.37662 2.89994 6.57939 3.2472C6.57939 3.28621 6.66914 3.29273 6.71401 3.31872C6.75547 3.34236 6.79069 3.37585 6.81663 3.41626C6.89993 3.64382 6.97052 3.8844 7.06669 4.10547C7.227 4.49557 7.41292 4.87268 7.56678 5.2563C7.6245 5.47086 7.73354 5.58789 7.9323 5.49686Z" fill="#74A350"/>
<path id="Vector_23" d="M3.20053 6.7583C3.25825 6.98588 3.59166 7.14192 3.79684 7.33697C4.00138 7.49145 4.18466 7.67297 4.34186 7.87666C4.63513 8.34091 4.9937 8.75927 5.40623 9.11849C5.48958 9.1965 5.57293 9.26154 5.65628 9.33306L5.88068 9.52162C5.95346 9.57464 6.02209 9.63331 6.08589 9.69717L6.13074 9.73619L6.34237 9.93121L6.5411 10.1263L6.7142 9.89219L6.82325 9.73619C6.57319 9.55416 6.57319 9.4956 6.73986 9.14452C6.73986 9.14452 6.73986 9.14452 6.73986 9.10547C6.77391 9.03568 6.79764 8.96123 6.81043 8.88443C6.83076 8.83222 6.83076 8.77409 6.81043 8.72188L6.6886 8.54633C6.63823 8.46464 6.58253 8.38641 6.52186 8.31224C6.43041 8.1714 6.31158 8.05089 6.17272 7.9581C6.03381 7.86534 5.87773 7.8022 5.714 7.77258C5.62465 7.62104 5.51454 7.48312 5.38699 7.36294C5.15816 7.12968 4.91394 6.91244 4.65603 6.71274C4.52138 6.61529 4.47008 6.5372 4.52138 6.3877C4.5255 6.3249 4.5255 6.26196 4.52138 6.19916C4.16231 6.16009 3.74555 6.30319 3.63656 5.78955C3.79042 5.64648 3.88019 5.78955 3.97639 5.86107C4.06479 5.94181 4.15908 6.01576 4.25851 6.08209C4.25851 5.86107 4.25851 5.69849 4.25851 5.50995L3.93791 5.07432C3.93791 4.48913 3.97639 4.58667 3.46343 4.34609C3.42866 4.33771 3.39593 4.32222 3.36726 4.30059C3.16208 4.09903 2.93123 4.15104 2.67477 4.20956C2.70052 4.32829 2.73262 4.44548 2.77095 4.56065C2.79651 4.62876 2.82873 4.69411 2.86712 4.75571C2.79818 4.7791 2.72739 4.79651 2.65554 4.80772C2.2003 4.84673 2.21953 4.87275 2.367 5.27586C2.67408 5.75249 2.95244 6.2476 3.20053 6.7583Z" fill="#74A350"/>
<path id="Vector_24" d="M6.9197 12.3628H6.79145C6.79019 12.4333 6.76329 12.5008 6.71598 12.5524C6.66864 12.604 6.60422 12.636 6.53503 12.6424H6.42598C6.36829 12.6424 6.317 12.727 6.25931 12.779L6.04131 12.9805L5.89379 12.792C5.84103 12.7266 5.78317 12.6657 5.72069 12.6099C5.69177 12.5989 5.65988 12.5989 5.63094 12.6099C5.58882 12.5994 5.54481 12.5994 5.50269 12.6099C5.42576 12.6489 5.38086 12.7335 5.31674 12.7985H5.26545H5.23339C5.23339 12.688 5.27187 12.5774 5.29111 12.4343C5.23297 12.3689 5.16605 12.3119 5.09235 12.2653L4.78457 12.1158L4.52167 11.9857L4.06003 11.7712C3.73944 11.6281 3.41885 11.4981 3.07902 11.3616C2.97 11.3095 2.85459 11.1795 2.75842 11.199C2.50835 11.238 2.316 11.264 2.11723 11.0039C1.91846 10.7439 1.74535 10.6854 1.58505 10.4968C1.52784 10.4178 1.4522 10.3545 1.36491 10.3126C1.27762 10.2705 1.18142 10.2512 1.08493 10.2562C1.0308 10.2454 0.978801 10.2257 0.931039 10.1977L1.03363 10.1067L0.57839 9.79458C0.553595 9.78511 0.526242 9.78511 0.501446 9.79458C0.345304 9.8862 0.204605 10.0025 0.0846767 10.1392C0.0536661 10.1765 0.0303496 10.2197 0.0161101 10.2662C0.00187067 10.3128 -0.00300203 10.3618 0.00178193 10.4103C0.00656588 10.4588 0.0209087 10.5058 0.0439594 10.5486C0.0670103 10.5914 0.0982997 10.629 0.135972 10.6593C0.488624 10.9845 0.834867 11.3095 1.18752 11.6476C1.29529 11.7299 1.41697 11.7916 1.54658 11.8297C1.69405 11.8817 1.92488 11.8752 1.98899 11.9792C2.21341 12.3693 2.63018 12.4343 2.97 12.5774C3.30983 12.7205 3.52784 12.7009 3.79713 12.792C4.06643 12.883 4.1562 12.9545 4.33573 13.0326C4.40301 13.0685 4.47396 13.0968 4.54733 13.117H4.60502C4.69081 13.1354 4.7703 13.1764 4.83559 13.2357C4.90085 13.295 4.94959 13.3707 4.97691 13.4552C4.97691 13.5267 5.1308 13.5657 5.21415 13.6177V13.5722L5.1308 13.3836L5.5155 13.4357L5.7399 13.4681C5.79762 13.7933 5.62452 14.2354 6.0541 14.4564H6.099L6.19517 14.632C6.34263 14.8986 6.49013 15.1652 6.64401 15.4253H6.69528C6.76304 15.4085 6.82945 15.3868 6.89404 15.3602C6.89404 15.3602 6.93252 15.3212 6.93894 15.2757C6.94539 15.2302 6.93894 15.2302 6.97742 15.2302C6.97465 15.2173 6.97465 15.204 6.97742 15.1912C6.69506 14.2729 6.67506 13.2922 6.9197 12.3628Z" fill="#74A350"/>
<path id="Vector_25" d="M9.9083 13.1821C9.88956 13.255 9.87453 13.3288 9.86328 13.4032C9.87613 13.3317 9.889 13.2536 9.9083 13.1821Z" fill="#74A350"/>
</g>
</svg>
