<svg width="16" height="16" viewBox="0 0 16 16" fill="none" xmlns="http://www.w3.org/2000/svg">
<path fill-rule="evenodd" clip-rule="evenodd" d="M10.8875 0.874992C11.36 0.874992 11.8325 0.942492 12.2825 1.09249C15.05 1.99249 16.0475 5.02999 15.215 7.68499C14.7436 9.04204 13.9719 10.2752 12.9575 11.2925C11.5094 12.695 9.91818 13.9418 8.21002 15.0125L8.02252 15.125L7.82752 15.005C6.10775 13.9377 4.50626 12.6907 3.05002 11.285C2.04069 10.2666 1.26969 9.0371 0.792522 7.68499C-0.0549784 5.02999 0.942522 1.99249 3.74002 1.07749C3.95752 1.00249 4.18252 0.949992 4.40752 0.919992H4.49752C4.70752 0.889992 4.91752 0.874992 5.12752 0.874992H5.21002C5.68252 0.889992 6.14002 0.972492 6.58252 1.12249H6.62752C6.65752 1.13749 6.68002 1.15249 6.69502 1.16749C6.86002 1.21999 7.01752 1.27999 7.16752 1.36249L7.45252 1.48999C7.52152 1.52749 7.59877 1.58374 7.66552 1.63249C7.70752 1.66249 7.74577 1.69024 7.77502 1.70749L7.81252 1.72999C7.87627 1.76749 7.94377 1.80649 8.00002 1.84999C8.82741 1.2131 9.84341 0.870036 10.8875 0.874992ZM12.8825 6.27499C13.19 6.26749 13.4525 6.01999 13.475 5.70499V5.61499C13.4876 5.10503 13.3424 4.60362 13.0591 4.17938C12.7758 3.75514 12.3684 3.42879 11.8925 3.24499C11.7423 3.19491 11.5784 3.20622 11.4365 3.27647C11.2946 3.34671 11.1863 3.47019 11.135 3.61999C11.03 3.93499 11.195 4.27999 11.51 4.39249C11.99 4.57249 12.3125 5.04499 12.3125 5.56999V5.59249C12.2975 5.76015 12.3487 5.92702 12.455 6.05749C12.56 6.18499 12.7175 6.25999 12.8825 6.27499Z" fill="#D9D9D9"/>
</svg>
