<svg width="24" height="24" viewBox="0 0 24 24" fill="none" xmlns="http://www.w3.org/2000/svg">
<g id="Huge-icon/interface/solid/love">
<path id="Subtract" fill-rule="evenodd" clip-rule="evenodd" d="M12.001 5.52386L12.766 4.70192C14.8786 2.4322 18.3039 2.43221 20.4165 4.70192C22.5291 6.97164 22.5291 10.6516 20.4165 12.9213L13.5311 20.3187C12.686 21.2266 11.3159 21.2266 10.4709 20.3187L3.58544 12.9213C1.47282 10.6516 1.47282 6.97164 3.58544 4.70192C5.69807 2.4322 9.12331 2.43221 11.2359 4.70192L12.001 5.52386ZM17.001 5.24963C16.5868 5.24963 16.251 5.58542 16.251 5.99963C16.251 6.41385 16.5868 6.74963 17.001 6.74963C17.6913 6.74963 18.251 7.30928 18.251 7.99963C18.251 8.41385 18.5868 8.74963 19.001 8.74963C19.4152 8.74963 19.751 8.41385 19.751 7.99963C19.751 6.48085 18.5198 5.24963 17.001 5.24963Z" fill="#3075FC"/>
</g>
</svg>
