<svg width="16" height="16" viewBox="0 0 16 16" fill="none" xmlns="http://www.w3.org/2000/svg">
<path fill-rule="evenodd" clip-rule="evenodd" d="M8.00065 3.68282L8.51068 3.13486C9.9191 1.62171 12.2026 1.62171 13.611 3.13486C15.0194 4.648 15.0194 7.10129 13.611 8.61444L9.02072 13.5461C8.45735 14.1513 7.54395 14.1513 6.98059 13.5461L2.3903 8.61444C0.98188 7.10129 0.981881 4.648 2.3903 3.13486C3.79871 1.62171 6.0822 1.62171 7.49062 3.13486L8.00065 3.68282ZM11.334 3.5C11.0578 3.5 10.834 3.72386 10.834 4C10.834 4.27614 11.0578 4.5 11.334 4.5C11.7942 4.5 12.1673 4.8731 12.1673 5.33333C12.1673 5.60948 12.3912 5.83333 12.6673 5.83333C12.9435 5.83333 13.1673 5.60948 13.1673 5.33333C13.1673 4.32081 12.3465 3.5 11.334 3.5Z" fill="#28303F"/>
</svg>
