<svg width="16" height="16" viewBox="0 0 16 16" fill="none" xmlns="http://www.w3.org/2000/svg">
<path d="M12.7401 5.66603L12.0901 5.13603V3.38603C12.0955 3.32166 12.0876 3.25685 12.0667 3.19572C12.0458 3.13458 12.0124 3.07845 11.9687 3.03088C11.925 2.98331 11.8719 2.94533 11.8127 2.91935C11.7536 2.89337 11.6897 2.87996 11.6251 2.87996C11.5605 2.87996 11.4966 2.89337 11.4374 2.91935C11.3783 2.94533 11.3252 2.98331 11.2814 3.03088C11.2377 3.07845 11.2044 3.13458 11.1835 3.19572C11.1626 3.25685 11.1546 3.32166 11.1601 3.38603V4.3627L9.47674 2.99936C9.06 2.65874 8.53831 2.47266 8.00007 2.47266C7.46183 2.47266 6.94015 2.65874 6.52341 2.99936L3.26007 5.66603C2.99325 5.88252 2.77816 6.15589 2.63052 6.46616C2.48288 6.77643 2.40643 7.11576 2.40674 7.45936V11.226C2.40674 11.8449 2.65257 12.4384 3.09016 12.8759C3.52774 13.3135 4.12123 13.5594 4.74007 13.5594H11.2634C11.8822 13.5594 12.4757 13.3135 12.9133 12.8759C13.3509 12.4384 13.5967 11.8449 13.5967 11.226V7.44603C13.5947 7.10441 13.5167 6.76752 13.3686 6.45968C13.2204 6.15185 13.0058 5.88077 12.7401 5.66603ZM6.60341 12.6094V9.3827C6.62094 9.02364 6.77592 8.6851 7.03624 8.43718C7.29655 8.18927 7.64226 8.05099 8.00174 8.05099C8.36122 8.05099 8.70693 8.18927 8.96724 8.43718C9.22756 8.6851 9.38254 9.02364 9.40007 9.3827V12.6094H6.60341ZM12.6667 11.2127C12.6659 11.5828 12.5184 11.9376 12.2567 12.1993C11.995 12.4611 11.6402 12.6085 11.2701 12.6094H10.3334V9.3827C10.3334 8.76386 10.0876 8.17037 9.64999 7.73278C9.2124 7.2952 8.61891 7.04936 8.00007 7.04936C7.38123 7.04936 6.78774 7.2952 6.35016 7.73278C5.91257 8.17037 5.66674 8.76386 5.66674 9.3827V12.6094H4.73341C4.36268 12.6094 4.00709 12.4623 3.74463 12.2005C3.48218 11.9387 3.33429 11.5834 3.33341 11.2127V7.44603C3.33319 7.23867 3.37914 7.03387 3.46793 6.84649C3.55672 6.6591 3.68612 6.49384 3.84674 6.3627L7.11007 3.69603C7.35997 3.4936 7.67181 3.38314 7.99341 3.38314C8.315 3.38314 8.62684 3.4936 8.87674 3.69603L12.1401 6.3627C12.3031 6.49253 12.4351 6.65721 12.5262 6.84467C12.6173 7.03212 12.6654 7.2376 12.6667 7.44603V11.2127Z" fill="#48455C"/>
</svg>
