<svg width="16" height="16" viewBox="0 0 16 16" fill="none" xmlns="http://www.w3.org/2000/svg">
<g id="alert 3">
<g id="Layer 2">
<path id="alert-circle" d="M7.99968 1.33325C6.68113 1.33325 5.3922 1.72425 4.29588 2.45679C3.19955 3.18933 2.34506 4.23052 1.84048 5.44869C1.3359 6.66687 1.20387 8.00731 1.46111 9.30052C1.71834 10.5937 2.35328 11.7816 3.28563 12.714C4.21798 13.6463 5.40587 14.2812 6.69907 14.5385C7.99228 14.7957 9.33273 14.6637 10.5509 14.1591C11.7691 13.6545 12.8103 12.8 13.5428 11.7037C14.2753 10.6074 14.6663 9.31846 14.6663 7.99992C14.6663 7.12444 14.4939 6.25753 14.1589 5.44869C13.8238 4.63986 13.3328 3.90493 12.7137 3.28587C12.0947 2.66682 11.3597 2.17575 10.5509 1.84072C9.74206 1.50569 8.87515 1.33325 7.99968 1.33325ZM7.99968 11.3332C7.86782 11.3332 7.73893 11.2942 7.6293 11.2209C7.51966 11.1476 7.43422 11.0435 7.38376 10.9217C7.3333 10.7999 7.3201 10.6658 7.34582 10.5365C7.37154 10.4072 7.43504 10.2884 7.52827 10.1952C7.62151 10.1019 7.7403 10.0384 7.86962 10.0127C7.99894 9.987 8.13298 10.0002 8.2548 10.0507C8.37662 10.1011 8.48073 10.1866 8.55399 10.2962C8.62724 10.4058 8.66634 10.5347 8.66634 10.6666C8.66634 10.8434 8.5961 11.013 8.47108 11.138C8.34606 11.263 8.17649 11.3332 7.99968 11.3332ZM8.66634 8.66658C8.66634 8.84339 8.5961 9.01296 8.47108 9.13799C8.34606 9.26301 8.17649 9.33325 7.99968 9.33325C7.82287 9.33325 7.6533 9.26301 7.52827 9.13799C7.40325 9.01296 7.33301 8.84339 7.33301 8.66658V5.33325C7.33301 5.15644 7.40325 4.98687 7.52827 4.86185C7.6533 4.73682 7.82287 4.66658 7.99968 4.66658C8.17649 4.66658 8.34606 4.73682 8.47108 4.86185C8.5961 4.98687 8.66634 5.15644 8.66634 5.33325V8.66658Z" fill="#48455C"/>
</g>
</g>
</svg>
