<svg width="23" height="22" viewBox="0 0 23 22" fill="none" xmlns="http://www.w3.org/2000/svg">
<g clip-path="url(#clip0_34_3851)">
<path d="M14.504 15.1467L13.7966 15.8541C13.2219 16.4289 12.426 16.7826 11.586 16.7826C10.746 16.7826 9.95014 16.4731 9.37538 15.8541L8.66798 15.1467C8.62377 15.1025 8.57955 15.0583 8.49113 15.0583H8.44692V21.1154L11.3207 19.17L14.7251 21.1154V15.1025H14.6809C14.6367 15.1025 14.5482 15.1025 14.504 15.1467ZM11.586 4.44727C9.72908 4.44727 8.18164 5.95049 8.18164 7.85163C8.18164 9.70855 9.68487 11.256 11.586 11.256C13.4429 11.256 14.9904 9.75277 14.9904 7.85163C14.9904 5.9947 13.4429 4.44727 11.586 4.44727Z" fill="#F91818"/>
<path d="M18.5716 6.65642L17.8642 5.94902C17.5547 5.63953 17.3778 5.1974 17.3778 4.75528V3.73839C17.3778 2.80993 16.6262 2.05832 15.6978 2.05832H14.6809C14.2387 2.05832 13.7966 1.88147 13.4871 1.57198L12.7797 0.864578C12.1165 0.201391 11.0554 0.201391 10.3923 0.864578L9.68486 1.57198C9.37537 1.88147 8.93324 2.05832 8.49112 2.05832H7.47423C6.54577 2.05832 5.79416 2.80993 5.79416 3.73839V4.75528C5.79416 5.1974 5.61731 5.63953 5.30782 5.94902L4.60042 6.65642C3.93723 7.3196 3.93723 8.3807 4.60042 9.04389L5.30782 9.75129C5.61731 10.0608 5.79416 10.5029 5.79416 10.945V11.9619C5.79416 12.8904 6.54577 13.642 7.47423 13.642H8.49112C8.93324 13.642 9.37537 13.8188 9.68486 14.1283L10.3923 14.8357C11.0554 15.4989 12.1165 15.4989 12.7797 14.8357L13.4871 14.1283C13.7966 13.8188 14.2387 13.642 14.6809 13.642H15.6978C16.6262 13.642 17.3778 12.8904 17.3778 11.9619V10.945C17.3778 10.5029 17.5547 10.0608 17.8642 9.75129L18.5716 9.04389C19.2348 8.3807 19.2348 7.3196 18.5716 6.65642ZM11.586 12.7135C8.93324 12.7135 6.72262 10.5471 6.72262 7.85015C6.72262 5.1974 8.88903 2.98678 11.586 2.98678C14.2387 2.98678 16.4494 5.15319 16.4494 7.85015C16.4494 10.5029 14.2387 12.7135 11.586 12.7135Z" fill="#F91818"/>
</g>
<defs>
<clipPath id="clip0_34_3851">
<rect width="21.222" height="21.222" fill="white" transform="translate(0.975098 0.158203)"/>
</clipPath>
</defs>
</svg>
