<svg width="10" height="10" viewBox="0 0 10 10" fill="none" xmlns="http://www.w3.org/2000/svg">
<path d="M4.78727 3.85187C4.78415 3.85562 4.7829 3.86062 4.77977 3.86437L2.5979 6.275C2.47602 6.41062 2.47602 6.63062 2.5979 6.76625C2.59915 6.7675 2.6004 6.76812 2.60165 6.76875C2.62876 6.80159 2.66272 6.82811 2.70116 6.84647C2.73959 6.86482 2.78156 6.87456 2.82415 6.875L7.18852 6.875C7.23189 6.8743 7.27458 6.86408 7.31356 6.84508C7.35255 6.82607 7.38689 6.79873 7.41415 6.765L7.4154 6.76625C7.47438 6.69801 7.50684 6.61082 7.50684 6.52063C7.50684 6.43043 7.47438 6.34324 7.4154 6.275L5.22852 3.85187C5.2013 3.81996 5.16747 3.79434 5.12938 3.77676C5.0913 3.75919 5.04985 3.75009 5.0079 3.75009C4.96595 3.75009 4.9245 3.75919 4.88641 3.77676C4.84832 3.79434 4.8145 3.81996 4.78727 3.85187Z" fill="black"/>
</svg>
