<svg width="10" height="10" viewBox="0 0 10 10" fill="none" xmlns="http://www.w3.org/2000/svg">
<path d="M5.21273 6.14812C5.21585 6.14437 5.2171 6.13938 5.22023 6.13563L7.4021 3.725C7.52398 3.58938 7.52398 3.36937 7.4021 3.23375C7.40085 3.2325 7.3996 3.23188 7.39835 3.23125C7.37124 3.19841 7.33728 3.17189 7.29884 3.15353C7.26041 3.13518 7.21844 3.12544 7.17585 3.125H2.81148C2.76811 3.1257 2.72542 3.13592 2.68644 3.15492C2.64745 3.17393 2.61311 3.20127 2.58585 3.235L2.5846 3.23375C2.52562 3.30199 2.49316 3.38918 2.49316 3.47937C2.49316 3.56957 2.52562 3.65676 2.5846 3.725L4.77148 6.14812C4.7987 6.18004 4.83253 6.20566 4.87062 6.22324C4.90871 6.24081 4.95015 6.24991 4.9921 6.24991C5.03405 6.24991 5.0755 6.24081 5.11359 6.22324C5.15168 6.20566 5.1855 6.18004 5.21273 6.14812Z" fill="black"/>
</svg>
