<svg width="16" height="16" viewBox="0 0 16 16" fill="none" xmlns="http://www.w3.org/2000/svg">
<path fill-rule="evenodd" clip-rule="evenodd" d="M12.4995 0.5H3.49951C1.84266 0.5 0.499512 1.84315 0.499512 3.5V12.5C0.499512 14.1569 1.84266 15.5 3.49951 15.5H12.4995C14.1564 15.5 15.4995 14.1569 15.4995 12.5V3.5C15.4995 1.84315 14.1564 0.5 12.4995 0.5ZM10.9995 8.5625C11.3102 8.5625 11.562 8.31066 11.562 8C11.562 7.68934 11.3102 7.4375 10.9995 7.4375H4.99951C4.68885 7.4375 4.43701 7.68934 4.43701 8C4.43701 8.31066 4.68885 8.5625 4.99951 8.5625H10.9995Z" fill="#48455C"/>
</svg>
