<svg width="16" height="16" viewBox="0 0 16 16" fill="none" xmlns="http://www.w3.org/2000/svg">
<path fill-rule="evenodd" clip-rule="evenodd" d="M3.50049 0.5H12.5005C14.1573 0.5 15.5005 1.84315 15.5005 3.5V12.5C15.5005 14.1569 14.1573 15.5 12.5005 15.5H3.50049C1.84363 15.5 0.500488 14.1569 0.500488 12.5V3.5C0.500488 1.84315 1.84363 0.5 3.50049 0.5ZM8.00049 4.4375C8.31115 4.4375 8.56299 4.68934 8.56299 5V7.4375H11.0005C11.3111 7.4375 11.563 7.68934 11.563 8C11.563 8.31066 11.3111 8.5625 11.0005 8.5625H8.56299V11C8.56299 11.3107 8.31115 11.5625 8.00049 11.5625C7.68983 11.5625 7.43799 11.3107 7.43799 11V8.5625H5.00049C4.68983 8.5625 4.43799 8.31066 4.43799 8C4.43799 7.68934 4.68983 7.4375 5.00049 7.4375H7.43799V5C7.43799 4.68934 7.68983 4.4375 8.00049 4.4375Z" fill="#48455C"/>
</svg>
