<svg width="88" height="21" viewBox="0 0 88 21" fill="none" xmlns="http://www.w3.org/2000/svg">
<g id="logo 1" clip-path="url(#clip0_0_1397)">
<path id="Vector" d="M32.8068 15.985C32.9175 15.993 32.9963 16.0329 33.0438 16.1048C33.099 16.1766 33.1266 16.2564 33.1266 16.3442C33.1266 16.432 33.103 16.5078 33.0558 16.5717C33.0083 16.6356 32.9332 16.6675 32.8304 16.6675C32.7673 16.6675 32.7041 16.6675 32.6409 16.6675C32.5858 16.6595 32.5266 16.6555 32.4634 16.6555C32.4634 16.7992 32.4634 16.9428 32.4634 17.0865C32.4711 17.2382 32.4751 17.3898 32.4751 17.5415C32.4751 17.6532 32.4395 17.737 32.3684 17.7929C32.3052 17.8488 32.2304 17.8767 32.1433 17.8767C31.9854 17.8767 31.8827 17.8089 31.8351 17.6732C31.7959 17.5375 31.776 17.3818 31.776 17.2062C31.776 17.1025 31.78 16.9987 31.7879 16.8949C31.7959 16.7992 31.7999 16.7074 31.7999 16.6196C31.4838 16.6036 31.1679 16.5877 30.8518 16.5717C30.5438 16.5557 30.2278 16.5477 29.904 16.5477C29.5485 16.5477 29.1931 16.5597 28.8376 16.5836C28.4901 16.6076 28.1386 16.6515 27.7831 16.7154C27.7594 16.7154 27.7436 16.7194 27.7357 16.7273C27.7278 16.7353 27.7159 16.7433 27.7002 16.7513C27.7002 16.8471 27.7041 16.9508 27.712 17.0626C27.7199 17.1743 27.7239 17.2861 27.7239 17.3978C27.7239 17.5814 27.7002 17.737 27.6528 17.8647C27.6133 18.0004 27.5185 18.0683 27.3684 18.0683C27.2815 18.0683 27.2025 18.0403 27.1314 17.9845C27.0603 17.9366 27.0248 17.8568 27.0248 17.745C27.0248 17.5534 27.0169 17.3659 27.0011 17.1823C26.9932 16.9987 26.9893 16.8072 26.9893 16.6076C26.9893 16.5597 27.0011 16.5118 27.0248 16.4639C27.0485 16.4161 27.0919 16.3721 27.1551 16.3322C27.479 16.1167 27.7594 15.8294 27.9964 15.4702C28.2412 15.103 28.4427 14.7 28.6006 14.261C28.7586 13.822 28.8771 13.363 28.9561 12.8841C29.0351 12.3972 29.0746 11.9303 29.0746 11.4833C29.0746 11.2199 29.0627 10.9685 29.039 10.729C29.0153 10.4896 28.9759 10.2661 28.9206 10.0585C28.9206 10.0426 28.9166 10.0306 28.9087 10.0226C28.9087 10.0067 28.9087 9.99069 28.9087 9.97472C28.9087 9.86298 28.9482 9.77917 29.0272 9.72328C29.1062 9.65945 29.1891 9.62751 29.276 9.62751C29.2918 9.62751 29.3037 9.63149 29.3116 9.63947C29.3195 9.63947 29.3274 9.63947 29.3352 9.63947C29.7697 9.63947 30.1962 9.62354 30.6149 9.5916C31.0413 9.55967 31.4718 9.5437 31.9063 9.5437C32.0486 9.5437 32.1789 9.56364 32.2975 9.60356C32.4239 9.64348 32.491 9.74326 32.4987 9.9029C32.5146 10.2062 32.5226 10.5135 32.5226 10.8248C32.5303 11.1281 32.5342 11.4314 32.5342 11.7347C32.5342 12.4451 32.5266 13.1515 32.5106 13.8539C32.495 14.5563 32.483 15.2627 32.4751 15.973C32.5303 15.973 32.5818 15.977 32.6293 15.985C32.6845 15.985 32.7437 15.985 32.8068 15.985ZM28.4703 15.9491C28.7231 15.9252 28.9759 15.9092 29.2286 15.9012C29.4893 15.8932 29.746 15.8892 29.9988 15.8892C30.2989 15.8892 30.5991 15.8932 30.8993 15.9012C31.1995 15.9092 31.4997 15.9212 31.7999 15.9371C31.8155 15.2587 31.8315 14.5842 31.8471 13.9138C31.863 13.2353 31.8707 12.5568 31.8707 11.8784C31.8707 11.3356 31.8591 10.7889 31.8351 10.2381C31.4798 10.2381 31.1204 10.2461 30.7571 10.2621C30.3937 10.27 30.0264 10.282 29.6552 10.298C29.6868 10.4816 29.7105 10.6731 29.7262 10.8727C29.7421 11.0722 29.7499 11.2758 29.7499 11.4833C29.7499 11.8664 29.7223 12.2575 29.667 12.6566C29.6196 13.0557 29.5406 13.4508 29.43 13.8419C29.3274 14.233 29.1931 14.6082 29.0272 14.9673C28.8692 15.3265 28.6836 15.6538 28.4703 15.9491Z" fill="#74A350"/>
<path id="Vector_2" d="M36.326 16.5238C36.0497 16.7074 35.7416 16.7992 35.4018 16.7992C35.1728 16.7992 34.9674 16.7553 34.7858 16.6675C34.612 16.5717 34.4581 16.4559 34.3238 16.3203C34.1974 16.1846 34.0947 16.0369 34.0156 15.8773C33.9365 15.7097 33.8773 15.558 33.8378 15.4223C33.7746 15.2068 33.739 14.9873 33.7314 14.7638C33.7314 14.5403 33.7114 14.3208 33.6719 14.1053C33.6403 13.9058 33.6167 13.7102 33.6011 13.5186C33.5851 13.3191 33.5771 13.1156 33.5771 12.908C33.5771 12.6287 33.6011 12.3413 33.6483 12.046C33.6958 11.7427 33.7746 11.4514 33.8853 11.172C33.996 10.8847 34.1419 10.6173 34.3238 10.3698C34.5053 10.1224 34.7343 9.90688 35.0109 9.72329C35.082 9.67542 35.1572 9.65147 35.236 9.65147C35.2755 9.65147 35.3031 9.65545 35.3191 9.66343C35.3506 9.59161 35.3979 9.53973 35.461 9.5078C35.5245 9.46788 35.5916 9.44794 35.6625 9.44794C35.7496 9.44794 35.8244 9.47189 35.8878 9.51976C36.1641 9.71133 36.4287 9.92285 36.6817 10.1543C36.9343 10.3858 37.1198 10.6532 37.2385 10.9565C37.3648 11.2917 37.4556 11.623 37.5111 11.9502C37.5663 12.2775 37.5939 12.6087 37.5939 12.944C37.5939 13.2393 37.5742 13.5346 37.5347 13.8299C37.5031 14.1173 37.4596 14.4086 37.4044 14.7039C37.3489 15.0392 37.2465 15.3704 37.0962 15.6977C36.9463 16.0249 36.6893 16.3003 36.326 16.5238ZM36.563 11.16C36.4762 10.9445 36.3419 10.753 36.1601 10.5853C35.9786 10.4098 35.7771 10.2461 35.5561 10.0944C35.5245 10.1503 35.4849 10.1942 35.4374 10.2262C35.2084 10.3858 35.0189 10.5734 34.8686 10.7889C34.7187 11.0044 34.6 11.2358 34.5133 11.4833C34.4265 11.7228 34.3633 11.9702 34.3238 12.2256C34.2922 12.481 34.2762 12.7285 34.2762 12.9679C34.2762 13.1515 34.2842 13.3351 34.2999 13.5186C34.3158 13.6943 34.3394 13.8738 34.371 14.0574C34.4026 14.249 34.4265 14.4366 34.4421 14.6201C34.4657 14.8037 34.4976 14.9833 34.5369 15.1589C34.5844 15.3345 34.6476 15.5021 34.7267 15.6618C34.8055 15.8214 34.9201 15.9691 35.0701 16.1048C35.1332 16.1127 35.1964 16.1207 35.2599 16.1287C35.3307 16.1287 35.3979 16.1287 35.461 16.1287C35.714 16.1287 35.9194 16.0609 36.0773 15.9252C36.2352 15.7895 36.3616 15.6258 36.4563 15.4343C36.5514 15.2427 36.6185 15.0392 36.6578 14.8237C36.7053 14.6082 36.7409 14.4166 36.7645 14.249C36.796 14.0095 36.8197 13.7741 36.8356 13.5426C36.8592 13.3111 36.8712 13.0796 36.8712 12.8482C36.8712 12.5608 36.8476 12.2775 36.8 11.9981C36.7605 11.7187 36.6817 11.4394 36.563 11.16Z" fill="#74A350"/>
<path id="Vector_3" d="M39.8677 13.6264C39.8916 14.2251 39.9112 14.8237 39.9272 15.4223C39.9428 16.021 39.9784 16.6196 40.0336 17.2183C40.0336 17.4258 39.9272 17.5495 39.7138 17.5894C39.627 17.5894 39.5439 17.5655 39.4651 17.5176C39.3939 17.4697 39.3504 17.3899 39.3348 17.2781C39.2872 16.6955 39.2517 16.1128 39.2281 15.5301C39.2121 14.9474 39.1925 14.3688 39.1689 13.7941C39.145 13.2114 39.1134 12.6287 39.0738 12.046C39.0423 11.4634 38.9871 10.8807 38.908 10.298C38.908 10.1943 38.9475 10.1105 39.0266 10.0466L38.9319 10.0825C38.9159 10.0905 38.8843 10.0945 38.8371 10.0945C38.75 10.0945 38.6673 10.0666 38.5881 10.0107C38.517 9.94683 38.4814 9.86302 38.4814 9.75927C38.4814 9.65548 38.529 9.56769 38.6237 9.49584C38.7185 9.42402 38.8331 9.36814 38.9674 9.32825C39.1017 9.28833 39.2437 9.2604 39.3939 9.24444C39.5439 9.22049 39.6782 9.2085 39.7968 9.2085C40.1047 9.2085 40.4049 9.26839 40.6971 9.38811C40.9973 9.49985 41.2619 9.65949 41.4909 9.867C41.7279 10.0666 41.9177 10.314 42.0597 10.6093C42.202 10.8967 42.2731 11.2119 42.2731 11.5552C42.2731 11.8505 42.194 12.1139 42.0361 12.3453C41.8782 12.5689 41.6767 12.7644 41.4317 12.932C41.1947 13.0997 40.9341 13.2433 40.6499 13.3631C40.3733 13.4748 40.1127 13.5626 39.8677 13.6264ZM39.7968 9.87899C39.631 9.87899 39.4651 9.90294 39.2992 9.95081C39.378 9.96678 39.4452 10.0067 39.5007 10.0705C39.5638 10.1264 39.6031 10.1982 39.619 10.2861C39.6742 10.741 39.7217 11.184 39.7613 11.615C39.8008 12.0381 39.8284 12.4771 39.8441 12.932C40.0179 12.8841 40.2034 12.8163 40.4009 12.7285C40.6063 12.6407 40.7958 12.5369 40.9697 12.4172C41.1435 12.2975 41.2858 12.1658 41.3962 12.0221C41.5069 11.8704 41.5621 11.7108 41.5621 11.5432C41.5621 11.3357 41.5109 11.1321 41.4081 10.9326C41.3054 10.733 41.1711 10.5574 41.0052 10.4058C40.8394 10.2461 40.6499 10.1184 40.4365 10.0227C40.2234 9.92686 40.0099 9.87899 39.7968 9.87899Z" fill="#74A350"/>
<path id="Vector_4" d="M45.6063 16.5238C45.33 16.7074 45.0219 16.7992 44.6821 16.7992C44.4531 16.7992 44.2476 16.7553 44.0661 16.6675C43.8923 16.5717 43.7383 16.4559 43.604 16.3203C43.4774 16.1846 43.375 16.0369 43.2959 15.8773C43.2168 15.7097 43.1576 15.558 43.1181 15.4223C43.0549 15.2068 43.0193 14.9873 43.0113 14.7638C43.0113 14.5403 42.9917 14.3208 42.9522 14.1053C42.9206 13.9058 42.897 13.7102 42.881 13.5186C42.8654 13.3191 42.8574 13.1156 42.8574 12.908C42.8574 12.6287 42.881 12.3413 42.9286 12.046C42.9761 11.7427 43.0549 11.4514 43.1656 11.172C43.276 10.8847 43.4222 10.6173 43.604 10.3698C43.7856 10.1224 44.0146 9.90688 44.2912 9.72329C44.3623 9.67542 44.4371 9.65147 44.5162 9.65147C44.5558 9.65147 44.5834 9.65545 44.5993 9.66343C44.6309 9.59161 44.6781 9.53973 44.7413 9.5078C44.8045 9.46788 44.8716 9.44794 44.9427 9.44794C45.0298 9.44794 45.1046 9.47189 45.1678 9.51976C45.4444 9.71133 45.709 9.92285 45.9616 10.1543C46.2146 10.3858 46.4001 10.6532 46.5188 10.9565C46.6451 11.2917 46.7359 11.623 46.7911 11.9502C46.8466 12.2775 46.8741 12.6087 46.8741 12.944C46.8741 13.2393 46.8542 13.5346 46.815 13.8299C46.7834 14.1173 46.7399 14.4086 46.6847 14.7039C46.6292 15.0392 46.5264 15.3704 46.3765 15.6977C46.2263 16.0249 45.9696 16.3003 45.6063 16.5238ZM45.8433 11.16C45.7565 10.9445 45.6222 10.753 45.4404 10.5853C45.2589 10.4098 45.0574 10.2461 44.836 10.0944C44.8045 10.1503 44.7652 10.1942 44.7177 10.2262C44.4886 10.3858 44.2992 10.5734 44.1489 10.7889C43.999 11.0044 43.8803 11.2358 43.7935 11.4833C43.7065 11.7228 43.6433 11.9702 43.604 12.2256C43.5725 12.481 43.5565 12.7285 43.5565 12.9679C43.5565 13.1515 43.5645 13.3351 43.5801 13.5186C43.5961 13.6943 43.6197 13.8738 43.6513 14.0574C43.6828 14.249 43.7065 14.4366 43.7224 14.6201C43.746 14.8037 43.7776 14.9833 43.8171 15.1589C43.8647 15.3345 43.9278 15.5021 44.0066 15.6618C44.0857 15.8214 44.2004 15.9691 44.3504 16.1048C44.4135 16.1127 44.4767 16.1207 44.5398 16.1287C44.611 16.1287 44.6781 16.1287 44.7413 16.1287C44.9943 16.1287 45.1994 16.0609 45.3576 15.9252C45.5155 15.7895 45.6418 15.6258 45.7366 15.4343C45.8313 15.2427 45.8985 15.0392 45.938 14.8237C45.9856 14.6082 46.0211 14.4166 46.0447 14.249C46.0763 14.0095 46.0999 13.7741 46.1159 13.5426C46.1395 13.3111 46.1514 13.0796 46.1514 12.8482C46.1514 12.5608 46.1275 12.2775 46.0803 11.9981C46.0408 11.7187 45.9616 11.4394 45.8433 11.16Z" fill="#74A350"/>
<path id="Vector_5" d="M51.5651 9.68736C51.4863 9.67937 51.4072 9.6754 51.3281 9.6754C51.2572 9.6754 51.1781 9.6754 51.0914 9.6754C50.7752 9.6754 50.4634 9.68338 50.1553 9.69935C49.8471 9.71528 49.5273 9.72727 49.1955 9.73526C49.2667 10.3099 49.3139 10.8846 49.3378 11.4593C49.3614 12.026 49.3771 12.5967 49.385 13.1714C49.401 13.7461 49.4166 14.3208 49.4326 14.8955C49.4482 15.4702 49.4838 16.0449 49.5389 16.6196C49.5389 16.6355 49.5389 16.6475 49.5389 16.6555C49.5469 16.6555 49.5509 16.6635 49.5509 16.6794C49.5509 16.7912 49.5074 16.875 49.4206 16.9309C49.3338 16.9947 49.2391 17.0266 49.1364 17.0266C49.0493 17.0266 48.9665 16.9987 48.8874 16.9428C48.8086 16.8949 48.7611 16.8151 48.7451 16.7034C48.6819 16.1207 48.6427 15.538 48.6268 14.9554C48.6188 14.3727 48.6111 13.794 48.6031 13.2193C48.5952 12.6366 48.5792 12.054 48.5556 11.4713C48.532 10.8886 48.4805 10.3099 48.4017 9.73526C48.3069 9.72727 48.2042 9.72327 48.0935 9.72327C47.9829 9.71528 47.8804 9.69935 47.7854 9.6754C47.6986 9.65145 47.6235 9.61153 47.5603 9.55567C47.5051 9.49979 47.4775 9.42396 47.4775 9.32819C47.4775 9.2244 47.5171 9.13661 47.5959 9.06479C47.675 8.99294 47.7658 8.95703 47.8685 8.95703C48.0264 8.95703 48.1883 8.96899 48.3542 8.99294C48.5201 9.01689 48.6819 9.02885 48.8402 9.02885C49.2428 9.02885 49.638 9.02087 50.0249 9.0049C50.4199 8.98098 50.8188 8.96899 51.2217 8.96899C51.3085 8.96899 51.3952 8.96899 51.4823 8.96899C51.5691 8.96899 51.6482 8.98098 51.7193 9.0049C51.7905 9.02885 51.8496 9.06476 51.8969 9.11266C51.9444 9.16057 51.968 9.23239 51.968 9.32819C51.968 9.43993 51.9284 9.52772 51.8496 9.59158C51.7705 9.65542 51.6758 9.68736 51.5651 9.68736Z" fill="#74A350"/>
<path id="Vector_6" d="M54.381 9.4719C54.381 9.40803 54.4086 9.35214 54.4638 9.30427C54.5269 9.25637 54.602 9.23242 54.6891 9.23242C54.7759 9.23242 54.851 9.25637 54.9142 9.30427C54.9773 9.35214 55.0089 9.40803 55.0089 9.4719C55.0801 10.1503 55.1273 10.8208 55.1512 11.4833C55.1748 12.1378 55.2024 12.8043 55.234 13.4827C55.3447 13.4748 55.459 13.4708 55.5777 13.4708C55.6961 13.4628 55.8224 13.4588 55.9567 13.4588C56.0438 13.4588 56.1186 13.4827 56.1817 13.5306C56.2452 13.5705 56.2768 13.6224 56.2768 13.6863C56.2768 13.7741 56.2372 13.8379 56.1581 13.8779C56.087 13.9177 55.9962 13.9457 55.8856 13.9616C55.7831 13.9696 55.6725 13.9736 55.5538 13.9736C55.4354 13.9736 55.3367 13.9736 55.2576 13.9736C55.2892 14.4525 55.3287 14.9275 55.3763 15.3984C55.4235 15.8613 55.5026 16.3323 55.6133 16.8111C55.6133 16.8191 55.6133 16.8271 55.6133 16.8351C55.6209 16.8351 55.6249 16.8391 55.6249 16.8471C55.6249 16.9109 55.5973 16.9628 55.5421 17.0027C55.4866 17.0426 55.4195 17.0706 55.3407 17.0865C55.1432 17.0865 55.0285 17.0147 54.997 16.871C54.8706 16.432 54.7879 15.997 54.7483 15.566C54.7167 15.127 54.6891 14.68 54.6652 14.2251L54.6535 13.9856C54.4401 14.0016 54.2347 14.0135 54.0372 14.0215C53.8398 14.0215 53.6343 14.0215 53.4212 14.0215H52.9708L52.9353 14.1173C52.8644 14.3168 52.7893 14.5922 52.7102 14.9434C52.6314 15.2866 52.5443 15.6299 52.4496 15.9731C52.3628 16.3083 52.2601 16.5996 52.1414 16.8471C52.0231 17.0945 51.8888 17.2182 51.7388 17.2182C51.6361 17.2182 51.561 17.1943 51.5135 17.1464C51.4583 17.0985 51.4307 17.0466 51.4307 16.9908C51.4307 16.9748 51.4386 16.9429 51.4543 16.895C51.5729 16.6635 51.6677 16.428 51.7388 16.1886C51.8096 15.9491 51.8691 15.7057 51.9164 15.4582C51.9718 15.2108 52.027 14.9673 52.0822 14.7279C52.1454 14.4805 52.2245 14.237 52.3193 13.9976C52.2245 13.9736 52.1414 13.9616 52.0706 13.9616C52.0071 13.9537 51.9519 13.9457 51.9047 13.9377C51.8651 13.9218 51.8336 13.9018 51.8096 13.8779C51.786 13.8539 51.7744 13.81 51.7744 13.7461C51.7744 13.6823 51.798 13.6224 51.8452 13.5666C51.9007 13.5107 51.9719 13.4827 52.0586 13.4827C52.2325 13.4827 52.3864 13.4947 52.5207 13.5187C52.7813 12.8642 53.042 12.2216 53.3026 11.591C53.5712 10.9525 53.8753 10.318 54.2151 9.68739C54.2467 9.61557 54.3019 9.56366 54.381 9.53176V9.4719ZM54.4521 10.5494C54.2071 11.0363 53.9821 11.5312 53.7766 12.0341C53.5792 12.5289 53.3777 13.0278 53.1723 13.5306H53.4685C53.6659 13.5306 53.8557 13.5306 54.0372 13.5306C54.2267 13.5227 54.4245 13.5147 54.6296 13.5067C54.606 13.0038 54.5784 12.5129 54.5468 12.0341C54.5153 11.5472 54.4837 11.0523 54.4521 10.5494Z" fill="#74A350"/>
<path id="Vector_7" d="M65.9643 9.55569C66.0274 9.44393 66.1185 9.38807 66.2368 9.38807C66.3239 9.38807 66.4027 9.42001 66.4739 9.48384C66.553 9.54771 66.5922 9.62752 66.5922 9.72329C66.5922 9.77917 66.5766 9.83506 66.545 9.89091C66.4107 10.1064 66.2368 10.3339 66.0237 10.5734C65.8103 10.8048 65.5932 11.0443 65.3719 11.2917C65.1588 11.5392 64.9653 11.7946 64.7914 12.058C64.6176 12.3214 64.5109 12.5888 64.4713 12.8601C64.5109 12.8921 64.5385 12.932 64.5544 12.9799C64.5701 13.0198 64.578 13.0597 64.578 13.0996C64.578 13.2034 64.5504 13.2872 64.4952 13.351C64.5664 13.6543 64.6768 13.9417 64.827 14.2131C64.9849 14.4844 65.1548 14.7478 65.3363 15.0033C65.5181 15.2587 65.7036 15.5101 65.8934 15.7576C66.0909 16.005 66.2644 16.2604 66.4147 16.5238C66.4463 16.5797 66.4619 16.6356 66.4619 16.6914C66.4619 16.7872 66.4227 16.867 66.3435 16.9309C66.2724 17.0027 66.1933 17.0386 66.1065 17.0386C65.9882 17.0386 65.8971 16.9828 65.8339 16.871C65.684 16.6156 65.4982 16.3482 65.2771 16.0688C65.056 15.7895 64.8387 15.5061 64.6256 15.2188C64.4201 14.9234 64.2346 14.6201 64.0687 14.3089C63.9105 13.9976 63.8198 13.6783 63.7961 13.351C63.717 13.3351 63.6382 13.3231 63.5591 13.3151C63.488 13.3071 63.4129 13.2991 63.3341 13.2912C63.342 13.6743 63.3497 14.0614 63.3577 14.4525C63.3657 14.8357 63.3696 15.2188 63.3696 15.6019C63.3696 15.8334 63.3657 16.0609 63.3577 16.2843C63.3497 16.4999 63.3457 16.7233 63.3457 16.9548C63.3457 17.0666 63.3102 17.1464 63.2393 17.1943C63.1762 17.2501 63.101 17.2781 63.014 17.2781C62.9272 17.2781 62.8481 17.2541 62.7772 17.2062C62.7141 17.1583 62.6822 17.0785 62.6822 16.9668C62.6822 16.7433 62.6822 16.5238 62.6822 16.3083C62.6902 16.0848 62.6942 15.8613 62.6942 15.6378C62.6942 14.8476 62.6822 14.0574 62.6586 13.2672H62.1609C62.1137 13.6264 62.015 13.9616 61.8647 14.2729C61.7148 14.5762 61.537 14.8716 61.3315 15.1589C61.1341 15.4463 60.9286 15.7296 60.7155 16.009C60.5021 16.2883 60.3086 16.5757 60.1348 16.871C60.0716 16.9828 59.9809 17.0386 59.8625 17.0386C59.7754 17.0386 59.6926 17.0067 59.6135 16.9428C59.5424 16.879 59.5068 16.7992 59.5068 16.7034C59.5068 16.6395 59.5228 16.5797 59.5544 16.5238C59.6887 16.2843 59.8662 16.0369 60.0876 15.7815C60.3086 15.5181 60.5221 15.2467 60.7272 14.9673C60.9406 14.688 61.1224 14.4046 61.2724 14.1173C61.4223 13.822 61.4974 13.5306 61.4974 13.2433C61.4974 12.916 61.4303 12.6087 61.296 12.3214C61.1617 12.0261 60.9998 11.7427 60.8103 11.4713C60.6208 11.1999 60.4193 10.9365 60.2059 10.6811C60.0005 10.4177 59.823 10.1543 59.6727 9.89091C59.6411 9.83506 59.6255 9.77917 59.6255 9.72329C59.6255 9.62752 59.6651 9.54771 59.7439 9.48384C59.823 9.42001 59.9058 9.38807 59.9928 9.38807C60.0401 9.38807 60.0876 9.40003 60.1348 9.42398C60.1823 9.44793 60.2219 9.49183 60.2535 9.55569C60.3878 9.78716 60.5497 10.0226 60.7391 10.2621C60.9286 10.5015 61.1184 10.749 61.3079 11.0044C61.4974 11.2518 61.6673 11.5072 61.8175 11.7706C61.9675 12.034 62.0742 12.3054 62.1373 12.5848H62.6469C62.639 12.0659 62.619 11.5511 62.5874 11.0403C62.5638 10.5295 62.5519 10.0146 62.5519 9.4958C62.5519 9.38406 62.5835 9.30426 62.6469 9.25636C62.7178 9.2005 62.7969 9.17255 62.8836 9.17255C62.9707 9.17255 63.0495 9.2005 63.1207 9.25636C63.1918 9.30426 63.2274 9.38406 63.2274 9.4958L63.3102 12.6087C63.4052 12.6167 63.496 12.6247 63.5827 12.6327C63.6775 12.6406 63.7686 12.6526 63.8553 12.6686C63.9265 12.3573 64.0448 12.07 64.2107 11.8066C64.3766 11.5432 64.5624 11.2917 64.7678 11.0523C64.973 10.8048 65.1824 10.5614 65.3958 10.3219C65.6089 10.0825 65.7984 9.82707 65.9643 9.55569Z" fill="#74A350"/>
<path id="Vector_8" d="M67.2687 16.9548C67.1816 16.9548 67.1028 16.9269 67.0317 16.871C66.9606 16.8232 66.925 16.7553 66.925 16.6675V16.4041C66.9486 16.1487 66.9646 15.8933 66.9725 15.6379C66.9802 15.3824 66.9842 15.123 66.9842 14.8596C66.9842 13.9497 66.9526 13.0477 66.8894 12.1538C66.8342 11.2518 66.8066 10.3938 66.8066 9.57965C66.8303 9.49984 66.8698 9.43998 66.925 9.40006C66.9882 9.36015 67.0553 9.3402 67.1264 9.3402C67.2132 9.3402 67.2883 9.36813 67.3515 9.42402C67.4226 9.47192 67.4582 9.53976 67.4582 9.62755C67.4582 9.65948 67.4542 9.68343 67.4462 9.6994C67.4622 10.3379 67.5017 11.0164 67.5649 11.7347C67.6281 12.4451 67.6597 13.1395 67.6597 13.818C67.6597 14.1532 67.6477 14.4685 67.6241 14.7638C67.7979 14.3887 67.9755 13.9976 68.1573 13.5905C68.3468 13.1834 68.5403 12.7764 68.7377 12.3693C68.9352 11.9622 69.1366 11.5631 69.3421 11.172C69.5475 10.7729 69.7569 10.3938 69.97 10.0346L70.2662 9.37611C70.2978 9.31228 70.3414 9.26437 70.3965 9.23244C70.4597 9.20054 70.5232 9.18457 70.5863 9.18457C70.6731 9.18457 70.7482 9.2125 70.8114 9.26838C70.8825 9.31625 70.9181 9.3881 70.9181 9.48388V9.68741C70.9181 9.84705 70.9141 10.0107 70.9062 10.1783C70.9062 10.3379 70.9062 10.4976 70.9062 10.6572C70.9062 10.745 70.9062 10.9086 70.9062 11.1481C70.9141 11.3875 70.9181 11.6669 70.9181 11.9862C70.9258 12.2975 70.9337 12.6287 70.9417 12.9799C70.9497 13.3231 70.9537 13.6504 70.9537 13.9617C70.9613 14.265 70.9653 14.5284 70.9653 14.7519C70.9733 14.9754 70.9773 15.123 70.9773 15.1949C70.9773 15.3066 70.9773 15.4263 70.9773 15.5541C70.9773 15.6818 70.9733 15.8254 70.9653 15.9851C70.9653 16.025 70.9653 16.0888 70.9653 16.1766C70.9733 16.2644 70.9773 16.3642 70.9773 16.4759C70.9773 16.6037 70.9613 16.7353 70.9298 16.871C70.8982 17.0067 70.8034 17.0746 70.6455 17.0746C70.5508 17.0746 70.4757 17.0506 70.4205 17.0027C70.3729 16.9548 70.3374 16.895 70.3138 16.8232C70.2902 16.7433 70.2782 16.6595 70.2782 16.5717C70.2782 16.4759 70.2782 16.3842 70.2782 16.2964C70.2782 16.2564 70.2782 16.1806 70.2782 16.0689C70.2782 15.9571 70.2782 15.8414 70.2782 15.7217C70.2862 15.6019 70.2902 15.4902 70.2902 15.3864C70.2902 15.2827 70.2902 15.2108 70.2902 15.1709C70.2902 14.7638 70.2862 14.3887 70.2782 14.0455C70.2702 13.7023 70.2622 13.363 70.2546 13.0278C70.2546 12.6926 70.2506 12.3533 70.2426 12.0101C70.2347 11.6589 70.2307 11.2838 70.2307 10.8847C70.0096 11.3317 69.7805 11.8026 69.5435 12.2975C69.3145 12.7923 69.0854 13.2912 68.8564 13.7941C68.6274 14.2969 68.4023 14.7958 68.1809 15.2907C67.9678 15.7855 67.7703 16.2564 67.5885 16.7034V16.7154C67.5333 16.875 67.4266 16.9548 67.2687 16.9548Z" fill="#74A350"/>
<path id="Vector_9" d="M74.194 12.4411C74.4546 12.5529 74.7113 12.6925 74.9639 12.8602C75.2169 13.0198 75.4379 13.2034 75.6274 13.4109C75.8249 13.6185 75.9831 13.8419 76.1015 14.0814C76.2201 14.3209 76.2793 14.5723 76.2793 14.8357C76.2793 15.155 76.1962 15.4503 76.0303 15.7217C75.8645 15.993 75.6474 16.2285 75.3788 16.428C75.1181 16.6196 74.8219 16.7713 74.4902 16.883C74.1584 16.9948 73.8306 17.0506 73.5065 17.0506C73.1432 17.0506 72.7918 16.9868 72.4521 16.8591C72.1127 16.7234 71.8162 16.5158 71.5635 16.2365C71.5003 16.1567 71.4688 16.0808 71.4688 16.009C71.4688 15.9132 71.5043 15.8294 71.5755 15.7576C71.6466 15.6857 71.7254 15.6498 71.8125 15.6498C71.8913 15.6498 71.9664 15.6857 72.0375 15.7576C72.2114 15.9491 72.4481 16.1008 72.7483 16.2125C73.0564 16.3163 73.3762 16.3682 73.708 16.3682C73.945 16.3682 74.1701 16.3362 74.3835 16.2724C74.6046 16.2006 74.798 16.1008 74.9639 15.9731C75.1298 15.8374 75.2604 15.6738 75.3552 15.4822C75.4499 15.2907 75.4971 15.0671 75.4971 14.8117C75.4971 14.5164 75.4183 14.249 75.2604 14.0096C75.1022 13.7621 74.8968 13.5546 74.6441 13.387C74.3994 13.2114 74.1268 13.0757 73.8267 12.9799C73.5265 12.8761 73.2383 12.8203 72.9617 12.8123C72.859 12.8043 72.7799 12.7604 72.7247 12.6806C72.6695 12.6008 72.6419 12.5209 72.6419 12.4411C72.6419 12.2735 72.7207 12.1777 72.8786 12.1538C72.9973 12.1298 73.1591 12.0899 73.3646 12.0341C73.57 11.9782 73.7675 11.9063 73.957 11.8186C74.1544 11.7228 74.3243 11.611 74.4663 11.4833C74.6165 11.3476 74.6916 11.196 74.6916 11.0284C74.6916 10.8687 74.6481 10.729 74.5613 10.6093C74.4822 10.4896 74.3835 10.3938 74.2651 10.322C74.1465 10.2422 74.0161 10.1863 73.8739 10.1543C73.7396 10.1144 73.6172 10.0945 73.5065 10.0945C73.325 10.0945 73.1432 10.1184 72.9617 10.1663C72.7799 10.2142 72.6103 10.2781 72.4521 10.3579C72.4049 10.3818 72.3533 10.3938 72.2982 10.3938C72.1954 10.3938 72.1087 10.3539 72.0375 10.2741C71.9744 10.1943 71.9428 10.1104 71.9428 10.0227C71.9428 9.92685 72.002 9.84304 72.1203 9.77122C72.239 9.69141 72.3809 9.62755 72.5468 9.57964C72.7127 9.53177 72.8826 9.49583 73.0564 9.47191C73.2383 9.43998 73.3922 9.42401 73.5185 9.42401C73.708 9.42401 73.9094 9.45595 74.1229 9.51978C74.336 9.57567 74.5334 9.67144 74.7152 9.80713C74.8968 9.93483 75.047 10.0985 75.1654 10.298C75.284 10.4976 75.3432 10.741 75.3432 11.0284C75.3432 11.3556 75.2285 11.635 74.9995 11.8665C74.7704 12.0979 74.5018 12.2895 74.194 12.4411Z" fill="#74A350"/>
<path id="Vector_10" d="M80.8233 9.35215C80.8788 9.863 80.9141 10.3738 80.93 10.8847C80.946 11.3875 80.9536 11.8944 80.9536 12.4052C80.9536 12.9799 80.946 13.5506 80.93 14.1173C80.9221 14.676 80.9181 15.2427 80.9181 15.8174C80.9181 15.993 80.9181 16.1686 80.9181 16.3442C80.9261 16.5198 80.93 16.6954 80.93 16.871C80.93 16.9588 80.8945 17.0307 80.8233 17.0865C80.7602 17.1424 80.6811 17.1703 80.5863 17.1703C80.4916 17.1703 80.4088 17.1424 80.3376 17.0865C80.2745 17.0307 80.2429 16.9588 80.2429 16.871C80.2429 16.6555 80.2389 16.444 80.2309 16.2365C80.2309 16.021 80.2309 15.8094 80.2309 15.6019C80.2309 15.147 80.2309 14.692 80.2309 14.237C80.2389 13.7821 80.2469 13.3271 80.2546 12.8722H78.1576C78.126 13.5506 78.0745 14.2171 78.0033 14.8716C77.9322 15.5261 77.8614 16.1926 77.7902 16.871C77.7902 16.9588 77.7547 17.0307 77.6835 17.0865C77.6204 17.1424 77.5453 17.1703 77.4585 17.1703C77.3558 17.1703 77.2687 17.1424 77.1979 17.0865C77.1347 17.0386 77.1028 16.9668 77.1028 16.871C77.1663 16.1926 77.2334 15.5261 77.3043 14.8716C77.3834 14.2171 77.4386 13.5506 77.4701 12.8722H76.9489C76.8541 12.8722 76.7713 12.8442 76.7002 12.7883C76.637 12.7245 76.6055 12.6486 76.6055 12.5609C76.6055 12.473 76.637 12.4012 76.7002 12.3453C76.7713 12.2895 76.8541 12.2615 76.9489 12.2615H77.4821V12.0101C77.4821 11.627 77.4665 11.2479 77.4346 10.8727C77.411 10.4976 77.3677 10.1184 77.3043 9.7353V9.67544C77.3043 9.58762 77.3398 9.51977 77.411 9.4719C77.4821 9.41602 77.5612 9.38809 77.648 9.38809C77.7271 9.38809 77.7982 9.41204 77.8614 9.45991C77.9245 9.49983 77.9641 9.56367 77.9797 9.65149C78.0509 10.0426 78.0981 10.4337 78.122 10.8248C78.1536 11.2159 78.1692 11.611 78.1692 12.0101V12.2615H80.2546C80.2546 11.7986 80.2469 11.3396 80.2309 10.8847C80.223 10.4217 80.1994 9.96278 80.1598 9.50781C80.1518 9.48386 80.1482 9.45193 80.1482 9.41204C80.1482 9.32422 80.1837 9.25638 80.2546 9.20848C80.3257 9.15262 80.4088 9.12469 80.5035 9.12469C80.5747 9.12469 80.6378 9.14464 80.693 9.18456C80.7562 9.22444 80.7997 9.28033 80.8233 9.35215Z" fill="#74A350"/>
<path id="Vector_11" d="M82.5422 16.9548C82.4554 16.9548 82.3763 16.9269 82.3051 16.871C82.234 16.8232 82.1987 16.7553 82.1987 16.6675V16.4041C82.2223 16.1487 82.238 15.8933 82.246 15.6379C82.2539 15.3824 82.2579 15.123 82.2579 14.8596C82.2579 13.9497 82.2263 13.0477 82.1632 12.1538C82.1077 11.2518 82.0801 10.3938 82.0801 9.57965C82.1037 9.49984 82.1432 9.43998 82.1987 9.40006C82.2619 9.36015 82.3291 9.3402 82.3999 9.3402C82.487 9.3402 82.5621 9.36813 82.6252 9.42402C82.6964 9.47192 82.7316 9.53976 82.7316 9.62755C82.7316 9.65948 82.728 9.68343 82.72 9.6994C82.7356 10.3379 82.7752 11.0164 82.8383 11.7347C82.9015 12.4451 82.9331 13.1395 82.9331 13.818C82.9331 14.1532 82.9214 14.4685 82.8975 14.7638C83.0714 14.3887 83.2492 13.9976 83.4307 13.5905C83.6205 13.1834 83.814 12.7764 84.0115 12.3693C84.2089 11.9622 84.4104 11.5631 84.6158 11.172C84.821 10.7729 85.0304 10.3938 85.2438 10.0346L85.54 9.37611C85.5716 9.31228 85.6148 9.26437 85.6703 9.23244C85.7335 9.20054 85.7966 9.18457 85.8598 9.18457C85.9466 9.18457 86.0217 9.2125 86.0848 9.26838C86.156 9.31625 86.1915 9.3881 86.1915 9.48388V9.68741C86.1915 9.84705 86.1876 10.0107 86.1796 10.1783C86.1796 10.3379 86.1796 10.4976 86.1796 10.6572C86.1796 10.745 86.1796 10.9086 86.1796 11.1481C86.1876 11.3875 86.1915 11.6669 86.1915 11.9862C86.1995 12.2975 86.2075 12.6287 86.2152 12.9799C86.2231 13.3231 86.2271 13.6504 86.2271 13.9617C86.2351 14.265 86.2391 14.5284 86.2391 14.7519C86.2467 14.9754 86.2507 15.123 86.2507 15.1949C86.2507 15.3066 86.2507 15.4263 86.2507 15.5541C86.2507 15.6818 86.2467 15.8254 86.2391 15.9851C86.2391 16.025 86.2391 16.0888 86.2391 16.1766C86.2467 16.2644 86.2507 16.3642 86.2507 16.4759C86.2507 16.6037 86.2351 16.7353 86.2035 16.871C86.1719 17.0067 86.0769 17.0746 85.919 17.0746C85.8242 17.0746 85.7491 17.0506 85.6939 17.0027C85.6464 16.9548 85.6111 16.895 85.5872 16.8232C85.5636 16.7433 85.5516 16.6595 85.5516 16.5717C85.5516 16.4759 85.5516 16.3842 85.5516 16.2964C85.5516 16.2564 85.5516 16.1806 85.5516 16.0689C85.5516 15.9571 85.5516 15.8414 85.5516 15.7217C85.5596 15.6019 85.5636 15.4902 85.5636 15.3864C85.5636 15.2827 85.5636 15.2108 85.5636 15.1709C85.5636 14.7638 85.5596 14.3887 85.5516 14.0455C85.544 13.7023 85.536 13.363 85.528 13.0278C85.528 12.6926 85.524 12.3533 85.5161 12.0101C85.5084 11.6589 85.5044 11.2838 85.5044 10.8847C85.283 11.3317 85.054 11.8026 84.817 12.2975C84.5879 12.7923 84.3589 13.2912 84.1298 13.7941C83.9008 14.2969 83.6757 14.7958 83.4547 15.2907C83.2412 15.7855 83.0438 16.2564 82.8623 16.7034V16.7154C82.8068 16.875 82.7001 16.9548 82.5422 16.9548Z" fill="#74A350"/>
<path id="Vector_12" d="M27.1729 3.7384H29.0627V4.04585H27.5272V4.7692H28.3075C28.6057 4.7692 28.8324 4.83187 28.9875 4.95725C29.1426 5.08263 29.2202 5.26347 29.2202 5.49977C29.2202 5.74814 29.1355 5.93862 28.9661 6.07122C28.799 6.20385 28.5592 6.27016 28.2466 6.27016H27.1729V3.7384ZM28.2323 5.98444C28.4375 5.98444 28.5938 5.94464 28.7012 5.86508C28.8086 5.78549 28.8623 5.66855 28.8623 5.51423C28.8623 5.20801 28.6523 5.05492 28.2323 5.05492H27.5272V5.98444H28.2323Z" fill="#151615"/>
<path id="Vector_13" d="M31.8109 3.7384V6.27016H31.4601V4.05306H30.3505L30.3255 4.79452C30.3135 5.14412 30.2849 5.42746 30.2396 5.64445C30.1966 5.86144 30.1274 6.02542 30.032 6.13634C29.9365 6.24483 29.8077 6.2991 29.6454 6.2991C29.5715 6.2991 29.4963 6.28943 29.4199 6.27016L29.445 5.94825C29.4832 5.95792 29.5214 5.96272 29.5595 5.96272C29.6621 5.96272 29.7444 5.92173 29.8065 5.83975C29.8685 5.75536 29.9151 5.62998 29.9461 5.46361C29.9771 5.29724 29.9974 5.07783 30.0069 4.80535L30.0463 3.7384H31.8109Z" fill="#151615"/>
<path id="Vector_14" d="M34.2558 5.63723H32.9245L32.6488 6.27016H32.2803L33.4148 3.7384H33.7692L34.9074 6.27016H34.5315L34.2558 5.63723ZM34.1307 5.34786L33.5902 4.10733L33.0496 5.34786H34.1307Z" fill="#151615"/>
<path id="Vector_15" d="M37.0142 4.05306H35.7258L35.7291 6.27016H35.375V3.7384H37.0179L37.0142 4.05306Z" fill="#151615"/>
<path id="Vector_16" d="M38.293 6.29913C38.0401 6.29913 37.8123 6.24365 37.6096 6.13273C37.4066 6.01943 37.2468 5.86389 37.1297 5.66617C37.0153 5.46848 36.958 5.24785 36.958 5.00433C36.958 4.76079 37.0153 4.54016 37.1297 4.34247C37.2468 4.14474 37.4066 3.99043 37.6096 3.87951C37.8123 3.76618 38.0401 3.70953 38.293 3.70953C38.5435 3.70953 38.7704 3.76618 38.9731 3.87951C39.1761 3.99043 39.3346 4.14474 39.4493 4.34247C39.5637 4.53777 39.621 4.75837 39.621 5.00433C39.621 5.25026 39.5637 5.47209 39.4493 5.66981C39.3346 5.86512 39.1761 6.01943 38.9731 6.13273C38.7704 6.24365 38.5435 6.29913 38.293 6.29913ZM38.293 5.97722C38.4767 5.97722 38.6414 5.93504 38.787 5.85065C38.9351 5.76626 39.0507 5.65051 39.1341 5.50344C39.2203 5.35393 39.2632 5.18756 39.2632 5.00433C39.2632 4.82108 39.2203 4.6559 39.1341 4.50883C39.0507 4.35932 38.9351 4.24238 38.787 4.15799C38.6414 4.07359 38.4767 4.03141 38.293 4.03141C38.1094 4.03141 37.9423 4.07359 37.792 4.15799C37.6439 4.24238 37.5271 4.35932 37.4412 4.50883C37.3578 4.6559 37.3158 4.82108 37.3158 5.00433C37.3158 5.18756 37.3578 5.35393 37.4412 5.50344C37.5271 5.65051 37.6439 5.76626 37.792 5.85065C37.9423 5.93504 38.1094 5.97722 38.293 5.97722Z" fill="#151615"/>
<path id="Vector_17" d="M41.9228 4.05306H41.0637V6.27016H40.7129V4.05306H39.8574V3.7384H41.9228V4.05306Z" fill="#151615"/>
<path id="Vector_18" d="M43.9533 4.95725C44.1225 4.99824 44.2501 5.07181 44.3362 5.17789C44.4246 5.28158 44.4687 5.41537 44.4687 5.57936C44.4687 5.79877 44.3887 5.96874 44.2286 6.08932C44.0713 6.20987 43.841 6.27016 43.5381 6.27016H42.3926V3.7384H43.47C43.7445 3.7384 43.9579 3.79508 44.1106 3.90841C44.2657 4.01933 44.3433 4.17967 44.3433 4.38944C44.3433 4.52688 44.3086 4.64382 44.2394 4.74026C44.1728 4.8367 44.0771 4.90905 43.9533 4.95725ZM42.747 4.85237H43.4449C43.6191 4.85237 43.7515 4.8174 43.8423 4.74748C43.9352 4.67758 43.9818 4.57508 43.9818 4.44007C43.9818 4.30505 43.9352 4.20258 43.8423 4.13266C43.7491 4.06031 43.6166 4.02413 43.4449 4.02413H42.747V4.85237ZM43.5307 5.98444C43.9149 5.98444 44.1072 5.83975 44.1072 5.55042C44.1072 5.40574 44.0581 5.29966 43.9603 5.23215C43.865 5.16222 43.7218 5.12726 43.5307 5.12726H42.747V5.98444H43.5307Z" fill="#151615"/>
<path id="Vector_19" d="M46.2308 6.29913C45.9779 6.29913 45.7498 6.24365 45.5471 6.13273C45.3444 6.01943 45.1843 5.86389 45.0675 5.66617C44.9528 5.46848 44.8955 5.24785 44.8955 5.00433C44.8955 4.76079 44.9528 4.54016 45.0675 4.34247C45.1843 4.14474 45.3444 3.99043 45.5471 3.87951C45.7498 3.76618 45.9779 3.70953 46.2308 3.70953C46.4813 3.70953 46.7079 3.76618 46.9106 3.87951C47.1136 3.99043 47.2721 4.14474 47.3868 4.34247C47.5015 4.53777 47.5585 4.75837 47.5585 5.00433C47.5585 5.25026 47.5015 5.47209 47.3868 5.66981C47.2721 5.86512 47.1136 6.01943 46.9106 6.13273C46.7079 6.24365 46.4813 6.29913 46.2308 6.29913ZM46.2308 5.97722C46.4145 5.97722 46.5792 5.93504 46.7245 5.85065C46.8726 5.76626 46.9882 5.65051 47.0719 5.50344C47.1577 5.35393 47.2007 5.18756 47.2007 5.00433C47.2007 4.82108 47.1577 4.6559 47.0719 4.50883C46.9882 4.35932 46.8726 4.24238 46.7245 4.15799C46.5792 4.07359 46.4145 4.03141 46.2308 4.03141C46.0469 4.03141 45.8801 4.07359 45.7295 4.15799C45.5817 4.24238 45.4649 4.35932 45.3787 4.50883C45.2953 4.6559 45.2536 4.82108 45.2536 5.00433C45.2536 5.18756 45.2953 5.35393 45.3787 5.50344C45.4649 5.65051 45.5817 5.76626 45.7295 5.85065C45.8801 5.93504 46.0469 5.97722 46.2308 5.97722Z" fill="#151615"/>
<path id="Vector_20" d="M49.15 3.7384C49.4745 3.7384 49.7299 3.81677 49.916 3.9735C50.1021 4.13024 50.195 4.34604 50.195 4.6209C50.195 4.89577 50.1021 5.11157 49.916 5.2683C49.7299 5.42504 49.4745 5.50341 49.15 5.50341H48.5307V6.27016H48.1729V3.7384H49.15ZM49.1393 5.18874C49.3659 5.18874 49.5388 5.14051 49.6584 5.04406C49.7777 4.9452 49.8372 4.80416 49.8372 4.6209C49.8372 4.43765 49.7777 4.2978 49.6584 4.20136C49.5388 4.1025 49.3659 4.05306 49.1393 4.05306H48.5307V5.18874H49.1393Z" fill="#151615"/>
<path id="Vector_21" d="M50.7285 3.7384H51.083V5.69146L52.5646 3.7384H52.8939V6.27016H52.5431V4.32071L51.0578 6.27016H50.7285V3.7384Z" fill="#151615"/>
<path id="Vector_22" d="M55.4323 4.05306H54.5734V6.27016H54.2227V4.05306H53.3672V3.7384H55.4323V4.05306Z" fill="#151615"/>
<path id="Vector_23" d="M57.7216 5.9555V6.27016H55.9033V3.7384H57.6713V4.05306H56.2611V4.83068H57.5177V5.13809H56.2611V5.9555H57.7216Z" fill="#151615"/>
<path id="Vector_24" d="M60.3666 3.7384V6.27016H60.0158V4.05306H58.9062L58.881 4.79452C58.8694 5.14412 58.8406 5.42746 58.7952 5.64445C58.7523 5.86144 58.6833 6.02542 58.5876 6.13634C58.4922 6.24483 58.3635 6.2991 58.2013 6.2991C58.1271 6.2991 58.0519 6.28943 57.9756 6.27016L58.0007 5.94825C58.0387 5.95792 58.0771 5.96272 58.1151 5.96272C58.2178 5.96272 58.3003 5.92173 58.3622 5.83975C58.4242 5.75536 58.4708 5.62998 58.5017 5.46361C58.5327 5.29724 58.5529 5.07783 58.5628 4.80535L58.602 3.7384H60.3666Z" fill="#151615"/>
<path id="Vector_25" d="M62.2812 4.6209C62.5796 4.6209 62.8074 4.68841 62.965 4.82346C63.1248 4.95848 63.2048 5.15739 63.2048 5.42021C63.2048 5.69749 63.1189 5.90849 62.9472 6.05314C62.7777 6.19782 62.5342 6.27016 62.2168 6.27016H61.1826V3.7384H61.5368V4.6209H62.2812ZM62.2027 5.98444C62.4103 5.98444 62.5689 5.93739 62.6786 5.84336C62.7908 5.74692 62.847 5.60829 62.847 5.42746C62.847 5.08025 62.632 4.90663 62.2027 4.90663H61.5368V5.98444H62.2027Z" fill="#151615"/>
<path id="Vector_26" d="M65.9254 3.7384V6.27016H65.5673V5.14173H64.1286V6.27016H63.7705V3.7384H64.1286V4.82707H65.5673V3.7384H65.9254Z" fill="#151615"/>
<path id="Vector_27" d="M67.8408 4.6209C68.1391 4.6209 68.367 4.68841 68.5246 4.82346C68.6843 4.95848 68.7643 5.15739 68.7643 5.42021C68.7643 5.69749 68.6785 5.90849 68.5068 6.05314C68.3372 6.19782 68.0938 6.27016 67.7764 6.27016H66.7422V3.7384H67.0963V4.6209H67.8408ZM67.7623 5.98444C67.9699 5.98444 68.1284 5.93739 68.2382 5.84336C68.3504 5.74692 68.4065 5.60829 68.4065 5.42746C68.4065 5.08025 68.1916 4.90663 67.7623 4.90663H67.0963V5.98444H67.7623ZM69.1617 3.7384H69.5159V6.27016H69.1617V3.7384Z" fill="#151615"/>
<path id="Vector_28" d="M70.333 3.73843H70.6872V5.69149L72.1691 3.73843H72.4984V6.27019H72.1476V4.32074L70.6623 6.27019H70.333V3.73843ZM71.4102 3.56123C71.2145 3.56123 71.0631 3.51902 70.9558 3.43463C70.8509 3.34785 70.7969 3.22485 70.7948 3.06573H71.0487C71.0511 3.15976 71.0833 3.2333 71.1456 3.28634C71.2099 3.33699 71.2982 3.36232 71.4102 3.36232C71.5178 3.36232 71.6036 3.33699 71.668 3.28634C71.7349 3.2333 71.7695 3.15976 71.7717 3.06573H72.0225C72.02 3.22247 71.9651 3.34421 71.8578 3.43102C71.7527 3.51783 71.6036 3.56123 71.4102 3.56123Z" fill="#151615"/>
<path id="Vector_29" d="M77.0753 5.00069C77.0753 5.33585 76.9594 5.59866 76.7279 5.78916C76.4967 5.97964 76.1696 6.08211 75.7473 6.09658V6.36422H75.4144V6.09658C74.9921 6.07969 74.6641 5.97603 74.4301 5.78552C74.1986 5.59505 74.083 5.33343 74.083 5.00069C74.083 4.66554 74.1986 4.40272 74.4301 4.21225C74.6641 4.02178 74.9921 3.91808 75.4144 3.9012V3.64441H75.7473V3.9012C76.1674 3.91808 76.493 4.02297 76.7245 4.21586C76.9582 4.40636 77.0753 4.66795 77.0753 5.00069ZM75.7473 5.81446C76.0671 5.79519 76.3106 5.71682 76.4774 5.57939C76.647 5.43954 76.7316 5.24543 76.7316 4.99708C76.7316 4.75357 76.6457 4.56307 76.474 4.42563C76.3045 4.28578 76.0622 4.20622 75.7473 4.18692V5.81446ZM74.4301 5.00069C74.4301 5.24665 74.515 5.43954 74.6843 5.57939C74.856 5.71682 75.0995 5.79519 75.4144 5.81446V4.18692C75.0949 4.20622 74.8502 4.28459 74.6806 4.42202C74.5138 4.55946 74.4301 4.75235 74.4301 5.00069Z" fill="#151615"/>
<path id="Vector_30" d="M78.7891 6.29913C78.5362 6.29913 78.3083 6.24365 78.1054 6.13273C77.9027 6.01943 77.7426 5.86389 77.6258 5.66617C77.5111 5.46848 77.4541 5.24785 77.4541 5.00433C77.4541 4.76079 77.5111 4.54016 77.6258 4.34247C77.7426 4.14474 77.9027 3.99043 78.1054 3.87951C78.3083 3.76618 78.5362 3.70953 78.7891 3.70953C79.0396 3.70953 79.2662 3.76618 79.4692 3.87951C79.6719 3.99043 79.8307 4.14474 79.9451 4.34247C80.0598 4.53777 80.1168 4.75837 80.1168 5.00433C80.1168 5.25026 80.0598 5.47209 79.9451 5.66981C79.8307 5.86512 79.6719 6.01943 79.4692 6.13273C79.2662 6.24365 79.0396 6.29913 78.7891 6.29913ZM78.7891 5.97722C78.9728 5.97722 79.1375 5.93504 79.2831 5.85065C79.4309 5.76626 79.5468 5.65051 79.6302 5.50344C79.716 5.35393 79.759 5.18756 79.759 5.00433C79.759 4.82108 79.716 4.6559 79.6302 4.50883C79.5468 4.35932 79.4309 4.24238 79.2831 4.15799C79.1375 4.07359 78.9728 4.03141 78.7891 4.03141C78.6052 4.03141 78.4384 4.07359 78.2878 4.15799C78.14 4.24238 78.0232 4.35932 77.937 4.50883C77.8536 4.6559 77.8119 4.82108 77.8119 5.00433C77.8119 5.18756 77.8536 5.35393 77.937 5.50344C78.0232 5.65051 78.14 5.76626 78.2878 5.85065C78.4384 5.93504 78.6052 5.97722 78.7891 5.97722Z" fill="#151615"/>
<path id="Vector_31" d="M82.8861 3.7384V6.27016H82.5282V5.14173H81.0896V6.27016H80.7314V3.7384H81.0896V4.82707H82.5282V3.7384H82.8861Z" fill="#151615"/>
<path id="Vector_32" d="M86.0592 5.9555V6.8235H85.7262V6.27016H83.6648L83.6611 6.8235H83.3281L83.3318 5.9555H83.4535C83.6111 5.94583 83.7218 5.82045 83.7865 5.57936C83.8509 5.33581 83.8902 4.99344 83.9046 4.5522L83.9297 3.7384H85.6906V5.9555H86.0592ZM84.2195 4.58475C84.2075 4.94159 84.179 5.23695 84.1336 5.47086C84.0907 5.70474 84.0202 5.86627 83.9224 5.9555H85.3362V4.05306H84.2373L84.2195 4.58475Z" fill="#151615"/>
<path id="Vector_33" d="M13.4887 13.986C13.3811 13.9843 13.2745 14.0078 13.1772 14.0547C13.0799 14.1016 12.9947 14.1706 12.9279 14.2564C12.8612 14.1706 12.7758 14.1016 12.6786 14.0547C12.5813 14.0078 12.4748 13.9843 12.3671 13.986C12.2668 13.9851 12.1676 14.0061 12.076 14.0475C11.9844 14.0889 11.9026 14.1498 11.8362 14.226C11.7697 14.3022 11.7202 14.392 11.6908 14.4893C11.6615 14.5866 11.6531 14.6892 11.6661 14.7901C11.7222 15.2882 12.1428 15.5017 12.4232 15.7365C12.6013 15.9108 12.7631 16.1014 12.9069 16.3058C13.0506 16.1014 13.2125 15.9108 13.3906 15.7365C13.678 15.4733 14.0916 15.2882 14.1476 14.7901C14.1603 14.6927 14.153 14.5937 14.1262 14.4993C14.0993 14.4048 14.0536 14.3171 13.9917 14.2415C13.9298 14.166 13.8531 14.1043 13.7665 14.0603C13.68 14.0164 13.5854 13.991 13.4887 13.986Z" fill="#E97636"/>
<path id="Vector_34" d="M12.3115 12.8901C12.3618 12.8717 12.4135 12.8574 12.4661 12.8474L12.3115 12.8901Z" fill="#74A350"/>
<path id="Vector_35" d="M10.8457 14.3705C10.8457 14.3705 10.8457 14.4062 10.8457 14.4275L10.888 14.2919L10.8457 14.3705Z" fill="#74A350"/>
<path id="Vector_36" d="M12.9209 12.8189C13.0362 12.8198 13.1512 12.8318 13.2644 12.8545C13.1512 12.8321 13.0362 12.8202 12.9209 12.8189Z" fill="#74A350"/>
<path id="Vector_37" d="M13.4813 12.8972H13.4111L13.5583 12.9471L13.4813 12.8972Z" fill="#74A350"/>
<path id="Vector_38" d="M14.575 8.96205C14.5048 8.72722 14.3857 8.65604 14.0422 8.62756C13.887 8.63338 13.7354 8.67736 13.6006 8.75564H13.6987C13.9953 8.80323 14.2881 8.87221 14.575 8.96205Z" fill="#74A350"/>
<path id="Vector_39" d="M14.6668 9.32496L14.5196 9.27516C14.2891 9.20744 14.0551 9.15281 13.8186 9.11151L13.7695 9.47438C13.9827 9.51066 14.1934 9.56058 14.4004 9.62383C14.5337 9.66143 14.6647 9.70654 14.793 9.75906C14.7232 9.65519 14.6799 9.53537 14.6668 9.41039C14.6668 9.41039 14.6738 9.35343 14.6668 9.32496Z" fill="#74A350"/>
<path id="Vector_40" d="M11.9318 20.4615L11.8828 20.7177C12.611 20.8459 13.3571 20.8242 14.0769 20.6536C14.14 20.6536 14.7779 20.4259 14.8339 20.3975C15.0786 20.2772 15.313 20.1368 15.5349 19.9776C15.598 19.9349 15.9065 19.6431 15.9696 19.6075C15.5204 19.8678 15.0516 20.0915 14.5676 20.2764C13.7178 20.5594 12.8119 20.623 11.9318 20.4615Z" fill="#74A350"/>
<path id="Vector_41" d="M13.4679 9.43178L13.559 8.79132L13.4608 8.83402C13.3207 8.89098 13.1945 9.02615 13.0543 9.04753C12.764 9.09053 12.4943 9.22494 12.2832 9.43178C12.677 9.38932 13.0741 9.38932 13.4679 9.43178Z" fill="#74A350"/>
<path id="Vector_42" d="M14.8066 9.75903C14.8833 9.84404 14.9471 9.9399 14.9963 10.0437L15.0665 9.85869L14.8066 9.75903Z" fill="#74A350"/>
<path id="Vector_43" d="M14.2458 13.3099L14.4562 13.0111C14.1966 12.8003 13.8989 12.6431 13.5799 12.5485C13.1045 12.4024 12.5972 12.4024 12.1218 12.5485C11.7548 12.6698 11.421 12.877 11.1475 13.1534L11.3928 13.4167C11.7718 13.0451 12.2726 12.8288 12.7992 12.8091C13.3257 12.7894 13.8409 12.9677 14.2458 13.3099Z" fill="#74A350"/>
<path id="Vector_44" d="M14.6875 13.2317L14.4772 13.5377C14.7617 13.8346 14.9549 14.2091 15.0333 14.6156C15.1117 15.0221 15.072 15.4429 14.9189 15.8268C14.7659 16.2107 14.506 16.5412 14.1713 16.7779C13.8364 17.0145 13.4409 17.1472 13.0332 17.1598V17.5013C13.4148 17.482 13.7868 17.3737 14.1205 17.1849C14.4543 16.9961 14.7407 16.7318 14.9576 16.4125C15.1745 16.0932 15.3161 15.7275 15.3714 15.3438C15.4266 14.96 15.3941 14.5684 15.2764 14.1995C15.2224 14.0428 15.1568 13.8906 15.0801 13.7441L15.3535 13.5875C15.4401 13.7517 15.5128 13.9232 15.5708 14.0999C15.7286 14.5896 15.7505 15.114 15.6339 15.6156L16.2858 15.8077L16.2437 15.9572C16.2087 16.071 16.1737 16.1777 16.1315 16.2845C16.0151 16.5797 15.8594 16.8574 15.6689 17.1099L15.9493 17.3448C16.2971 16.8856 16.5403 16.3539 16.6615 15.7879C16.7827 15.2219 16.7789 14.6357 16.6503 14.0714V13.922L17.2952 13.7512C17.2952 13.6871 17.2602 13.6302 17.2461 13.5733L17.1901 13.4239C16.9167 13.495 16.6082 13.5021 16.2998 13.5591L16.1596 13.616C16.1947 13.7085 16.2297 13.801 16.2578 13.8935C16.3994 14.3215 16.4543 14.7741 16.419 15.2242H16.1105C16.1361 14.8129 16.0862 14.4003 15.9633 14.0073C15.8054 13.5212 15.5363 13.0798 15.1782 12.7194V12.6838L14.7997 13.2459L14.6875 13.2317Z" fill="#74A350"/>
<path id="Vector_45" d="M10.7476 14.9894C10.7408 14.9136 10.7408 14.8374 10.7476 14.7616C10.7442 14.7309 10.7442 14.6998 10.7476 14.6692C10.7599 14.5877 10.7763 14.5069 10.7967 14.4272C10.7967 14.4272 10.7967 14.3916 10.7967 14.3703V14.292C10.8706 14.0751 10.977 13.8711 11.1122 13.6871L10.8598 13.4096C10.6609 13.6661 10.511 13.9581 10.4181 14.2706C10.3269 14.5893 10.2985 14.9231 10.3344 15.2529C10.3702 15.5828 10.4698 15.9022 10.6274 16.193C10.7849 16.4837 10.9973 16.7401 11.2525 16.9475C11.5076 17.1549 11.8006 17.3092 12.1146 17.4016C12.2912 17.4498 12.4719 17.4807 12.6543 17.4942V17.1526C12.1295 17.0946 11.6443 16.8416 11.2923 16.4422C10.9402 16.0428 10.7463 15.5253 10.7476 14.9894Z" fill="#74A350"/>
<path id="Vector_46" d="M17.1759 18.4477L17.0777 18.5758L16.559 18.1346C16.0717 18.7212 15.4543 19.1821 14.7575 19.4795L14.6313 19.1877C14.972 19.0421 15.2944 18.8558 15.5917 18.6327L15.3463 18.3623C14.9863 18.6313 14.5864 18.8403 14.1616 18.9814C13.4787 19.2046 12.7505 19.2446 12.0479 19.0974C11.3452 18.9503 10.6921 18.621 10.1519 18.1417L9.92062 18.4192C10.3004 18.7534 10.7314 19.0226 11.1964 19.2162L11.0842 19.508C10.5326 19.2836 10.0265 18.958 9.59113 18.5473L9.48596 18.4406L9.92758 17.9211C9.4874 17.4498 9.15898 16.8827 8.96722 16.2631C8.90417 16.0629 8.85496 15.8583 8.82001 15.6511L8.11901 15.7365V15.58C8.0904 15.3439 8.07866 15.1061 8.084 14.8684H8.39942C8.38887 15.0414 8.38887 15.2148 8.39942 15.3878L8.75694 15.338C8.71591 14.8232 8.76583 14.3051 8.90411 13.8081C9.16532 12.8976 9.72089 12.103 10.4814 11.5523L10.2851 11.2463C9.73901 11.6473 9.28868 12.1677 8.96722 12.7691L8.69383 12.6126C8.88688 12.2616 9.12237 11.9365 9.39483 11.6448L9.19859 11.353C9.07236 11.353 9.00928 11.5309 8.94618 11.6235C8.88311 11.716 8.69383 11.6235 8.60271 11.6235L8.79897 11.78C8.41493 12.2939 8.12735 12.8753 7.9508 13.4949C7.9508 13.5875 7.90171 13.68 7.88068 13.7725L8.2312 13.8579C8.2312 13.7654 8.27327 13.68 8.29428 13.5946C8.31531 13.5092 8.35036 13.4096 8.38543 13.3171L8.67985 13.4238C8.67985 13.5092 8.62371 13.5946 8.59572 13.6871C8.55797 13.8157 8.52752 13.9463 8.50459 14.0785V14.235L7.85268 14.0856C7.72126 14.861 7.76447 15.6565 7.97886 16.4125L8.63076 16.2489L8.67985 16.384C8.83626 16.8675 9.07337 17.32 9.38082 17.7219L9.12847 17.914C8.83494 17.5211 8.5989 17.0873 8.4275 16.626L8.07697 16.7185C8.48901 17.8925 9.29732 18.8803 10.3585 19.5069C11.4197 20.1335 12.6653 20.3582 13.8742 20.1413L13.7831 19.7855C13.1652 19.9098 12.5293 19.9098 11.9114 19.7855H11.8133L11.8834 19.4795H11.9745C12.5984 19.6149 13.2434 19.6149 13.8672 19.4795H14.0144L14.1756 20.1413L14.4981 20.0488C15.2224 19.8058 15.8869 19.4078 16.4468 18.8818L16.6572 19.1166C16.3706 19.3879 16.0556 19.6265 15.7178 19.8282C16.0501 19.6745 16.3731 19.5011 16.6852 19.3087C16.8678 19.1635 17.0346 18.9989 17.1829 18.8178C17.315 18.6485 17.4191 18.4586 17.4913 18.2555L17.4282 18.2057C17.3485 18.2909 17.2642 18.3717 17.1759 18.4477Z" fill="#74A350"/>
<path id="Vector_47" d="M10.5583 10.2785L10.4112 10.3568C10.2499 10.4493 10.0957 10.5489 9.94147 10.6556C9.92218 10.7368 9.88895 10.8139 9.84335 10.8834C9.74542 11.0345 9.6327 11.1751 9.50684 11.3032L9.58398 11.417C10.2939 10.7279 11.1965 10.2787 12.1679 10.131C13.1393 9.98315 14.1319 10.144 15.0097 10.5916C15.0097 10.4279 15.0097 10.2927 15.0447 10.2998C15.04 10.2126 15.0235 10.1264 14.9956 10.0436L14.9466 10.1504C14.746 10.0632 14.5399 9.98948 14.3297 9.92978C13.3368 9.63341 12.2789 9.64824 11.2944 9.97245L11.1752 10.0151L11.0981 9.78745C11.0305 9.7806 10.9624 9.7806 10.8948 9.78745C10.5724 9.78745 10.4112 9.78745 10.299 9.88707L10.5583 10.2785Z" fill="#74A350"/>
<path id="Vector_48" d="M17.9119 16.2631V16.2204C17.9086 16.1992 17.9086 16.1776 17.9119 16.1564V16.0425C18.0876 15.1803 18.0466 14.2871 17.7928 13.4452C17.7269 13.4128 17.6555 13.3935 17.5824 13.3882H17.4002V13.4736C17.4855 13.7304 17.5465 13.9949 17.5824 14.2635L17.274 14.3062L17.232 14.0572L16.8814 14.1496C17.0086 14.7719 16.9952 15.4153 16.8422 16.0316C16.6893 16.6478 16.4007 17.2209 15.9982 17.7077L15.9 17.8286L15.3813 17.3875C14.9738 17.8399 14.4566 18.176 13.8812 18.3624L13.6989 18.4193L13.6148 18.1133L13.783 18.0635C14.2266 17.9195 14.6332 17.6777 14.9738 17.3554C15.3144 17.033 15.5805 16.6381 15.7528 16.1991C15.7528 16.1493 15.7528 16.1065 15.8019 16.0568L15.4585 15.9571C15.3146 16.3692 15.0791 16.7422 14.7703 17.047C14.4615 17.3518 14.0878 17.5803 13.6779 17.7148C13.1441 17.8857 12.5714 17.8857 12.0376 17.7148C11.7515 17.6316 11.4796 17.5043 11.2314 17.3376L10.8038 17.8642L10.6847 17.7717C10.2363 17.4156 9.8803 16.954 9.64717 16.4268L9.9346 16.2986C10.1261 16.7304 10.4084 17.1141 10.7618 17.423L10.9861 17.1384C10.5977 16.7971 10.3091 16.354 10.1519 15.8575C9.9832 15.3181 9.9832 14.7389 10.1519 14.1994C10.3588 13.4766 10.8393 12.8665 11.4883 12.5024C12.1372 12.1383 12.9019 12.05 13.6148 12.2568C13.9681 12.3593 14.2973 12.5336 14.5822 12.7691L14.7855 12.4632C14.5306 12.2617 14.2469 12.101 13.9443 11.9863L13.741 11.9152C13.1382 11.7261 12.4932 11.7261 11.8904 11.9152C11.3891 12.0796 10.9362 12.3681 10.5725 12.7549L10.3692 12.5201C10.7697 12.0958 11.2686 11.7802 11.8203 11.6021C12.1274 11.4954 12.4491 11.4378 12.7736 11.4314V11.0613C12.4159 11.0743 12.0618 11.139 11.7221 11.2535L11.4768 11.3459L11.3576 11.047L11.631 10.9475C12.0478 10.8109 12.4829 10.7413 12.9208 10.7411H13.0751V11.4527C13.3333 11.4735 13.5892 11.5187 13.8392 11.5879C13.9583 11.6235 14.0705 11.6662 14.1756 11.7088C14.2135 11.697 14.2474 11.6748 14.2737 11.6448C14.3323 11.5662 14.4063 11.5008 14.491 11.4527C14.3115 11.3687 14.1265 11.2974 13.9373 11.2392L13.6568 11.1681L13.727 10.8549L14.0284 10.9332C14.3075 11.0168 14.5777 11.1289 14.8345 11.2676C14.8794 11.2409 14.9217 11.21 14.9607 11.1752C14.9607 11.1752 14.9607 11.0826 14.9607 10.9403C14.6851 10.7943 14.3964 10.6751 14.0985 10.5845C13.2362 10.3286 12.3181 10.341 11.4628 10.6201C11.1295 10.733 10.8097 10.8833 10.5094 11.0684L10.8669 11.6377L10.7407 11.7231C10.3062 12.031 9.94064 12.4287 9.66821 12.8901L10.215 13.2744L10.1449 13.4025C10.0276 13.6169 9.93356 13.8435 9.86451 14.0785C9.73235 14.5407 9.70595 15.0275 9.78742 15.5017L9.47893 15.5586C9.38774 15.0276 9.41647 14.4827 9.56307 13.9646C9.6247 13.7506 9.7069 13.5433 9.80843 13.3456L9.50699 13.1321C9.39133 13.3605 9.2952 13.5985 9.21956 13.8437C9.05239 14.4152 9.01728 15.0182 9.1169 15.6057C9.21659 16.1932 9.44833 16.7495 9.79414 17.2314C10.14 17.7133 10.5906 18.1077 11.111 18.3841C11.6313 18.6604 12.2075 18.8112 12.7947 18.8249V18.4619C12.5004 18.4553 12.2082 18.4099 11.9255 18.3268C11.7572 18.2698 11.596 18.2129 11.4348 18.1418L11.5679 17.85C11.7118 17.9154 11.8593 17.9725 12.0096 18.0207C12.3151 18.1082 12.6314 18.1514 12.9489 18.1489H13.1101V18.8605C13.4387 18.8388 13.7636 18.7767 14.0775 18.6754C14.5153 18.5335 14.9239 18.3116 15.2832 18.0207L15.3954 17.9283L15.844 18.4335C16.512 17.8604 16.9995 17.1007 17.246 16.2489C17.3554 15.8792 17.4144 15.4962 17.4212 15.1103H17.7366C17.7074 16.1073 17.377 17.0712 16.7904 17.8714L17.0707 18.1062C17.3341 17.7431 17.5531 17.3488 17.7227 16.932L18.0031 17.053C18.0031 16.9534 18.0521 16.8609 18.0872 16.7612L18.2344 16.3983L17.9259 16.3342L17.9119 16.2631Z" fill="#74A350"/>
<path id="Vector_49" d="M7.99318 17.5013L7.87402 17.5653C8.04138 17.957 8.23338 18.3373 8.44884 18.704C9.25354 19.6697 10.3591 20.3275 11.5823 20.5683L11.6243 20.3975L11.3579 20.3264C10.6367 20.1138 9.96603 19.7535 9.38732 19.2676C8.80857 18.7817 8.33411 18.1806 7.99318 17.5013Z" fill="#74A350"/>
<path id="Vector_50" d="M8.42773 11.7301L8.51184 11.6662C8.53039 11.6623 8.54943 11.6623 8.56798 11.6662H8.51889L8.42773 11.7301Z" fill="#74A350"/>
<path id="Vector_51" d="M22.7977 8.53512C22.7977 8.53512 22.7977 8.45684 22.7977 8.42127C22.7905 8.29026 22.7478 8.16375 22.6743 8.0558C22.6007 7.94795 22.4992 7.86276 22.381 7.80969C22.2627 7.75668 22.1323 7.7379 22.0042 7.75536C21.8761 7.77292 21.7553 7.82602 21.6551 7.90889C21.4319 8.08342 21.177 8.21153 20.905 8.28604C20.7698 8.29338 20.6396 8.3403 20.5302 8.42115C20.4207 8.50193 20.3367 8.61321 20.2881 8.74144C20.1675 9.01563 19.9878 9.25881 19.7623 9.45304C19.496 9.64517 19.3909 9.7804 19.5661 10.0508C19.6152 10.1291 19.6432 10.1931 19.6222 10.2501C19.5953 10.2894 19.5591 10.3212 19.517 10.3426C19.4658 10.3814 19.4288 10.4365 19.4119 10.4991C19.4056 10.5224 19.4056 10.547 19.4119 10.5703C19.4223 10.7528 19.4223 10.9357 19.4119 11.1182C19.3713 11.293 19.3548 11.4726 19.3628 11.6519C19.377 11.8914 19.3533 12.1317 19.2927 12.3635C19.2736 12.4199 19.2501 12.4745 19.2226 12.5272C19.1875 12.5841 19.2226 12.6766 19.2226 12.8189L19.3978 12.6909L19.6993 12.4632L19.9657 12.271L20.2601 12.0575L20.5265 11.8725C20.69 11.7569 20.8665 11.6614 21.0522 11.5879C21.3881 11.4429 21.6702 11.1938 21.8583 10.8763C22.1272 10.4922 22.3708 10.0904 22.5874 9.67364C22.7626 9.30362 23.1903 8.96207 22.7977 8.53512Z" fill="#74A350"/>
<path id="Vector_52" d="M18.6765 14.05C18.6732 14.0359 18.6732 14.0213 18.6765 14.0073C18.7606 13.744 18.7186 13.5946 18.5783 13.5447C18.4708 13.5129 18.3564 13.5129 18.2489 13.5447H18.2139C18.4304 14.3795 18.4543 15.2537 18.2839 16.0994H18.34L18.5293 15.6155C18.6229 15.4288 18.6912 15.2301 18.7325 15.0249C18.7261 14.9872 18.7261 14.9487 18.7325 14.911C18.8307 14.6548 19.1041 14.3204 18.6765 14.05Z" fill="#74A350"/>
<path id="Vector_53" d="M13.0119 2.6715C13.1263 2.81828 13.2141 2.98453 13.2712 3.16252C13.3845 3.5404 13.4109 3.93967 13.3484 4.32955C13.3484 4.39357 13.3904 4.4861 13.3484 4.56438C13.3484 4.77072 13.4956 5.03403 13.1661 5.14788C13.1661 5.14788 13.1661 5.28308 13.1171 5.33287C13.2432 5.33287 13.4115 5.33287 13.4184 5.41115C13.4746 5.58208 13.4746 5.76686 13.4184 5.93776C13.2712 6.16546 13.3764 6.33626 13.4184 6.52838C13.4184 6.59247 13.4956 6.64223 13.5096 6.70632L13.5727 7.02648C13.5863 7.20855 13.6432 7.38452 13.7385 7.53942C13.8337 7.69435 13.9644 7.82352 14.1195 7.91602L14.4208 8.05119C14.4208 7.9943 14.4208 7.93021 14.477 7.87332C14.4999 7.80875 14.5164 7.742 14.5261 7.67404C14.535 7.63424 14.535 7.59285 14.5261 7.55306V7.48191H14.6382C14.6382 7.38944 14.6382 7.28979 14.6873 7.19732C14.7077 7.0939 14.7217 6.98935 14.7293 6.88416C14.7607 6.74125 14.7607 6.59302 14.7293 6.45011C14.8275 6.32201 14.9747 6.21528 14.9606 6.1441C14.9074 6.01573 14.8229 5.90313 14.7153 5.81678C14.6177 5.70951 14.5147 5.60737 14.4069 5.51078L14.5751 5.40405C14.5751 4.83478 14.5751 4.3082 14.5751 3.78159L14.3508 3.73889C14.3508 3.73889 14.3508 3.68909 14.3508 3.66774L14.5961 3.58947C14.5961 3.46849 14.5961 3.35464 14.5961 3.34042C14.5086 3.19399 14.4358 3.03903 14.3788 2.87787C14.3788 2.82093 14.498 2.74266 14.5471 2.66438C14.5952 2.59541 14.6308 2.51831 14.6522 2.43667C14.7066 1.7718 14.5651 1.10553 14.2457 0.522462C14.2038 0.416844 14.1413 0.321033 14.0615 0.240955C13.9819 0.160877 13.8869 0.0982335 13.7825 0.0568871C13.678 0.0155403 13.5663 -0.00362862 13.4543 0.000565573C13.3422 0.00475977 13.2322 0.0322302 13.1311 0.0812745C13.0259 0.12397 12.9558 0.25917 12.8927 0.365912C12.8707 0.440067 12.8566 0.516415 12.8506 0.593629C12.7287 0.903876 12.6485 1.2294 12.6123 1.56141C12.667 1.89782 12.771 2.22403 12.9208 2.52919C12.9476 2.57886 12.9781 2.62643 13.0119 2.6715Z" fill="#74A350"/>
<path id="Vector_54" d="M8.67281 6.01605C8.67281 6.05875 8.67281 6.08722 8.67281 6.11567C8.60064 6.65687 8.68333 7.20773 8.91112 7.70256C8.94607 7.79365 8.98827 7.88174 9.03726 7.96586C9.10266 8.0743 9.1884 8.1686 9.28967 8.24336C9.39484 8.31451 9.49998 8.37149 9.61214 8.43548L9.72428 8.51376C9.76631 8.51376 9.88553 8.51376 9.93456 8.44974C9.98365 8.38569 10.1168 8.26474 10.208 8.16508C10.2991 8.06549 10.3692 7.99434 10.4463 7.90178L10.3482 7.76664C10.3092 7.70516 10.267 7.64579 10.222 7.58871L10.5514 7.51756C10.5581 7.44657 10.5581 7.37502 10.5514 7.30405C10.5654 7.19779 10.5654 7.09012 10.5514 6.98386C10.5235 6.83725 10.4689 6.69724 10.3902 6.57113C10.3357 6.48671 10.2977 6.39252 10.278 6.29357C10.243 6.0303 10.0538 5.93777 9.84346 5.86662C9.74528 5.85307 9.65029 5.82175 9.56306 5.77412C9.53071 5.69435 9.53071 5.60482 9.56306 5.52504C9.56306 5.46099 9.6682 5.41119 9.71729 5.35427L9.47193 5.16214C9.47193 5.12657 9.47193 5.06252 9.47193 5.00559C9.42284 4.37226 9.47193 3.70336 8.77093 3.39023C8.82113 3.20743 8.84241 3.01768 8.834 2.82808C8.76627 2.60962 8.67456 2.39956 8.56065 2.20187C8.41044 1.92653 8.36791 1.60388 8.44144 1.29814L8.26624 1.13447C7.99279 0.93522 7.85966 0.949453 7.56518 1.17717C7.46982 1.21024 7.36621 1.21024 7.27079 1.17717C6.86421 1.12735 6.49271 1.33372 6.48569 1.66817C6.47361 1.91012 6.50933 2.15208 6.59083 2.37977C6.77082 2.7819 6.97202 3.17385 7.19371 3.55391C7.19371 3.59661 7.29183 3.60373 7.34089 3.63218C7.3862 3.65806 7.42472 3.6947 7.45308 3.73893C7.54414 3.98798 7.62132 4.25129 7.72646 4.49324C7.90173 4.92019 8.10498 5.33292 8.2732 5.75277C8.3363 5.9876 8.45551 6.11567 8.67281 6.01605Z" fill="#74A350"/>
<path id="Vector_55" d="M3.4999 7.39657C3.563 7.64565 3.92751 7.81643 4.15184 8.0299C4.37546 8.19896 4.57583 8.39763 4.74769 8.62056C5.06833 9.12866 5.46034 9.58654 5.91135 9.97969C6.00248 10.0651 6.0936 10.1362 6.18473 10.2145L6.43006 10.4209C6.50962 10.4789 6.58465 10.5431 6.65441 10.613L6.70344 10.6557L6.93482 10.8692L7.15209 11.0826L7.34133 10.8265L7.46055 10.6557C7.18716 10.4565 7.18716 10.3924 7.36939 10.0082C7.36939 10.0082 7.36939 10.0082 7.36939 9.96543C7.40661 9.88905 7.43255 9.80757 7.44653 9.72351C7.46876 9.66637 7.46876 9.60275 7.44653 9.54561L7.31334 9.35349C7.25827 9.26408 7.19737 9.17846 7.13105 9.09728C7.03106 8.94314 6.90115 8.81125 6.74934 8.70969C6.59747 8.60817 6.42684 8.53907 6.24783 8.50665C6.15014 8.3408 6.02976 8.18985 5.89031 8.05832C5.64014 7.80303 5.37314 7.56527 5.09117 7.34671C4.94396 7.24005 4.88788 7.15459 4.94396 6.99097C4.94847 6.92224 4.94847 6.85336 4.94396 6.78462C4.55139 6.74186 4.09576 6.89847 3.9766 6.33632C4.14482 6.17974 4.24297 6.33632 4.34814 6.4146C4.44478 6.50297 4.54787 6.5839 4.65657 6.65649C4.65657 6.4146 4.65657 6.23667 4.65657 6.03032L4.30607 5.55354C4.30607 4.91308 4.34814 5.01984 3.78733 4.75653C3.74931 4.74736 3.71352 4.73041 3.68219 4.70673C3.45786 4.48613 3.20549 4.54306 2.9251 4.60711C2.95324 4.73705 2.98834 4.8653 3.03025 4.99136C3.05819 5.0659 3.09342 5.13742 3.13539 5.20483C3.06002 5.23044 2.98263 5.24949 2.90407 5.26176C2.40637 5.30446 2.4274 5.33294 2.58862 5.77411C2.92435 6.29576 3.22867 6.83763 3.4999 7.39657Z" fill="#74A350"/>
<path id="Vector_56" d="M7.56518 13.5305H7.42496C7.42358 13.6076 7.39418 13.6815 7.34245 13.738C7.29069 13.7945 7.22026 13.8295 7.14462 13.8365H7.0254C6.96233 13.8365 6.90625 13.929 6.84318 13.9859L6.60484 14.2065L6.44356 14.0002C6.38589 13.9287 6.32263 13.862 6.25432 13.8009C6.2227 13.7889 6.18784 13.7889 6.1562 13.8009C6.11014 13.7895 6.06204 13.7895 6.01598 13.8009C5.93187 13.8436 5.88278 13.9361 5.81269 14.0073H5.75661H5.72156C5.72156 13.8863 5.76363 13.7653 5.78467 13.6088C5.7211 13.5371 5.64794 13.4748 5.56736 13.4238L5.23088 13.2601L4.94345 13.1178L4.43876 12.883C4.08826 12.7264 3.73776 12.5841 3.36623 12.4347C3.24705 12.3777 3.12087 12.2354 3.01572 12.2568C2.74233 12.2995 2.53204 12.3279 2.31473 12.0432C2.09742 11.7587 1.90815 11.6946 1.7329 11.4883C1.67036 11.4018 1.58767 11.3325 1.49223 11.2866C1.3968 11.2406 1.29162 11.2194 1.18613 11.2249C1.12695 11.2131 1.0701 11.1915 1.01789 11.1609L1.13005 11.0613L0.632343 10.7197C0.605235 10.7093 0.57533 10.7093 0.548222 10.7197C0.377514 10.82 0.22369 10.9473 0.0925754 11.0968C0.0586721 11.1376 0.0331806 11.1849 0.0176129 11.2358C0.00204517 11.2868 -0.00328206 11.3404 0.00194815 11.3935C0.00717835 11.4466 0.0228591 11.4981 0.04806 11.545C0.0732611 11.5917 0.107469 11.633 0.148655 11.6661C0.534203 12.022 0.912744 12.3777 1.29829 12.7478C1.41611 12.8378 1.54914 12.9054 1.69084 12.947C1.85207 13.0039 2.10443 12.9968 2.17453 13.1107C2.41988 13.5376 2.87553 13.6088 3.24705 13.7653C3.61858 13.9219 3.85691 13.9006 4.15133 14.0002C4.44575 14.0998 4.5439 14.1781 4.74016 14.2635C4.81372 14.3028 4.8913 14.3338 4.97151 14.356H5.03458C5.12838 14.3761 5.21527 14.4209 5.28665 14.4858C5.358 14.5507 5.41129 14.6336 5.44116 14.726C5.44116 14.8043 5.6094 14.847 5.70053 14.9039V14.8541L5.6094 14.6477L6.02999 14.7047L6.27532 14.7402C6.33842 15.096 6.14918 15.5799 6.61883 15.8219H6.66792L6.77306 16.014C6.93428 16.3057 7.09553 16.5975 7.26377 16.8822H7.31982C7.3939 16.8639 7.46651 16.8401 7.53712 16.811C7.53712 16.811 7.57919 16.7683 7.58621 16.7185C7.59327 16.6687 7.58621 16.6687 7.62828 16.6687C7.62525 16.6546 7.62525 16.6401 7.62828 16.626C7.31958 15.6209 7.29771 14.5477 7.56518 13.5305Z" fill="#74A350"/>
<path id="Vector_57" d="M10.8314 14.4272C10.811 14.5069 10.7945 14.5877 10.7822 14.6691C10.7963 14.5908 10.8103 14.5055 10.8314 14.4272Z" fill="#74A350"/>
</g>
<defs>
<clipPath id="clip0_0_1397">
<rect width="88" height="20.8" fill="white"/>
</clipPath>
</defs>
</svg>
