<svg width="19" height="18" viewBox="0 0 19 18" fill="none" xmlns="http://www.w3.org/2000/svg">
<path fill-rule="evenodd" clip-rule="evenodd" d="M9.17822 16.5C13.3204 16.5 16.6782 13.1421 16.6782 9C16.6782 4.85786 13.3204 1.5 9.17822 1.5C5.03609 1.5 1.67822 4.85786 1.67822 9C1.67822 13.1421 5.03609 16.5 9.17822 16.5ZM7.29914 12.4229C7.0669 12.6266 6.71338 12.605 6.50781 12.3737C6.30142 12.1415 6.32233 11.786 6.55452 11.5796L6.76081 11.421C6.88256 11.3364 7.05725 11.2271 7.28048 11.1188C7.72698 10.9024 8.3733 10.6875 9.17823 10.6875C9.98316 10.6875 10.6295 10.9024 11.076 11.1188C11.2992 11.2271 11.4739 11.3364 11.5956 11.421C11.6566 11.4635 11.7046 11.4999 11.7391 11.5273L11.8019 11.5796C12.0341 11.786 12.055 12.1415 11.8486 12.3737C11.6431 12.605 11.2896 12.6266 11.0573 12.4229L10.9532 12.3446C10.8728 12.2886 10.7487 12.2104 10.5852 12.1311C10.2582 11.9726 9.77954 11.8125 9.17823 11.8125C8.57691 11.8125 8.09823 11.9726 7.77129 12.1311C7.60781 12.2104 7.48366 12.2886 7.40326 12.3446L7.29914 12.4229ZM12.9282 7.5C12.9282 7.91421 12.5924 8.25 12.1782 8.25C11.764 8.25 11.4282 7.91421 11.4282 7.5C11.4282 7.08579 11.764 6.75 12.1782 6.75C12.5924 6.75 12.9282 7.08579 12.9282 7.5ZM6.17822 8.25C6.59244 8.25 6.92822 7.91421 6.92822 7.5C6.92822 7.08579 6.59244 6.75 6.17822 6.75C5.76401 6.75 5.42822 7.08579 5.42822 7.5C5.42822 7.91421 5.76401 8.25 6.17822 8.25Z" fill="#F91818"/>
</svg>
