<svg width="16" height="16" viewBox="0 0 16 16" fill="none" xmlns="http://www.w3.org/2000/svg">
<path fill-rule="evenodd" clip-rule="evenodd" d="M12.1663 7.00065C12.1663 9.85412 9.85314 12.1673 6.99967 12.1673C4.1462 12.1673 1.83301 9.85412 1.83301 7.00065C1.83301 4.14718 4.1462 1.83398 6.99967 1.83398C9.85314 1.83398 12.1663 4.14718 12.1663 7.00065ZM6.99967 13.1673C10.4054 13.1673 13.1663 10.4064 13.1663 7.00065C13.1663 3.59489 10.4054 0.833984 6.99967 0.833984C3.59392 0.833984 0.833008 3.59489 0.833008 7.00065C0.833008 10.4064 3.59392 13.1673 6.99967 13.1673ZM14.2806 14.2817C13.7665 14.7958 12.933 14.7958 12.4189 14.2817L11.1703 13.0331C11.8971 12.5296 12.5285 11.8982 13.0319 11.1715L14.2805 12.4201C14.7946 12.9341 14.7946 13.7676 14.2806 14.2817Z" fill="#28303F"/>
</svg>
