<svg width="16" height="16" viewBox="0 0 16 16" fill="none" xmlns="http://www.w3.org/2000/svg">
<path fill-rule="evenodd" clip-rule="evenodd" d="M7.99991 0.833984C6.6192 0.833984 5.49991 1.95327 5.49991 3.33398V4.00105C4.23664 4.0228 3.15902 4.92987 2.92539 6.17588L1.92539 11.5092C1.61768 13.1503 2.87668 14.6673 4.54638 14.6673H11.4534C13.1231 14.6673 14.3821 13.1503 14.0744 11.5092L13.0744 6.17588C12.8408 4.92987 11.7632 4.0228 10.4999 4.00105V3.33398C10.4999 1.95327 9.38062 0.833984 7.99991 0.833984ZM9.49991 4.00065V3.33398C9.49991 2.50556 8.82834 1.83398 7.99991 1.83398C7.17149 1.83398 6.49991 2.50556 6.49991 3.33398V4.00065H9.49991Z" fill="#FFFFFF"/>
</svg>
