<svg width="26" height="26" viewBox="0 0 26 26" fill="none" xmlns="http://www.w3.org/2000/svg">
<g id="Huge-icon/interface/solid/shopping bag">
<path id="Union" fill-rule="evenodd" clip-rule="evenodd" d="M12.9994 1.35432C10.7557 1.35432 8.93687 3.17317 8.93687 5.41682V6.50081C6.88405 6.53616 5.13292 8.01014 4.75327 10.0349L3.12827 18.7016C2.62825 21.3684 4.67412 23.8335 7.38739 23.8335H18.6114C21.3246 23.8335 23.3705 21.3684 22.8705 18.7016L21.2455 10.0349C20.8658 8.01014 19.1147 6.53616 17.0619 6.50081V5.41682C17.0619 3.17317 15.243 1.35432 12.9994 1.35432ZM15.4369 6.50016V5.41682C15.4369 4.07063 14.3456 2.97932 12.9994 2.97932C11.6532 2.97932 10.5619 4.07063 10.5619 5.41682V6.50016H15.4369Z" fill="#3075FC"/>
</g>
</svg>
