<svg width="18" height="18" viewBox="0 0 18 18" fill="none" xmlns="http://www.w3.org/2000/svg">
<path fill-rule="evenodd" clip-rule="evenodd" d="M9.00049 16.5C13.1426 16.5 16.5005 13.1421 16.5005 9C16.5005 4.85786 13.1426 1.5 9.00049 1.5C4.85835 1.5 1.50049 4.85786 1.50049 9C1.50049 13.1421 4.85835 16.5 9.00049 16.5ZM7.1214 10.8271C6.88916 10.6234 6.53564 10.645 6.33008 10.8763C6.12368 11.1085 6.1446 11.464 6.37679 11.6704L6.58308 11.829C6.70483 11.9136 6.87951 12.0229 7.10275 12.1311C7.54925 12.3476 8.19556 12.5625 9.00049 12.5625C9.80543 12.5625 10.4517 12.3476 10.8982 12.1311C11.1215 12.0229 11.2962 11.9136 11.4179 11.829C11.4789 11.7865 11.5269 11.7501 11.5614 11.7227L11.6242 11.6704C11.8564 11.464 11.8773 11.1085 11.6709 10.8763C11.4653 10.645 11.1118 10.6234 10.8796 10.8271L10.7755 10.9054C10.6951 10.9614 10.5709 11.0396 10.4074 11.1189C10.0805 11.2774 9.60181 11.4375 9.00049 11.4375C8.39918 11.4375 7.92049 11.2774 7.59355 11.1189C7.43007 11.0396 7.30592 10.9614 7.22553 10.9054L7.1214 10.8271ZM12.7505 7.5C12.7505 7.91421 12.4147 8.25 12.0005 8.25C11.5863 8.25 11.2505 7.91421 11.2505 7.5C11.2505 7.08579 11.5863 6.75 12.0005 6.75C12.4147 6.75 12.7505 7.08579 12.7505 7.5ZM6.00049 8.25C6.4147 8.25 6.75049 7.91421 6.75049 7.5C6.75049 7.08579 6.4147 6.75 6.00049 6.75C5.58627 6.75 5.25049 7.08579 5.25049 7.5C5.25049 7.91421 5.58627 8.25 6.00049 8.25Z" fill="#3075FC"/>
</svg>
