<svg width="14" height="14" viewBox="0 0 14 14" fill="none" xmlns="http://www.w3.org/2000/svg">
<path d="M5.85231 1.90767C6.32171 0.918798 7.67796 0.918796 8.14736 1.90767L8.95861 3.6167C9.14501 4.00939 9.50532 4.28156 9.92212 4.34453L11.7361 4.61859C12.7857 4.77716 13.2048 6.11825 12.4453 6.88798L11.1327 8.21828C10.8311 8.52394 10.6935 8.96433 10.7647 9.39593L11.0745 11.2743C11.2538 12.3612 10.1566 13.1901 9.21781 12.6769L7.59532 11.79C7.22252 11.5863 6.77715 11.5863 6.40435 11.79L4.78187 12.6769C3.84307 13.1901 2.74583 12.3612 2.92513 11.2743L3.235 9.39593C3.3062 8.96433 3.16857 8.52394 2.86697 8.21828L1.55435 6.88798C0.794843 6.11825 1.21395 4.77716 2.26356 4.61859L4.07755 4.34453C4.49436 4.28156 4.85467 4.00939 5.04107 3.6167L5.85231 1.90767Z" fill="#D9D9D9"/>
</svg>
