<svg width="12" height="10" viewBox="0 0 12 10" fill="none" xmlns="http://www.w3.org/2000/svg">
<path d="M6.35548 0.32761L7.52913 2.6807C7.61377 2.85189 7.77888 2.97101 7.97042 2.99906L10.5994 3.38202C10.7539 3.4037 10.8933 3.48501 10.9867 3.60797C11.0801 3.73093 11.1198 3.8854 11.097 4.03719C11.0788 4.16301 11.0195 4.2796 10.928 4.3694L9.022 6.21496C8.88241 6.34544 8.8189 6.53614 8.853 6.72249L9.32246 9.32012C9.3743 9.63088 9.16698 9.92634 8.853 9.98914C8.7245 10.0093 8.59281 9.98829 8.47743 9.92916L6.13014 8.70647C5.95631 8.6186 5.75001 8.6186 5.57618 8.70647L3.22889 9.92916C2.93976 10.0829 2.57854 9.97766 2.42142 9.69385C2.36189 9.58024 2.34052 9.45102 2.36039 9.32473L2.82985 6.7271C2.86395 6.54076 2.80044 6.35005 2.66085 6.21957L0.754846 4.37401C0.643028 4.26563 0.580078 4.11772 0.580078 3.96337C0.580078 3.80902 0.643028 3.66111 0.754846 3.55273C0.844926 3.46108 0.9642 3.40246 1.09286 3.38663L3.72182 3.00368C3.91336 2.97562 4.07847 2.8565 4.16311 2.68532L5.29451 0.32761C5.39345 0.126499 5.60244 0.000376433 5.82969 0.0046365H5.90011C6.09786 0.0292922 6.26936 0.150926 6.35548 0.32761Z" fill="black"/>
<path d="M5.84455 8.63738C5.74173 8.63671 5.64504 8.67056 5.55356 8.7167L3.21368 9.9364C2.93305 10.0778 2.57669 9.96418 2.4222 9.69396C2.3624 9.58211 2.34099 9.45425 2.36117 9.32946L2.83063 6.73645C2.86215 6.5489 2.79915 6.35797 2.66162 6.2243L0.750929 4.37874C0.520524 4.15181 0.520524 3.78439 0.750929 3.55746C0.841051 3.46842 0.957898 3.41019 1.08424 3.39136L3.7226 3.00379C3.92591 2.97428 4.07123 2.86187 4.16389 2.68543L5.31004 0.300703C5.39739 0.106709 5.69105 -0.0273528 5.84924 0.00475296C5.84455 0.161626 5.84455 8.53126 5.84455 8.63738Z" fill="black"/>
</svg>
