<svg width="40" height="40" viewBox="0 0 40 40" fill="none" xmlns="http://www.w3.org/2000/svg">
<g id="Huge-icon/interface/solid/star">
<path id="Star 2" d="M16.722 5.453C18.0631 2.62765 21.9381 2.62764 23.2793 5.453L25.5971 10.3359C26.1297 11.4579 27.1592 12.2355 28.35 12.4155L33.5329 13.1985C36.5318 13.6515 37.7292 17.4832 35.5592 19.6825L31.8088 23.4833C30.9471 24.3566 30.5539 25.6149 30.7573 26.848L31.6427 32.2149C32.1549 35.3203 29.02 37.6884 26.3377 36.2222L21.702 33.6883C20.6369 33.1061 19.3644 33.1061 18.2993 33.6883L13.6636 36.2222C10.9813 37.6884 7.84636 35.3203 8.35863 32.2149L9.24396 26.848C9.44739 25.6149 9.05417 24.3566 8.19245 23.4833L4.44211 19.6825C2.27209 17.4832 3.46953 13.6515 6.46842 13.1985L11.6513 12.4155C12.8421 12.2355 13.8716 11.4579 14.4042 10.3359L16.722 5.453Z" fill="white"/>
</g>
</svg>
