<svg width="12" height="12" viewBox="0 0 12 12" fill="none" xmlns="http://www.w3.org/2000/svg">
<g id="Huge-icon/interface/solid/star">
<path id="Star 2" d="M4.88487 1.99309C5.25427 1.21487 6.3216 1.21487 6.69101 1.99309L7.32944 3.33805C7.47613 3.64708 7.75968 3.86127 8.08769 3.91083L9.51526 4.1265C10.3413 4.2513 10.6711 5.3067 10.0734 5.91245L9.04039 6.95936C8.80304 7.19991 8.69473 7.54648 8.75076 7.88614L8.99462 9.36439C9.13572 10.2197 8.27223 10.872 7.53342 10.4682L6.25657 9.77024C5.96319 9.60987 5.61269 9.60987 5.31931 9.77024L4.04246 10.4682C3.30365 10.872 2.44016 10.2197 2.58126 9.3644L2.82511 7.88614C2.88114 7.54648 2.77284 7.19991 2.53548 6.95936L1.50249 5.91245C0.904778 5.3067 1.2346 4.2513 2.06062 4.1265L3.48818 3.91083C3.81619 3.86127 4.09975 3.64708 4.24644 3.33805L4.88487 1.99309Z" fill="#A230FC"/>
</g>
</svg>
