<svg width="11" height="10" viewBox="0 0 11 10" fill="none" xmlns="http://www.w3.org/2000/svg">
<path d="M5.88087 0.32761L7.05452 2.6807C7.13916 2.85189 7.30427 2.97101 7.49581 2.99906L10.1248 3.38202C10.2793 3.4037 10.4187 3.48501 10.5121 3.60797C10.6055 3.73093 10.6452 3.8854 10.6224 4.03719C10.6042 4.16301 10.5449 4.2796 10.4534 4.3694L8.54739 6.21496C8.4078 6.34544 8.34429 6.53614 8.37839 6.72249L8.84785 9.32012C8.8997 9.63088 8.69237 9.92634 8.37839 9.98914C8.2499 10.0093 8.1182 9.98829 8.00282 9.92916L5.65553 8.70647C5.4817 8.6186 5.2754 8.6186 5.10157 8.70647L2.75428 9.92916C2.46515 10.0829 2.10393 9.97766 1.94681 9.69385C1.88728 9.58024 1.86591 9.45102 1.88578 9.32473L2.35524 6.7271C2.38934 6.54076 2.32583 6.35005 2.18624 6.21957L0.280237 4.37401C0.168419 4.26563 0.105469 4.11772 0.105469 3.96337C0.105469 3.80902 0.168419 3.66111 0.280237 3.55273C0.370316 3.46108 0.48959 3.40246 0.618246 3.38663L3.24721 3.00368C3.43875 2.97562 3.60386 2.8565 3.6885 2.68532L4.8199 0.32761C4.91884 0.126499 5.12783 0.000376433 5.35508 0.0046365H5.4255C5.62325 0.0292922 5.79475 0.150926 5.88087 0.32761Z" fill="#D9D9D9"/>
<path d="M5.36994 8.63738C5.26712 8.63671 5.17043 8.67056 5.07895 8.7167L2.73907 9.9364C2.45844 10.0778 2.10208 9.96418 1.94759 9.69396C1.88779 9.58211 1.86639 9.45425 1.88656 9.32946L2.35602 6.73645C2.38754 6.5489 2.32454 6.35797 2.18701 6.2243L0.276319 4.37874C0.0459144 4.15181 0.0459144 3.78439 0.276319 3.55746C0.366441 3.46842 0.483289 3.41019 0.609635 3.39136L3.24799 3.00379C3.4513 2.97428 3.59662 2.86187 3.68928 2.68543L4.83543 0.300703C4.92278 0.106709 5.21644 -0.0273528 5.37463 0.00475296C5.36994 0.161626 5.36994 8.53126 5.36994 8.63738Z" fill="#D9D9D9"/>
</svg>
