<svg width="14" height="14" viewBox="0 0 14 14" fill="none" xmlns="http://www.w3.org/2000/svg">
<path fill-rule="evenodd" clip-rule="evenodd" d="M3.50081 12.25C2.21215 12.25 1.16748 11.2053 1.16748 9.91667V9.33333C1.16748 9.01117 1.43582 8.75952 1.74025 8.65412C2.42546 8.41689 2.91748 7.7659 2.91748 7C2.91748 6.2341 2.42546 5.58311 1.74025 5.34588C1.43582 5.24048 1.16748 4.98883 1.16748 4.66667V4.08333C1.16748 2.79467 2.21215 1.75 3.50081 1.75H5.83415H10.5008C11.7895 1.75 12.8341 2.79467 12.8341 4.08333V4.66667C12.8341 4.98883 12.5658 5.24048 12.2614 5.34588C11.5762 5.58311 11.0841 6.2341 11.0841 7C11.0841 7.7659 11.5762 8.41689 12.2614 8.65412C12.5658 8.75952 12.8341 9.01117 12.8341 9.33333V9.91667C12.8341 11.2053 11.7895 12.25 10.5008 12.25H5.83415H3.50081ZM6.27165 3.5C6.27165 3.25838 6.07577 3.0625 5.83415 3.0625C5.59252 3.0625 5.39665 3.25838 5.39665 3.5V4.66667C5.39665 4.90829 5.59252 5.10417 5.83415 5.10417C6.07577 5.10417 6.27165 4.90829 6.27165 4.66667V3.5ZM5.83415 8.89583C6.07577 8.89583 6.27165 9.09171 6.27165 9.33333V10.5C6.27165 10.7416 6.07577 10.9375 5.83415 10.9375C5.59252 10.9375 5.39665 10.7416 5.39665 10.5V9.33333C5.39665 9.09171 5.59252 8.89583 5.83415 8.89583ZM6.27165 6.41667C6.27165 6.17504 6.07577 5.97917 5.83415 5.97917C5.59252 5.97917 5.39665 6.17504 5.39665 6.41667V7.58333C5.39665 7.82496 5.59252 8.02083 5.83415 8.02083C6.07577 8.02083 6.27165 7.82496 6.27165 7.58333V6.41667Z" fill="#48455C"/>
</svg>
