<svg width="72" height="21" viewBox="0 0 72 21" fill="none" xmlns="http://www.w3.org/2000/svg">
<g clip-path="url(#clip0_34_3874)">
<path d="M0.136854 0.2146C-0.00188809 0.425365 -0.031097 0.517336 0.0309719 0.544161C0.0492275 0.547993 0.191621 0.846899 0.344968 1.20712C0.501966 1.5635 0.684522 1.98887 0.753893 2.14599C0.97296 2.63266 1.04598 2.81277 1.07519 2.90475C1.0898 2.95456 1.26505 3.35694 1.46221 3.80146C1.65937 4.24215 1.82367 4.61004 1.82367 4.6177C1.82367 4.62536 1.96606 4.94343 2.13767 5.32664C2.30927 5.70985 2.49548 6.14672 2.55389 6.29617C2.60866 6.44945 2.85694 7.02044 3.10156 7.56843C3.66383 8.82537 3.93036 9.4385 4.01434 9.65693C4.08371 9.84088 4.64963 11.1323 4.91251 11.7148L5.07316 12.0712V16.3708L5.07681 20.6743L5.22286 20.8352L5.3689 21H6.71617H8.06343L8.20947 20.8352L8.35552 20.6743L8.35917 16.4206V12.1708L8.4833 11.8796C8.55268 11.7224 8.73158 11.2971 8.88493 10.9407C9.03462 10.5805 9.33767 9.8792 9.56038 9.38102C9.77945 8.87901 10.0533 8.25055 10.1592 7.9823C10.2687 7.71405 10.4732 7.2312 10.6156 6.91697C11.2545 5.4761 11.6087 4.67135 11.6087 4.65219C11.6087 4.62536 11.7985 4.17318 11.9665 3.7938C12.6675 2.2188 13.3977 0.513504 13.3977 0.448359C13.3977 0.429197 13.3502 0.341059 13.2882 0.249088C13.2298 0.157118 13.1786 0.0651455 13.1786 0.0421543C13.1786 0.0114975 12.7186 0 11.678 0C10.4038 0 10.1701 0.00766373 10.1263 0.0574818C10.0971 0.0881386 10.0496 0.126461 10.0241 0.141788C9.97661 0.172445 9.83422 0.467518 9.47276 1.30292C9.36688 1.54434 9.18067 1.95821 9.06018 2.22263C8.83381 2.72464 8.61475 3.23814 8.61475 3.27263C8.61475 3.28412 8.54172 3.45274 8.4541 3.64818C8.36647 3.84361 8.18026 4.26131 8.03787 4.57938C7.89913 4.89361 7.62894 5.50675 7.43909 5.93978C7.24923 6.37281 7.0046 6.93613 6.89872 7.19288L6.70521 7.65657L6.54456 7.28869C5.94578 5.91679 5.63543 5.19635 5.54781 4.96259C5.49304 4.81314 5.33604 4.44526 5.20095 4.13869C5.06586 3.83212 4.83219 3.29945 4.68249 2.95073C4.5328 2.60201 4.3612 2.2073 4.29913 2.06934C4.24071 1.93139 4.13118 1.67463 4.0618 1.49453C3.99243 1.31442 3.83543 0.942701 3.71495 0.662956C3.53239 0.249088 3.47397 0.149452 3.38635 0.111132C3.33158 0.0881386 3.28412 0.0536499 3.28412 0.0344887C3.28412 0.0153294 2.61961 0 1.77986 0L0.271946 0.00383186L0.136854 0.2146Z" fill="white"/>
<path d="M16.0191 0.172445L15.8804 0.333395V10.5038L15.884 20.6743L16.0301 20.8352L16.1761 21H21.5542H26.9323L27.1002 20.8391L27.2719 20.6781V19.2947V17.9113L27.1112 17.7695L26.9469 17.6277H23.0585H19.1664V14.9069V12.1861H22.7554H26.3445L26.5161 12.0022L26.6877 11.8182V10.477V9.13577L26.5124 8.95566L26.3372 8.77555H22.7518H19.1664V6.0739V3.37226H23.0658L26.9615 3.36843L27.1185 3.21515L27.2719 3.06186V1.68996V0.321898L27.1002 0.16095L26.9323 0L21.5433 0.00383186L16.1542 0.00766373L16.0191 0.172445Z" fill="white"/>
<path d="M30.4044 0.172447L30.2656 0.333395V10.5038L30.2693 20.6743L30.4153 20.8352L30.5614 21H35.9577H41.3577L41.5074 20.8429L41.6571 20.6858V19.2947V17.9036L41.5038 17.7657L41.3504 17.6277H37.451H33.5516V14.9069V12.1861H37.1407H40.7297L40.8831 12.0214L41.0364 11.8566V10.477V9.09745L40.8794 8.9365L40.7224 8.77555H37.137H33.5516V6.07391V3.37226H37.4437H41.3395L41.4965 3.23431L41.6571 3.10018V1.70529V0.310404L41.5038 0.157118L41.3468 0.00383377H35.9431L30.5395 0.00766563L30.4044 0.172447Z" fill="white"/>
<path d="M45.0966 0.164782L44.9432 0.325729V1.71679V3.10402L45.0929 3.24964L45.2463 3.39142L48.6163 3.41058L51.9862 3.42974L51.8402 3.69799C51.7562 3.84361 51.581 4.1885 51.4495 4.46442C51.1428 5.10438 50.6353 6.11223 50.2556 6.84033C49.9197 7.48412 49.7152 7.89416 49.7043 7.95164C49.7006 7.97464 49.6057 8.16624 49.4889 8.38467L49.2808 8.77555H47.6816H46.0824L45.9327 8.95183L45.783 9.13193V10.4962V11.8566L45.9363 12.0214L46.0897 12.1861H46.8528H47.6122L47.4406 12.5195C47.3457 12.7073 47.2069 12.9679 47.1339 13.1058C47.0572 13.2438 46.8564 13.6385 46.6885 13.9872C46.5169 14.3359 46.1591 15.0411 45.8925 15.5584C45.626 16.0757 45.2536 16.8077 45.071 17.187C44.8885 17.5664 44.7023 17.9381 44.6584 18.0109C44.5818 18.1412 44.5781 18.1796 44.5781 19.4097L44.5818 20.6743L44.7278 20.8391L44.8739 21H50.4236H55.9733L56.1376 20.8391L56.2982 20.6819V19.287V17.896L56.1485 17.7504L55.9952 17.6086L52.2418 17.5894L48.4848 17.5703L48.8317 16.8996C49.0215 16.5318 49.3173 15.9454 49.4852 15.5967C49.8759 14.7843 50.5221 13.4929 50.8544 12.8568C50.9968 12.5808 51.1246 12.3203 51.1355 12.2704L51.1574 12.1861H52.7895H54.4215L54.5749 12.0214L54.7282 11.8566V10.5V9.1396L54.5785 8.95949L54.4325 8.77555L53.6329 8.76788L52.8369 8.75639L53.129 8.18157C53.2897 7.8635 53.5453 7.36533 53.6986 7.07026C53.852 6.77518 54.1002 6.27318 54.2536 5.95894C54.4069 5.64088 54.7282 5.00474 54.9655 4.54106C55.2029 4.07737 55.5096 3.4719 55.6483 3.19982L55.8929 2.70164V1.51369V0.325729L55.7469 0.16095L55.6008 0H50.4272L45.2536 0.00383186L45.0966 0.164782Z" fill="white"/>
<path d="M58.7155 0.203102C58.6497 0.314234 58.5986 0.425365 58.5986 0.448359C58.5986 0.471352 58.6388 0.582481 58.6863 0.693613C58.7337 0.808577 58.8396 1.06533 58.9199 1.2646C59.0003 1.46387 59.1609 1.83558 59.2741 2.0885C59.3873 2.34142 59.5625 2.73613 59.6648 2.96989C59.767 3.19982 59.9167 3.54471 60.0043 3.73631C60.0883 3.92409 60.1978 4.18467 60.2526 4.31113C60.5264 4.97792 60.8076 5.62555 61.556 7.30018C61.64 7.48796 61.7678 7.79069 61.8372 7.9708C61.9102 8.15091 62.1402 8.68358 62.3483 9.15876C62.9289 10.4617 63.3305 11.3891 63.3633 11.4925C63.3779 11.5462 63.4473 11.7071 63.513 11.8566L63.6372 12.1248V16.4015L63.6408 20.6743L63.7869 20.8352L63.9329 21H65.2802H66.6311L66.7589 20.8544L66.883 20.7126L66.8867 16.4513V12.1938L67.0656 11.7953C67.4197 11.0058 67.9199 9.86387 67.9637 9.73358C68.0149 9.58412 68.296 8.92883 68.4384 8.6146C68.5917 8.28887 69.4278 6.35365 69.479 6.20803C69.5082 6.13522 69.6725 5.74818 69.8514 5.35347C70.0266 4.95493 70.1727 4.62536 70.1727 4.6177C70.1727 4.61004 70.3224 4.27281 70.5049 3.86277C70.6875 3.45657 70.8773 3.01588 70.9248 2.88558C70.9723 2.75529 71.1329 2.37208 71.2863 2.03102C71.436 1.68996 71.5601 1.40639 71.5601 1.39872C71.5601 1.39106 71.6587 1.16496 71.7792 0.900547L72.0019 0.421534L71.9069 0.314234C71.8558 0.256752 71.7938 0.164782 71.7682 0.103468L71.7244 0H70.2201C69.3913 0 68.7122 0.0153294 68.7122 0.0306568C68.7122 0.049818 68.6721 0.0843067 68.6209 0.1073C68.526 0.153286 68.2339 0.743431 68.0003 1.3604C67.9455 1.50602 67.8177 1.80876 67.7155 2.03102C67.6169 2.25328 67.4489 2.63266 67.3431 2.87409C67.2372 3.11551 67.0619 3.51405 66.9487 3.75547C66.6676 4.38011 66.4814 4.80164 66.4704 4.84763C66.4595 4.89361 66.4193 4.98942 66.0542 5.82482C65.8936 6.1927 65.6562 6.7292 65.5285 7.01277C65.397 7.29635 65.2838 7.55693 65.2729 7.58759C65.2546 7.64124 65.0027 7.12774 64.9333 6.89398C64.9187 6.84416 64.7581 6.46478 64.5755 6.05474C63.9439 4.61387 63.4838 3.54088 63.3816 3.27646C63.3268 3.12701 63.1771 2.77445 63.053 2.49088C62.9289 2.2073 62.6988 1.67847 62.5418 1.32208C62.3848 0.961863 62.2059 0.551825 62.1439 0.410036C62.0672 0.241425 61.9978 0.134125 61.9394 0.1073C61.8883 0.0843067 61.8481 0.049818 61.8481 0.0306568C61.8481 0.0153294 61.169 0 60.3402 0H58.8323L58.7155 0.203102Z" fill="white"/>
</g>
<defs>
<clipPath id="clip0_34_3874">
<rect width="72" height="21" fill="white"/>
</clipPath>
</defs>
</svg>
