<svg width="26" height="26" fill="none" xmlns="http://www.w3.org/2000/svg"><g clip-path="url(#clip0_18_7187)"><path d="M24.917 13l-2.644-3.012.369-3.992-3.911-.883-2.048-3.445L13 3.25 9.317 1.668 7.269 5.113l-3.91.883.368 3.992L1.084 13l2.643 3.012-.369 3.992 3.911.883 2.048 3.445L13 22.75l3.683 1.582 2.048-3.445 3.91-.883-.367-3.992L24.916 13zm-10.834 5.417h-2.166V16.25h2.167v2.167zm0-4.334h-2.166v-6.5h2.167v6.5z" fill="#3075FC"/></g><defs><clipPath id="clip0_18_7187"><path fill="#fff" d="M0 0h26v26H0z"/></clipPath></defs></svg>