<svg width="35" height="23" viewBox="0 0 35 23" fill="none" xmlns="http://www.w3.org/2000/svg">
<g clip-path="url(#clip0_234_1751)">
<path d="M12.9816 12.7752L12.9675 9.32745L16.293 8.10288L12.944 7.01414L12.8738 3.61719L10.8423 6.35795L7.51904 5.341L9.44811 8.21808L7.56516 11.1004L10.8451 10.0214L12.9816 12.7752Z" fill="#48455C"/>
<path d="M13.397 16.4H19.3535L26.8187 8.205L19.3175 0H13.4184L20.4342 8.19295L13.397 16.4Z" fill="#48455C"/>
<path d="M0.132812 20.8115C0.132812 19.7465 1.03984 18.6992 2.27948 18.6992C3.12387 18.6992 4.07148 19.6442 4.07148 19.6442L3.04481 20.2371C3.04481 20.2371 2.87522 19.7924 2.24214 19.7924C1.59859 19.7924 1.21992 20.317 1.21548 20.793C1.21051 21.3251 1.65001 21.7936 2.20481 21.7936C2.64011 21.7936 3.10081 21.3303 3.10081 21.3303L3.97814 21.9603C3.97814 21.9603 3.32163 22.7571 2.22348 22.7571C1.12315 22.7571 0.132812 22.0984 0.132812 20.8115Z" fill="#48455C"/>
<path fill-rule="evenodd" clip-rule="evenodd" d="M6.53382 18.7539C5.37918 18.7539 4.44482 19.6694 4.44482 20.795C4.44482 21.9207 5.37918 22.8326 6.53382 22.8326C7.68846 22.8326 8.62645 21.9207 8.62645 20.795C8.62645 19.6694 7.68846 18.7539 6.53382 18.7539ZM6.53382 19.7745C7.11114 19.7745 7.58013 20.2322 7.58013 20.795C7.58013 21.3579 7.11114 21.812 6.53382 21.812C5.9565 21.812 5.49114 21.3579 5.49114 20.795C5.49114 20.2322 5.9565 19.7745 6.53382 19.7745Z" fill="#48455C"/>
<path fill-rule="evenodd" clip-rule="evenodd" d="M9.41113 18.8105V22.6259H10.4175V20.5639L12.0778 22.6259H13.0696V18.8105H12.0596V21.0403L10.4175 18.8105H9.41113Z" fill="#48455C"/>
<path fill-rule="evenodd" clip-rule="evenodd" d="M13.8906 18.8105L15.2494 22.6259H16.7462L18.1049 18.8105H17.0041L15.9978 21.8398L14.9914 18.8105H13.8906Z" fill="#48455C"/>
<path fill-rule="evenodd" clip-rule="evenodd" d="M18.8281 18.8105V22.6259H21.9198V21.746H19.8345V21.1077H21.7091V20.3288H19.8345V19.7193H21.9198V18.8105H18.8281Z" fill="#48455C"/>
<path fill-rule="evenodd" clip-rule="evenodd" d="M31.2881 18.8105V22.6259H34.3798V21.746H32.2944V21.1077H34.1691V20.3288H32.2944V19.7193H34.3798V18.8105H31.2881Z" fill="#48455C"/>
<path fill-rule="evenodd" clip-rule="evenodd" d="M23.0566 18.8828V22.6441H23.9504V21.162H24.4626L25.2474 22.6441H26.399L25.6216 21.0357C26.6324 20.4341 26.4323 19.175 25.3055 18.8828H23.0566ZM23.9322 19.7916H24.964C25.3225 19.7916 25.2992 20.3433 24.964 20.3433H23.9322V19.7916Z" fill="#48455C"/>
<path d="M26.9365 22.1174C26.9761 22.3532 27.9128 22.7987 28.8372 22.7987C29.6861 22.7987 30.3683 22.3941 30.3683 21.591C30.3683 20.6034 29.2068 20.3748 29.2068 20.3748C29.2068 20.3748 28.2418 20.3613 28.2169 19.9162C28.2051 19.7068 28.4991 19.5887 28.758 19.5887C29.182 19.5887 29.6556 20.0079 29.6556 20.0079L30.3287 19.2873C30.3287 19.2873 29.477 18.6191 28.758 18.6191C28.0715 18.6191 27.0949 19.0655 27.0949 19.9948C27.0949 20.7856 28.2253 21.1493 28.2253 21.1493C28.2253 21.1493 29.418 21.2754 29.418 21.6457C29.418 21.8977 28.9855 21.9732 28.7316 21.9732C28.1154 21.9732 27.5965 21.4361 27.5965 21.4361L26.9365 22.1174Z" fill="#48455C"/>
</g>
<defs>
<clipPath id="clip0_234_1751">
<rect width="34.2471" height="22.8314" fill="white" transform="translate(0.132812)"/>
</clipPath>
</defs>
</svg>
