<svg width="44" height="23" viewBox="0 0 44 23" fill="none" xmlns="http://www.w3.org/2000/svg">
<g clip-path="url(#clip0_34_3945)">
<mask id="mask0_34_3945" style="mask-type:luminance" maskUnits="userSpaceOnUse" x="0" y="0" width="44" height="23">
<path d="M0.590332 22.6934H43.1141V0.138193H0.590332V22.6934Z" fill="white"/>
</mask>
<g mask="url(#mask0_34_3945)">
<path d="M0.590332 22.5684H1.54331V20.7369C1.54331 20.4108 1.54331 20.0084 1.71591 19.7727C1.88765 19.5164 2.19608 19.4331 2.36825 19.4331C3.17112 19.4331 3.17112 20.3492 3.17112 20.6674V22.5684H4.12367V20.4874C4.12367 20.1884 4.12367 19.5441 3.75857 19.1212C3.42938 18.7322 2.90552 18.5856 2.56205 18.5856C1.95946 18.5856 1.62983 18.906 1.47237 19.0517V18.7175H0.590332V22.5684Z" fill="#48455C"/>
<path fill-rule="evenodd" clip-rule="evenodd" d="M8.45785 21.0558C8.4851 20.9315 8.51495 20.7715 8.51495 20.5915C8.51495 19.6209 7.719 18.5645 6.45758 18.5645C5.23164 18.5645 4.36475 19.5648 4.36475 20.6534C4.36475 21.7768 5.28226 22.6934 6.46494 22.6934C7.39672 22.6934 8.15591 22.049 8.38561 21.3548H7.38158C7.20293 21.6738 6.88801 21.8467 6.46494 21.8467C5.78405 21.8467 5.41117 21.3058 5.36791 21.0558H8.45785ZM5.33936 20.3134C5.51845 19.5987 6.11368 19.4116 6.46494 19.4116C6.93818 19.4116 7.4322 19.6959 7.53991 20.3134H5.33936Z" fill="#48455C"/>
<path d="M9.73821 22.5684H10.3248L11.0779 20.0712H11.0918L11.838 22.5684H12.4254L13.8802 18.7175H12.8628L12.1308 21.0698H12.117L11.4711 18.7175H10.7124L10.0601 21.0698H10.0458L9.32207 18.7175H8.3042L9.73821 22.5684Z" fill="#48455C"/>
<path fill-rule="evenodd" clip-rule="evenodd" d="M15.7251 22.5682H16.5989V22.1034C16.8347 22.3605 17.173 22.6934 17.9399 22.6934C19.3943 22.6934 19.9177 21.3962 19.9177 20.6254C19.9177 19.6067 19.1295 18.5855 17.9183 18.5855C17.4736 18.5855 17.0073 18.7458 16.6776 19.0653V17.4344H15.7251V22.5682ZM16.6201 20.5915C16.6201 20.0296 17.0717 19.4329 17.8028 19.4329C18.4054 19.4329 18.9647 19.883 18.9647 20.6333C18.9647 21.3816 18.4413 21.8472 17.8175 21.8472C17.2586 21.8472 16.6201 21.4448 16.6201 20.5915Z" fill="#48455C"/>
<path fill-rule="evenodd" clip-rule="evenodd" d="M24.3673 18.7173H23.4922V19.2043H23.4779C23.4489 19.1482 22.9683 18.585 22.1594 18.585C21.0559 18.585 20.1665 19.4388 20.1665 20.6191C20.1665 21.902 21.0771 22.6934 22.1023 22.6934C22.6032 22.6934 23.1916 22.4359 23.4922 22.0908V22.5682H24.3673V18.7173ZM23.4645 20.6333C23.4645 21.3476 22.9619 21.8467 22.3022 21.8467C21.6217 21.8467 21.1195 21.3125 21.1195 20.6606C21.1195 20.0848 21.5209 19.4329 22.3022 19.4329C22.8689 19.4329 23.4645 19.8349 23.4645 20.6333Z" fill="#48455C"/>
<path d="M25.827 17.4346H24.874V22.5684H25.827V17.4346Z" fill="#48455C"/>
<path fill-rule="evenodd" clip-rule="evenodd" d="M30.3137 18.7173H29.4394V19.2043H29.4247C29.3957 19.1482 28.9151 18.585 28.1062 18.585C27.0014 18.585 26.1133 19.4388 26.1133 20.6191C26.1133 21.902 27.0239 22.6934 28.0487 22.6934C28.55 22.6934 29.1375 22.4359 29.4394 22.0908V22.5682H30.3137V18.7173ZM29.4104 20.6333C29.4104 21.3476 28.9091 21.8467 28.2494 21.8467C27.5681 21.8467 27.0667 21.3125 27.0667 20.6606C27.0667 20.0848 27.4681 19.4329 28.2494 19.4329C28.8156 19.4329 29.4104 19.8349 29.4104 20.6333Z" fill="#48455C"/>
<path d="M30.8208 22.5684H31.7733V20.7369C31.7733 20.4108 31.7733 20.0084 31.946 19.7727C32.1177 19.5164 32.427 19.4331 32.5983 19.4331C33.4007 19.4331 33.4007 20.3492 33.4007 20.6674V22.5684H34.3546V20.4874C34.3546 20.1884 34.3546 19.5441 33.9882 19.1212C33.6585 18.7322 33.136 18.5856 32.7917 18.5856C32.1891 18.5856 31.8603 18.906 31.702 19.0517V18.7175H30.8208V22.5684Z" fill="#48455C"/>
<path d="M37.7415 21.3129C37.4902 21.7014 37.1757 21.8472 36.8603 21.8472C36.1427 21.8472 35.6629 21.2991 35.6629 20.64C35.6629 19.8491 36.2365 19.4329 36.8166 19.4329C37.4045 19.4329 37.6273 19.8005 37.7415 19.9944H38.8173C38.4085 18.8078 37.318 18.5855 36.8166 18.5855C35.72 18.5855 34.71 19.4471 34.71 20.6254C34.71 21.9024 35.8053 22.6934 36.8244 22.6934C37.7562 22.6934 38.4938 22.1729 38.8173 21.3129H37.7415Z" fill="#48455C"/>
<path fill-rule="evenodd" clip-rule="evenodd" d="M43.057 21.0558C43.0851 20.9315 43.1136 20.7715 43.1136 20.5915C43.1136 19.6209 42.3186 18.5645 41.0571 18.5645C39.8312 18.5645 38.9639 19.5648 38.9639 20.6534C38.9639 21.7768 39.8814 22.6934 41.0641 22.6934C41.9954 22.6934 42.7559 22.049 42.9847 21.3548H41.9816C41.802 21.6738 41.4876 21.8467 41.0641 21.8467C40.3827 21.8467 40.0103 21.3058 39.9683 21.0558H43.057ZM39.9389 20.3134C40.1184 19.5987 40.7128 19.4116 41.0641 19.4116C41.5377 19.4116 42.0317 19.6959 42.139 20.3134H39.9389Z" fill="#48455C"/>
<path fill-rule="evenodd" clip-rule="evenodd" d="M16.8134 9.80516L15.5395 11.9347L8.48791 11.5507L9.19389 10.3645L16.8134 9.80516ZM21.911 3.01964L22.5499 5.36983L12.5442 4.7334L13.2498 3.54763L21.911 3.01964ZM15.2777 0.138961L21.1345 0.143147L21.5766 1.75013L14.5731 1.32473L15.2777 0.138961ZM14.763 13.259L13.746 14.9514L6.45996 14.959L7.1655 13.7736L14.763 13.259ZM27.5549 8.69308L25.7912 11.6521H27.471C28.2492 11.6521 29.6438 11.2761 30.073 10.2033C30.4705 9.20641 29.7399 8.69182 29.2299 8.69182L27.5549 8.69308ZM29.2368 5.86264L30.7019 5.85385C31.677 5.84883 32.694 5.41714 33.066 4.54121C33.409 3.72851 32.9479 3.03639 32.3367 3.0389L30.9195 3.03723L29.2368 5.86264ZM22.6048 5.36983L24.0843 2.88566L29.0914 2.57456L29.2662 2.2731L24.6345 1.95949L25.7177 0.138961L34.3071 0.138543C36.9484 0.138543 38.9024 1.05257 38.1428 3.74065C37.9144 4.55503 36.8407 6.605 33.692 7.46377C34.3603 7.54081 36.0249 8.2547 35.7381 10.1054C35.2285 13.3872 30.8386 14.9494 28.3967 14.9502L18.2561 14.9548L17.7564 13.056L23.0677 12.6934L23.2481 12.3927L17.4874 12.0532L16.8666 9.80223L25.0636 9.33914L25.2419 9.04102L10.5154 8.14165L11.221 6.9563L27.0726 5.9602L27.2521 5.66166L22.6048 5.36983Z" fill="#48455C"/>
</g>
</g>
<defs>
<clipPath id="clip0_34_3945">
<rect width="42.8089" height="22.8314" fill="white" transform="translate(0.447754)"/>
</clipPath>
</defs>
</svg>
