<svg width="35" height="23" viewBox="0 0 35 23" fill="none" xmlns="http://www.w3.org/2000/svg">
<g clip-path="url(#clip0_34_3913)">
<path d="M22.4808 14.975L15.439 2.87334L20.4978 0L29.2543 14.975H22.4808Z" fill="#48455C"/>
<path d="M3.72412 13.2795L8.78298 10.3867L11.4597 14.975H4.70579L3.72412 13.2795Z" fill="#48455C"/>
<path d="M13.6523 22.6952H15.0921V16.9355H13.6523V22.6952Z" fill="#48455C"/>
<path d="M31.6953 22.8307C30.0854 22.8307 29.1168 22.0088 29.0645 20.8504H30.5828C30.5828 21.2128 30.8118 21.7435 31.7935 21.7629C32.4479 21.7629 32.7555 21.3811 32.7555 21.0964C32.7163 20.6434 32.1403 20.6045 31.5252 20.5075C30.91 20.4104 30.3864 20.3004 30.0069 20.1062C29.5226 19.8603 29.1953 19.3296 29.1953 18.7213C29.1953 17.6924 30.0985 16.877 31.6037 16.877C33.0631 16.877 33.9859 17.6341 34.084 18.7601H32.6181C32.605 18.456 32.5461 17.9771 31.6822 17.9771C31.0998 17.9771 30.7137 18.0936 30.6809 18.4948C30.6809 19.0837 31.8917 19.0449 32.8341 19.2908C33.7372 19.5173 34.3131 20.0739 34.3131 20.8504C34.3131 22.2806 33.1416 22.8307 31.6953 22.8307Z" fill="#48455C"/>
<path d="M9.65332 8.14019L14.7122 5.25391L20.3862 14.9741H15.0918V16.3978H13.652V14.9676L9.65332 8.14019Z" fill="#48455C"/>
<path fill-rule="evenodd" clip-rule="evenodd" d="M9.78418 22.831C8.1088 22.831 6.74756 21.4784 6.74756 19.8412C6.74756 18.1845 8.1088 16.8772 9.78418 16.8772C10.419 16.8772 10.9949 17.0455 11.4988 17.3885V14.9746H12.9386V22.6951H11.4988V22.3133C10.9949 22.6368 10.419 22.831 9.78418 22.831ZM8.12844 19.8412C8.12844 20.7342 8.90068 21.4784 9.82345 21.4784C10.7266 21.4784 11.4988 20.7342 11.4988 19.8412C11.4988 18.9481 10.7266 18.1845 9.82345 18.1845C8.90068 18.1845 8.12844 18.9481 8.12844 19.8412Z" fill="#48455C"/>
<path fill-rule="evenodd" clip-rule="evenodd" d="M20.4256 14.9746H21.8457V22.6951H20.4256V22.3133C19.9413 22.6368 19.3457 22.831 18.6913 22.831C17.0356 22.831 15.6743 21.4784 15.6743 19.8412C15.6743 18.1845 17.0356 16.8772 18.6913 16.8772C19.3457 16.8772 19.9217 17.0455 20.4256 17.3885V14.9746ZM17.0748 19.8412C17.0748 20.7342 17.8471 21.4784 18.7306 21.4784C19.6533 21.4784 20.4256 20.7342 20.4256 19.8412C20.4256 18.9481 19.6533 18.1845 18.7306 18.1845C17.8471 18.1845 17.0748 18.9481 17.0748 19.8412Z" fill="#48455C"/>
<path fill-rule="evenodd" clip-rule="evenodd" d="M25.3471 22.8307C23.6979 22.8307 22.3301 21.4782 22.3301 19.8409C22.3301 18.1842 23.6979 16.877 25.3471 16.877C25.9819 16.877 26.5774 17.0452 27.0617 17.3882V16.9287H28.5015V22.6948H27.0617V22.313C26.5774 22.6366 26.0015 22.8307 25.3471 22.8307ZM23.7306 19.8409C23.7306 20.734 24.5028 21.4782 25.406 21.4782C26.3091 21.4782 27.0617 20.734 27.0617 19.8409C27.0617 18.9478 26.3091 18.1842 25.406 18.1842C24.5028 18.1842 23.7306 18.9478 23.7306 19.8409Z" fill="#48455C"/>
<path fill-rule="evenodd" clip-rule="evenodd" d="M1.45334 19.8409C1.45334 20.734 2.22558 21.4782 3.12872 21.4782C4.05148 21.4782 4.82373 20.734 4.82373 19.8409C4.82373 18.9478 4.05148 18.1842 3.12872 18.1842C2.22558 18.1842 1.45334 18.9478 1.45334 19.8409ZM3.08945 22.8307C1.43371 22.8307 0.065918 21.4782 0.065918 19.8409C0.065918 18.1842 1.43371 16.877 3.08945 16.877C3.72426 16.877 4.31981 17.0452 4.82373 17.3882V16.9287H6.24387V22.6948H4.82373V22.313C4.33944 22.6366 3.7439 22.8307 3.08945 22.8307Z" fill="#48455C"/>
</g>
<defs>
<clipPath id="clip0_34_3913">
<rect width="34.2471" height="22.8314" fill="white" transform="translate(0.065918)"/>
</clipPath>
</defs>
</svg>
