<svg width="50" height="15" viewBox="0 0 50 15" fill="none" xmlns="http://www.w3.org/2000/svg">
<g clip-path="url(#clip0_234_1795)">
<path d="M0.899347 0.426982C0.805857 0.570199 0.786174 0.632694 0.827999 0.650921C0.840301 0.653525 0.936251 0.856633 1.03958 1.1014C1.14538 1.34357 1.26839 1.63261 1.31513 1.73937C1.46275 2.07007 1.51196 2.19246 1.53164 2.25495C1.54148 2.2888 1.65957 2.56222 1.79243 2.86427C1.92528 3.16373 2.036 3.41371 2.036 3.41891C2.036 3.42412 2.13195 3.64025 2.24758 3.90064C2.36321 4.16104 2.48869 4.45789 2.52805 4.55944C2.56496 4.6636 2.73226 5.05159 2.89709 5.42395C3.27598 6.27805 3.45558 6.69468 3.51216 6.8431C3.55891 6.96809 3.94025 7.84562 4.11739 8.24142L4.22564 8.48359V11.4052L4.22811 14.3294L4.32652 14.4388L4.42493 14.5508H5.33277H6.24061L6.33902 14.4388L6.43744 14.3294L6.4399 11.4391V8.55129L6.52355 8.35339C6.57029 8.24663 6.69084 7.95759 6.79418 7.71542C6.89505 7.47065 7.09925 6.99413 7.24933 6.65562C7.39694 6.3145 7.58147 5.88746 7.65281 5.70518C7.72662 5.5229 7.8644 5.19481 7.96035 4.98128C8.3909 4.0022 8.62954 3.45537 8.62954 3.44235C8.62954 3.42412 8.75748 3.11686 8.87065 2.85907C9.34303 1.78885 9.83508 0.63009 9.83508 0.585822C9.83508 0.572803 9.8031 0.512912 9.76127 0.450417C9.72191 0.387923 9.68746 0.325428 9.68746 0.309804C9.68746 0.288973 9.37747 0.281161 8.67629 0.281161C7.81765 0.281161 7.66019 0.286369 7.63067 0.32022C7.61099 0.341052 7.57901 0.367091 7.56178 0.377507C7.5298 0.398338 7.43385 0.598842 7.19028 1.1665C7.11893 1.33055 6.99346 1.61178 6.91227 1.79145C6.75973 2.13257 6.61212 2.48149 6.61212 2.50493C6.61212 2.51274 6.56291 2.62732 6.50386 2.76012C6.44482 2.89292 6.31934 3.17675 6.22339 3.39288C6.1299 3.6064 5.94784 4.02303 5.81991 4.31728C5.69197 4.61152 5.52713 4.9943 5.45578 5.16877L5.32539 5.48384L5.21714 5.23386C4.81365 4.30165 4.60453 3.81211 4.54548 3.65327C4.50858 3.55172 4.40279 3.30174 4.31175 3.09342C4.22072 2.88511 4.06327 2.52316 3.9624 2.2862C3.86152 2.04924 3.74589 1.78103 3.70407 1.68729C3.6647 1.59355 3.59089 1.41908 3.54415 1.2967C3.4974 1.17431 3.39161 0.921731 3.31042 0.731643C3.18741 0.450417 3.14804 0.382715 3.089 0.356675C3.05209 0.341052 3.02011 0.317616 3.02011 0.304596C3.02011 0.291577 2.57234 0.281161 2.00647 0.281161L0.990378 0.283765L0.899347 0.426982Z" fill="#48455C"/>
<path d="M11.6018 0.398338L11.5083 0.507704V7.41858L11.5108 14.3294L11.6092 14.4388L11.7076 14.5508H15.3316H18.9556L19.0687 14.4414L19.1844 14.332V13.392V12.452L19.0761 12.3557L18.9654 12.2593H16.3452H13.7226V10.4105V8.56171H16.141H18.5595L18.6751 8.43672L18.7907 8.31173V7.40035V6.48897L18.6726 6.36658L18.5545 6.2442H16.1385H13.7226V4.40841V2.57263H16.3501L18.9752 2.57003L19.081 2.46587L19.1844 2.36171V1.4295V0.499892L19.0687 0.390527L18.9556 0.281161L15.3242 0.283765L11.6928 0.286369L11.6018 0.398338Z" fill="#48455C"/>
<path d="M21.2952 0.39834L21.2017 0.507705V7.41858L21.2041 14.3294L21.3025 14.4388L21.4009 14.5508H25.0372H28.676L28.7769 14.444L28.8777 14.3373V13.392V12.4468L28.7744 12.3531L28.6711 12.2593H26.0435H23.4159V10.4105V8.56171H25.8344H28.2528L28.3562 8.44974L28.4595 8.33777V7.40035V6.46293L28.3537 6.35356L28.2479 6.2442H25.8319H23.4159V4.40842V2.57263H26.0386H28.6637L28.7695 2.47889L28.8777 2.38775V1.43992V0.492082L28.7744 0.387924L28.6686 0.283766H25.0274L21.3862 0.28637L21.2952 0.39834Z" fill="#48455C"/>
<path d="M31.1951 0.393131L31.0917 0.502496V1.44773V2.39036L31.1926 2.48931L31.2959 2.58565L33.5668 2.59867L35.8376 2.61169L35.7392 2.79397C35.6826 2.89292 35.5645 3.12727 35.4759 3.31476C35.2693 3.74962 34.9273 4.43445 34.6714 4.9292C34.4451 5.36667 34.3073 5.64529 34.2999 5.68435C34.2975 5.69997 34.2335 5.83017 34.1548 5.97859L34.0145 6.2442H32.9369H31.8593L31.7585 6.36398L31.6576 6.48636V7.41337V8.33777L31.7609 8.44974L31.8643 8.56171H32.3785H32.8902L32.7746 8.78825C32.7106 8.91584 32.6171 9.09291 32.5679 9.18665C32.5162 9.2804 32.3809 9.5486 32.2677 9.78556C32.1521 10.0225 31.911 10.5016 31.7314 10.8532C31.5518 11.2047 31.3009 11.7021 31.1778 11.9599C31.0548 12.2176 30.9294 12.4702 30.8998 12.5197C30.8482 12.6082 30.8457 12.6343 30.8457 13.4701L30.8482 14.3294L30.9466 14.4414L31.045 14.5508H34.7846H38.5242L38.6349 14.4414L38.7432 14.3347V13.3868V12.4416L38.6423 12.3426L38.539 12.2463L36.0098 12.2333L33.4782 12.2203L33.7119 11.7646C33.8399 11.5146 34.0391 11.1162 34.1523 10.8792C34.4156 10.3272 34.851 9.44965 35.0749 9.0174C35.1709 8.82991 35.257 8.65285 35.2644 8.61899L35.2791 8.56171H36.3789H37.4786L37.5819 8.44974L37.6853 8.33777V7.41597V6.49157L37.5844 6.36919L37.486 6.2442L36.9472 6.23899L36.4109 6.23118L36.6077 5.84058C36.7159 5.62446 36.8881 5.28594 36.9915 5.08544C37.0948 4.88494 37.2621 4.54382 37.3654 4.3303C37.4688 4.11417 37.6853 3.68191 37.8452 3.36684C38.0051 3.05176 38.2118 2.64034 38.3053 2.45546L38.4701 2.11694V1.30972V0.502496L38.3717 0.390527L38.2733 0.281161H34.7871L31.3009 0.283765L31.1951 0.393131Z" fill="#48455C"/>
<path d="M40.3722 0.41917C40.3279 0.494684 40.2935 0.570199 40.2935 0.585822C40.2935 0.601446 40.3205 0.676961 40.3525 0.752475C40.3845 0.830593 40.4558 1.00506 40.51 1.14046C40.5641 1.27587 40.6723 1.52845 40.7486 1.70031C40.8249 1.87217 40.943 2.14038 41.0119 2.29922C41.0807 2.45546 41.1816 2.68981 41.2407 2.82001C41.2973 2.9476 41.3711 3.12467 41.408 3.2106C41.5925 3.66369 41.7819 4.10375 42.2863 5.24168C42.3429 5.36927 42.429 5.57498 42.4757 5.69737C42.5249 5.81975 42.6799 6.1817 42.8202 6.50459C43.2113 7.38993 43.482 8.02009 43.5041 8.09039C43.514 8.12685 43.5607 8.23621 43.605 8.33777L43.6886 8.52004V11.426L43.6911 14.3294L43.7895 14.4388L43.8879 14.5508H44.7958H45.7061L45.7922 14.4518L45.8758 14.3555L45.8783 11.4599V8.56691L45.9988 8.2961C46.2375 7.75969 46.5745 6.98372 46.6041 6.89518C46.6385 6.79363 46.828 6.34835 46.9239 6.13483C47.0272 5.91349 47.5906 4.5985 47.6251 4.49955C47.6448 4.45008 47.7555 4.18708 47.876 3.91887C47.9941 3.64806 48.0925 3.42412 48.0925 3.41891C48.0925 3.41371 48.1934 3.18456 48.3164 2.90594C48.4394 2.62992 48.5674 2.33047 48.5994 2.24193C48.6313 2.1534 48.7396 1.893 48.8429 1.66125C48.9438 1.4295 49.0274 1.23681 49.0274 1.2316C49.0274 1.22639 49.0939 1.07276 49.1751 0.893088L49.3251 0.567595L49.2612 0.494684C49.2267 0.455625 49.1849 0.393131 49.1677 0.351467L49.1382 0.281161H48.1245C47.566 0.281161 47.1084 0.291577 47.1084 0.301992C47.1084 0.315012 47.0814 0.338448 47.0469 0.354071C46.983 0.385319 46.7861 0.786326 46.6287 1.20556C46.5918 1.30451 46.5057 1.51022 46.4368 1.66125C46.3703 1.81228 46.2572 2.07007 46.1858 2.23412C46.1145 2.39817 45.9964 2.66898 45.9201 2.83303C45.7307 3.25747 45.6052 3.5439 45.5978 3.57515C45.5904 3.6064 45.5634 3.6715 45.3173 4.23916C45.2091 4.48914 45.0492 4.85369 44.9631 5.04638C44.8745 5.23907 44.7982 5.41614 44.7908 5.43697C44.7785 5.47343 44.6088 5.1245 44.562 4.96566C44.5522 4.93181 44.4439 4.67402 44.3209 4.39539C43.8953 3.41631 43.5853 2.68721 43.5164 2.50753C43.4795 2.40598 43.3786 2.16642 43.295 1.97373C43.2113 1.78103 43.0564 1.42169 42.9506 1.17952C42.8448 0.934751 42.7242 0.656129 42.6824 0.559783C42.6307 0.445209 42.584 0.372299 42.5446 0.354071C42.5102 0.338448 42.4831 0.315012 42.4831 0.301992C42.4831 0.291577 42.0255 0.281161 41.467 0.281161H40.4509L40.3722 0.41917Z" fill="#48455C"/>
</g>
<defs>
<clipPath id="clip0_234_1795">
<rect width="48.5167" height="14.2696" fill="white" transform="translate(0.807129 0.28125)"/>
</clipPath>
</defs>
</svg>
