<svg width="66" height="23" viewBox="0 0 66 23" fill="none" xmlns="http://www.w3.org/2000/svg">
<g clip-path="url(#clip0_34_3943)">
<path d="M7.24061 22.8224C5.2848 22.7466 3.68466 22.2242 2.43348 21.2542C2.19469 21.0688 1.6257 20.5132 1.43481 20.2788C0.927436 19.6562 0.58249 19.0502 0.352414 18.3779C-0.355562 16.3082 0.00880774 13.5924 1.39462 10.6119C2.58117 8.06015 4.41206 5.52934 7.60632 2.02419C8.07685 1.50841 9.47807 0 9.48711 0C9.49046 0 9.4141 0.129105 9.31799 0.286322C8.48744 1.64406 7.77679 3.24334 7.38964 4.62789C6.76774 6.84949 6.84275 8.75602 7.60934 10.2344C8.13814 11.2528 9.04471 12.135 10.0641 12.6227C11.8488 13.4761 14.4617 13.5467 17.6526 12.8292C17.8723 12.7796 28.7585 9.95915 41.8444 6.56154C54.9302 3.16359 65.6386 0.385684 65.6403 0.387971C65.6439 0.390918 35.2382 13.0891 19.454 19.6768C16.9544 20.7198 16.2859 20.9832 15.1107 21.3859C12.1067 22.4155 9.41578 22.9067 7.24061 22.8224Z" fill="#48455C"/>
</g>
<defs>
<clipPath id="clip0_34_3943">
<rect width="65.6403" height="22.8314" fill="white"/>
</clipPath>
</defs>
</svg>
