<svg width="25" height="23" viewBox="0 0 25 23" fill="none" xmlns="http://www.w3.org/2000/svg">
<g clip-path="url(#clip0_34_3926)">
<path d="M13.8767 2.58696C13.8677 2.54239 13.8616 2.49627 13.8583 2.44961C13.8105 1.80275 14.3279 1.24183 15.0152 1.19625C15.703 1.15114 16.2989 1.63873 16.3469 2.28559C16.3948 2.93244 15.8773 3.49337 15.1901 3.53894C15.1466 3.54204 15.1037 3.54259 15.0615 3.54104C15.0336 3.5478 15.0169 3.55099 14.9929 3.5709C14.9222 3.67465 15.1728 3.65529 15.0025 4.10872C15.0025 4.10872 15.0013 4.15849 14.9824 4.20826C14.969 4.38233 14.8978 4.89814 14.8877 5.17284C14.9239 5.21266 14.934 5.23202 14.9301 5.32855C14.9139 5.45906 14.8821 5.77888 14.8309 5.98381C14.7875 6.15943 14.7113 6.19295 14.6499 6.23596C14.5636 6.59981 14.5408 6.90118 14.3191 7.3431C14.2991 7.67809 14.274 7.76932 14.1994 7.93289C14.1911 8.42613 14.2273 8.49956 13.8737 9.28058C13.7824 9.64588 13.8692 9.89858 13.9656 10.2781C14.0641 10.6682 14.3376 10.8312 14.3782 11.2307C14.474 12.1713 14.45 12.8119 14.2356 13.5494L14.4228 13.9667C14.6551 14.0669 15.2315 14.341 14.9118 14.775C15.3619 14.9977 16.0419 15.2342 16.6027 15.6856C16.8283 15.8623 17.0666 16.0552 17.2805 16.2816C17.6877 16.3413 17.6442 16.3717 17.9461 16.5463C18.8333 17.0583 20.2563 18.0742 21.0812 18.7934C21.2233 18.8715 21.2812 18.9277 21.3959 18.9843C21.4137 19.0167 21.4187 19.0241 21.4148 19.033C21.3753 19.1268 21.3769 19.1295 21.3413 19.2044C21.3858 19.2506 21.4688 19.294 21.5183 19.3344C21.5646 19.348 21.5646 19.3271 21.6443 19.3088C21.7478 19.4 21.876 19.4734 21.9221 19.4692C22.0625 19.4356 22.0385 19.4629 22.1572 19.3381C22.2 19.2967 22.2714 19.3386 22.2714 19.3386C22.316 19.2894 22.4117 19.1913 22.5393 19.1205C22.6412 19.0639 22.8357 19.0577 22.8357 19.0577C22.9008 19.0583 22.8886 19.1211 22.8829 19.1415C22.8095 19.1773 22.6535 19.2165 22.566 19.2773C22.3755 19.4628 22.2263 19.713 22.2263 19.713C22.61 19.6637 22.8457 19.7532 23.1653 19.7187C23.3397 19.7093 23.4683 19.7198 23.6515 19.5951C23.6515 19.5951 23.8275 19.4772 23.9851 19.4147C24.1383 19.3519 24.2837 19.3854 24.4185 19.4776C24.5137 19.5787 24.571 19.5793 24.4262 19.7219C24.3739 19.7774 24.2982 19.8393 24.2018 19.929C24.0325 20.0863 23.8046 20.2964 23.5686 20.47C23.3296 20.6456 23.0584 20.8033 22.889 20.8756C22.4619 21.1645 22.5627 21.089 22.2269 21.3753C22.1845 21.4109 22.072 21.4748 22.0175 21.5089C21.8849 21.5907 21.8437 21.5225 21.7573 21.3726C21.7573 21.3726 21.7178 21.3166 21.6526 21.197C21.5813 21.0665 21.5279 20.9172 21.5495 20.9197C21.4699 20.9102 21.1117 20.515 21.1107 20.4302C21.0349 20.4139 20.7119 20.1194 20.7003 20.0632L20.414 19.8472C20.0865 19.9111 20.0113 19.7198 19.1464 19.1422C19.0478 19.1405 18.8952 19.0903 18.6768 18.9378C18.2865 18.6436 17.3502 17.978 17.1914 17.9019C17.0209 17.8202 16.8172 17.7432 16.6923 17.6461C16.5052 17.6137 16.4027 17.5952 16.3092 17.5707C16.2134 17.546 16.1265 17.514 15.8842 17.4836C15.49 17.4375 15.0811 17.2839 14.6918 17.1005C14.5075 17.0182 14.347 16.9763 14.1883 16.9122C13.8324 16.7707 13.5273 16.6433 13.2908 16.5919C13.2005 16.5835 12.7717 16.4624 12.5467 16.3388C12.4687 16.301 12.4236 16.2649 12.3724 16.2538C12.2543 16.2282 12.1785 16.2722 12.1251 16.289C11.8366 16.4305 11.5665 16.5527 11.3169 16.679C11.0846 16.7959 10.8708 16.9175 10.6441 17.0402C10.4397 17.1514 10.2035 17.2561 9.9607 17.3653C9.9607 17.3653 9.26836 17.6918 8.89022 17.8187C8.56215 18.0708 7.89156 18.5069 7.48227 18.7229C7.27957 18.8136 6.88581 19.0484 6.70416 19.1009C6.60053 19.1794 6.23132 19.4274 5.94225 19.6319C5.71888 19.7891 5.55014 19.9217 5.55014 19.9217C5.42041 20.0312 5.42924 20.0832 5.18258 19.9846C5.11407 20.0375 5.06119 20.0705 5.01714 20.1009C4.83898 20.2226 4.82385 20.1933 4.75874 20.1901C4.63453 20.2912 4.61891 20.2388 4.51033 20.3553C4.43901 20.4591 4.51198 20.4344 4.36158 20.4848C4.32985 20.4963 4.31481 20.5323 4.29036 20.5523C4.16945 20.6461 4.16897 20.9109 3.87932 20.9298C3.71165 21.0424 3.75454 21.1783 3.62645 21.1724C3.63431 21.2893 3.39978 21.4598 3.35748 21.4592C2.98817 21.5792 2.96255 21.3235 2.51921 21.5143C2.46186 21.5389 2.37773 21.6072 2.26692 21.627C2.07198 21.6616 1.83638 21.6253 1.69267 21.5206C1.46649 21.3565 1.25826 21.0398 1.25826 21.0398C1.18635 20.8799 1.22818 20.7788 1.45261 20.6278C1.54615 20.5717 1.56343 20.5298 1.72052 20.5197C1.79854 20.492 1.77729 20.5344 1.91663 20.4873C1.99736 20.46 1.99736 20.4795 2.15999 20.4664C2.19725 20.4428 2.24965 20.4344 2.3198 20.4129C2.44847 20.3731 2.57384 20.3285 2.57384 20.3285C2.57384 20.3285 2.60663 20.2975 2.73035 20.3086C2.83505 20.2682 2.94256 20.2084 2.99768 20.1901C2.9837 20.0339 3.00156 20.0412 3.07841 19.9784C3.17418 19.9007 3.19145 19.9133 3.26277 19.9616C3.29285 19.9452 3.30731 19.9396 3.30401 19.9159C3.29227 19.8346 3.21823 19.7964 3.24055 19.6172C3.20766 19.5454 3.15924 19.4568 3.16981 19.4033C3.18544 19.3456 3.20048 19.3178 3.23774 19.2994C3.27733 19.2795 3.29014 19.3063 3.31129 19.3288C3.34913 19.3702 3.37979 19.4929 3.37979 19.4929C3.39319 19.6313 3.43879 19.8106 3.58415 19.7094C3.66992 19.6276 3.68661 19.4096 3.86147 19.4563L3.98625 19.5584C4.09212 19.4647 4.09716 19.4647 4.16062 19.4269C4.16062 19.4269 4.06145 19.3326 4.1484 19.2592C4.20797 19.2093 4.27978 19.1737 4.40738 19.0405C4.75767 18.6762 4.93757 18.5152 5.31639 18.2217C6.07218 17.6367 6.93209 17.2263 7.47849 17.0223C7.65664 16.8095 7.82994 16.668 8.22535 16.6323C8.69538 15.8852 9.59546 15.218 9.80215 15.1116C9.9703 14.8249 10.0433 14.8553 10.2632 14.7976C10.4375 14.6661 10.4771 14.6661 10.5551 14.5288C10.6309 14.2452 10.3803 13.4878 11.0201 13.4495C11.1561 13.2687 11.1221 13.3121 11.2736 13.1413C11.1711 12.9033 11.1288 12.7041 11.1009 12.5327C11.0959 12.5128 10.847 12.3477 10.9176 12.1321C10.8119 12.0137 10.6141 11.7372 10.5523 11.6077C10.524 11.6083 10.5005 11.5982 10.4693 11.5941C10.437 11.5894 10.3969 11.591 10.3518 11.5874C10.2522 11.8295 10.1436 11.8474 9.96642 11.9008C9.65009 12.5353 9.5387 12.8038 8.64366 13.3285C8.28833 13.7028 8.1747 14.12 8.17635 14.1138C8.11512 14.2375 8.13676 14.4105 8.16907 14.5033C8.1223 14.6407 8.13453 14.6543 8.13453 14.6543C8.15403 14.7061 8.20478 14.7748 8.26708 14.7894C8.37459 14.8162 8.4821 14.812 8.47589 14.9247C8.46143 15.0657 8.26484 15.0426 8.17179 15.0269C7.81364 14.9734 7.92678 14.7537 7.69778 14.8271C7.52234 14.9351 7.45665 15.2538 7.17031 15.2124C7.13246 15.1888 7.14411 15.1191 7.16973 15.0688C7.2099 14.9902 7.28112 14.9251 7.23881 14.8957C7.0528 14.9508 6.67961 15.0671 6.67961 15.0671C6.50417 15.1123 6.31195 15.03 6.48467 14.9214C6.56492 14.8921 6.67961 14.8554 6.82108 14.77C6.82108 14.77 6.89396 14.6766 6.75423 14.7233C6.60159 14.7747 6.37657 14.8066 6.21511 14.7899C6.21511 14.7899 5.88035 14.7485 5.83746 14.7238C5.79399 14.6991 5.75449 14.6017 5.85919 14.6022C5.99174 14.6033 6.32369 14.5665 6.58102 14.502C6.70523 14.4565 6.94141 14.3249 7.07395 14.263C7.07395 14.263 7.21766 14.0659 7.29674 14.0271C7.42871 13.884 7.5401 13.7996 7.65703 13.6533C7.77124 13.4316 7.88933 13.0805 8.26746 12.5368C8.44232 12.2862 8.65958 11.9943 8.93302 11.7334C8.93302 11.7334 9.00375 11.3157 9.35967 11.0184C9.43827 10.8443 9.55743 10.6394 9.67493 10.4496C9.72064 10.3768 9.76401 10.3134 9.80748 10.2442C9.91781 10.0811 10.0337 9.77766 10.4636 9.7299C10.4636 9.7299 10.6474 9.60204 10.7181 9.51126C10.8285 9.42268 10.8033 9.28487 10.893 9.18779C10.756 9.06203 10.4057 8.82559 10.3716 8.49691C10.3354 8.14832 10.4674 7.86156 10.6914 7.64932C10.9398 7.41553 11.2016 7.29863 11.5195 7.31644C11.9166 7.37196 11.9918 7.49571 12.1182 7.61836C12.2396 7.73471 12.2847 7.65982 12.336 7.79608C12.6691 7.87946 12.6507 7.84275 12.6478 8.07344C12.6991 8.13837 12.7849 8.19873 12.7837 8.33344C12.8957 8.11481 12.9179 8.07453 13.217 7.83389C13.2878 7.63836 13.3357 7.44603 13.398 7.2505C13.4562 7.06968 13.5287 6.88355 13.5849 6.74355C13.5253 6.3483 13.6478 6.28281 13.811 5.93633C13.7821 5.88865 13.7883 5.87505 13.8005 5.79687C13.864 5.56783 13.9631 5.26481 14.0221 5.06718C14.0221 5.06718 14.0416 4.98855 14.128 4.9828C14.2026 4.73275 14.3146 4.26726 14.3335 4.17237C14.4104 3.91082 14.3608 3.82689 14.3018 3.67958C14.2829 3.63136 14.2917 3.56268 14.2589 3.50917C14.1659 3.35665 14.0657 3.15848 13.9978 3.01692C13.9537 2.92678 13.884 2.58705 13.884 2.58705C13.8249 2.41344 13.8767 2.58696 13.8767 2.58696Z" fill="#48455C"/>
</g>
<defs>
<clipPath id="clip0_34_3926">
<rect width="24.2584" height="22.8314" fill="white" transform="translate(0.740723)"/>
</clipPath>
</defs>
</svg>
