<svg width="43" height="23" viewBox="0 0 43 23" fill="none" xmlns="http://www.w3.org/2000/svg">
<g clip-path="url(#clip0_34_3980)">
<path d="M23.1057 1.03269C22.9661 1.05412 22.832 1.56562 22.5624 1.83208C22.3652 2.0244 22.1191 2.01236 21.9884 2.25012C21.9387 2.33894 21.9548 2.49055 21.8985 2.63613C21.7885 2.92728 21.4009 2.95331 21.4009 3.27054C21.3996 3.61312 21.7241 3.67855 22.0051 3.92162C22.2244 4.11729 22.2459 4.25218 22.5114 4.34699C22.7382 4.42383 23.0755 4.1727 23.3793 4.26287C23.6288 4.33702 23.8675 4.39042 23.9238 4.64552C23.9734 4.88059 23.9205 5.24518 23.618 5.20314C23.5161 5.19178 23.0741 5.04352 22.5309 5.10095C21.8757 5.1751 21.1279 5.38807 21.0548 6.11537C21.0146 6.52205 21.5196 7.00153 22.0071 6.90403C22.3444 6.83788 22.1849 6.44195 22.3686 6.24959C22.6094 6.00321 23.9734 7.10972 25.2416 7.10972C25.7755 7.10972 26.1725 6.9755 26.5669 6.56413C26.6037 6.53273 26.6486 6.46529 26.7056 6.46127C26.7593 6.46529 26.8532 6.51802 26.884 6.54074C27.9054 7.35811 28.6773 8.9976 32.4309 9.01696C32.9587 9.0196 33.5602 9.27073 34.0511 9.7168C34.4891 10.1202 34.7453 10.7472 34.994 11.3836C35.3696 12.3386 36.043 13.2675 37.0636 14.3013C37.1193 14.3567 37.9596 15.0071 38.0267 15.0559C38.0374 15.0625 38.0991 15.2095 38.0777 15.2916C38.0529 15.9113 37.9623 17.7137 39.3116 17.7952C39.6416 17.8119 39.555 17.5808 39.555 17.4219C39.5544 17.108 39.4967 16.7961 39.6631 16.4749C39.8904 16.0329 39.1809 15.8292 39.2017 14.8735C39.2164 14.161 38.6155 14.2825 38.3103 13.7396C38.1346 13.4251 37.9784 13.2582 37.9898 12.8734C38.0582 10.7085 37.527 9.28607 37.2621 8.93682C37.0556 8.67304 36.8846 8.56821 37.0737 8.44597C38.1997 7.70539 38.4552 7.0162 38.4552 7.0162C39.0541 5.61451 39.5926 4.33429 40.335 3.77073C40.4846 3.65449 40.8682 3.36938 41.1036 3.25716C41.7963 2.93193 42.1612 2.73497 42.3624 2.53993C42.6809 2.23075 42.9324 1.58633 42.6272 1.19566C42.2477 0.713496 41.5911 1.09615 41.3014 1.26709C39.2312 2.49055 38.926 4.64883 38.2091 5.88831C37.637 6.87863 36.7069 7.60588 35.8753 7.66532C35.2516 7.71138 34.5796 7.58585 33.9103 7.29335C32.2827 6.58283 31.392 5.66527 31.1822 5.50302C30.7449 5.16709 27.3501 1.84877 24.5998 1.71321C24.5998 1.71321 24.2585 1.03274 24.1726 1.02138C23.9714 0.995971 23.7656 1.42805 23.618 1.47819C23.4792 1.5242 23.2458 1.00997 23.1057 1.03269ZM10.9979 20.8377C10.7391 20.8316 10.5191 20.62 10.5191 20.3582L10.5198 11.8157H7.69238V21.2323C7.69238 21.6938 8.0679 22.0705 8.52863 22.0705H13.4706C13.9346 22.0705 14.3055 21.6938 14.3055 21.2323V11.8157H11.4808L11.4781 20.3582C11.4781 20.62 11.2581 20.8316 10.9979 20.8377ZM20.4647 11.8157H16.1853C15.679 11.8157 15.2666 12.2257 15.2666 12.7353V22.0704H18.0966V13.5073C18.0986 13.2448 18.3119 13.0371 18.5748 13.0371C18.839 13.0371 19.0509 13.2401 19.0569 13.4999V22.0705H21.8756V13.4998C21.879 13.2401 22.0909 13.0371 22.3545 13.0371C22.616 13.0371 22.832 13.2448 22.834 13.5072V22.0705H25.6641V12.7353C25.6641 12.2257 25.251 11.8157 24.7446 11.8157H20.4647ZM3.90861 13.5253C3.91063 13.2401 3.67726 13.0371 3.42978 13.0371H2.94961V18.2239H3.42978C3.67928 18.2239 3.91068 18.0262 3.90861 17.7424V13.5253ZM5.80586 19.4934H2.94961V22.0705H0.123535V11.8157H5.82401C6.33432 11.8157 6.73266 12.2284 6.73266 12.7393V18.5698C6.73266 19.0814 6.31891 19.4934 5.80586 19.4934ZM35.3622 19.7772C34.7942 19.7772 34.3174 20.266 34.3174 20.8584C34.3174 21.4527 34.7942 21.9375 35.3803 21.9375C35.9618 21.9375 36.4326 21.4527 36.4326 20.8584C36.4326 20.2647 35.9618 19.7772 35.3803 19.7772H35.3622ZM36.6351 20.855C36.6351 21.5515 36.0744 22.1179 35.3803 22.1179C34.6788 22.1179 34.1155 21.5556 34.1155 20.855C34.1155 20.1679 34.6788 19.5936 35.3596 19.5936C36.0744 19.5936 36.6351 20.1506 36.6351 20.855Z" fill="#48455C"/>
<path d="M35.2497 20.7756C35.4462 20.7756 35.5495 20.7062 35.5495 20.5673C35.5495 20.4437 35.4496 20.3803 35.2584 20.3803H35.2021V20.7756H35.2497ZM35.9734 21.5863H35.636L35.2021 21.0114V21.5863H34.9265V20.1325H35.2162C35.6099 20.1325 35.8191 20.2808 35.8191 20.5639C35.8191 20.7529 35.6957 20.9206 35.5233 20.9706L35.5032 20.978L35.9734 21.5863ZM30.4091 18.2266V13.5046C30.4024 13.2435 30.1911 13.0432 29.9276 13.0432C29.6667 13.0432 29.4507 13.2515 29.4487 13.512V18.2266H30.4091ZM30.4091 22.0712V19.4968H29.4487V22.0712H26.624V12.736C26.624 12.2264 27.0364 11.8164 27.5428 11.8164H32.315C32.8227 11.8164 33.2352 12.2264 33.2352 12.736V22.0711L30.4091 22.0712Z" fill="#48455C"/>
</g>
<defs>
<clipPath id="clip0_34_3980">
<rect width="42.8089" height="22.8314" fill="white" transform="translate(0.123535)"/>
</clipPath>
</defs>
</svg>
