<svg width="25" height="23" fill="none" xmlns="http://www.w3.org/2000/svg"><g clip-path="url(#clip0_34_3926)"><path d="M13.877 2.587a1.081 1.081 0 01-.019-.137c-.048-.647.47-1.208 1.157-1.254.688-.045 1.284.443 1.332 1.09.048.646-.47 1.207-1.157 1.253a1.192 1.192 0 01-.128.002c-.028.007-.045.01-.07.03-.07.104.18.084.01.538 0 0 0 .05-.02.1-.013.173-.084.69-.094.964.036.04.046.059.042.156-.016.13-.048.45-.1.655-.043.175-.119.209-.18.252-.086.364-.11.665-.33 1.107-.02.335-.046.426-.12.59-.009.493.027.567-.326 1.348-.092.365-.005.618.092.997.098.39.372.553.412.953.096.94.072 1.58-.142 2.318l.187.418c.232.1.809.374.489.808.45.223 1.13.46 1.69.91.226.177.465.37.678.597.408.06.364.09.666.264.887.512 2.31 1.528 3.135 2.247.142.079.2.135.315.191.018.033.023.04.019.049-.04.094-.038.096-.074.171.045.047.128.09.177.13.047.014.047-.007.126-.025.104.091.232.164.278.16.14-.033.116-.006.235-.13.043-.042.114 0 .114 0 .045-.05.14-.148.268-.218.102-.057.297-.063.297-.063.065 0 .053.063.047.084-.073.035-.23.075-.317.135-.19.186-.34.436-.34.436.384-.05.62.04.94.006.174-.01.302 0 .485-.124 0 0 .177-.118.334-.18.153-.063.299-.03.434.063.095.1.152.101.007.244-.052.055-.128.117-.224.207-.17.157-.397.367-.633.541-.24.176-.51.333-.68.406-.427.288-.326.213-.662.5-.043.035-.155.099-.21.133-.132.082-.173.014-.26-.136 0 0-.04-.056-.104-.176-.072-.13-.125-.28-.104-.277-.08-.01-.437-.405-.438-.49-.076-.016-.4-.31-.41-.367l-.287-.216c-.328.064-.403-.127-1.268-.705-.098-.002-.25-.052-.47-.204-.39-.294-1.326-.96-1.485-1.036-.17-.082-.374-.159-.499-.256a4.766 4.766 0 01-.383-.075c-.096-.025-.183-.057-.425-.087-.394-.047-.803-.2-1.192-.384-.184-.082-.345-.124-.504-.188-.356-.141-.66-.269-.897-.32a3.07 3.07 0 01-.744-.253c-.078-.038-.123-.074-.175-.085-.118-.026-.194.018-.247.035-.288.141-.559.264-.808.39-.232.117-.446.239-.673.361-.204.111-.44.216-.683.325 0 0-.693.327-1.07.454-.329.252-1 .688-1.409.904-.202.09-.596.325-.778.378-.103.078-.473.326-.762.53-.223.158-.392.29-.392.29-.13.11-.12.162-.367.064-.069.053-.122.085-.166.116-.178.122-.193.092-.258.09-.124.1-.14.048-.249.164-.071.104.002.08-.148.13-.032.011-.047.047-.072.067-.12.094-.121.359-.41.378-.168.112-.125.248-.254.242.008.117-.226.288-.269.287-.369.12-.394-.136-.838.055-.057.025-.141.093-.252.113-.195.035-.43-.002-.574-.106-.227-.165-.435-.481-.435-.481-.072-.16-.03-.261.195-.412.093-.056.11-.098.268-.108.078-.028.056.014.196-.033.08-.027.08-.007.243-.02.037-.024.09-.033.16-.054.128-.04.254-.085.254-.085s.033-.03.156-.02c.105-.04.213-.1.268-.118-.014-.156.004-.149.08-.212.096-.077.113-.065.185-.016.03-.017.044-.022.041-.046-.012-.081-.086-.12-.063-.299-.033-.072-.082-.16-.071-.214.015-.057.03-.085.068-.104.04-.02.052.007.073.03a.532.532 0 01.069.164c.013.138.059.318.204.216.086-.081.103-.3.277-.253l.125.102c.106-.093.111-.093.175-.131 0 0-.1-.094-.013-.168.06-.05.132-.085.26-.218.35-.365.53-.526.908-.82a8.734 8.734 0 012.162-1.199c.179-.212.352-.354.747-.39.47-.747 1.37-1.414 1.577-1.52.168-.287.241-.257.461-.314.175-.132.214-.132.292-.27.076-.283-.175-1.04.465-1.079.136-.18.102-.137.254-.308a2.475 2.475 0 01-.173-.608c-.005-.02-.254-.185-.183-.4a3.22 3.22 0 01-.366-.525c-.028 0-.051-.01-.083-.014-.032-.005-.072-.003-.117-.007-.1.242-.208.26-.386.314-.316.634-.427.903-1.322 1.428-.356.374-.47.791-.468.785a.564.564 0 00-.007.39c-.047.137-.034.15-.034.15.019.052.07.12.132.135.108.027.215.023.209.136-.015.14-.211.118-.304.102-.358-.054-.245-.273-.474-.2-.176.108-.241.427-.528.385-.038-.023-.026-.093 0-.143.04-.079.111-.144.069-.173-.186.055-.56.171-.56.171-.175.045-.367-.037-.194-.146.08-.029.195-.066.336-.151 0 0 .073-.093-.067-.047a1.445 1.445 0 01-.539.067s-.335-.041-.378-.066c-.043-.025-.083-.122.022-.122.133.001.465-.036.722-.1.124-.046.36-.177.493-.239 0 0 .144-.197.223-.236.132-.143.243-.227.36-.374.114-.221.232-.572.61-1.116.175-.25.393-.543.666-.804 0 0 .07-.417.427-.715.078-.174.197-.379.315-.568.046-.073.089-.137.132-.206.11-.163.227-.466.657-.514 0 0 .183-.128.254-.219.11-.088.085-.226.175-.323-.137-.126-.487-.362-.521-.691a.992.992 0 01.32-.848c.248-.233.51-.35.828-.333.397.056.472.18.598.302.122.117.167.042.218.178.333.083.315.047.312.277.051.065.137.126.136.26.112-.218.134-.258.433-.5.07-.195.119-.387.181-.583.058-.18.13-.366.187-.506-.06-.396.063-.461.226-.808-.029-.047-.023-.061-.01-.14.063-.228.162-.531.221-.729 0 0 .02-.078.106-.084.075-.25.187-.716.206-.81.076-.262.027-.346-.032-.493-.02-.049-.01-.117-.043-.17a6.072 6.072 0 01-.261-.493c-.044-.09-.114-.43-.114-.43-.06-.174-.007 0-.007 0z" fill="#48455C"/></g><defs><clipPath id="clip0_34_3926"><path fill="#fff" transform="translate(.74)" d="M0 0h24.258v22.831H0z"/></clipPath></defs></svg>