<svg width="43" height="23" fill="none" xmlns="http://www.w3.org/2000/svg"><g clip-path="url(#clip0_34_3980)" fill="#48455C"><path d="M23.106 1.033c-.14.021-.274.533-.544.8-.197.191-.443.18-.574.417-.05.089-.033.24-.09.386-.11.291-.497.317-.497.635-.001.342.323.408.604.65.22.196.24.331.506.426.227.077.565-.174.868-.084.25.074.488.127.545.383.05.235-.003.6-.306.557-.102-.011-.544-.16-1.087-.102-.655.074-1.403.287-1.476 1.014-.04.407.465.887.952.789.337-.066.178-.462.362-.654.24-.247 1.604.86 2.873.86.534 0 .93-.135 1.325-.546.037-.031.082-.099.139-.103a.485.485 0 01.178.08c1.021.817 1.793 2.457 5.547 2.476.528.003 1.13.254 1.62.7.438.403.694 1.03.943 1.667.376.955 1.049 1.883 2.07 2.917.055.056.896.706.963.755.01.007.072.154.05.236-.024.62-.115 2.422 1.235 2.503.33.017.243-.214.243-.373 0-.314-.058-.626.108-.947.227-.442-.482-.646-.461-1.602.014-.712-.587-.59-.892-1.133-.175-.315-.332-.482-.32-.867.068-2.164-.463-3.587-.728-3.936-.206-.264-.377-.369-.188-.491 1.126-.74 1.381-1.43 1.381-1.43.6-1.401 1.138-2.682 1.88-3.245.15-.117.533-.402.769-.514.692-.325 1.057-.522 1.258-.717.319-.31.57-.954.265-1.344-.38-.483-1.036-.1-1.326.071-2.07 1.224-2.375 3.382-3.092 4.621-.572.99-1.502 1.718-2.334 1.777-.623.046-1.295-.08-1.965-.372-1.627-.71-2.518-1.628-2.728-1.79-.437-.336-3.832-3.654-6.582-3.79 0 0-.341-.68-.427-.692-.202-.025-.407.407-.555.457-.139.046-.372-.468-.512-.445zM10.998 20.838a.489.489 0 01-.479-.48v-8.542H7.693v9.416c0 .462.376.838.837.838h4.942a.836.836 0 00.835-.838v-9.416H11.48l-.003 8.542a.49.49 0 01-.48.48zm9.467-9.022h-4.28a.919.919 0 00-.918.92v9.334h2.83v-8.563a.474.474 0 01.478-.47c.264 0 .476.203.482.463v8.57h2.819V13.5a.471.471 0 01.479-.463c.261 0 .477.208.479.47v8.563h2.83v-9.335a.92.92 0 00-.92-.92h-4.28zm-16.556 1.71a.483.483 0 00-.48-.489h-.48v5.187h.48c.25 0 .482-.198.48-.482v-4.217zm1.897 5.967H2.95v2.578H.124V11.815h5.7a.91.91 0 01.909.923v5.83a.923.923 0 01-.927.924zm29.556.284c-.568 0-1.045.489-1.045 1.081 0 .595.477 1.08 1.063 1.08.582 0 1.053-.485 1.053-1.08 0-.593-.471-1.08-1.053-1.08h-.018zm1.273 1.078a1.259 1.259 0 11-2.52 0c0-.687.564-1.261 1.245-1.261.714 0 1.275.557 1.275 1.261z"/><path d="M35.25 20.776c.196 0 .3-.07.3-.209 0-.123-.1-.187-.292-.187h-.056v.396h.048zm.723.81h-.337l-.434-.575v.575h-.276v-1.453h.29c.394 0 .603.148.603.43a.423.423 0 01-.296.408l-.02.007.47.608zm-5.564-3.36v-4.721a.473.473 0 00-.481-.462.476.476 0 00-.48.469v4.715h.961zm0 3.845v-2.574h-.96v2.574h-2.825v-9.335c0-.51.412-.92.919-.92h4.772c.508 0 .92.41.92.92v9.335H30.41z"/></g><defs><clipPath id="clip0_34_3980"><path fill="#fff" transform="translate(.124)" d="M0 0h42.809v22.831H0z"/></clipPath></defs></svg>