<svg width="35" height="23" fill="none" xmlns="http://www.w3.org/2000/svg"><g clip-path="url(#clip0_234_1751)" fill="#48455C"><path d="M12.982 12.775l-.014-3.448 3.325-1.224-3.349-1.089-.07-3.397-2.032 2.74L7.52 5.342l1.93 2.877L7.564 11.1l3.28-1.079 2.137 2.754z"/><path d="M13.397 16.4h5.957l7.465-8.195L19.317 0h-5.899l7.016 8.193-7.037 8.207zM.133 20.811c0-1.064.907-2.112 2.146-2.112.845 0 1.792.945 1.792.945l-1.026.593s-.17-.445-.803-.445c-.643 0-1.022.525-1.027 1.001a1 1 0 00.99 1c.435 0 .896-.463.896-.463l.877.63s-.656.797-1.755.797c-1.1 0-2.09-.659-2.09-1.946z"/><path fill-rule="evenodd" clip-rule="evenodd" d="M6.534 18.754c-1.155 0-2.09.915-2.09 2.041s.935 2.038 2.09 2.038c1.154 0 2.092-.912 2.092-2.038s-.938-2.041-2.092-2.041zm0 1.02c.577 0 1.046.458 1.046 1.021s-.469 1.017-1.046 1.017a1.028 1.028 0 01-1.043-1.017c0-.563.466-1.02 1.043-1.02zm2.877-.964v3.816h1.007v-2.062l1.66 2.062h.992V18.81h-1.01v2.23l-1.643-2.23H9.412zm4.479 0l1.36 3.816h1.496l1.359-3.816h-1.1l-1.007 3.03-1.007-3.03h-1.1zm4.938 0v3.816h3.092v-.88h-2.086v-.638h1.875v-.78h-1.875v-.609h2.086v-.909h-3.092zm12.46 0v3.816h3.092v-.88h-2.086v-.638h1.875v-.78h-1.875v-.609h2.086v-.909h-3.092zm-8.231.073v3.761h.893v-1.482h.513l.784 1.482H26.4l-.777-1.608c1.01-.602.81-1.861-.317-2.153h-2.248zm.875.909h1.032c.359 0 .335.551 0 .551h-1.032v-.551z"/><path d="M26.936 22.117c.04.236.977.682 1.901.682.85 0 1.531-.405 1.531-1.208 0-.988-1.161-1.216-1.161-1.216s-.965-.014-.99-.459c-.012-.21.282-.327.541-.327.424 0 .898.419.898.419l.673-.72s-.852-.669-1.571-.669c-.686 0-1.663.447-1.663 1.376 0 .79 1.13 1.154 1.13 1.154s1.193.126 1.193.497c0 .252-.433.327-.686.327-.617 0-1.136-.537-1.136-.537l-.66.681z"/></g><defs><clipPath id="clip0_234_1751"><path fill="#fff" transform="translate(.133)" d="M0 0h34.247v22.831H0z"/></clipPath></defs></svg>