<svg width="44" height="23" fill="none" xmlns="http://www.w3.org/2000/svg"><g clip-path="url(#clip0_34_3945)"><mask id="a" style="mask-type:luminance" maskUnits="userSpaceOnUse" x="0" y="0" width="44" height="23"><path d="M.59 22.693h42.524V.138H.59v22.555z" fill="#fff"/></mask><g mask="url(#a)" fill="#48455C"><path d="M.59 22.568h.953v-1.831c0-.326 0-.729.173-.964.172-.257.48-.34.652-.34.803 0 .803.916.803 1.234v1.901h.953v-2.08c0-.3 0-.944-.365-1.367-.33-.389-.853-.535-1.197-.535-.603 0-.932.32-1.09.466v-.334H.59v3.85z"/><path fill-rule="evenodd" clip-rule="evenodd" d="M8.458 21.056c.027-.125.057-.285.057-.465 0-.97-.796-2.027-2.057-2.027-1.226 0-2.093 1-2.093 2.09 0 1.123.917 2.04 2.1 2.04.932 0 1.69-.645 1.92-1.34H7.383c-.18.32-.494.493-.917.493-.681 0-1.054-.541-1.097-.791h3.09zm-3.119-.743c.18-.714.775-.901 1.126-.901.473 0 .967.284 1.075.901h-2.2z"/><path d="M9.738 22.568h.587l.753-2.497h.014l.746 2.497h.587l1.455-3.85h-1.017l-.732 2.352h-.014l-.646-2.352h-.759l-.652 2.352h-.014l-.724-2.352H8.304l1.434 3.85z"/><path fill-rule="evenodd" clip-rule="evenodd" d="M15.725 22.568h.874v-.465c.236.257.574.59 1.34.59 1.455 0 1.979-1.297 1.979-2.068 0-1.018-.788-2.04-2-2.04-.444 0-.91.16-1.24.48v-1.63h-.953v5.133zm.895-1.977a1.17 1.17 0 011.183-1.158c.602 0 1.162.45 1.162 1.2 0 .749-.524 1.214-1.148 1.214-.558 0-1.197-.402-1.197-1.256zm7.747-1.874h-.875v.487h-.014c-.03-.056-.51-.619-1.319-.619-1.103 0-1.992.854-1.992 2.034 0 1.283.91 2.074 1.935 2.074.501 0 1.09-.257 1.39-.602v.477h.875v-3.85zm-.902 1.916c0 .715-.503 1.214-1.163 1.214a1.17 1.17 0 01-1.183-1.186c0-.576.402-1.228 1.183-1.228.567 0 1.163.402 1.163 1.2z"/><path d="M25.827 17.435h-.953v5.133h.953v-5.133z"/><path fill-rule="evenodd" clip-rule="evenodd" d="M30.314 18.717h-.875v.487h-.014c-.03-.056-.51-.619-1.319-.619-1.105 0-1.993.854-1.993 2.034 0 1.283.91 2.074 1.936 2.074.501 0 1.088-.257 1.39-.602v.477h.875v-3.85zm-.904 1.916c0 .715-.5 1.214-1.16 1.214a1.169 1.169 0 01-1.183-1.186c0-.576.401-1.228 1.182-1.228.567 0 1.161.402 1.161 1.2z"/><path d="M30.82 22.568h.953v-1.831c0-.326 0-.729.173-.964.172-.257.481-.34.652-.34.803 0 .803.916.803 1.234v1.901h.954v-2.08c0-.3 0-.944-.367-1.367-.33-.389-.852-.535-1.196-.535-.603 0-.932.32-1.09.466v-.334h-.881v3.85zm6.922-1.255c-.252.388-.566.534-.882.534-.717 0-1.197-.548-1.197-1.207 0-.79.574-1.207 1.154-1.207.587 0 .81.367.925.561h1.075c-.409-1.186-1.499-1.409-2-1.409-1.097 0-2.107.862-2.107 2.04 0 1.277 1.095 2.068 2.114 2.068.932 0 1.67-.52 1.993-1.38h-1.075z"/><path fill-rule="evenodd" clip-rule="evenodd" d="M43.057 21.056c.028-.125.057-.285.057-.465 0-.97-.795-2.027-2.057-2.027-1.226 0-2.093 1-2.093 2.09 0 1.123.917 2.04 2.1 2.04.931 0 1.692-.645 1.92-1.34h-1.002c-.18.32-.494.493-.918.493-.681 0-1.054-.541-1.096-.791h3.089zm-3.118-.743c.18-.714.774-.901 1.125-.901.474 0 .968.284 1.075.901h-2.2zM16.813 9.805l-1.273 2.13-7.052-.384.706-1.187 7.62-.559zm5.098-6.785l.639 2.35-10.006-.637.706-1.185 8.661-.528zM15.278.139l5.856.004.443 1.607-7.004-.425.705-1.186zm-.515 13.12l-1.017 1.692-7.286.008.705-1.185 7.598-.515zm12.792-4.566l-1.764 2.96h1.68c.778 0 2.173-.377 2.602-1.45.398-.997-.333-1.511-.843-1.511l-1.675.001zm1.682-2.83l1.465-.01c.975-.004 1.992-.436 2.364-1.312.343-.812-.118-1.505-.73-1.502l-1.416-.002-1.683 2.826zm-6.632-.493l1.48-2.484 5.006-.311.175-.302-4.631-.314L25.717.14h8.59c2.64 0 4.594.914 3.835 3.602-.229.814-1.302 2.864-4.451 3.723.668.077 2.333.79 2.046 2.641-.51 3.282-4.9 4.844-7.341 4.845l-10.14.005-.5-1.899 5.31-.363.181-.3-5.76-.34-.621-2.25 8.197-.464.178-.298-14.727-.9.706-1.185 15.852-.996.18-.298-4.648-.292z"/></g></g><defs><clipPath id="clip0_34_3945"><path fill="#fff" transform="translate(.448)" d="M0 0h42.809v22.831H0z"/></clipPath></defs></svg>