<svg width="50" height="15" fill="none" xmlns="http://www.w3.org/2000/svg"><g clip-path="url(#clip0_234_1795)" fill="#48455C"><path d="M.9.427C.805.57.785.633.827.651c.012.003.108.206.212.45.105.243.228.532.275.638.148.331.197.453.217.516.01.034.128.307.26.61.133.299.244.549.244.554 0 .005.096.221.212.482.115.26.24.557.28.658.037.105.204.493.37.865.378.854.558 1.27.614 1.42.047.124.428 1.002.605 1.397l.109.243v2.921l.002 2.924.099.11.098.112H6.24l.098-.112.098-.11.003-2.89V8.551l.084-.198c.046-.106.167-.395.27-.638.101-.244.305-.72.455-1.06.148-.34.332-.768.404-.95.074-.182.211-.51.307-.724.43-.979.67-1.526.67-1.539 0-.018.127-.325.24-.583.473-1.07.965-2.229.965-2.273A.553.553 0 009.761.45a.595.595 0 01-.074-.14c0-.021-.31-.029-1.01-.029-.86 0-1.017.005-1.046.04a.414.414 0 01-.07.057c-.031.02-.127.22-.37.788-.072.165-.198.446-.279.625-.152.342-.3.69-.3.714 0 .008-.05.122-.108.255a462.351 462.351 0 00-.684 1.557c-.128.295-.293.677-.364.852l-.13.315-.109-.25a58.365 58.365 0 01-.672-1.58 13.599 13.599 0 00-.233-.56c-.091-.209-.249-.57-.35-.808a41.62 41.62 0 00-.258-.599c-.04-.093-.113-.268-.16-.39A20.773 20.773 0 003.31.732C3.187.45 3.148.382 3.09.357 3.052.34 3.02.317 3.02.305 3.02.292 2.572.28 2.006.28L.99.284.9.427zM11.602.398l-.094.11v6.91l.003 6.911.098.11.099.112h7.248l.113-.11.115-.109v-1.88l-.108-.096-.11-.097h-5.243V8.561h4.837l.115-.124.116-.125V6.489l-.118-.122-.118-.123h-4.832V2.573h2.627l2.625-.003.106-.104.103-.104V.499L19.07.392l-.113-.11-3.632.003-3.631.002-.091.112zm9.693 0l-.093.11v6.91l.002 6.911.098.11.099.112h7.275l.1-.107.102-.107v-1.89l-.104-.094-.103-.094h-5.255V8.561h4.837l.103-.111.103-.112V6.463l-.105-.11-.106-.109h-4.832V2.573h5.248l.105-.094.109-.091V.492l-.104-.104-.105-.104h-3.642l-3.64.002-.092.112zm9.9-.005l-.103.11V2.39l.1.1.104.096 2.27.013 2.272.013-.099.182a9.824 9.824 0 00-.263.52c-.207.436-.549 1.12-.805 1.615-.226.438-.364.716-.371.755a3.25 3.25 0 01-.145.295l-.14.265h-2.156l-.1.12-.101.122v1.852l.103.112.103.112h1.026l-.115.226c-.064.128-.158.305-.207.399-.052.093-.187.362-.3.599a82.59 82.59 0 01-.537 1.067c-.18.352-.43.85-.553 1.107-.123.258-.249.51-.278.56-.052.088-.054.114-.054.95l.002.86.099.111.098.11h7.48l.11-.11.108-.106v-1.893l-.1-.1-.104-.096-2.53-.013-2.53-.013.233-.455c.128-.25.327-.649.44-.886.264-.552.699-1.43.923-1.862.096-.187.182-.364.19-.398l.014-.057h2.2l.103-.112.103-.112V6.492l-.1-.123-.099-.125-.539-.005-.536-.008.197-.39c.108-.217.28-.555.384-.756.103-.2.27-.541.373-.755.104-.216.32-.648.48-.963l.46-.912.165-.338V.502l-.098-.111-.099-.11h-3.486l-3.486.003-.106.11zm9.177.027a.716.716 0 00-.078.166c0 .015.027.091.059.166l.157.388c.054.136.162.388.239.56.076.172.194.44.263.6.069.155.17.39.229.52.056.128.13.305.167.39.184.454.374.894.878 2.032.057.127.143.333.19.455.049.123.204.485.344.808.391.885.662 1.515.684 1.585.01.037.057.146.101.248l.084.182v2.906l.002 2.903.098.11.099.112h1.818l.086-.1.084-.096.002-2.895V8.567l.12-.27c.24-.537.577-1.313.606-1.402.035-.101.224-.547.32-.76.103-.222.667-1.537.701-1.635.02-.05.13-.313.251-.581.118-.27.217-.495.217-.5 0-.005.1-.234.223-.513.123-.276.251-.576.283-.664.032-.089.14-.349.244-.58.1-.232.184-.425.184-.43 0-.006.067-.16.148-.339l.15-.325-.064-.073a.615.615 0 01-.093-.144l-.03-.07h-1.014c-.558 0-1.016.01-1.016.021 0 .013-.027.036-.061.052-.064.031-.26.432-.418.852a8.71 8.71 0 01-.192.455l-.251.573c-.072.164-.19.435-.266.599-.19.424-.315.71-.322.742-.008.031-.035.096-.28.664a92.846 92.846 0 01-.527 1.198c-.012.036-.182-.313-.229-.471a12.6 12.6 0 00-.241-.57 85.397 85.397 0 01-.805-1.888 13.307 13.307 0 00-.221-.534l-.344-.794-.269-.62c-.051-.115-.098-.188-.137-.206-.035-.016-.062-.039-.062-.052 0-.01-.457-.02-1.016-.02h-1.016l-.079.137z"/></g><defs><clipPath id="clip0_234_1795"><path fill="#fff" transform="translate(.807 .281)" d="M0 0h48.517v14.27H0z"/></clipPath></defs></svg>