<svg width="66" height="23" fill="none" xmlns="http://www.w3.org/2000/svg"><g clip-path="url(#clip0_34_3943)"><path d="M7.24 22.822c-1.955-.075-3.555-.598-4.807-1.568a9.493 9.493 0 01-.998-.975C.927 19.656.582 19.05.352 18.378c-.708-2.07-.343-4.786 1.043-7.766C2.58 8.06 4.412 5.529 7.606 2.024 8.076 1.508 9.478 0 9.487 0c.003 0-.073.13-.169.286-.83 1.358-1.541 2.957-1.928 4.342-.622 2.221-.547 4.128.22 5.606a5.547 5.547 0 002.454 2.389c1.785.853 4.398.924 7.589.206.22-.05 11.106-2.87 24.191-6.267C54.93 3.164 65.64.386 65.64.388c.004.003-30.402 12.701-46.186 19.289-2.5 1.043-3.168 1.306-4.343 1.709-3.004 1.03-5.695 1.52-7.87 1.436z" fill="#48455C"/></g><defs><clipPath id="clip0_34_3943"><path fill="#fff" d="M0 0h65.64v22.831H0z"/></clipPath></defs></svg>