<svg width="35" height="23" fill="none" xmlns="http://www.w3.org/2000/svg"><g clip-path="url(#clip0_34_3913)" fill="#48455C"><path d="M22.48 14.975L15.44 2.873 20.498 0l8.756 14.975h-6.773zM3.724 13.28l5.059-2.893 2.677 4.588H4.706l-.982-1.695zm9.928 9.415h1.44v-5.76h-1.44v5.76zm18.043.135c-1.61 0-2.578-.821-2.63-1.98h1.518c0 .363.229.893 1.21.913.655 0 .962-.382.962-.667-.039-.453-.615-.491-1.23-.588-.615-.098-1.139-.208-1.518-.402-.484-.246-.812-.776-.812-1.385 0-1.029.904-1.844 2.409-1.844 1.46 0 2.382.757 2.48 1.883h-1.466c-.013-.304-.072-.783-.936-.783-.582 0-.968.117-1.001.518 0 .589 1.21.55 2.153.796.903.226 1.48.783 1.48 1.56 0 1.43-1.172 1.98-2.619 1.98zM9.653 8.14l5.06-2.886 5.673 9.72h-5.294v1.424h-1.44v-1.43L9.653 8.14z"/><path fill-rule="evenodd" clip-rule="evenodd" d="M9.784 22.831c-1.675 0-3.036-1.353-3.036-2.99 0-1.657 1.36-2.964 3.036-2.964.635 0 1.21.169 1.715.512v-2.414h1.44v7.72h-1.44v-.382a3.141 3.141 0 01-1.715.518zm-1.656-2.99c0 .893.773 1.637 1.695 1.637.904 0 1.676-.744 1.676-1.637s-.772-1.657-1.676-1.657c-.922 0-1.695.764-1.695 1.657zm12.298-4.866h1.42v7.72h-1.42v-.382a3.11 3.11 0 01-1.735.518c-1.655 0-3.017-1.353-3.017-2.99 0-1.657 1.362-2.964 3.017-2.964.655 0 1.23.169 1.735.512v-2.414zm-3.351 4.866c0 .893.772 1.637 1.656 1.637.922 0 1.695-.744 1.695-1.637s-.773-1.657-1.695-1.657c-.884 0-1.656.764-1.656 1.657zm8.272 2.989c-1.65 0-3.017-1.352-3.017-2.99 0-1.656 1.368-2.963 3.017-2.963.635 0 1.23.168 1.715.511v-.46h1.44v5.767h-1.44v-.382a3.044 3.044 0 01-1.715.518zm-1.616-2.99c0 .894.772 1.638 1.675 1.638s1.656-.744 1.656-1.637-.753-1.657-1.656-1.657c-.903 0-1.675.764-1.675 1.657zm-22.278 0c0 .894.773 1.638 1.676 1.638.922 0 1.695-.744 1.695-1.637s-.773-1.657-1.695-1.657c-.903 0-1.676.764-1.676 1.657zm1.636 2.99c-1.655 0-3.023-1.352-3.023-2.99 0-1.656 1.368-2.963 3.023-2.963.635 0 1.23.168 1.735.511v-.46h1.42v5.767h-1.42v-.382a3.108 3.108 0 01-1.735.518z"/></g><defs><clipPath id="clip0_34_3913"><path fill="#fff" transform="translate(.066)" d="M0 0h34.247v22.831H0z"/></clipPath></defs></svg>